G04 ================== begin FILE IDENTIFICATION RECORD ==================*
G04 Layout Name:  kupl_t_0825.brd*
G04 Film Name:    01_TOP*
G04 File Format:  Gerber RS274X*
G04 File Origin:  Cadence Allegro 16.6-P004*
G04 Origin Date:  Thu Aug 25 13:11:53 2022*
G04 *
G04 Layer:  VIA CLASS/TOP*
G04 Layer:  PIN/TOP*
G04 Layer:  ETCH/TOP*
G04 Layer:  BOARD GEOMETRY/OUTLINE*
G04 *
G04 Offset:    (0.0000 0.0000)*
G04 Mirror:    No*
G04 Mode:      Positive*
G04 Rotation:  0*
G04 FullContactRelief:  No*
G04 UndefLineWidth:     0.0152*
G04 ================== end FILE IDENTIFICATION RECORD ====================*
%FSLAX25Y25*MOMM*%
%IR0*IPPOS*OFA0.00000B0.00000*MIA0B0*SFA1.00000B1.00000*%
%ADD12C,.508*%
%ADD11R,.8001X.8001*%
%ADD43C,.6096*%
%ADD32R,2.3X.6599*%
%ADD40R,.5999X1.05*%
%ADD10R,.5499X.5499*%
%ADD29O,1.5494X.3988*%
%ADD34R,1.X1.2*%
%ADD33R,1.X1.05*%
%ADD18O,3.5001X1.5001*%
%ADD16O,1.5001X3.7*%
%ADD21C,1.0201*%
%ADD22R,1.27X1.143*%
%ADD30R,1.75X2.5*%
%ADD23R,1.143X1.27*%
%ADD44C,1.5001*%
%ADD45C,2.3012*%
%ADD19C,1.016*%
%ADD20C,9.*%
%ADD37C,.0001*%
%ADD28C,1.4501*%
%ADD14C,1.524*%
%ADD27R,2.05X2.05*%
%ADD15R,1.5001X1.5001*%
%ADD35C,1.8009*%
%ADD31R,1.524X1.524*%
%ADD26R,.3X.8499*%
%ADD13R,3.1699X1.27*%
%ADD25R,.8499X.3*%
%ADD42R,1.7272X1.7272*%
%ADD38R,1.8001X1.1999*%
%ADD36C,3.1999*%
%ADD17R,.5999X.8001*%
%ADD24C,2.5999*%
%ADD41R,.7874X.2794*%
%ADD39R,.2794X.7874*%
%ADD46C,.1143*%
%ADD47C,.254*%
%ADD48C,.1524*%
%ADD49C,.381*%
%ADD50C,.3048*%
%ADD51C,.0152*%
G75*
%LPD*%
G75*
G36*
G01X2060000Y9423000D02*
X2086000Y9397000D01*
Y9229000D01*
X2027000Y9170000D01*
X507000D01*
X419000Y9082000D01*
Y8369000D01*
X535000Y8253000D01*
Y6481000D01*
X58000D01*
Y9423000D01*
X57500Y9423500D01*
Y10376000D01*
X986000D01*
X1045000Y10317000D01*
Y10219000D01*
X944000Y10118000D01*
X601000D01*
X449000Y9966000D01*
Y9450000D01*
X476000Y9423000D01*
X2060000D01*
G37*
G36*
G01X634050Y9478950D02*
X567000Y9546000D01*
Y9887000D01*
X683000Y10003000D01*
X1005000D01*
X1171000Y10169000D01*
Y10403750D01*
X1174750D01*
X1274730Y10503730D01*
X2205210D01*
X2212680Y10511200D01*
X2424680D01*
X2426440Y10509440D01*
Y10363760D01*
X2421510Y10358830D01*
X2200260D01*
X1960070Y10118640D01*
Y9998190D01*
X1940760Y9978880D01*
Y9961810D01*
X1940770Y9961800D01*
Y9806820D01*
X1940570Y9806620D01*
Y9767270D01*
X2072990Y9634850D01*
Y9502180D01*
X2068270Y9497460D01*
X1530260D01*
X1520170Y9487370D01*
X1515310D01*
Y9482510D01*
X1511750Y9478950D01*
X634050D01*
G37*
G36*
G01X2033000Y9735000D02*
X2014000Y9754000D01*
Y9938000D01*
X1994000Y9958000D01*
Y10056500D01*
X2000000Y10062500D01*
X2212500D01*
X2228000Y10047000D01*
Y10001000D01*
X2237040Y9991960D01*
Y9991520D01*
X2237480D01*
X2263000Y9966000D01*
Y9755000D01*
X2243000Y9735000D01*
X2033000D01*
G37*
G36*
G01X1456000Y10891000D02*
X1471000Y10906000D01*
X2320000D01*
X2346000Y10880000D01*
Y10816000D01*
X2426000Y10736000D01*
Y10528000D01*
X2240000D01*
X2188000Y10580000D01*
X1456000D01*
Y10891000D01*
G37*
G36*
G01X3011000Y10286000D02*
X2819000Y10478000D01*
X2686000D01*
X2680000Y10484000D01*
Y10559000D01*
X2778000D01*
X2782110Y10563110D01*
X2785860D01*
Y10566860D01*
X3007000Y10788000D01*
X3135000D01*
X3168000Y10755000D01*
Y10322000D01*
X3132000Y10286000D01*
X3011000D01*
G37*
G36*
G01X3426470Y108020D02*
G02X3478220Y167570I97335J-32325D01*
G01X3420720Y219460D01*
X3363220Y167570D01*
G02X3414970Y108020I-45585J-91875D01*
G03X3426470I5750J5000D01*
G37*
G36*
G01X3439000Y10829000D02*
Y10933000D01*
X3449000Y10943000D01*
X3450000D01*
X3472000Y10965000D01*
X4396000D01*
X4430000Y10931000D01*
Y10820000D01*
X4402000Y10792000D01*
X3476000D01*
X3439000Y10829000D01*
G37*
G36*
G01X3394000Y10720000D02*
X4483000D01*
Y10601000D01*
X4270000D01*
X4241000Y10572000D01*
Y10462000D01*
X4203000Y10424000D01*
X3814000D01*
X3806000Y10416000D01*
X3394000D01*
Y10720000D01*
G37*
G36*
G01X4111940Y223730D02*
G02X4003720Y292560I28640J164522D01*
G01X3926820Y217550D01*
X4003720Y142540D01*
G02X4111940Y211370I136860J-95692D01*
G03Y223730I-4460J6180D01*
G37*
G36*
G01X4122820Y478660D02*
G02X3956030Y542670I-6572J232181D01*
G01X3926820Y471550D01*
X3956030Y400430D01*
G02X4122820Y464440I160218J-168171D01*
G03Y478660I-2730J7110D01*
G37*
G36*
G01X4128700Y9042030D02*
G02X3990500Y8991710I-129487J140688D01*
G01X4015210Y8918770D01*
X4088150Y8894060D01*
G02X4138470Y9032260I191008J8713D01*
G03X4128700Y9042030I-7160J2610D01*
G37*
G36*
G01X4009440Y9368220D02*
G02X3945430Y9201430I-232181J-6572D01*
G01X4016550Y9172220D01*
X4087670Y9201430D01*
G02X4023660Y9368220I168171J160218D01*
G03X4009440I-7110J-2730D01*
G37*
G36*
G01X3756370Y9360370D02*
G02X3686350Y9250320I-167257J29118D01*
G01X3762550Y9172220D01*
X3838750Y9250320D01*
G02X3768730Y9360370I97237J139168D01*
G03X3756370I-6180J-4460D01*
G37*
G36*
G01X3704000Y10116000D02*
X3659000Y10161000D01*
Y10366000D01*
X3666000Y10373000D01*
X3842000D01*
X3858000Y10357000D01*
X4218000D01*
X4234880Y10340120D01*
Y10191210D01*
X4235000Y10191090D01*
Y10153000D01*
X4198000Y10116000D01*
X3704000D01*
G37*
G36*
G01X4819090Y793710D02*
G02X4879070Y901920I159868J-17886D01*
G01X4812430Y940760D01*
X4745790Y901920D01*
G02X4805770Y793710I-99888J-126096D01*
G03X4819090I6660J3690D01*
G37*
G36*
G01X4846000Y8604000D02*
X4501000D01*
Y8845000D01*
X4846000D01*
Y8604000D01*
G37*
G36*
G01X5071000Y8083000D02*
X5000000Y8154000D01*
X4757000D01*
X4687000Y8084000D01*
X4612000D01*
X4610000Y8086000D01*
Y8370000D01*
X4529000Y8451000D01*
Y8565880D01*
X4648120D01*
X4686000Y8528000D01*
Y8312000D01*
X4755000Y8243000D01*
X5079000D01*
X5082000Y8246000D01*
X5152000Y8176000D01*
Y8083000D01*
X5071000D01*
G37*
G36*
G01X4279120Y10556210D02*
X4285790Y10562880D01*
X4504120D01*
X4507000Y10560000D01*
Y10207000D01*
X4472000Y10172000D01*
X4308000D01*
X4273000Y10207000D01*
Y10440090D01*
X4279120Y10446210D01*
Y10556210D01*
G37*
G36*
G01X5679000Y388000D02*
X5327000D01*
X5301000Y414000D01*
Y697000D01*
X5312000Y708000D01*
X5900000D01*
X5901000Y707000D01*
Y551000D01*
X5839000Y489000D01*
X5780000D01*
X5679000Y388000D01*
G37*
G36*
G01X5705000Y728000D02*
X5669260Y763740D01*
Y767320D01*
X5665680D01*
X5656000Y777000D01*
X5315000D01*
X5299000Y793000D01*
Y1075000D01*
X5330000Y1106000D01*
X5804000D01*
X5821000Y1089000D01*
Y1021000D01*
X5901000Y941000D01*
Y728000D01*
X5705000D01*
G37*
G36*
G01X6628000Y609000D02*
X6345000D01*
X6277000Y677000D01*
X6160000D01*
Y759000D01*
X6265000D01*
X6377000Y871000D01*
X6628000D01*
X6639000Y860000D01*
Y620000D01*
X6628000Y609000D01*
G37*
G36*
G01X6319340Y1627680D02*
G02X6189980Y1600170I-97695J141492D01*
G01X6204350Y1524440D01*
X6279860Y1508320D01*
G02X6327890Y1617150I154580J-3207D01*
G03X6319340Y1627680I-6970J3077D01*
G37*
G36*
G01X6109330Y1613110D02*
G02X6131300Y1509810I-113056J-78031D01*
G01X6207170Y1524300D01*
X6221660Y1600170D01*
G02X6118360Y1622140I-25269J135026D01*
G03X6109330Y1613110I-1580J-7450D01*
G37*
G36*
G01X6317960Y2155560D02*
G02X6179760Y2105240I-129487J140688D01*
G01X6204470Y2032300D01*
X6277410Y2007590D01*
G02X6327730Y2145790I191008J8713D01*
G03X6317960Y2155560I-7160J2610D01*
G37*
G36*
G01X6327730Y1921510D02*
G02X6277410Y2059710I140688J129487D01*
G01X6204470Y2035000D01*
X6179760Y1962060D01*
G02X6317960Y1911740I8713J-191008D01*
G03X6327730Y1921510I2610J7160D01*
G37*
G36*
G01X6622100Y2714240D02*
G02X6424050Y2608920I-225373J184933D01*
G01X6458470Y2540300D01*
X6527090Y2505880D01*
G02X6632410Y2703930I290253J-27323D01*
G03X6622100Y2714240I-6730J3580D01*
G37*
G36*
G01X6317960Y2663560D02*
G02X6179760Y2613240I-129487J140688D01*
G01X6204470Y2540300D01*
X6277410Y2515590D01*
G02X6327730Y2653790I191008J8713D01*
G03X6317960Y2663560I-7160J2610D01*
G37*
G36*
G01X6327730Y2429510D02*
G02X6277410Y2567710I140688J129487D01*
G01X6204470Y2543000D01*
X6179760Y2470060D01*
G02X6317960Y2419740I8713J-191008D01*
G03X6327730Y2429510I2610J7160D01*
G37*
G36*
G01Y2937510D02*
G02X6277410Y3075710I140688J129487D01*
G01X6204470Y3051000D01*
X6179760Y2978060D01*
G02X6317960Y2927740I8713J-191008D01*
G03X6327730Y2937510I2610J7160D01*
G37*
G36*
G01X7120000Y991000D02*
Y1253000D01*
X7677000D01*
Y991000D01*
X7120000D01*
G37*
G36*
G01X6869000Y609000D02*
X6856000Y622000D01*
Y912000D01*
X6866000Y922000D01*
X7686000D01*
Y787000D01*
X7723000Y750000D01*
X7736180D01*
Y749030D01*
X7926210D01*
Y750000D01*
X7935000D01*
X7945000Y740000D01*
Y637000D01*
X7932000Y624000D01*
X7329000D01*
X7314000Y609000D01*
X6869000D01*
G37*
G36*
G01X6617630Y2801130D02*
G02X6534820Y2870660I42179J134313D01*
G01X6457920Y2795650D01*
X6534820Y2720640D01*
G02X6617630Y2790170I124989J-64783D01*
G03Y2801130I-5300J5480D01*
G37*
G36*
G01X6757670Y3310860D02*
G02X6534820Y3378660I-30016J301480D01*
G01X6457920Y3303650D01*
X6534820Y3228640D01*
G02X6757670Y3296440I192834J-233680D01*
G03Y3310860I-2460J7210D01*
G37*
G36*
G01X6766400Y3057070D02*
G02X6476960Y3123880I-64522J380847D01*
G01X6457920Y3049650D01*
X6476960Y2975420D01*
G02X6766400Y3042230I224918J-314037D01*
G03Y3057070I-1710J7420D01*
G37*
G36*
G01X7065080Y10386910D02*
G02X7170460Y10437240I113145J-101414D01*
G01X7095830Y10513620D01*
X7031130Y10439600D01*
G02X7058120Y10389000I-47536J-57854D01*
G03X7065080Y10386910I4749J3180D01*
G37*
G36*
G01X7081840Y10360900D02*
G02X7138210Y10288260I-58956J-103943D01*
G01X7198840Y10333870D01*
X7169590Y10403870D01*
G02X7084230Y10369710I-83665J85334D01*
G03X7081840Y10360900I2122J-5305D01*
G37*
G36*
G01X7320000Y577000D02*
X7339000Y558000D01*
X7702000D01*
Y298000D01*
X7667000Y263000D01*
X7256000D01*
X7216000Y303000D01*
Y577000D01*
X7320000D01*
G37*
G36*
G01X7926210Y769000D02*
Y769080D01*
X7741000D01*
Y1166000D01*
X8037000D01*
Y769000D01*
X7926210D01*
G37*
G36*
G01X7484770Y1494290D02*
G02X7421480Y1557610I44615J107884D01*
G01X7344580Y1489380D01*
X7421480Y1421150D01*
G02X7484770Y1484470I107905J-44564D01*
G03Y1494290I-5830J4910D01*
G37*
G36*
G01X7398920Y10618790D02*
G02X7278770Y10584330I-101445J127014D01*
G01X7298430Y10511230D01*
X7371530Y10491570D01*
G02X7405990Y10611720I161474J18705D01*
G03X7398920Y10618790I-5490J1580D01*
G37*
G36*
G01X7559000Y10231190D02*
G02X7609000Y10281210I85037J-35003D01*
G01X7606110Y10335510D01*
X7554960Y10283740D01*
Y10235230D01*
X7559000Y10231190D01*
G37*
G36*
G01X7362990Y10196720D02*
G02X7447460Y10281210I143662J-59158D01*
G01X7401880Y10335600D01*
X7347260Y10284840D01*
G02X7353250Y10200360I-98419J-49431D01*
G03X7362990Y10196720I5700J401D01*
G37*
G36*
G01X7450170Y10453240D02*
G02X7487460I18645J-44735D01*
G01X7504470Y10513250D01*
X7444460Y10496240D01*
G02Y10458950I-44735J-18645D01*
G03X7450170Y10453240I5710J0D01*
G37*
G36*
G01X7714430Y10268740D02*
G02X7779180Y10490380I298349J33118D01*
G01X7707430Y10513670D01*
X7635720Y10490310D01*
G02X7703470Y10268670I-232063J-192111D01*
G03X7714430Y10268740I5470J1666D01*
G37*
G36*
G01X7786710Y10235230D02*
G02X7846190Y10269290I70620J-54360D01*
G01X7809820Y10335620D01*
X7744870Y10296860D01*
G02X7778910Y10237350I-54396J-70605D01*
G03X7786710Y10235230I4960J2840D01*
G37*
G36*
G01X9726970Y9923530D02*
G02X9792920Y10095370I239263J6749D01*
G01X9721820Y10124580D01*
X9650620Y10095510D01*
G02X9712690Y9923670I-175149J-160395D01*
G03X9726970Y9923530I7166J2590D01*
G37*
G36*
G01X9475010Y9824840D02*
G02X9542800Y10047680I301525J30004D01*
G01X9467800Y10124580D01*
X9392800Y10047680D01*
G02X9460590Y9824840I-233735J-192836D01*
G03X9475010I7210J2450D01*
G37*
G36*
G01X10610000Y3370000D02*
X10637000Y3397000D01*
X10957000D01*
X10974590Y3379410D01*
Y1434000D01*
X10657000D01*
X10610000Y1481000D01*
Y3370000D01*
G37*
G36*
G01X10356760Y7311060D02*
G02X10494960Y7361380I129487J-140688D01*
G01X10470250Y7434320D01*
X10397310Y7459030D01*
G02X10346990Y7320830I-191008J-8713D01*
G03X10356760Y7311060I7160J-2610D01*
G37*
G36*
G01X10336680Y7544690D02*
G02X10499890Y7617370I168832J-159537D01*
G01X10470250Y7688320D01*
X10399300Y7717960D01*
G02X10326620Y7554750I-232217J5622D01*
G03X10336680Y7544690I6960J-3100D01*
G37*
G36*
G01X10257370Y8226940D02*
G02X10509270Y8384360I314861J-223582D01*
G01X10470250Y8450320D01*
X10404290Y8489340D01*
G02X10246870Y8237440I-381002J62961D01*
G03X10257370Y8226940I6460J-4040D01*
G37*
G36*
G01Y9242940D02*
G02X10509270Y9400360I314861J-223582D01*
G01X10470250Y9466320D01*
X10404290Y9505340D01*
G02X10246870Y9253440I-381002J62961D01*
G03X10257370Y9242940I6460J-4040D01*
G37*
G54D10*
X589830Y510510D03*
Y600530D03*
X860070Y510510D03*
Y600530D03*
X1130310Y510510D03*
Y600530D03*
X995190Y510510D03*
Y600530D03*
X1265430Y510510D03*
Y600530D03*
X724950Y510510D03*
Y600530D03*
X852430Y882420D03*
X942450D03*
X852430Y1017540D03*
X942450D03*
X852430Y1287780D03*
X942450D03*
X852430Y1152660D03*
X942450D03*
X852430Y1558020D03*
X942450D03*
X852430Y1963380D03*
X942450D03*
X852430Y1828260D03*
X942450D03*
X852430Y1422900D03*
X942450D03*
X852430Y1693140D03*
X942450D03*
X852430Y2503860D03*
X942450D03*
X852430Y2098500D03*
X942450D03*
X852430Y2368740D03*
X942450D03*
X852430Y2638980D03*
X942450D03*
X852430Y2774100D03*
X942450D03*
X852430Y2233620D03*
X942450D03*
X852430Y3179460D03*
X942450D03*
X852430Y3044340D03*
X942450D03*
X852430Y3314580D03*
X942450D03*
X852430Y3449700D03*
X942450D03*
X852430Y2909220D03*
X942450D03*
X852430Y4125300D03*
X942450D03*
X852430Y3719940D03*
X942450D03*
X852430Y4260420D03*
X942450D03*
X852430Y3855060D03*
X942450D03*
X852430Y3990180D03*
X942450D03*
X852430Y3584820D03*
X942450D03*
X852430Y4665780D03*
X942450D03*
X852430Y4800900D03*
X942450D03*
X852430Y4395540D03*
X942450D03*
X852430Y4936020D03*
X942450D03*
X852430Y4530660D03*
X942450D03*
X852430Y5476500D03*
X942450D03*
X852430Y5071140D03*
X942450D03*
X852430Y5611620D03*
X942450D03*
X852430Y5206260D03*
X942450D03*
X852430Y5746740D03*
X942450D03*
X852430Y5341380D03*
X942450D03*
X1148970Y8183000D03*
Y8092980D03*
X2076150Y510510D03*
Y600530D03*
X1805910Y510510D03*
Y600530D03*
X1400550Y510510D03*
Y600530D03*
X1670790Y510510D03*
Y600530D03*
X1941030Y510510D03*
Y600530D03*
X1535670Y510510D03*
Y600530D03*
X1632850Y3956970D03*
Y4046990D03*
X1744610Y3956970D03*
Y4046990D03*
X1588540Y6348110D03*
X1678560D03*
X1588540Y6483230D03*
X1678560D03*
X1588540Y6753470D03*
X1678560D03*
X1588540Y6618350D03*
X1678560D03*
X1588540Y6888590D03*
X1678560D03*
X1631850Y7878220D03*
X1721870D03*
X1631850Y7607980D03*
X1721870D03*
X1631850Y7743100D03*
X1721870D03*
X1631850Y8013340D03*
X1721870D03*
X1500910Y8909350D03*
X1410890D03*
Y9021110D03*
X1500910D03*
X1426430Y9414220D03*
X1932590Y10025570D03*
X2022610D03*
X1426430Y9504240D03*
X2279800Y10034280D03*
Y10124300D03*
X2660800D03*
Y10034280D03*
X2406800D03*
Y10124300D03*
X2152800D03*
Y10034280D03*
X2533800D03*
Y10124300D03*
X2787800D03*
Y10034280D03*
X2539530Y10849160D03*
X2629550D03*
X2408570D03*
X2318550D03*
X2760510D03*
X3494230Y4100140D03*
Y4190160D03*
X2914800Y10034280D03*
Y10124300D03*
X3041800D03*
Y10034280D03*
X3339150Y9492940D03*
X3249130D03*
X3339150Y9843460D03*
X3249130D03*
X3339150Y9609780D03*
X3249130D03*
Y9726620D03*
X3339150D03*
X2850530Y10849160D03*
X4215260Y408980D03*
Y318960D03*
X3969440Y795120D03*
X3879420D03*
X3969440Y1200480D03*
X3879420D03*
X3969440Y930240D03*
X3879420D03*
X3969440Y1335600D03*
X3879420D03*
X3969440Y1065360D03*
X3879420D03*
X3969440Y1470720D03*
X3879420D03*
X3969440Y1876080D03*
X3879420D03*
X3969440Y1605840D03*
X3879420D03*
X3969440Y1740960D03*
X3879420D03*
X3969440Y2011200D03*
X3879420D03*
X3969440Y2551680D03*
X3879420D03*
X3969440Y2416560D03*
X3879420D03*
X3969440Y2146320D03*
X3879420D03*
X3969440Y2686800D03*
X3879420D03*
X3969440Y2281440D03*
X3879420D03*
X3969440Y2821920D03*
X3879420D03*
X3969440Y3092160D03*
X3879420D03*
X3969440Y2957040D03*
X3879420D03*
X3969440Y3362400D03*
X3879420D03*
X3969440Y3227280D03*
X3879420D03*
X3969440Y3497520D03*
X3879420D03*
X3969440Y4173120D03*
X3879420D03*
X3969440Y4038000D03*
X3879420D03*
X3969440Y3767760D03*
X3879420D03*
X3605990Y4100140D03*
Y4190160D03*
X3969440Y3632640D03*
X3879420D03*
X3969440Y3902880D03*
X3879420D03*
X3969440Y4578480D03*
X3879420D03*
X3969440Y4848720D03*
X3879420D03*
X3969440Y4443360D03*
X3879420D03*
X3969440Y4713600D03*
X3879420D03*
X3969440Y4308240D03*
X3879420D03*
X3969440Y4983840D03*
X3879420D03*
X3969440Y5254080D03*
X3879420D03*
X3969440Y5118960D03*
X3879420D03*
X3969440Y5389200D03*
X3879420D03*
X3969440Y5524320D03*
X3879420D03*
X3969440Y5659440D03*
X3879420D03*
X3871780Y7101520D03*
X3781760D03*
X3871780Y7213280D03*
X3781760D03*
X3872730Y7402950D03*
X3782710D03*
X3872730Y7673190D03*
X3782710D03*
X3872730Y7538070D03*
X3782710D03*
X3872730Y7943430D03*
X3782710D03*
X3872730Y7808310D03*
X3782710D03*
X3872730Y8483910D03*
X3782710D03*
X3872730Y8078550D03*
X3782710D03*
X3872730Y8619030D03*
X3782710D03*
X3872730Y8348790D03*
X3782710D03*
X3872730Y8213670D03*
X3782710D03*
X3769090Y10438780D03*
Y10348760D03*
X5005820Y139310D03*
X4718010Y5263890D03*
X4627990D03*
X4718010Y5375650D03*
X4627990D03*
X4484410Y6162220D03*
Y6252240D03*
X4372650Y6162220D03*
Y6252240D03*
X4890890Y6162220D03*
Y6252240D03*
X4779130Y6162220D03*
Y6252240D03*
X4372650Y6457800D03*
X4890890D03*
X4779130D03*
X4484410D03*
X4890890Y6753380D03*
Y6843400D03*
X4372650Y6547820D03*
X4890890D03*
X4779130D03*
X4372650Y6753380D03*
Y6843400D03*
X4484410Y6753380D03*
Y6843400D03*
X4779130Y6753380D03*
Y6843400D03*
X4484410Y6547820D03*
X4905000Y7976990D03*
Y8067010D03*
X4875010Y8334520D03*
X4784990D03*
X4638010Y8222760D03*
X4547990D03*
X4638010Y8334520D03*
X4547990D03*
X4638010Y8111000D03*
X4547990D03*
X5015010Y8846000D03*
X4924990D03*
X4314690Y9783280D03*
Y9873300D03*
X5627690Y323730D03*
Y233710D03*
X5754690D03*
Y323730D03*
X5095840Y139310D03*
X5057190Y1902010D03*
X5147210D03*
X5184250Y5073090D03*
Y5163110D03*
X5296010Y5073090D03*
Y5163110D03*
Y5664250D03*
Y5754270D03*
X5184250Y5664250D03*
Y5754270D03*
Y5368670D03*
Y5458690D03*
X5296010Y5368670D03*
Y5458690D03*
X5185610Y6457800D03*
Y6162220D03*
Y6252240D03*
X5297370Y6162220D03*
Y6252240D03*
X5592090Y6162220D03*
Y6252240D03*
X5703850Y6162220D03*
Y6252240D03*
X5297370Y6457800D03*
X5592090D03*
X5703850D03*
X5185610Y6547820D03*
X5703850Y6753380D03*
Y6843400D03*
X5592090Y6753380D03*
Y6843400D03*
X5297370Y6547820D03*
X5592090D03*
X5703850D03*
X5297370Y6753380D03*
Y6843400D03*
X5185610Y6753380D03*
Y6843400D03*
X5285990Y8340000D03*
X5376010D03*
X5134480Y8890990D03*
Y8981010D03*
X5229480Y8890990D03*
Y8981010D03*
X6135690Y323730D03*
Y233710D03*
X6389690D03*
Y323730D03*
X5881690Y233710D03*
Y323730D03*
X6008690Y233710D03*
Y323730D03*
X6262690D03*
Y233710D03*
X6014420Y1048590D03*
X6104440D03*
X5883460D03*
X5793440D03*
X6325420D03*
X6235400D03*
X5816470Y1623390D03*
Y1713410D03*
X6334320Y4208670D03*
X6446080D03*
X5930770Y4212300D03*
X6042530D03*
X6334320Y3913090D03*
Y4003110D03*
X6446080Y3913090D03*
Y4003110D03*
X5930770Y3916720D03*
Y4006740D03*
X6042530Y3916720D03*
Y4006740D03*
X6334320Y4298690D03*
X6446080D03*
X5930770Y4302320D03*
X6042530D03*
X6334320Y4504250D03*
Y4594270D03*
X6446080Y4504250D03*
Y4594270D03*
X5930770Y4507880D03*
Y4597900D03*
X6042530Y4507880D03*
Y4597900D03*
X6516690Y323730D03*
Y233710D03*
X7209740Y4210430D03*
X7097980D03*
X6835750Y4296970D03*
Y4206950D03*
X6723990Y4296970D03*
Y4206950D03*
X7209740Y3914850D03*
Y4004870D03*
X7097980Y3914850D03*
Y4004870D03*
X6835750Y3911370D03*
Y4001390D03*
X6723990Y3911370D03*
Y4001390D03*
X7209740Y4300450D03*
X7097980D03*
X7209740Y4506010D03*
Y4596030D03*
X7097980Y4506010D03*
Y4596030D03*
X6835750Y4502530D03*
Y4592550D03*
X6723990Y4502530D03*
Y4592550D03*
X6692700Y5468770D03*
Y5378750D03*
X6804460Y5468770D03*
Y5378750D03*
X6692700Y5083170D03*
Y5173190D03*
X6804460Y5083170D03*
Y5173190D03*
X6692700Y5674330D03*
Y5764350D03*
X6804460Y5674330D03*
Y5764350D03*
X7243980Y548190D03*
Y638210D03*
X7343780Y1708060D03*
X7433800D03*
X7343780Y1843180D03*
X7433800D03*
X7343780Y1978300D03*
X7433800D03*
X7343780Y2653900D03*
X7433800D03*
X7343780Y2518780D03*
X7433800D03*
X7343780Y2113420D03*
X7433800D03*
X7343780Y2248540D03*
X7433800D03*
X7343780Y2383660D03*
X7433800D03*
X7433340Y2949400D03*
X7343320D03*
X7433340Y2837640D03*
X7343320D03*
X7571020Y5961330D03*
Y5871310D03*
X7682780Y5961330D03*
Y5871310D03*
X7499900Y7776740D03*
X7589920D03*
X7499900Y7911860D03*
X7589920D03*
X7499900Y8046980D03*
X7589920D03*
X7499900Y8317220D03*
X7589920D03*
X7499900Y8182100D03*
X7589920D03*
X9236360Y751630D03*
Y841650D03*
X9474490Y842430D03*
X9564510D03*
X9954570Y1542500D03*
Y1632520D03*
X9634800Y7787000D03*
X9544780D03*
X9634800Y7922120D03*
X9544780D03*
X9634800Y8327480D03*
X9544780D03*
X9634800Y8192360D03*
X9544780D03*
X9634800Y8057240D03*
X9544780D03*
X9809880Y9899300D03*
X9719860D03*
X10724070Y775950D03*
Y865970D03*
X10588950Y775950D03*
Y865970D03*
X10434320Y3665380D03*
X10344300D03*
X10434320Y3935620D03*
X10344300D03*
X10434320Y4070740D03*
X10344300D03*
X10434320Y4205860D03*
X10344300D03*
X10434320Y3800500D03*
X10344300D03*
X10434320Y4476100D03*
X10344300D03*
X10434320Y4340980D03*
X10344300D03*
X10434320Y4881460D03*
X10344300D03*
X10434320Y4746340D03*
X10344300D03*
X10434320Y4611220D03*
X10344300D03*
G54D20*
X2619980Y699790D03*
Y9169830D03*
X8559980Y829790D03*
Y9299830D03*
G54D11*
X589830Y156820D03*
Y306680D03*
X498740Y1287790D03*
Y882420D03*
Y1152670D03*
Y1017550D03*
X498750Y1828270D03*
X498740Y1422910D03*
Y1693140D03*
Y2098520D03*
Y1558030D03*
Y1963380D03*
Y2368750D03*
Y2638990D03*
Y2774110D03*
Y2233630D03*
X498750Y2503870D03*
X498740Y2909230D03*
Y3179470D03*
Y3044350D03*
Y3314590D03*
Y3449710D03*
Y3584830D03*
Y3990190D03*
Y4125310D03*
Y3719950D03*
Y4260430D03*
X498750Y3855070D03*
X498740Y4936030D03*
X498750Y4530670D03*
X498740Y4665800D03*
Y4800910D03*
Y4395540D03*
Y5476510D03*
Y5071140D03*
X498750Y5611620D03*
X498740Y5206270D03*
Y5746740D03*
Y5341390D03*
X1130310Y156820D03*
Y306680D03*
X724950Y156820D03*
Y306680D03*
X995190Y156820D03*
Y306680D03*
X1265430Y156830D03*
Y306690D03*
X860070Y156820D03*
Y306680D03*
X648600Y1287790D03*
Y882420D03*
Y1152670D03*
Y1017550D03*
X648610Y1828270D03*
X648600Y1422910D03*
Y1693140D03*
Y2098520D03*
Y1558030D03*
Y1963380D03*
Y2368750D03*
Y2638990D03*
Y2774110D03*
Y2233630D03*
X648610Y2503870D03*
X648600Y2909230D03*
Y3179470D03*
Y3044350D03*
Y3314590D03*
Y3449710D03*
Y3584830D03*
Y3990190D03*
Y4125310D03*
Y3719950D03*
Y4260430D03*
X648610Y3855070D03*
X648600Y4936030D03*
X648610Y4530670D03*
X648600Y4665800D03*
Y4800910D03*
Y4395540D03*
Y5476510D03*
Y5071140D03*
X648610Y5611620D03*
X648600Y5206270D03*
Y5746740D03*
Y5341390D03*
X1234850Y6348110D03*
Y6483230D03*
Y6753470D03*
Y6888590D03*
Y6618350D03*
X1278160Y7743100D03*
Y7878220D03*
Y7607980D03*
Y8013340D03*
X1057200Y9021110D03*
X1207060D03*
X2076150Y156820D03*
Y306680D03*
X1941030Y156820D03*
Y306680D03*
X1535670Y156820D03*
Y306680D03*
X1805910Y156820D03*
Y306680D03*
X1400550Y156820D03*
Y306680D03*
X1670790Y156820D03*
Y306680D03*
X1384710Y6348110D03*
Y6483230D03*
Y6753470D03*
Y6888590D03*
Y6618350D03*
X1428020Y7743100D03*
Y7878220D03*
Y7607980D03*
Y8013340D03*
X4173270Y1065360D03*
Y795120D03*
X4173260Y1200490D03*
Y930240D03*
Y1335600D03*
X4173270Y1470720D03*
Y1876080D03*
Y1605850D03*
Y1740960D03*
Y2011210D03*
Y2686800D03*
Y2281440D03*
Y2821920D03*
Y2551680D03*
Y2416560D03*
Y2146320D03*
Y3092160D03*
Y2957040D03*
Y3362400D03*
Y3227280D03*
Y3497520D03*
Y4038000D03*
Y3767760D03*
Y4308240D03*
Y3902880D03*
X4173260Y4173120D03*
X4173270Y3632640D03*
Y4983840D03*
Y4578480D03*
Y4848720D03*
Y4443360D03*
Y4713600D03*
Y5659440D03*
Y5389200D03*
X4173260Y5118960D03*
X4173270Y5524320D03*
Y5254080D03*
X4226420Y7808310D03*
X4076560D03*
X4226420Y7402950D03*
X4076560D03*
X4226420Y7673190D03*
X4076560D03*
X4226410Y7538070D03*
X4076550D03*
X4226420Y7943430D03*
X4076560D03*
X4226420Y8483900D03*
X4076560D03*
X4226420Y8619030D03*
X4076560D03*
X4226420Y8348790D03*
X4076560D03*
X4226420Y8213670D03*
X4076560D03*
X4226420Y8078550D03*
X4076560D03*
X4323130Y1065360D03*
Y795120D03*
X4323120Y1200490D03*
Y930240D03*
Y1335600D03*
X4323130Y1470720D03*
Y1876080D03*
Y1605850D03*
Y1740960D03*
Y2011210D03*
Y2686800D03*
Y2281440D03*
Y2821920D03*
Y2551680D03*
Y2416560D03*
Y2146320D03*
Y3092160D03*
Y2957040D03*
Y3362400D03*
Y3227280D03*
Y3497520D03*
Y4038000D03*
Y3767760D03*
Y4308240D03*
Y3902880D03*
X4323120Y4173120D03*
X4323130Y3632640D03*
Y4983840D03*
Y4578480D03*
Y4848720D03*
Y4443360D03*
Y4713600D03*
Y5659440D03*
Y5389200D03*
X4323120Y5118960D03*
X4323130Y5524320D03*
Y5254080D03*
X6990090Y1708060D03*
X7139950D03*
X6990100Y1843180D03*
X7139960D03*
X6990100Y1978300D03*
X7139960D03*
X6990090Y2653900D03*
X7139950D03*
X6990100Y2518780D03*
X7139960D03*
X6990100Y2113420D03*
X7139960D03*
X6990100Y2383660D03*
X7139960D03*
X6990100Y2248540D03*
X7139960D03*
X7146200Y7776730D03*
X7146210Y7911860D03*
X7146200Y8046980D03*
X7146210Y8317220D03*
Y8182100D03*
X7296060Y7776730D03*
X7296070Y7911860D03*
X7296060Y8046980D03*
X7296070Y8317220D03*
Y8182100D03*
X9236360Y397940D03*
Y547800D03*
X9988500Y7787000D03*
X9838640D03*
X9988490Y7922120D03*
X9838630D03*
X9988500Y8327480D03*
X9838640D03*
X9988500Y8192360D03*
X9838640D03*
X9988490Y8057240D03*
X9838630D03*
X10724070Y422260D03*
Y572120D03*
X10588950Y422260D03*
Y572120D03*
X10788010Y3665380D03*
X10638150D03*
X10788010Y3800500D03*
X10638150D03*
X10788020Y4070740D03*
X10638160D03*
X10788010Y4205860D03*
X10638150D03*
X10788020Y3935620D03*
X10638160D03*
X10788010Y4476110D03*
X10638150D03*
X10788010Y4340980D03*
X10638150D03*
X10788020Y4881460D03*
X10638160D03*
X10788010Y4746340D03*
X10638150D03*
X10788010Y4611220D03*
X10638150D03*
G54D30*
X3482940Y10541300D03*
X3058960D03*
X6533850Y740730D03*
X6957830D03*
G54D21*
X2079990Y1489790D03*
Y1669800D03*
Y1849810D03*
Y2029790D03*
X1900000Y1489790D03*
Y1669800D03*
Y1849810D03*
Y2029790D03*
X2079990Y2209800D03*
Y2389790D03*
Y2569800D03*
Y2749810D03*
X1900000Y2209800D03*
Y2389790D03*
Y2569800D03*
Y2749810D03*
X2079990Y2929790D03*
Y3109800D03*
Y3289810D03*
Y3469800D03*
X1900000Y2929790D03*
Y3109800D03*
Y3289810D03*
Y3469800D03*
X2079990Y3649810D03*
Y3829790D03*
Y4009800D03*
Y4189810D03*
X1900000Y3649810D03*
Y3829790D03*
Y4009800D03*
Y4189810D03*
X2079990Y4369810D03*
Y4549820D03*
Y4729830D03*
Y4909810D03*
X1900000Y4369810D03*
Y4549820D03*
Y4729830D03*
Y4909810D03*
X2079990Y5089820D03*
Y5269810D03*
Y5449820D03*
Y5629830D03*
X1900000Y5089820D03*
Y5269810D03*
Y5449820D03*
Y5629830D03*
X2079990Y5809810D03*
Y5989820D03*
Y6169830D03*
Y6349820D03*
X1900000Y5809810D03*
Y5989820D03*
Y6169830D03*
Y6349820D03*
X2079990Y6529830D03*
Y6709810D03*
Y6889820D03*
Y7069830D03*
X1900000Y6529830D03*
Y6709810D03*
Y6889820D03*
Y7069830D03*
X2079990Y7249830D03*
Y7429820D03*
Y7609830D03*
Y7789840D03*
Y7969820D03*
X1900000Y7249830D03*
Y7429820D03*
Y7609830D03*
Y7789840D03*
Y7969820D03*
X2079990Y8149830D03*
Y8329840D03*
Y8509830D03*
X1900000Y8149830D03*
Y8329840D03*
Y8509830D03*
X2800000Y1489790D03*
Y1669800D03*
Y1849810D03*
Y2029790D03*
X2619990Y1489790D03*
Y1669800D03*
Y1849810D03*
Y2029790D03*
X2439980Y1489790D03*
Y1669800D03*
Y1849810D03*
Y2029790D03*
X2260000Y1489790D03*
Y1669800D03*
Y1849810D03*
Y2029790D03*
X2800000Y2209800D03*
Y2389790D03*
Y2569800D03*
Y2749810D03*
X2619990Y2209800D03*
Y2389790D03*
Y2569800D03*
Y2749810D03*
X2439980Y2209800D03*
Y2389790D03*
Y2569800D03*
Y2749810D03*
X2260000Y2209800D03*
Y2389790D03*
Y2569800D03*
Y2749810D03*
X2800000Y2929790D03*
Y3109800D03*
Y3289810D03*
Y3469800D03*
X2619990Y2929790D03*
Y3109800D03*
Y3289810D03*
Y3469800D03*
X2439980Y2929790D03*
Y3109800D03*
Y3289810D03*
Y3469800D03*
X2260000Y2929790D03*
Y3109800D03*
Y3289810D03*
Y3469800D03*
X2800000Y3649810D03*
Y3829790D03*
Y4009800D03*
Y4189810D03*
X2619990Y3649810D03*
Y3829790D03*
Y4009800D03*
Y4189810D03*
X2439980Y3649810D03*
Y3829790D03*
Y4009800D03*
Y4189810D03*
X2260000Y3649810D03*
Y3829790D03*
Y4009800D03*
Y4189810D03*
X2800000Y4369810D03*
Y4549820D03*
Y4729830D03*
Y4909810D03*
X2619990Y4369810D03*
Y4549820D03*
Y4729830D03*
Y4909810D03*
X2439980Y4369810D03*
Y4549820D03*
Y4729830D03*
Y4909810D03*
X2260000Y4369810D03*
Y4549820D03*
Y4729830D03*
Y4909810D03*
X2800000Y5089820D03*
Y5269810D03*
Y5449820D03*
Y5629830D03*
X2619990Y5089820D03*
Y5269810D03*
Y5449820D03*
Y5629830D03*
X2439980Y5089820D03*
Y5269810D03*
Y5449820D03*
Y5629830D03*
X2260000Y5089820D03*
Y5269810D03*
Y5449820D03*
Y5629830D03*
X2800000Y5809810D03*
Y5989820D03*
Y6169830D03*
Y6349820D03*
X2619990Y5809810D03*
Y5989820D03*
Y6169830D03*
Y6349820D03*
X2439980Y5809810D03*
Y5989820D03*
Y6169830D03*
Y6349820D03*
X2260000Y5809810D03*
Y5989820D03*
Y6169830D03*
Y6349820D03*
X2800000Y6529830D03*
Y6709810D03*
Y6889820D03*
Y7069830D03*
X2619990Y6529830D03*
Y6709810D03*
Y6889820D03*
Y7069830D03*
X2439980Y6529830D03*
Y6709810D03*
Y6889820D03*
Y7069830D03*
X2260000Y6529830D03*
Y6709810D03*
Y6889820D03*
Y7069830D03*
X2800000Y7249830D03*
Y7429820D03*
Y7609830D03*
Y7789840D03*
Y7969820D03*
X2619990Y7249830D03*
Y7429820D03*
Y7609830D03*
Y7789840D03*
Y7969820D03*
X2439980Y7249830D03*
Y7429820D03*
Y7609830D03*
Y7789840D03*
Y7969820D03*
X2260000Y7249830D03*
Y7429820D03*
Y7609830D03*
Y7789840D03*
Y7969820D03*
X2800000Y8149830D03*
Y8329840D03*
Y8509830D03*
X2619990Y8149830D03*
Y8329840D03*
Y8509830D03*
X2439980Y8149830D03*
Y8329840D03*
Y8509830D03*
X2260000Y8149830D03*
Y8329840D03*
Y8509830D03*
X3339980Y1489790D03*
Y1669800D03*
Y1849810D03*
Y2029790D03*
X3159990Y1489790D03*
Y1669800D03*
Y1849810D03*
Y2029790D03*
X2979980Y1489790D03*
Y1669800D03*
Y1849810D03*
Y2029790D03*
X3339980Y2209800D03*
Y2389790D03*
Y2569800D03*
Y2749810D03*
X3159990Y2209800D03*
Y2389790D03*
Y2569800D03*
Y2749810D03*
X2979980Y2209800D03*
Y2389790D03*
Y2569800D03*
Y2749810D03*
X3339980Y2929790D03*
Y3109800D03*
Y3289810D03*
Y3469800D03*
X3159990Y2929790D03*
Y3109800D03*
Y3289810D03*
Y3469800D03*
X2979980Y2929790D03*
Y3109800D03*
Y3289810D03*
Y3469800D03*
X3339980Y3649810D03*
Y3829790D03*
Y4009800D03*
Y4189810D03*
X3159990Y3649810D03*
Y3829790D03*
Y4009800D03*
Y4189810D03*
X2979980Y3649810D03*
Y3829790D03*
Y4009800D03*
Y4189810D03*
X3339980Y4369810D03*
Y4549820D03*
Y4729830D03*
Y4909810D03*
X3159990Y4369810D03*
Y4549820D03*
Y4729830D03*
Y4909810D03*
X2979980Y4369810D03*
Y4549820D03*
Y4729830D03*
Y4909810D03*
X3339980Y5089820D03*
Y5269810D03*
Y5449820D03*
Y5629830D03*
X3159990Y5089820D03*
Y5269810D03*
Y5449820D03*
Y5629830D03*
X2979980Y5089820D03*
Y5269810D03*
Y5449820D03*
Y5629830D03*
X3339980Y5809810D03*
Y5989820D03*
Y6169830D03*
Y6349820D03*
X3159990Y5809810D03*
Y5989820D03*
Y6169830D03*
Y6349820D03*
X2979980Y5809810D03*
Y5989820D03*
Y6169830D03*
Y6349820D03*
X3339980Y6529830D03*
Y6709810D03*
Y6889820D03*
Y7069830D03*
X3159990Y6529830D03*
Y6709810D03*
Y6889820D03*
Y7069830D03*
X2979980Y6529830D03*
Y6709810D03*
Y6889820D03*
Y7069830D03*
X3339980Y7249830D03*
Y7429820D03*
Y7609830D03*
Y7789840D03*
Y7969820D03*
X3159990Y7249830D03*
Y7429820D03*
Y7609830D03*
Y7789840D03*
Y7969820D03*
X2979980Y7249830D03*
Y7429820D03*
Y7609830D03*
Y7789840D03*
Y7969820D03*
X3339980Y8149830D03*
Y8329840D03*
Y8509830D03*
X3159990Y8149830D03*
Y8329840D03*
Y8509830D03*
X2979980Y8149830D03*
Y8329840D03*
Y8509830D03*
X7839980Y2029800D03*
Y1849790D03*
Y1669780D03*
Y1489790D03*
Y2749790D03*
Y2569800D03*
Y2389790D03*
Y2209780D03*
Y3469790D03*
Y3289810D03*
Y3109800D03*
Y2929790D03*
Y4189810D03*
Y4009800D03*
Y3829790D03*
Y3649800D03*
Y4909800D03*
Y4729810D03*
Y4549800D03*
Y4369790D03*
Y5629810D03*
Y5449800D03*
Y5269790D03*
Y5089810D03*
Y6349810D03*
Y6169830D03*
Y5989820D03*
Y5809810D03*
Y7069830D03*
Y6889820D03*
Y6709810D03*
Y6529820D03*
Y7969830D03*
Y7789820D03*
Y7609830D03*
Y7429820D03*
Y7249810D03*
Y8509830D03*
Y8329820D03*
Y8149810D03*
X8019970Y2029800D03*
Y1849790D03*
Y1669780D03*
Y1489790D03*
X8199980Y2029800D03*
Y1849790D03*
Y1669780D03*
Y1489790D03*
X8379960Y2029800D03*
Y1849790D03*
Y1669780D03*
Y1489790D03*
X8559970Y2029800D03*
Y1849790D03*
Y1669780D03*
Y1489790D03*
X8019970Y2749790D03*
Y2569800D03*
Y2389790D03*
Y2209780D03*
X8199980Y2749790D03*
Y2569800D03*
Y2389790D03*
Y2209780D03*
X8379960Y2749790D03*
Y2569800D03*
Y2389790D03*
Y2209780D03*
X8559970Y2749790D03*
Y2569800D03*
Y2389790D03*
Y2209780D03*
X8019970Y3469790D03*
Y3289810D03*
Y3109800D03*
Y2929790D03*
X8199980Y3469790D03*
Y3289810D03*
Y3109800D03*
Y2929790D03*
X8379960Y3469790D03*
Y3289810D03*
Y3109800D03*
Y2929790D03*
X8559970Y3469790D03*
Y3289810D03*
Y3109800D03*
Y2929790D03*
X8019970Y4189810D03*
Y4009800D03*
Y3829790D03*
Y3649800D03*
X8199980Y4189810D03*
Y4009800D03*
Y3829790D03*
Y3649800D03*
X8379960Y4189810D03*
Y4009800D03*
Y3829790D03*
Y3649800D03*
X8559970Y4189810D03*
Y4009800D03*
Y3829790D03*
Y3649800D03*
X8019970Y4909800D03*
Y4729810D03*
Y4549800D03*
Y4369790D03*
X8199980Y4909800D03*
Y4729810D03*
Y4549800D03*
Y4369790D03*
X8379960Y4909800D03*
Y4729810D03*
Y4549800D03*
Y4369790D03*
X8559970Y4909800D03*
Y4729810D03*
Y4549800D03*
Y4369790D03*
X8019970Y5629810D03*
Y5449800D03*
Y5269790D03*
Y5089810D03*
X8199980Y5629810D03*
Y5449800D03*
Y5269790D03*
Y5089810D03*
X8379960Y5629810D03*
Y5449800D03*
Y5269790D03*
Y5089810D03*
X8559970Y5629810D03*
Y5449800D03*
Y5269790D03*
Y5089810D03*
X8019970Y6349810D03*
Y6169830D03*
Y5989820D03*
Y5809810D03*
X8199980Y6349810D03*
Y6169830D03*
Y5989820D03*
Y5809810D03*
X8379960Y6349810D03*
Y6169830D03*
Y5989820D03*
Y5809810D03*
X8559970Y6349810D03*
Y6169830D03*
Y5989820D03*
Y5809810D03*
X8019970Y7069830D03*
Y6889820D03*
Y6709810D03*
Y6529820D03*
X8199980Y7069830D03*
Y6889820D03*
Y6709810D03*
Y6529820D03*
X8379960Y7069830D03*
Y6889820D03*
Y6709810D03*
Y6529820D03*
X8559970Y7069830D03*
Y6889820D03*
Y6709810D03*
Y6529820D03*
X8019970Y7969830D03*
Y7789820D03*
Y7609830D03*
Y7429820D03*
Y7249810D03*
X8199980Y7969830D03*
Y7789820D03*
Y7609830D03*
Y7429820D03*
Y7249810D03*
X8379960Y7969830D03*
Y7789820D03*
Y7609830D03*
Y7429820D03*
Y7249810D03*
X8559970Y7969830D03*
Y7789820D03*
Y7609830D03*
Y7429820D03*
Y7249810D03*
X8019970Y8509830D03*
Y8329820D03*
Y8149810D03*
X8199980Y8509830D03*
Y8329820D03*
Y8149810D03*
X8379960Y8509830D03*
Y8329820D03*
Y8149810D03*
X8559970Y8509830D03*
Y8329820D03*
Y8149810D03*
X8739980Y2029800D03*
Y1849790D03*
Y1669780D03*
Y1489790D03*
X8919960Y2029800D03*
Y1849790D03*
Y1669780D03*
Y1489790D03*
X9099970Y2029800D03*
Y1849790D03*
Y1669780D03*
Y1489790D03*
X9279960Y2029800D03*
Y1849790D03*
Y1669780D03*
Y1489790D03*
X8739980Y2749790D03*
Y2569800D03*
Y2389790D03*
Y2209780D03*
X8919960Y2749790D03*
Y2569800D03*
Y2389790D03*
Y2209780D03*
X9099970Y2749790D03*
Y2569800D03*
Y2389790D03*
Y2209780D03*
X9279960Y2749790D03*
Y2569800D03*
Y2389790D03*
Y2209780D03*
X8739980Y3469790D03*
Y3289810D03*
Y3109800D03*
Y2929790D03*
X8919960Y3469790D03*
Y3289810D03*
Y3109800D03*
Y2929790D03*
X9099970Y3469790D03*
Y3289810D03*
Y3109800D03*
Y2929790D03*
X9279960Y3469790D03*
Y3289810D03*
Y3109800D03*
Y2929790D03*
X8739980Y4189810D03*
Y4009800D03*
Y3829790D03*
Y3649800D03*
X8919960Y4189810D03*
Y4009800D03*
Y3829790D03*
Y3649800D03*
X9099970Y4189810D03*
Y4009800D03*
Y3829790D03*
Y3649800D03*
X9279960Y4189810D03*
Y4009800D03*
Y3829790D03*
Y3649800D03*
X8739980Y4909800D03*
Y4729810D03*
Y4549800D03*
Y4369790D03*
X8919960Y4909800D03*
Y4729810D03*
Y4549800D03*
Y4369790D03*
X9099970Y4909800D03*
Y4729810D03*
Y4549800D03*
Y4369790D03*
X9279960Y4909800D03*
Y4729810D03*
Y4549800D03*
Y4369790D03*
X8739980Y5629810D03*
Y5449800D03*
Y5269790D03*
Y5089810D03*
X8919960Y5629810D03*
Y5449800D03*
Y5269790D03*
Y5089810D03*
X9099970Y5629810D03*
Y5449800D03*
Y5269790D03*
Y5089810D03*
X9279960Y5629810D03*
Y5449800D03*
Y5269790D03*
Y5089810D03*
X8739980Y6349810D03*
Y6169830D03*
Y5989820D03*
Y5809810D03*
X8919960Y6349810D03*
Y6169830D03*
Y5989820D03*
Y5809810D03*
X9099970Y6349810D03*
Y6169830D03*
Y5989820D03*
Y5809810D03*
X9279960Y6349810D03*
Y6169830D03*
Y5989820D03*
Y5809810D03*
X8739980Y7069830D03*
Y6889820D03*
Y6709810D03*
Y6529820D03*
X8919960Y7069830D03*
Y6889820D03*
Y6709810D03*
Y6529820D03*
X9099970Y7069830D03*
Y6889820D03*
Y6709810D03*
Y6529820D03*
X9279960Y7069830D03*
Y6889820D03*
Y6709810D03*
Y6529820D03*
X8739980Y7969830D03*
Y7789820D03*
Y7609830D03*
Y7429820D03*
Y7249810D03*
X8919960Y7969830D03*
Y7789820D03*
Y7609830D03*
Y7429820D03*
Y7249810D03*
X9099970Y7969830D03*
Y7789820D03*
Y7609830D03*
Y7429820D03*
Y7249810D03*
X9279960Y7969830D03*
Y7789820D03*
Y7609830D03*
Y7429820D03*
Y7249810D03*
X8739980Y8509830D03*
Y8329820D03*
Y8149810D03*
X8919960Y8509830D03*
Y8329820D03*
Y8149810D03*
X9099970Y8509830D03*
Y8329820D03*
Y8149810D03*
X9279960Y8509830D03*
Y8329820D03*
Y8149810D03*
G54D12*
G01X10722900Y7178970D02*
Y7432970D01*
G01D02*
Y7686970D01*
G01Y7940970D02*
Y8194970D01*
G01Y7686970D02*
Y7940970D01*
G01Y8194970D02*
Y8448970D01*
G01D02*
Y8702970D01*
G01Y9210970D02*
Y9464970D01*
G01Y8956970D02*
Y9210970D01*
G01Y8702970D02*
Y8956970D01*
G01X10398860Y10273510D02*
Y9902100D01*
X10722900Y9578060D01*
Y9464970D01*
X589830Y74110D03*
X416030Y1287790D03*
Y1152670D03*
Y1017550D03*
Y882420D03*
X589990Y694820D03*
X416030Y1963380D03*
X416040Y1828270D03*
X416030Y1693140D03*
Y1558030D03*
Y1422910D03*
Y2774110D03*
Y2638990D03*
X416040Y2503870D03*
X416030Y2368750D03*
Y2233630D03*
Y2098520D03*
Y3449710D03*
Y3314590D03*
Y3179470D03*
Y3044350D03*
Y2909230D03*
Y4260430D03*
Y4125310D03*
Y3990190D03*
X416040Y3855070D03*
X416030Y3719950D03*
Y3584830D03*
Y4936030D03*
Y4800910D03*
Y4665800D03*
X416040Y4530670D03*
X416030Y4395540D03*
X416040Y5611620D03*
X416030Y5476510D03*
Y5341390D03*
Y5206270D03*
Y5071140D03*
Y5746740D03*
X995190Y74110D03*
X1130310D03*
X1265430Y74120D03*
X724950Y74110D03*
X860070D03*
X725110Y694820D03*
X1036740Y1287620D03*
Y1422740D03*
Y1963220D03*
Y2098340D03*
Y2638820D03*
Y2773940D03*
Y3314420D03*
Y3449540D03*
Y4125140D03*
Y3990020D03*
Y4800740D03*
Y4665620D03*
X1152140Y6348110D03*
Y6888590D03*
Y6753470D03*
Y6618350D03*
Y6483230D03*
X1195450Y7878220D03*
Y7743100D03*
Y7607980D03*
X1125200Y7814170D03*
X1233420Y8669100D03*
X1148970Y8265710D03*
X1278160Y8096050D03*
X1148970Y7993780D03*
X1113940Y9908450D03*
X1012340D03*
X910740D03*
X809140D03*
X1113940Y9806850D03*
X1012340D03*
X910740D03*
X809140D03*
X1805910Y74110D03*
X1941030D03*
X1400550D03*
X1535670D03*
X1670790D03*
X1600110Y9021110D03*
Y8909350D03*
X1993540Y10856450D03*
X1891940D03*
X1790340D03*
X1688740D03*
X1587140D03*
X1993540Y10754850D03*
X1891940D03*
X1790340D03*
X1688740D03*
X1587140D03*
X2076150Y74110D03*
X2787800Y9951570D03*
X2201140Y9813850D03*
Y9915450D03*
X2173200Y9594170D03*
X2533800Y10207010D03*
X2606140Y10543450D03*
X2504540D03*
X2606140Y10441850D03*
X2504540D03*
X2235840Y10849160D03*
X2095140Y10856450D03*
Y10754850D03*
X2558000Y10764000D03*
X2266000Y10454000D03*
X2406800Y10209800D03*
X3327200Y9388170D03*
X3262200Y9300170D03*
X3041800Y9951570D03*
X3166420Y9843460D03*
Y9492940D03*
X3494450Y10823640D03*
Y10925240D03*
X3785130Y2551840D03*
Y3092320D03*
Y3632800D03*
X3802200Y3823170D03*
X3665000Y7261000D03*
X3565000Y7262000D03*
X3976070Y9741930D03*
X3881200Y9739170D03*
X4170810Y10178310D03*
X4069210D03*
X3967610D03*
X3866010D03*
X3596050Y10823640D03*
X4256200Y10656170D03*
X3596050Y10925240D03*
X4923110Y139310D03*
X4405830Y930240D03*
X4405840Y1065360D03*
X4405830Y1200490D03*
X4405840Y795120D03*
Y1876080D03*
Y2011210D03*
X4405830Y1335600D03*
X4405840Y1470720D03*
Y1605850D03*
Y1740960D03*
Y2686800D03*
Y2146320D03*
Y2281440D03*
Y2416560D03*
Y2551680D03*
Y3497520D03*
Y2821920D03*
Y2957040D03*
Y3092160D03*
Y3227280D03*
Y3362400D03*
Y3632640D03*
Y3767760D03*
Y3902880D03*
Y4038000D03*
X4405830Y4173120D03*
X4405840Y4308240D03*
Y4443360D03*
Y4578480D03*
Y4713600D03*
Y4848720D03*
Y4983840D03*
X4405830Y5118960D03*
X4405840Y5254080D03*
Y5389200D03*
Y5524320D03*
Y5659440D03*
X4842000Y5276360D03*
Y5364420D03*
X4494360Y5275740D03*
Y5363800D03*
X4471620Y6356250D03*
X4383560D03*
X4877620Y6348250D03*
X4789560D03*
X4472620Y6655250D03*
X4384560D03*
X4878620Y6647250D03*
X4790560D03*
X4309130Y7673190D03*
Y7808310D03*
Y7943430D03*
Y7402950D03*
X4309120Y7538070D03*
X5000740Y7783630D03*
Y7695570D03*
X4466990Y8111010D03*
Y8222770D03*
Y8334530D03*
X4309130Y8483900D03*
Y8619030D03*
Y8078550D03*
Y8213670D03*
Y8348790D03*
X4781920Y7977960D03*
Y8066020D03*
X4925000Y8927000D03*
X4786000Y8803000D03*
X4688000Y8805000D03*
X4589000Y8804000D03*
X4314690Y9700570D03*
X4275450Y10826640D03*
X4377050D03*
X4441050Y10406240D03*
X4339450D03*
X4441050Y10304640D03*
X4339450D03*
X4441050Y10203040D03*
X4339450D03*
X4275450Y10928240D03*
X4377050D03*
X5627690Y151000D03*
X5361010Y447310D03*
X5462610D03*
X5564210D03*
X5665810D03*
Y528310D03*
X5564210D03*
X5462610D03*
X5361010D03*
X5179690Y139310D03*
X5347010Y959310D03*
X5448610D03*
X5550210D03*
X5651810D03*
Y1040310D03*
X5550210D03*
X5448610D03*
X5347010D03*
X5246000Y758000D03*
X5229920Y1902010D03*
X5057190Y1989190D03*
X5276200Y1475170D03*
X5197120Y5264590D03*
X5197780Y5561250D03*
X5284020Y5264590D03*
X5285840Y5561250D03*
X5197570Y6347900D03*
X5285630D03*
X5605570Y6352170D03*
X5693630D03*
X5284530Y6081540D03*
X5602950D03*
X5691010D03*
X5196470D03*
X5198570Y6646900D03*
X5286630D03*
X5606570Y6651170D03*
X5694630D03*
X5286510Y6924080D03*
X5198450D03*
X5692990D03*
X5604930D03*
X5553370Y7760740D03*
X5641430D03*
X5375000Y8258000D03*
X5336000Y8504000D03*
X5137950Y9112080D03*
X5226010D03*
X6008690Y406440D03*
X6262690Y151000D03*
X6389690Y160310D03*
X5881690Y396690D03*
X6079140Y643850D03*
Y745450D03*
X5977540Y643850D03*
Y745450D03*
X6014420Y973580D03*
X6347560Y4097250D03*
X6435620D03*
X5941560Y4105250D03*
X6029620D03*
X6433240Y3832410D03*
X6345180D03*
X6029690Y3836040D03*
X5941630D03*
X6348560Y4396250D03*
X6436620D03*
X5942560Y4404250D03*
X6030620D03*
X6435220Y4674950D03*
X5943610Y4678580D03*
X6031670D03*
X6347160Y4674950D03*
X6516690Y151000D03*
X7142200Y702170D03*
X6907390Y1843180D03*
X6900010Y2045520D03*
X6907380Y1708060D03*
X6900000Y2586000D03*
X6900010Y2315760D03*
X7194630Y4103170D03*
X7106570D03*
X6820630Y4099900D03*
X6732570D03*
X7195630Y4402170D03*
X7107570D03*
X6821630Y4398900D03*
X6733570D03*
X6704570Y5573170D03*
X6703570Y5274170D03*
X6792630Y5573170D03*
X6791630Y5274170D03*
X7063500Y7911860D03*
X7063490Y7776730D03*
X7063500Y8317220D03*
Y8182100D03*
X7063490Y8046980D03*
X7631810Y307310D03*
Y388310D03*
X7327010Y307310D03*
X7428610D03*
X7530210D03*
Y388310D03*
X7428610D03*
X7327010D03*
X7244010Y1228310D03*
X7345610D03*
X7447210D03*
X7548810D03*
Y1147310D03*
X7447210D03*
X7345610D03*
X7244010D03*
X7872610Y964310D03*
X7771010D03*
Y1053310D03*
X7872610D03*
Y1134310D03*
X7771010D03*
X7974210Y964310D03*
Y1053310D03*
Y1134310D03*
X9334840Y729550D03*
X9370570Y842430D03*
X9679460D03*
X10013050Y1484020D03*
X9954570Y1739430D03*
X9988500Y7704290D03*
X10014000Y8418000D03*
X9921300Y9899300D03*
X10724070Y339550D03*
X10588950D03*
X10772690Y1475210D03*
X10853690D03*
X10746690Y3343210D03*
X10827690D03*
X10870720Y4205860D03*
X10870730Y4070740D03*
Y3935620D03*
X10870720Y3800500D03*
Y3665380D03*
X10870730Y4881460D03*
X10870720Y4746340D03*
Y4611220D03*
Y4476110D03*
Y4340980D03*
G54D13*
X338350Y7074880D03*
Y6820880D03*
Y6566880D03*
Y7836880D03*
Y7582880D03*
Y7328880D03*
Y8090880D03*
X884350Y7074880D03*
Y6820880D03*
Y6566880D03*
Y7836880D03*
Y7582880D03*
Y7328880D03*
Y8090880D03*
X10229950Y1634420D03*
Y1888420D03*
Y2142420D03*
Y2396420D03*
Y2650420D03*
Y2904420D03*
Y3158420D03*
X10775950Y1634420D03*
Y1888420D03*
Y2142420D03*
Y2396420D03*
Y2650420D03*
Y2904420D03*
Y3158420D03*
G54D31*
X3762560Y8920120D03*
X3762550Y9174120D03*
X4558430Y938860D03*
G54D22*
X1794730Y9365330D03*
X1997930D03*
X1591530D03*
X1794730Y9553130D03*
X1997930D03*
X1591530D03*
X1721910Y10445980D03*
Y10633780D03*
X1523790Y10445980D03*
Y10633780D03*
X1920030Y10445980D03*
Y10633780D03*
X2118150Y10445980D03*
Y10633780D03*
X3730790Y10660050D03*
Y10847850D03*
X3934190Y10487670D03*
Y10299870D03*
X3933990Y10660050D03*
Y10847850D03*
X4137390Y10487670D03*
Y10299870D03*
X4137190Y10660050D03*
Y10847850D03*
X5389840Y645410D03*
Y833210D03*
X5593040Y645410D03*
Y833210D03*
X7205680Y859480D03*
Y1047280D03*
X7409080Y499300D03*
X7612280D03*
X7408880Y859480D03*
Y1047280D03*
X7612080Y859480D03*
Y1047280D03*
X7409080Y687100D03*
X7612280D03*
G54D40*
X5125740Y8503990D03*
Y8664010D03*
G54D50*
G01X565300Y10518500D02*
Y10645500D01*
X641500Y10721700D01*
X768500D01*
X844700Y10645500D01*
Y10518500D01*
X768500Y10442300D01*
X641500D01*
X565300Y10518500D01*
G01X2952300Y207500D02*
Y334500D01*
X3028500Y410700D01*
X3155500D01*
X3231700Y334500D01*
Y207500D01*
X3155500Y131300D01*
X3028500D01*
X2952300Y207500D01*
G01X8818300Y10607500D02*
Y10734500D01*
X8894500Y10810700D01*
X9021500D01*
X9097700Y10734500D01*
Y10607500D01*
X9021500Y10531300D01*
X8894500D01*
X8818300Y10607500D01*
G01X10109300Y189500D02*
Y316500D01*
X10185500Y392700D01*
X10312500D01*
X10388700Y316500D01*
Y189500D01*
X10312500Y113300D01*
X10185500D01*
X10109300Y189500D01*
G54D41*
X5111990Y8097010D03*
Y8046990D03*
Y7997010D03*
Y7946990D03*
X5412010D03*
Y7997010D03*
Y8046990D03*
Y8097010D03*
G54D14*
X297080Y8718780D03*
Y8972780D03*
X3420720Y217550D03*
X3674720Y471550D03*
X3928720D03*
X4270560Y8920120D03*
X4016560D03*
X4270550Y9174120D03*
X4016550D03*
X5066430Y938860D03*
X4812430D03*
X4666260Y1428920D03*
X6205820Y2033650D03*
Y1525650D03*
X6459820Y2033650D03*
Y1525650D03*
X6205820Y2541650D03*
X6459820D03*
X6205820Y3049650D03*
X6459820D03*
X7092490Y1489380D03*
X9467800Y10376680D03*
X9859180Y536960D03*
X10113180D03*
X9721800Y10122680D03*
X10367180Y536960D03*
X10722900Y7178970D03*
Y7686970D03*
X10468900Y7432970D03*
Y7686970D03*
X10722900Y8194970D03*
Y8702970D03*
X10468900Y8448970D03*
X10722900Y9210970D03*
X10468900Y9464970D03*
Y8956970D03*
G54D23*
X1883700Y9865550D03*
X2071500D03*
G54D32*
X5097630Y304410D03*
Y431410D03*
Y558410D03*
X4538630D03*
Y431410D03*
Y304410D03*
X5056980Y1351550D03*
X5097630Y685410D03*
X4538630D03*
X5056980Y1732550D03*
Y1605550D03*
Y1478550D03*
X5615980Y1351550D03*
Y1478550D03*
Y1605550D03*
Y1732550D03*
G54D51*
G01X0Y0D02*
X11000000D01*
Y-500000D01*
X0D01*
Y0D01*
G01Y200000D02*
Y10800000D01*
G02X200000Y11000000I200000J0D01*
G01X10800000D01*
G02X11000000Y10800000I0J-200000D01*
G01Y200000D01*
G02X10800000Y0I-200000J0D01*
G01X200000D01*
G02X0Y200000I0J200000D01*
G01Y11000000D02*
X11000000D01*
Y11500000D01*
X0D01*
Y11000000D01*
G54D24*
X2382970Y462780D03*
Y9406840D03*
X8796990Y592780D03*
Y9536840D03*
G54D42*
X5262000Y8022000D03*
G54D15*
X551080Y8718780D03*
Y8972780D03*
X3420720Y471550D03*
X3674720Y217550D03*
X3928720D03*
X4666260Y1682920D03*
X5171060Y10512240D03*
X6205820Y1779650D03*
X6459820D03*
X6205820Y2795650D03*
Y2287650D03*
X6459820D03*
Y2795650D03*
X6205820Y3303650D03*
X6459820D03*
X7095460Y10512240D03*
X7346490Y1489380D03*
X9467800Y10122680D03*
X9859180Y790960D03*
X10113180D03*
X9721800Y10376680D03*
X10367180Y790960D03*
X10468900Y7178970D03*
X10722900Y7432970D03*
Y7940970D03*
X10468900D03*
X10722900Y8448970D03*
X10468900Y8194970D03*
Y8702970D03*
X10722900Y8956970D03*
Y9464970D03*
X10468900Y9210970D03*
G54D33*
X5013240Y8503990D03*
Y8664010D03*
X5238240Y8503990D03*
Y8664010D03*
G54D25*
X2383130Y10593370D03*
Y10543360D03*
Y10493370D03*
Y10443380D03*
Y10393370D03*
X2728110D03*
Y10443380D03*
Y10493370D03*
Y10543360D03*
Y10593370D03*
X5858020Y592800D03*
X6203000D03*
X5858020Y792800D03*
Y742790D03*
Y692800D03*
Y642810D03*
X6203000D03*
Y692800D03*
Y742790D03*
Y792800D03*
G54D16*
X330010Y9896970D03*
G54D34*
X4786040Y8664010D03*
Y8503990D03*
X4593000Y8664010D03*
Y8503990D03*
G54D43*
X5262000Y8022000D03*
G54D17*
X960710Y8669100D03*
X1150710D03*
X1055710Y8879100D03*
X9417550Y729550D03*
X9512550Y519550D03*
X9607550Y729550D03*
G54D26*
X2480610Y10665860D03*
X2630630D03*
X2480610Y10320880D03*
X2630630D03*
X5955500Y520310D03*
X6105520D03*
X5955500Y865290D03*
X6105520D03*
G54D35*
X4842050Y9852220D03*
X5071030D03*
X6214060D03*
X5985050D03*
X6766450D03*
X6995430D03*
X7909450D03*
X8138460D03*
G54D44*
X5375040Y10512240D03*
X5579060D03*
X5783040D03*
X5273060Y10334240D03*
X5477050D03*
X5681060D03*
X5885050D03*
X7197460D03*
X7809450D03*
X7299440Y10512240D03*
X7503460D03*
X7707440D03*
X7401450Y10334240D03*
X7605460D03*
G54D36*
X4715050Y10423240D03*
X6639450D03*
X6341060D03*
X8265460D03*
G54D27*
X2555620Y10493370D03*
X6030510Y692800D03*
G54D45*
X10144860Y10019510D03*
Y10527510D03*
X10652860Y10019510D03*
X10398860Y10273510D03*
X10652860Y10527510D03*
G54D18*
X790000Y9597000D03*
Y10226920D03*
G54D46*
G01X2619990Y7069830D02*
X2562820D01*
X2545000Y7052010D01*
Y7011000D01*
X2562790Y6993210D01*
X3580690D01*
X3594080Y7006600D01*
Y7013610D01*
X3607470Y7027000D01*
X3626410D01*
X3639800Y7013610D01*
Y7006600D01*
X3653190Y6993210D01*
X3672130D01*
X3685520Y7006600D01*
Y7013610D01*
X3698910Y7027000D01*
X3717850D01*
X3731240Y7013610D01*
Y7006600D01*
X3744630Y6993210D01*
X3763570D01*
X3776960Y7006600D01*
Y7013610D01*
X3790350Y7027000D01*
X3809290D01*
X3822680Y7013610D01*
Y7006600D01*
X3836070Y6993210D01*
X3855010D01*
X3868400Y7006600D01*
Y7013610D01*
X3881790Y7027000D01*
X3900730D01*
X3914120Y7013610D01*
Y7006600D01*
X3927510Y6993210D01*
X3962900D01*
X4000790Y7031100D01*
Y7111900D01*
X3969900Y7142790D01*
X3939740D01*
X3928310Y7131360D01*
Y7112950D01*
X3916880Y7101520D01*
X3871780D01*
G01X2439980Y7069830D02*
X2498160D01*
X2515790Y7052200D01*
Y6998900D01*
X2550690Y6964000D01*
X3975000D01*
X4030000Y7019000D01*
Y7124000D01*
X3982000Y7172000D01*
X3939740D01*
X3928310Y7183430D01*
Y7201850D01*
X3916880Y7213280D01*
X3871780D01*
G01X3781760Y7101520D02*
X3736650D01*
X3725220Y7112950D01*
Y7131360D01*
X3713790Y7142790D01*
X3603410D01*
X3590020Y7129400D01*
Y7127390D01*
X3576630Y7114000D01*
X3557690D01*
X3544300Y7127390D01*
Y7129400D01*
X3530910Y7142790D01*
X3511970D01*
X3498580Y7129400D01*
Y7127390D01*
X3485190Y7114000D01*
X3466250D01*
X3452860Y7127390D01*
Y7129400D01*
X3439470Y7142790D01*
X3281190D01*
X3264400Y7126000D01*
Y7084600D01*
X3279170Y7069830D01*
X3339980D01*
G01X3159990D02*
X3223830D01*
X3235190Y7081190D01*
Y7138100D01*
X3269090Y7172000D01*
X3713790D01*
X3725220Y7183430D01*
Y7201850D01*
X3736650Y7213280D01*
X3781760D01*
G01X7209740Y3914850D02*
Y3869750D01*
X7198310Y3858320D01*
X7179890D01*
X7168460Y3846890D01*
Y3824460D01*
X7132790Y3788790D01*
X7042890D01*
X6998000Y3833680D01*
Y5951680D01*
X6863890Y6085790D01*
X6478790D01*
X6294000Y5901000D01*
X6114370D01*
X6107210Y5893840D01*
Y5886880D01*
X6081330Y5861000D01*
X6016490D01*
X5990790Y5886700D01*
Y5893660D01*
X5983450Y5901000D01*
X5964510D01*
X5951120Y5887610D01*
Y5872500D01*
X5920620Y5842000D01*
X5877480D01*
X5846980Y5872500D01*
Y5887610D01*
X5833590Y5901000D01*
X5814650D01*
X5801260Y5887610D01*
Y5872500D01*
X5770760Y5842000D01*
X5727620D01*
X5697120Y5872500D01*
Y5887610D01*
X5683730Y5901000D01*
X5664790D01*
X5651400Y5887610D01*
Y5872500D01*
X5620900Y5842000D01*
X5577760D01*
X5547260Y5872500D01*
Y5887610D01*
X5533870Y5901000D01*
X5514930D01*
X5501540Y5887610D01*
Y5872500D01*
X5471040Y5842000D01*
X5427900D01*
X5397400Y5872500D01*
Y5887610D01*
X5384010Y5901000D01*
X4312540D01*
X4199000Y6014540D01*
Y6971000D01*
X4260000Y7032000D01*
X4387990D01*
X4443130Y6976860D01*
Y6911370D01*
X4454560Y6899940D01*
X4472980D01*
X4484410Y6888510D01*
Y6843400D01*
G01X7097980Y3914850D02*
Y3869750D01*
X7109410Y3858320D01*
X7127820D01*
X7139250Y3846890D01*
Y3836560D01*
X7120690Y3818000D01*
X7054990D01*
X7027210Y3845780D01*
Y5963780D01*
X6875990Y6115000D01*
X6466690D01*
X6281900Y5930210D01*
X6102270D01*
X6078000Y5905940D01*
Y5898980D01*
X6069230Y5890210D01*
X6028590D01*
X6020000Y5898800D01*
Y5905760D01*
X5995550Y5930210D01*
X5952410D01*
X5921910Y5899710D01*
Y5884600D01*
X5908520Y5871210D01*
X5889580D01*
X5876190Y5884600D01*
Y5899710D01*
X5845690Y5930210D01*
X5802550D01*
X5772050Y5899710D01*
Y5884600D01*
X5758660Y5871210D01*
X5739720D01*
X5726330Y5884600D01*
Y5899710D01*
X5695830Y5930210D01*
X5652690D01*
X5622190Y5899710D01*
Y5884600D01*
X5608800Y5871210D01*
X5589860D01*
X5576470Y5884600D01*
Y5899710D01*
X5545970Y5930210D01*
X5502830D01*
X5472330Y5899710D01*
Y5884600D01*
X5458940Y5871210D01*
X5440000D01*
X5426610Y5884600D01*
Y5899710D01*
X5396110Y5930210D01*
X4324640D01*
X4228210Y6026640D01*
Y6582910D01*
X4241600Y6596300D01*
X4254610D01*
X4268000Y6609690D01*
Y6628630D01*
X4254610Y6642020D01*
X4241600D01*
X4228210Y6655410D01*
Y6674350D01*
X4241600Y6687740D01*
X4254610D01*
X4268000Y6701130D01*
Y6720070D01*
X4254610Y6733460D01*
X4241600D01*
X4228210Y6746850D01*
Y6765790D01*
X4241600Y6779180D01*
X4254610D01*
X4268000Y6792570D01*
Y6811510D01*
X4254610Y6824900D01*
X4241600D01*
X4228210Y6838290D01*
Y6857230D01*
X4241600Y6870620D01*
X4254610D01*
X4268000Y6884010D01*
Y6902950D01*
X4254610Y6916340D01*
X4241600D01*
X4228210Y6929730D01*
Y6958900D01*
X4272100Y7002790D01*
X4375890D01*
X4413920Y6964760D01*
Y6911370D01*
X4402490Y6899940D01*
X4384080D01*
X4372650Y6888510D01*
Y6843400D01*
G01X4718010Y5263890D02*
Y5272010D01*
X4751160Y5305160D01*
X4813200D01*
X4842000Y5276360D01*
G01Y5364420D02*
X4811950Y5334370D01*
X4751630D01*
X4718010Y5367990D01*
Y5375650D01*
G01X4627990Y5263890D02*
Y5271020D01*
X4593850Y5305160D01*
X4523780D01*
X4494360Y5275740D01*
G01Y5363800D02*
X4523790Y5334370D01*
X4593360D01*
X4627990Y5369000D01*
Y5375650D01*
G01X4484410Y6457800D02*
X4477800D01*
X4446300Y6426300D01*
Y6381570D01*
X4471620Y6356250D01*
G01D02*
X4445210Y6329850D01*
Y6283780D01*
X4476750Y6252240D01*
X4484410D01*
G01X4372650Y6457800D02*
X4380210D01*
X4408670Y6429340D01*
Y6381360D01*
X4383560Y6356250D01*
G01D02*
X4416000Y6323810D01*
Y6288000D01*
X4380240Y6252240D01*
X4372650D01*
G01X4890890Y6457800D02*
X4882790D01*
X4849610Y6424620D01*
Y6376260D01*
X4877620Y6348250D01*
G01D02*
X4849610Y6320240D01*
Y6285390D01*
X4882760Y6252240D01*
X4890890D01*
G01X4790240Y6348250D02*
X4820400Y6318090D01*
Y6286400D01*
X4786240Y6252240D01*
X4779130D01*
G01Y6457800D02*
X4787190D01*
X4820400Y6424590D01*
Y6378410D01*
X4790240Y6348250D01*
G01D02*
X4789560D01*
G01X7209740Y4596030D02*
Y4641140D01*
X7198310Y4652570D01*
X7179890D01*
X7168460Y4664000D01*
X7166000Y4689990D01*
Y6091000D01*
X6281000Y6976000D01*
X5978000D01*
X5862000Y6860000D01*
Y6815250D01*
X5892500Y6784750D01*
X6123400D01*
X6136790Y6771360D01*
Y6752420D01*
X6123400Y6739030D01*
X5892500D01*
X5862000Y6708530D01*
Y6665390D01*
X5892500Y6634890D01*
X6123400D01*
X6136790Y6621500D01*
Y6602560D01*
X6123400Y6589170D01*
X5892500D01*
X5862000Y6558670D01*
Y6515530D01*
X5892500Y6485030D01*
X6123400D01*
X6136790Y6471640D01*
Y6452700D01*
X6123400Y6439310D01*
X5892500D01*
X5862000Y6408810D01*
Y6365670D01*
X5892500Y6335170D01*
X6123400D01*
X6136790Y6321780D01*
Y6302840D01*
X6123400Y6289450D01*
X5892500D01*
X5862000Y6258950D01*
Y6215810D01*
X5892500Y6185310D01*
X6123400D01*
X6133790Y6174920D01*
Y6149980D01*
X6123400Y6139590D01*
X5892500D01*
X5862000Y6109090D01*
Y6097320D01*
X5782890Y6018210D01*
X4479110D01*
X4443130Y6054190D01*
Y6094260D01*
X4454560Y6105690D01*
X4472980D01*
X4484410Y6117120D01*
Y6162220D01*
G01X7097980Y4596030D02*
Y4641140D01*
X7109410Y4652570D01*
X7127820D01*
X7139250Y4664000D01*
Y4675430D01*
X7136790Y4677890D01*
Y6078900D01*
X6268900Y6946790D01*
X5990100D01*
X5891210Y6847900D01*
Y6827350D01*
X5904600Y6813960D01*
X6135500D01*
X6166000Y6783460D01*
Y6740320D01*
X6135500Y6709820D01*
X5904600D01*
X5891210Y6696430D01*
Y6677490D01*
X5904600Y6664100D01*
X6135500D01*
X6166000Y6633600D01*
Y6590460D01*
X6135500Y6559960D01*
X5904600D01*
X5891210Y6546570D01*
Y6527630D01*
X5904600Y6514240D01*
X6135500D01*
X6166000Y6483740D01*
Y6440600D01*
X6135500Y6410100D01*
X5904600D01*
X5891210Y6396710D01*
Y6377770D01*
X5904600Y6364380D01*
X6135500D01*
X6166000Y6333880D01*
Y6290740D01*
X6135500Y6260240D01*
X5904600D01*
X5891210Y6246850D01*
Y6227910D01*
X5904600Y6214520D01*
X6135500D01*
X6163000Y6187020D01*
Y6137880D01*
X6135500Y6110380D01*
X5904600D01*
X5891210Y6096990D01*
Y6085220D01*
X5794990Y5989000D01*
X4467010D01*
X4413920Y6042090D01*
Y6094260D01*
X4402490Y6105690D01*
X4384080D01*
X4372650Y6117120D01*
Y6162220D01*
G01X6835750Y4592550D02*
Y4637660D01*
X6824320Y4649090D01*
X6805900D01*
X6794470Y4660520D01*
Y4675470D01*
X6808000Y4689000D01*
X6868680D01*
X6906790Y4650890D01*
Y3723210D01*
X6963210Y3666790D01*
X7286130D01*
X7355000Y3735660D01*
Y6106320D01*
X6252320Y7209000D01*
X5146000D01*
X5030000Y7093000D01*
Y6148320D01*
X4978680Y6097000D01*
X4860900D01*
X4849000Y6108900D01*
Y6120330D01*
X4890890Y6162220D01*
G01X6723990Y4592550D02*
Y4637660D01*
X6735420Y4649090D01*
X6753830D01*
X6765260Y4660520D01*
Y4687570D01*
X6795900Y4718210D01*
X6880780D01*
X6936000Y4662990D01*
Y3735310D01*
X6975310Y3696000D01*
X7274030D01*
X7325790Y3747760D01*
Y6094220D01*
X6240220Y7179790D01*
X5158100D01*
X5059210Y7080900D01*
Y6136220D01*
X4990780Y6067790D01*
X4848800D01*
X4819790Y6096800D01*
Y6121560D01*
X4779130Y6162220D01*
G01X4484410Y6547820D02*
X4445210Y6587020D01*
Y6627840D01*
X4472620Y6655250D01*
G01X4484410Y6753380D02*
X4442000Y6710970D01*
Y6685870D01*
X4472620Y6655250D01*
G01X4372650Y6753380D02*
X4412790Y6713240D01*
Y6683480D01*
X4384560Y6655250D01*
G01X4372650Y6547820D02*
X4416000Y6591170D01*
Y6623810D01*
X4384560Y6655250D01*
G01X4890890Y6753380D02*
X4882370D01*
X4850000Y6721010D01*
Y6675870D01*
X4878620Y6647250D01*
G01X4890890Y6547820D02*
X4883170D01*
X4850000Y6580990D01*
Y6618630D01*
X4878620Y6647250D01*
G01X4779130Y6547820D02*
X4786810D01*
X4820790Y6581800D01*
Y6617020D01*
X4790560Y6647250D01*
G01X4779130Y6753380D02*
X4786610D01*
X4820790Y6719200D01*
Y6677480D01*
X4790560Y6647250D01*
G01X6723990Y3911370D02*
Y3866270D01*
X6735420Y3854840D01*
X6753830D01*
X6765260Y3843410D01*
Y3674750D01*
X6889010Y3551000D01*
X7379990D01*
X7483000Y3654010D01*
Y6193310D01*
X6333310Y7343000D01*
X5072680D01*
X4820400Y7090720D01*
Y6911370D01*
X4808970Y6899940D01*
X4790560D01*
X4779130Y6888510D01*
Y6843400D01*
G01X4890890D02*
Y6888510D01*
X4879460Y6899940D01*
X4861040D01*
X4849610Y6911370D01*
Y7078620D01*
X4887240Y7116250D01*
X4906160D01*
X4921230Y7101170D01*
X4940150D01*
X4953550Y7114570D01*
Y7133510D01*
X4938490Y7148570D01*
Y7167500D01*
X4951900Y7180910D01*
X4970820D01*
X4985890Y7165830D01*
X5004810D01*
X5018210Y7179230D01*
Y7198170D01*
X5003150Y7213230D01*
Y7232160D01*
X5016560Y7245570D01*
X5035480D01*
X5050550Y7230490D01*
X5069470D01*
X5082870Y7243890D01*
Y7262830D01*
X5067810Y7277890D01*
Y7296820D01*
X5084780Y7313790D01*
X6321210D01*
X7453790Y6181210D01*
Y3666110D01*
X7367890Y3580210D01*
X6901110D01*
X6794470Y3686850D01*
Y3843410D01*
X6805900Y3854840D01*
X6824320D01*
X6835750Y3866270D01*
Y3911370D01*
G01X4781920Y7977960D02*
X4811340Y8007380D01*
X4813090D01*
X4813100Y8007390D01*
X4829480D01*
X4859880Y7976990D01*
X4905000D01*
G01X5111990Y7997010D02*
X5053960D01*
X5043580Y8007390D01*
X4942400D01*
X4912000Y7976990D01*
X4905000D01*
G01X4781920Y8066020D02*
X4811340Y8036600D01*
X4829480D01*
X4859890Y8067010D01*
X4905000D01*
G01D02*
X4911000D01*
X4941410Y8036600D01*
X5043580D01*
X5053970Y8046990D01*
X5111990D01*
G01X6804460Y5764350D02*
Y5809460D01*
X6793030Y5820890D01*
X6774610D01*
X6763180Y5832320D01*
Y5861830D01*
X6729800Y5895210D01*
X6631210D01*
X6565000Y5829000D01*
Y5035310D01*
X6449900Y4920210D01*
X5322100D01*
X5254730Y4987580D01*
Y5005130D01*
X5266160Y5016560D01*
X5284580D01*
X5296010Y5027990D01*
Y5073090D01*
G01X6692700Y5764350D02*
Y5809460D01*
X6704130Y5820890D01*
X6722540D01*
X6733970Y5832320D01*
Y5849730D01*
X6717700Y5866000D01*
X6643310D01*
X6594210Y5816900D01*
Y5023210D01*
X6462000Y4891000D01*
X5310000D01*
X5225520Y4975480D01*
Y5005130D01*
X5214090Y5016560D01*
X5195680D01*
X5184250Y5027990D01*
Y5073090D01*
G01X6692700Y5083170D02*
X6734000Y5041870D01*
Y5001310D01*
X6722490Y4989800D01*
X6703550D01*
X6692150Y5001200D01*
X6673210D01*
X6659820Y4987810D01*
Y4968870D01*
X6671220Y4957470D01*
Y4938530D01*
X6657830Y4925140D01*
X6638890D01*
X6627490Y4936540D01*
X6608550D01*
X6595160Y4923150D01*
Y4904210D01*
X6606560Y4892810D01*
Y4873870D01*
X6593170Y4860480D01*
X6574230D01*
X6562830Y4871880D01*
X6543890D01*
X6530500Y4858490D01*
Y4839550D01*
X6541900Y4828150D01*
Y4817900D01*
X6533210Y4809210D01*
X6496720D01*
X6476930Y4829000D01*
X6451000D01*
X6431210Y4809210D01*
X6405280D01*
X6385490Y4829000D01*
X6359560D01*
X6339770Y4809210D01*
X5265780D01*
X5098000Y4976990D01*
Y5782000D01*
X5135000Y5819000D01*
X5211700D01*
X5225520Y5805180D01*
Y5795540D01*
X5184250Y5754270D01*
G01X6804460Y5083170D02*
X6763210Y5041920D01*
Y4989210D01*
X6554000Y4780000D01*
X5253680D01*
X5068790Y4964890D01*
Y5794100D01*
X5122900Y5848210D01*
X5223800D01*
X5254730Y5817280D01*
Y5795550D01*
X5296010Y5754270D01*
G01X5184250Y5163110D02*
X5192110D01*
X5225520Y5196520D01*
Y5242510D01*
X5203440Y5264590D01*
X5200830D01*
G01X5184250Y5368670D02*
X5192320D01*
X5225520Y5335470D01*
Y5289280D01*
X5200830Y5264590D01*
G01D02*
X5197120D01*
G01X5184250Y5458690D02*
X5226000Y5500440D01*
Y5537610D01*
X5202360Y5561250D01*
X5201910D01*
G01X5184250Y5664250D02*
X5226790Y5621710D01*
Y5586130D01*
X5201910Y5561250D01*
G01D02*
X5197780D01*
G01X5279420Y5264590D02*
X5276810D01*
X5254730Y5242510D01*
Y5196280D01*
X5287900Y5163110D01*
X5296010D01*
G01X5279420Y5264590D02*
X5254730Y5289280D01*
Y5334730D01*
X5288670Y5368670D01*
X5296010D01*
G01X5279420Y5264590D02*
X5284020D01*
G01X5296010Y5458690D02*
X5255210Y5499490D01*
Y5538570D01*
X5277890Y5561250D01*
X5278340D01*
G01X5296010Y5664250D02*
X5256000Y5624240D01*
Y5583590D01*
X5278340Y5561250D01*
G01D02*
X5285840D01*
G01X5197570Y6347900D02*
X5226880Y6318590D01*
Y6285880D01*
X5193240Y6252240D01*
X5185610D01*
G01Y6457800D02*
X5193190D01*
X5226880Y6424110D01*
Y6377210D01*
X5197570Y6347900D01*
G01X5285630D02*
X5256090Y6377440D01*
Y6424100D01*
X5289790Y6457800D01*
X5297370D01*
G01X5285630Y6347900D02*
X5256090Y6318360D01*
Y6285910D01*
X5289760Y6252240D01*
X5297370D01*
G01X5607120Y6352170D02*
X5633360Y6325930D01*
Y6286360D01*
X5599240Y6252240D01*
X5592090D01*
G01Y6457800D02*
X5600200D01*
X5633360Y6424640D01*
Y6378410D01*
X5607120Y6352170D01*
G01D02*
X5605570D01*
G01X5703850Y6457800D02*
X5695790D01*
X5662570Y6424580D01*
Y6378410D01*
X5688810Y6352170D01*
G01D02*
X5693630D01*
G01X5688810D02*
X5662570Y6325930D01*
Y6285430D01*
X5695760Y6252240D01*
X5703850D01*
G01X5297370Y6162220D02*
X5255670Y6120520D01*
Y6110400D01*
X5284530Y6081540D01*
G01X5592090Y6162220D02*
X5632940Y6121370D01*
Y6111530D01*
X5602950Y6081540D01*
G01X5703850Y6162220D02*
X5662150Y6120520D01*
Y6110400D01*
X5691010Y6081540D01*
G01X5185610Y6162220D02*
X5226460Y6121370D01*
Y6111530D01*
X5196470Y6081540D01*
G01X5185610Y6753380D02*
X5228790Y6710200D01*
Y6677120D01*
X5198570Y6646900D01*
G01D02*
X5228000Y6617470D01*
Y6583010D01*
X5192810Y6547820D01*
X5185610D01*
G01X5297370Y6753380D02*
X5258000Y6714010D01*
Y6675530D01*
X5286630Y6646900D01*
G01D02*
X5257210Y6617480D01*
Y6580780D01*
X5290170Y6547820D01*
X5297370D01*
G01X5592090Y6753380D02*
X5599610D01*
X5632790Y6720200D01*
Y6677390D01*
X5606570Y6651170D01*
G01X5592090Y6547820D02*
X5632000Y6587730D01*
Y6625740D01*
X5606570Y6651170D01*
G01X5703850Y6547820D02*
X5663000Y6588670D01*
Y6619540D01*
X5694630Y6651170D01*
G01X5703850Y6753380D02*
X5696370D01*
X5662000Y6719010D01*
Y6683800D01*
X5694630Y6651170D01*
G01X5297370Y6843400D02*
X5256520Y6884250D01*
Y6894090D01*
X5286510Y6924080D01*
G01X5185610Y6843400D02*
X5227310Y6885100D01*
Y6895220D01*
X5198450Y6924080D01*
G01X5692990D02*
X5663000Y6894090D01*
Y6884250D01*
X5703850Y6843400D01*
G01X5604930Y6924080D02*
X5633790Y6895220D01*
Y6885100D01*
X5592090Y6843400D01*
G01X5553370Y7760740D02*
X5582790Y7790160D01*
Y7923900D01*
X5549300Y7957390D01*
X5480420D01*
X5470020Y7946990D01*
X5412010D01*
G01Y7997010D02*
X5470010D01*
X5480420Y7986600D01*
X5561400D01*
X5612000Y7936000D01*
Y7790170D01*
X5641430Y7760740D01*
G01X5000740Y7783630D02*
X5030160Y7754210D01*
X5163900D01*
X5197390Y7787700D01*
Y7803580D01*
X5186990Y7813980D01*
Y7871990D01*
G01X5237010D02*
Y7813990D01*
X5226600Y7803580D01*
Y7775600D01*
X5176000Y7725000D01*
X5030170D01*
X5000740Y7695570D01*
G01X5137950Y9112080D02*
X5167380Y9082650D01*
Y9059020D01*
X5134480Y9026120D01*
Y8981010D01*
G01Y8890990D02*
X5167380Y8858090D01*
Y8756980D01*
X5155950Y8745550D01*
X5137170D01*
X5125740Y8734120D01*
Y8664010D01*
G01X5226010Y9112080D02*
X5196590Y9082660D01*
Y9059020D01*
X5229480Y9026130D01*
Y8981010D01*
G01Y8890990D02*
X5196590Y8858100D01*
Y8756980D01*
X5208020Y8745550D01*
X5226810D01*
X5238240Y8734120D01*
Y8664010D01*
G01X6334320Y4208670D02*
X6377000Y4165990D01*
Y4126690D01*
X6347560Y4097250D01*
G01D02*
X6375790Y4069020D01*
Y4044580D01*
X6334320Y4003110D01*
G01X6446080Y4208670D02*
X6404000Y4166590D01*
Y4128870D01*
X6435620Y4097250D01*
G01D02*
X6405000Y4066630D01*
Y4044190D01*
X6446080Y4003110D01*
G01X5941560Y4105250D02*
X5972000Y4135690D01*
Y4171070D01*
X5930770Y4212300D01*
G01Y4006740D02*
X5971000Y4046970D01*
Y4075810D01*
X5941560Y4105250D01*
G01X6029620D02*
X6001210Y4133660D01*
Y4170980D01*
X6042530Y4212300D01*
G01Y4006740D02*
X6000720Y4048550D01*
Y4076350D01*
X6029620Y4105250D01*
G01X6433240Y3832410D02*
X6404380Y3861270D01*
Y3871390D01*
X6446080Y3913090D01*
G01X6345180Y3832410D02*
X6375170Y3862400D01*
Y3872240D01*
X6334320Y3913090D01*
G01X6029690Y3836040D02*
X6000830Y3864900D01*
Y3875020D01*
X6042530Y3916720D01*
G01X5941630Y3836040D02*
X5971620Y3866030D01*
Y3875870D01*
X5930770Y3916720D01*
G01X6334320Y4504250D02*
X6375000Y4463570D01*
Y4422690D01*
X6348560Y4396250D01*
G01D02*
X6376000Y4368810D01*
Y4340370D01*
X6334320Y4298690D01*
G01X6446080Y4504250D02*
X6404210Y4462380D01*
Y4428660D01*
X6436620Y4396250D01*
G01D02*
X6405210Y4364840D01*
Y4339560D01*
X6446080Y4298690D01*
G01X5942560Y4404250D02*
X5972000Y4433690D01*
Y4466650D01*
X5930770Y4507880D01*
G01Y4302320D02*
X5973000Y4344550D01*
Y4373810D01*
X5942560Y4404250D01*
G01X6030620D02*
X6001210Y4433660D01*
Y4466560D01*
X6042530Y4507880D01*
G01Y4302320D02*
X6002210Y4342640D01*
Y4375840D01*
X6030620Y4404250D01*
G01X6446080Y4594270D02*
X6405230Y4635120D01*
Y4644960D01*
X6435220Y4674950D01*
G01X5930770Y4597900D02*
X5972470Y4639600D01*
Y4649720D01*
X5943610Y4678580D01*
G01X6042530Y4597900D02*
X6001680Y4638750D01*
Y4648590D01*
X6031670Y4678580D01*
G01X6334320Y4594270D02*
X6376020Y4635970D01*
Y4646090D01*
X6347160Y4674950D01*
G01X7839980Y5449800D02*
X7892800D01*
X7915370Y5472370D01*
Y5506360D01*
X7960220Y5551210D01*
X8061890D01*
X8097000Y5586320D01*
Y5683990D01*
X8147010Y5734000D01*
X8234690D01*
X8276000Y5775310D01*
Y5855990D01*
X8333010Y5913000D01*
X8424690D01*
X8453790Y5942100D01*
Y6929900D01*
X8417690Y6966000D01*
X7036690D01*
X6431880Y7570810D01*
Y8897190D01*
X7153790Y9619100D01*
Y10157220D01*
X7036600Y10274410D01*
Y10375490D01*
X7040410Y10379300D01*
X7062870Y10392180D01*
X7095460Y10512240D01*
G01X8739980Y2929790D02*
X8685220D01*
X8666000Y2949010D01*
Y2993990D01*
X8625990Y3034000D01*
X7735990D01*
X7700780Y3069210D01*
X7208900D01*
X7163790Y3024100D01*
Y2920220D01*
X7205100Y2878910D01*
X7275350D01*
X7286780Y2867480D01*
Y2849070D01*
X7298210Y2837640D01*
X7343320D01*
G01X7194630Y4103170D02*
X7166000Y4074540D01*
Y4048610D01*
X7209740Y4004870D01*
G01Y4210430D02*
X7168210Y4168900D01*
Y4129590D01*
X7194630Y4103170D01*
G01X7106570D02*
X7136790Y4072950D01*
Y4043680D01*
X7097980Y4004870D01*
G01Y4210430D02*
X7139000Y4169410D01*
Y4135600D01*
X7106570Y4103170D01*
G01X6820630Y4099900D02*
X6794000Y4126530D01*
Y4165200D01*
X6835750Y4206950D01*
G01Y4001390D02*
X6792000Y4045140D01*
Y4071270D01*
X6820630Y4099900D01*
G01X6732570D02*
X6764790Y4132120D01*
Y4166150D01*
X6723990Y4206950D01*
G01Y4001390D02*
X6762790Y4040190D01*
Y4069680D01*
X6732570Y4099900D01*
G01X7209740Y4506010D02*
X7168210Y4464480D01*
Y4429590D01*
X7195630Y4402170D01*
G01D02*
X7166000Y4372540D01*
Y4344190D01*
X7209740Y4300450D01*
G01X7097980Y4506010D02*
X7139000Y4464990D01*
Y4433600D01*
X7107570Y4402170D01*
G01D02*
X7136790Y4372950D01*
Y4339260D01*
X7097980Y4300450D01*
G01X6835750Y4296970D02*
X6792000Y4340720D01*
Y4369270D01*
X6821630Y4398900D01*
G01D02*
X6793000Y4427530D01*
Y4459780D01*
X6835750Y4502530D01*
G01X6723990Y4296970D02*
X6762790Y4335770D01*
Y4369680D01*
X6733570Y4398900D01*
G01D02*
X6763790Y4429120D01*
Y4462730D01*
X6723990Y4502530D01*
G01X6704570Y5573170D02*
X6734790Y5542950D01*
Y5510860D01*
X6692700Y5468770D01*
G01Y5674330D02*
X6735000Y5632030D01*
Y5603600D01*
X6704570Y5573170D01*
G01X6703570Y5274170D02*
X6733790Y5243950D01*
Y5214280D01*
X6692700Y5173190D01*
G01Y5378750D02*
X6734000Y5337450D01*
Y5304600D01*
X6703570Y5274170D01*
G01X6792630Y5573170D02*
X6764000Y5544540D01*
Y5509230D01*
X6804460Y5468770D01*
G01Y5674330D02*
X6764210Y5634080D01*
Y5601590D01*
X6792630Y5573170D01*
G01X6791630Y5274170D02*
X6763000Y5245540D01*
Y5214650D01*
X6804460Y5173190D01*
G01Y5378750D02*
X6763210Y5337500D01*
Y5302590D01*
X6791630Y5274170D01*
G01X8019970Y5449800D02*
X7968210D01*
X7944580Y5473430D01*
Y5494260D01*
X7972320Y5522000D01*
X8073990D01*
X8126210Y5574220D01*
Y5671890D01*
X8159110Y5704790D01*
X8246790D01*
X8305210Y5763210D01*
Y5843890D01*
X8345110Y5883790D01*
X8436790D01*
X8483000Y5930000D01*
Y6942000D01*
X8429790Y6995210D01*
X7048790D01*
X6461090Y7582910D01*
Y8885090D01*
X7183000Y9607000D01*
Y9963070D01*
X7200000Y9980070D01*
Y10018570D01*
X7183000Y10035570D01*
Y10054510D01*
X7196390Y10067900D01*
X7196610D01*
X7210000Y10081290D01*
Y10100230D01*
X7196610Y10113620D01*
X7196390D01*
X7183000Y10127010D01*
Y10169320D01*
X7065810Y10286510D01*
Y10360190D01*
X7077390Y10366830D01*
X7197460Y10334240D01*
G01X8199980Y5629810D02*
X8250180D01*
X8275360Y5604630D01*
Y5568640D01*
X8319210Y5524790D01*
X8438130D01*
X8486210Y5572870D01*
Y5672900D01*
X8518100Y5704790D01*
X8616800D01*
X8665210Y5753200D01*
Y7121790D01*
X8612790Y7174210D01*
X7071780D01*
X6616630Y7629360D01*
Y8770380D01*
X7358950Y9512700D01*
Y9762500D01*
X7372340Y9775890D01*
X7381610D01*
X7395000Y9789280D01*
Y9808220D01*
X7381610Y9821610D01*
X7372340D01*
X7358950Y9835000D01*
Y9853940D01*
X7372340Y9867330D01*
X7381610D01*
X7395000Y9880720D01*
Y9899660D01*
X7381610Y9913050D01*
X7372340D01*
X7358950Y9926440D01*
Y9945380D01*
X7372340Y9958770D01*
X7381610D01*
X7395000Y9972160D01*
Y9991100D01*
X7381610Y10004490D01*
X7372340D01*
X7358950Y10017880D01*
Y10036820D01*
X7372340Y10050210D01*
X7381610D01*
X7395000Y10063600D01*
Y10082540D01*
X7381610Y10095930D01*
X7372340D01*
X7358950Y10109320D01*
Y10128260D01*
X7372340Y10141650D01*
X7381610D01*
X7395000Y10155040D01*
Y10173980D01*
X7381610Y10187370D01*
X7372340D01*
X7358950Y10200760D01*
Y10291740D01*
X7401450Y10334240D01*
G01X7503460Y10512240D02*
X7450170Y10458950D01*
X7393610D01*
X7361340Y10426680D01*
X7349530D01*
X7297570Y10374720D01*
Y10284980D01*
X7329740Y10252810D01*
Y9524800D01*
X6587420Y8782480D01*
Y7617260D01*
X7059680Y7145000D01*
X8600690D01*
X8636000Y7109690D01*
Y5765300D01*
X8604700Y5734000D01*
X8506000D01*
X8457000Y5685000D01*
Y5584970D01*
X8426030Y5554000D01*
X8331310D01*
X8304570Y5580740D01*
Y5605580D01*
X8328800Y5629810D01*
X8379960D01*
G01X8559970Y5449800D02*
X8611810D01*
X8635370Y5473360D01*
Y5506360D01*
X8681220Y5552210D01*
X8789900D01*
X8816790Y5579100D01*
Y7285900D01*
X8777900Y7324790D01*
X7089900D01*
X6748010Y7666680D01*
Y8689590D01*
X7525750Y9467330D01*
Y10272820D01*
X7502610Y10295960D01*
Y10367770D01*
X7606910Y10472070D01*
Y10586240D01*
X7573850Y10619300D01*
X7406500D01*
X7299440Y10512240D01*
G01X7605460Y10334240D02*
X7554960Y10283740D01*
Y10235230D01*
X7568350Y10221840D01*
X7598610D01*
X7612000Y10208450D01*
Y10189510D01*
X7598610Y10176120D01*
X7568350D01*
X7554960Y10162730D01*
Y10143790D01*
X7568350Y10130400D01*
X7598610D01*
X7612000Y10117010D01*
Y10098070D01*
X7598610Y10084680D01*
X7568350D01*
X7554960Y10071290D01*
Y10052350D01*
X7568350Y10038960D01*
X7598610D01*
X7612000Y10025570D01*
Y10006630D01*
X7598610Y9993240D01*
X7568350D01*
X7554960Y9979850D01*
Y9960910D01*
X7568350Y9947520D01*
X7598610D01*
X7612000Y9934130D01*
Y9915190D01*
X7598610Y9901800D01*
X7568350D01*
X7554960Y9888410D01*
Y9869470D01*
X7568350Y9856080D01*
X7598610D01*
X7612000Y9842690D01*
Y9823750D01*
X7598610Y9810360D01*
X7568350D01*
X7554960Y9796970D01*
Y9778030D01*
X7568350Y9764640D01*
X7598610D01*
X7612000Y9751250D01*
Y9732310D01*
X7598610Y9718920D01*
X7568350D01*
X7554960Y9705530D01*
Y9686590D01*
X7568350Y9673200D01*
X7598610D01*
X7612000Y9659810D01*
Y9640870D01*
X7598610Y9627480D01*
X7568350D01*
X7554960Y9614090D01*
Y9595150D01*
X7568350Y9581760D01*
X7590250D01*
X7605000Y9567010D01*
Y9550990D01*
X7590050Y9536040D01*
X7568350D01*
X7554960Y9522650D01*
Y9455230D01*
X6777220Y8677490D01*
Y7678780D01*
X7102000Y7354000D01*
X8790000D01*
X8846000Y7298000D01*
Y5567000D01*
X8802000Y5523000D01*
X8693320D01*
X8664580Y5494260D01*
Y5472420D01*
X8687200Y5449800D01*
X8739980D01*
G01X7707440Y10512240D02*
X7708940Y10510740D01*
Y10229290D01*
X7666420Y10186770D01*
Y9360870D01*
X6918050Y8612500D01*
Y7714950D01*
X7128000Y7505000D01*
X8961690D01*
X8995790Y7470900D01*
Y5651800D01*
X8973800Y5629810D01*
X8919960D01*
G01X7809450Y10334240D02*
X7783870Y10240190D01*
X7730720Y10209760D01*
X7695630Y10174670D01*
Y10154950D01*
X7709020Y10141560D01*
X7724610D01*
X7738000Y10128170D01*
Y10109230D01*
X7724610Y10095840D01*
X7709020D01*
X7695630Y10082450D01*
Y10063510D01*
X7709020Y10050120D01*
X7724610D01*
X7734000Y10040730D01*
Y10013790D01*
X7724610Y10004400D01*
X7709020D01*
X7695630Y9991010D01*
Y9972070D01*
X7709020Y9958680D01*
X7724460D01*
X7730000Y9953140D01*
Y9918500D01*
X7724460Y9912960D01*
X7709020D01*
X7695630Y9899570D01*
Y9348770D01*
X6947260Y8600400D01*
Y7727050D01*
X7140100Y7534210D01*
X8973790D01*
X9025000Y7483000D01*
Y5652000D01*
X9047190Y5629810D01*
X9099970D01*
G01X8559970Y2929790D02*
X8615800D01*
X8636790Y2950780D01*
Y2981890D01*
X8613890Y3004790D01*
X7723890D01*
X7688680Y3040000D01*
X7608220D01*
X7594830Y3026610D01*
Y3019390D01*
X7581440Y3006000D01*
X7562500D01*
X7549110Y3019390D01*
Y3026610D01*
X7535720Y3040000D01*
X7516780D01*
X7503390Y3026610D01*
Y3019390D01*
X7490000Y3006000D01*
X7471060D01*
X7457670Y3019390D01*
Y3026610D01*
X7444280Y3040000D01*
X7425340D01*
X7411950Y3026610D01*
Y3019390D01*
X7398560Y3006000D01*
X7379620D01*
X7366230Y3019390D01*
Y3026610D01*
X7352840Y3040000D01*
X7333900D01*
X7320510Y3026610D01*
Y3019390D01*
X7307120Y3006000D01*
X7288180D01*
X7274790Y3019390D01*
Y3026610D01*
X7261400Y3040000D01*
X7221000D01*
X7193000Y3012000D01*
Y2932320D01*
X7217200Y2908120D01*
X7275350D01*
X7286780Y2919550D01*
Y2937970D01*
X7298210Y2949400D01*
X7343320D01*
G01X7839980Y2929790D02*
X7896200D01*
X7914000Y2911990D01*
Y2882310D01*
X7884690Y2853000D01*
X7727490D01*
X7714100Y2866390D01*
Y2881610D01*
X7700710Y2895000D01*
X7681770D01*
X7668380Y2881610D01*
Y2866390D01*
X7654990Y2853000D01*
X7629000D01*
X7573880Y2908120D01*
X7501300D01*
X7489870Y2919550D01*
Y2937970D01*
X7478440Y2949400D01*
X7433340D01*
G01X8019970Y2929790D02*
X7962790D01*
X7943210Y2910210D01*
Y2870210D01*
X7896790Y2823790D01*
X7616900D01*
X7561780Y2878910D01*
X7501300D01*
X7489870Y2867480D01*
Y2849070D01*
X7478440Y2837640D01*
X7433340D01*
G54D28*
X2889990Y1250800D03*
X2884990Y8648840D03*
X8294970Y1350780D03*
X8289970Y8748820D03*
G54D37*
X4893050Y10766240D03*
X6163050D03*
X6817450D03*
X8087450D03*
G54D19*
X705000Y10582000D03*
X3092000Y271000D03*
X8958000Y10671000D03*
X10249000Y253000D03*
G54D47*
G01X5337010Y8172010D02*
Y8097010D01*
X5262000Y8022000D01*
G01X5375000Y8258000D02*
X5337010Y8220010D01*
Y8172010D01*
G54D38*
X4391290Y10658800D03*
Y10518800D03*
X7831190Y689050D03*
Y829050D03*
G54D29*
X3544490Y9416810D03*
Y9481830D03*
Y9546850D03*
Y9611880D03*
Y9676900D03*
Y9741930D03*
Y9806950D03*
Y9871970D03*
X4124630Y9416810D03*
Y9871970D03*
Y9806950D03*
Y9741930D03*
Y9676900D03*
Y9611880D03*
Y9546850D03*
Y9481830D03*
G54D48*
G01X2079990Y7969820D02*
Y8022990D01*
X1993840Y8109140D01*
Y8182350D01*
X1938750Y8237440D01*
X1504220D01*
X1238140Y8503520D01*
X766340D01*
X551080Y8718780D01*
G01X2979980Y7969820D02*
X2887830Y8061970D01*
X2396940D01*
X2350500Y8108410D01*
Y8581490D01*
X1816000Y9115990D01*
X694290D01*
X551080Y8972780D01*
G01X1130310Y510510D02*
Y306680D01*
G01X995190Y510510D02*
Y306680D01*
G01X860070Y510510D02*
Y306680D01*
G01X1265430Y306690D02*
Y306680D01*
G01Y510510D02*
Y306690D01*
G01X724950Y510510D02*
Y306680D01*
G01X589830Y510510D02*
Y306680D01*
G01X2260000Y2209800D02*
X2169390Y2119190D01*
Y1980060D01*
X2124520Y1935190D01*
X2043440D01*
X1993850Y1885600D01*
Y1807650D01*
X1944270Y1758070D01*
X1857680D01*
X1768160Y1668550D01*
Y1126210D01*
X1377670Y735720D01*
X1215440D01*
X1130310Y650590D01*
Y600530D01*
G01X2079990Y2209800D02*
X1987990Y2117800D01*
Y1980530D01*
X1945100Y1937640D01*
X1858500D01*
X1722330Y1801470D01*
Y1148920D01*
X1354000Y780590D01*
X1125710D01*
X995190Y650070D01*
Y600530D01*
G01X860070D02*
Y648760D01*
X1040710Y829400D01*
X1331210D01*
X1678300Y1176490D01*
Y1877890D01*
X1830200Y2029790D01*
X1900000D01*
G01Y1669800D02*
X1815170Y1584970D01*
Y1104740D01*
X1403640Y693210D01*
X1296560D01*
X1265430Y662080D01*
Y600530D01*
G01X942450Y882420D02*
X1076700D01*
X1321200Y1126920D01*
Y1449670D01*
X1547930Y1676400D01*
Y1993260D01*
X1854940Y2300270D01*
X2119960D01*
X2167970Y2348280D01*
Y2477770D01*
X2260000Y2569800D01*
G01X2079990D02*
X1993080Y2482890D01*
X1796320D01*
X1401500Y2088070D01*
Y1801530D01*
X1165330Y1565360D01*
Y1243780D01*
X1074210Y1152660D01*
X942450D01*
G01X724950Y600530D02*
Y694660D01*
X725110Y694820D01*
G01X589830Y600530D02*
Y694660D01*
X589990Y694820D01*
G01X1900000Y2389790D02*
X1819720D01*
X1477070Y2047140D01*
Y1759010D01*
X1242470Y1524410D01*
Y1178040D01*
X1081970Y1017540D01*
X942450D01*
G01X1036740Y1287620D02*
X942610D01*
X942450Y1287780D01*
G01X852430D02*
X648610D01*
X648600Y1287790D01*
G01Y882420D02*
X852430D01*
G01X648600Y1152670D02*
X852420D01*
X852430Y1152660D01*
G01X648600Y1017550D02*
X852420D01*
X852430Y1017540D01*
G01X942450Y1693140D02*
X1028240D01*
X1255080Y1919980D01*
Y2231710D01*
X1773180Y2749810D01*
X1900000D01*
G01X942450Y1558020D02*
X1033220D01*
X1325930Y1850730D01*
Y2145970D01*
X1839950Y2659990D01*
X2119930D01*
X2171890Y2711950D01*
Y2841680D01*
X2260000Y2929790D01*
G01X2079990D02*
X1993590Y2843390D01*
X1756560D01*
X1181090Y2267920D01*
Y1971960D01*
X1037390Y1828260D01*
X942450D01*
G01X1036740Y1422740D02*
X942610D01*
X942450Y1422900D01*
G01X1036740Y1963220D02*
X942610D01*
X942450Y1963380D01*
G01X852430Y1558020D02*
X648610D01*
X648600Y1558030D01*
G01X852430Y1828260D02*
X648620D01*
X648610Y1828270D01*
G01X648600Y1693140D02*
X852430D01*
G01Y1422900D02*
X648610D01*
X648600Y1422910D01*
G01X852430Y1963380D02*
X648600D01*
G01X1036740Y2098340D02*
X942610D01*
X942450Y2098500D01*
G01X1900000Y3109800D02*
X1766280D01*
X1025220Y2368740D01*
X942450D01*
G01X2260000Y3289810D02*
X2173440Y3203250D01*
Y3073240D01*
X2123060Y3022860D01*
X1821020D01*
X1031780Y2233620D01*
X942450D01*
G01X2079990Y3289810D02*
X1988170Y3197990D01*
X1720650D01*
X1026520Y2503860D01*
X942450D01*
G01X1036740Y2638820D02*
X942610D01*
X942450Y2638980D01*
G01X1036740Y2773940D02*
X942610D01*
X942450Y2774100D01*
G01X648600Y2098520D02*
X852410D01*
X852430Y2098500D01*
G01X648600Y2368750D02*
X852420D01*
X852430Y2368740D01*
G01X648600Y2638990D02*
X648610Y2638980D01*
X852430D01*
G01X648600Y2774110D02*
X852420D01*
X852430Y2774100D01*
G01Y2233620D02*
X648610D01*
X648600Y2233630D01*
G01X852430Y2503860D02*
X648620D01*
X648610Y2503870D01*
G01X942450Y2909220D02*
X1043810D01*
X1514040Y3379450D01*
X2120670D01*
X2171840Y3430620D01*
Y3561650D01*
X2260000Y3649810D01*
G01X942450Y3179460D02*
X1044820D01*
X1424270Y3558910D01*
X1989090D01*
X2079990Y3649810D01*
G01X942450Y3044340D02*
X1040370D01*
X1465830Y3469800D01*
X1900000D01*
G01X1036740Y3314420D02*
X942610D01*
X942450Y3314580D01*
G01X1036740Y3449540D02*
X942610D01*
X942450Y3449700D01*
G01X648600Y3314590D02*
X852420D01*
X852430Y3314580D01*
G01X648600Y3449710D02*
X852420D01*
X852430Y3449700D01*
G01X648600Y3179470D02*
X648610Y3179460D01*
X852430D01*
G01Y2909220D02*
X648610D01*
X648600Y2909230D01*
G01X852430Y3044340D02*
X852420Y3044350D01*
X648600D01*
G01X1036740Y4125140D02*
X942610D01*
X942450Y4125300D01*
G01Y3719940D02*
X1099170D01*
X1227960Y3848730D01*
Y4221830D01*
X1644410Y4638280D01*
X2176520D01*
X2260000Y4721760D01*
Y4729830D01*
G01X942450Y3855060D02*
X1051610D01*
X1146070Y3949520D01*
Y4258040D01*
X1412140Y4524110D01*
Y4739800D01*
X1490580Y4818240D01*
X1993400D01*
X2079990Y4731650D01*
Y4729830D01*
G01X942450Y3584820D02*
X1110470D01*
X1300380Y3774730D01*
Y4182490D01*
X1667710Y4549820D01*
X1900000D01*
G01X1036740Y3990020D02*
X942610D01*
X942450Y3990180D01*
G01X852430D02*
X648610D01*
X648600Y3990190D01*
G01Y4125310D02*
X852420D01*
X852430Y4125300D01*
G01Y3719940D02*
X648610D01*
X648600Y3719950D01*
G01X648610Y3855070D02*
X852420D01*
X852430Y3855060D01*
G01X648600Y3584830D02*
X852420D01*
X852430Y3584820D01*
G01X1036740Y4800740D02*
X942610D01*
X942450Y4800900D01*
G01Y4936020D02*
X1023490D01*
X1357280Y5269810D01*
X1900000D01*
G01X942450Y4395540D02*
X1023250D01*
X1227920Y4600210D01*
Y4892510D01*
X1335470Y5000060D01*
X2170240D01*
X2260000Y5089820D01*
G01X942450Y4530660D02*
X1025880D01*
X1142900Y4647680D01*
Y4933440D01*
X1387380Y5177920D01*
X1991890D01*
X2079990Y5089820D01*
G01X942450Y4260420D02*
X1023250D01*
X1325530Y4562700D01*
Y4824810D01*
X1410530Y4909810D01*
X1900000D01*
G01X1036740Y4665620D02*
X942610D01*
X942450Y4665780D01*
G01X648600Y4800910D02*
X852420D01*
X852430Y4800900D01*
G01Y4936020D02*
X648610D01*
X648600Y4936030D01*
G01X852430Y4260420D02*
X648610D01*
X648600Y4260430D01*
G01X852430Y4395540D02*
X648600D01*
G01X648610Y4530670D02*
X852420D01*
X852430Y4530660D01*
G01Y4665780D02*
X648620D01*
X648600Y4665800D01*
G01X942450Y5341380D02*
X1021070D01*
X1309520Y5629830D01*
X1900000D01*
G01X942450Y5476500D02*
X1023950D01*
X1264600Y5717150D01*
X2167340D01*
X2260000Y5809810D01*
G01X942450Y5611620D02*
X1023670D01*
X1313400Y5901350D01*
X1988450D01*
X2079990Y5809810D01*
G01X942450Y5071140D02*
X1029480D01*
X1317360Y5359020D01*
X2169200D01*
X2260000Y5449820D01*
G01X942450Y5206260D02*
X1024490D01*
X1356710Y5538480D01*
X1991330D01*
X2079990Y5449820D01*
G01X852430Y5071140D02*
X648600D01*
G01Y5206270D02*
X852420D01*
X852430Y5206260D01*
G01X648600Y5476510D02*
X852420D01*
X852430Y5476500D01*
G01Y5611620D02*
X648610D01*
G01X852430Y5341380D02*
X648610D01*
X648600Y5341390D01*
G01X942450Y5746740D02*
X1024980D01*
X1268060Y5989820D01*
X1900000D01*
G01X852430Y5746740D02*
X648600D01*
G01X884350Y7074880D02*
X1124830D01*
X1213660Y7163710D01*
X2489680D01*
X2532540Y7206570D01*
Y7342370D01*
X2619990Y7429820D01*
G01X884350Y7582880D02*
X1092660D01*
X1245720Y7429820D01*
X1900000D01*
G01X2439980D02*
X2347410Y7337250D01*
X892720D01*
X884350Y7328880D01*
G01Y7836880D02*
X1103120D01*
X1125200Y7814800D01*
Y7814170D01*
G01X960710Y8669100D02*
X1200960Y8909350D01*
X1410890D01*
G01X1057200Y9021110D02*
Y8880590D01*
X1055710Y8879100D01*
G01X1410890Y9021110D02*
X1207060D01*
G01X1400550Y510510D02*
Y306680D01*
G01X1670790Y510510D02*
Y306680D01*
G01X1941030Y510510D02*
Y306680D01*
G01X1535670Y510510D02*
Y306680D01*
G01X1805910Y510510D02*
Y306680D01*
G01X1400550Y600530D02*
Y618480D01*
X1993010Y1210940D01*
Y1706090D01*
X2079990Y1793070D01*
Y1849810D01*
G01X1670790Y600530D02*
Y742330D01*
X2172080Y1243620D01*
Y1761890D01*
X2260000Y1849810D01*
G01X1941030Y600530D02*
Y855130D01*
X2347580Y1261680D01*
Y1937390D01*
X2439980Y2029790D01*
G01X1535670Y600530D02*
Y681210D01*
X2079990Y1225530D01*
Y1489790D01*
G01X1805910Y600530D02*
Y795600D01*
X2260000Y1249690D01*
Y1489790D01*
G01X1632850Y3956970D02*
Y3847550D01*
X1737090Y3743310D01*
X1946510D01*
X1992160Y3788960D01*
Y3870040D01*
X2036640Y3914520D01*
X2164720D01*
X2260000Y4009800D01*
G01X2079990D02*
X2028790D01*
X1940190Y3921200D01*
X1780380D01*
X1744610Y3956970D01*
G01X2619990Y4189810D02*
Y4189980D01*
X2530980Y4278990D01*
X1739090D01*
X1632850Y4172750D01*
Y4046990D01*
G01X1744610D02*
X1793980Y4096360D01*
X2346530D01*
X2439980Y4189810D01*
G01X1678560Y6348110D02*
X1898290D01*
X1900000Y6349820D01*
G01X1588540Y6348110D02*
X1384710D01*
G01X1678560Y6753470D02*
X1750700D01*
X1798720Y6801490D01*
X1935700D01*
X2024030Y6889820D01*
X2079990D01*
G01X1900000Y7069830D02*
X1743510D01*
X1678560Y7004880D01*
Y6888590D01*
G01X1900000Y6709810D02*
X1824320D01*
X1732860Y6618350D01*
X1678560D01*
G01X2260000Y6889820D02*
X2168520Y6798340D01*
X2032510D01*
X1993150Y6758980D01*
Y6661640D01*
X1946430Y6614920D01*
X1848310D01*
X1716620Y6483230D01*
X1678560D01*
G01X1588540Y6753470D02*
X1384710D01*
G01Y6618350D02*
X1588540D01*
G01Y6888590D02*
X1384710D01*
G01Y6483230D02*
X1588540D01*
G01X2260000Y7789840D02*
X2170250Y7879590D01*
X2025100D01*
X1991660Y7913030D01*
Y8011830D01*
X1939710Y8063780D01*
X1772310D01*
X1721870Y8013340D01*
G01Y7878220D02*
X1932010D01*
X2020390Y7789840D01*
X2079990D01*
G01Y7609830D02*
X1989600Y7519440D01*
X1810410D01*
X1721870Y7607980D01*
G01X2260000Y7609830D02*
X2171300Y7698530D01*
X1766440D01*
X1721870Y7743100D01*
G01X1631850Y7607980D02*
X1428020D01*
G01X1631850Y7743100D02*
X1428020D01*
G01Y7878220D02*
X1631850D01*
G01X2260000Y7969820D02*
X2172260Y8057560D01*
Y8559080D01*
X2076680Y8654660D01*
X1620900D01*
X1410890Y8864670D01*
Y8909350D01*
G01X1631850Y8013340D02*
X1428020D01*
G01X1997930Y9553130D02*
X2094800Y9650000D01*
X2306000D01*
X2500000Y9844000D01*
X2854000D01*
X2914800Y9904800D01*
Y10034280D01*
G01X2076150Y510510D02*
Y306680D01*
G01Y600530D02*
Y910470D01*
X2530200Y1364520D01*
Y1940000D01*
X2619990Y2029790D01*
G01X2533800Y10034280D02*
X2660800D01*
G01X2406800Y10124300D02*
Y10209800D01*
G01X2630630Y10320880D02*
Y10216370D01*
X2660800Y10186200D01*
Y10124300D01*
G01X2279800D02*
Y10214800D01*
X2334000Y10269000D01*
X2457000D01*
X2480610Y10292610D01*
Y10320880D01*
G01X2152800Y10124300D02*
X2279800D01*
G01X2406800Y10034280D02*
X2279800D01*
G01X2539530Y10849160D02*
Y10782470D01*
X2558000Y10764000D01*
G01X2787800Y10124300D02*
Y10372200D01*
X2766630Y10393370D01*
X2728110D01*
G01Y10593370D02*
X2765370D01*
X2797000Y10625000D01*
Y10709000D01*
X2760510Y10745490D01*
Y10849160D01*
G01X2914800Y10124300D02*
Y10315200D01*
X2786620Y10443380D01*
X2728110D01*
G01X2408570Y10849160D02*
X2480610Y10777120D01*
Y10665860D01*
G01X2630630D02*
Y10848080D01*
X2629550Y10849160D01*
G01X3420720Y217550D02*
Y110850D01*
X3476720Y54850D01*
X4607540D01*
X4739560Y186870D01*
Y637150D01*
X4691300Y685410D01*
X4538630D01*
G01Y558410D02*
X4683390D01*
X4698630Y543170D01*
Y201320D01*
X4591310Y94000D01*
X3571400D01*
X3548560Y116840D01*
Y343710D01*
X3420720Y471550D01*
G01X3159990Y1669800D02*
X3251460Y1578330D01*
Y1356030D01*
X3677250Y930240D01*
X3879420D01*
G01X2979980Y1489790D02*
X3674650Y795120D01*
X3879420D01*
G01Y1200480D02*
X3830510D01*
X3479050Y1551940D01*
Y1666930D01*
X3388280Y1757700D01*
X3106490D01*
X3069890Y1794300D01*
Y1893860D01*
X3026590Y1937160D01*
X2940800D01*
X2891200Y1986760D01*
Y2118600D01*
X2800000Y2209800D01*
G01X3879420Y1470720D02*
X3835800D01*
X3568820Y1737700D01*
Y1877560D01*
X3416590Y2029790D01*
X3339980D01*
G01X3159990D02*
Y2031250D01*
X3244030Y2115290D01*
X3449460D01*
X3616840Y1947910D01*
Y1820340D01*
X3831340Y1605840D01*
X3879420D01*
G01Y1065360D02*
X3830270D01*
X3430250Y1465380D01*
Y1579530D01*
X3339980Y1669800D01*
G01X3879420Y1335600D02*
X3829220D01*
X3524720Y1640100D01*
Y1807500D01*
X3397770Y1934450D01*
X3123430D01*
X3069900Y1987980D01*
Y2119880D01*
X2979980Y2209800D01*
G01Y2569800D02*
X3065070Y2654890D01*
X3456910D01*
X3572080Y2539720D01*
Y2392360D01*
X3818120Y2146320D01*
X3879420D01*
G01X2800000Y2569800D02*
X2887820Y2481980D01*
Y2333730D01*
X2927190Y2294360D01*
X3404220D01*
X3665660Y2032920D01*
Y1908490D01*
X3833190Y1740960D01*
X3879420D01*
G01Y1876080D02*
X3830330D01*
X3714470Y1991940D01*
Y2077730D01*
X3402410Y2389790D01*
X3339980D01*
G01X3159990D02*
X3247190Y2476990D01*
X3395490D01*
X3861280Y2011200D01*
X3879420D01*
G01X3339980Y2749810D02*
X3465870D01*
X3643550Y2572130D01*
Y2456330D01*
X3818440Y2281440D01*
X3879420D01*
G01X3159990Y2749810D02*
Y2758590D01*
X3237340Y2835940D01*
X3485230D01*
X3709670Y2611500D01*
Y2504920D01*
X3798030Y2416560D01*
X3879420D01*
G01X3339980Y3469800D02*
X3684130D01*
X3791530Y3362400D01*
X3879420D01*
G01X3159990Y3469800D02*
X3250270Y3560080D01*
X3729260D01*
X3791820Y3497520D01*
X3879420D01*
G01X2979980Y2929790D02*
X3074010Y3023820D01*
X3491800D01*
X3828820Y2686800D01*
X3879420D01*
G01Y2821920D02*
X3824350D01*
X3536470Y3109800D01*
X3339980D01*
G01X3879420Y2957040D02*
X3826970D01*
X3583670Y3200340D01*
X3250530D01*
X3159990Y3109800D01*
G01X3879420Y3227280D02*
X3793620D01*
X3641870Y3379030D01*
X3069200D01*
X2979980Y3289810D01*
G01X3494230Y4100140D02*
X3070320D01*
X2979980Y4009800D01*
G01X3605990Y4100140D02*
Y4001600D01*
X3526010Y3921620D01*
X2888180D01*
X2800000Y4009800D01*
G01X3339980Y4189810D02*
X3493880D01*
X3494230Y4190160D01*
G01X3159990Y4189810D02*
X3252330Y4282150D01*
X3565360D01*
X3605990Y4241520D01*
Y4190160D01*
G01X3879420Y4038000D02*
X3771060D01*
X3562850Y3829790D01*
X3339980D01*
G01X3159990D02*
X3250570Y3739210D01*
X3615550D01*
X3779220Y3902880D01*
X3879420D01*
G01X2979980Y3652290D02*
Y3649810D01*
G01X3879420Y4713600D02*
X3786240D01*
X3499260Y5000580D01*
X2889240D01*
X2800000Y5089820D01*
G01X3879420Y4308240D02*
X3794840D01*
X3463850Y4639230D01*
X3070580D01*
X2979980Y4729830D01*
G01X3879420Y4173120D02*
X3796140D01*
X3510300Y4458960D01*
X2931630D01*
X2889900Y4500690D01*
Y4639930D01*
X2800000Y4729830D01*
G01X3879420Y4578480D02*
X3792260D01*
X3460930Y4909810D01*
X3339980D01*
G01X3879420Y4443360D02*
X3796660D01*
X3418950Y4821070D01*
X3248730D01*
X3159990Y4909810D01*
G01X2979980Y5089820D02*
X3068650Y5178490D01*
X3461500D01*
X3791270Y4848720D01*
X3879420D01*
G01X2800000Y5449820D02*
X2891000Y5540820D01*
Y5665210D01*
X2941960Y5716170D01*
X3485150D01*
X3812120Y5389200D01*
X3879420D01*
G01Y4983840D02*
X3780550D01*
X3494580Y5269810D01*
X3339980D01*
G01X3159990D02*
X3249180Y5359000D01*
X3549430D01*
X3789470Y5118960D01*
X3879420D01*
G01X2979980Y5449820D02*
X3067630Y5537470D01*
X3537930D01*
X3821320Y5254080D01*
X3879420D01*
G01X2979980Y5809810D02*
Y5811640D01*
X3067340Y5899000D01*
X3439420D01*
X3814100Y5524320D01*
X3879420D01*
G01X2800000Y5809810D02*
X2892080Y5901890D01*
Y6036250D01*
X2932230Y6076400D01*
X3399040D01*
X3816000Y5659440D01*
X3879420D01*
G01X2800000Y7249830D02*
X2888280Y7338110D01*
Y7468460D01*
X2940240Y7520420D01*
X3407310D01*
X3632880Y7745990D01*
Y7847120D01*
X3729190Y7943430D01*
X3782710D01*
G01X3339980Y7429820D02*
X3404880D01*
X3685810Y7710750D01*
Y7774010D01*
X3720110Y7808310D01*
X3782710D01*
G01X2979980Y7789840D02*
X3072580Y7882440D01*
Y8558820D01*
X3132790Y8619030D01*
X3782710D01*
G01Y8348790D02*
X3677560D01*
X3387480Y8058710D01*
X3288290D01*
X3248950Y8019370D01*
Y7927650D01*
X3159990Y7838690D01*
Y7789840D01*
G01X3782710Y8213670D02*
X3725900D01*
X3391820Y7879590D01*
X3303350D01*
X3250900Y7827140D01*
Y7743400D01*
X3205250Y7697750D01*
X3067900D01*
X2979980Y7609830D01*
G01X3159990D02*
X3216500D01*
X3304410Y7697740D01*
X3393240D01*
X3447110Y7751610D01*
Y7793200D01*
X3732460Y8078550D01*
X3782710D01*
G01X2979980Y7249830D02*
X3070660Y7340510D01*
X3390850D01*
X3723530Y7673190D01*
X3782710D01*
G01Y8483910D02*
X3655270D01*
X3406420Y8235060D01*
X3290690D01*
X3249760Y8194130D01*
Y8097580D01*
X3159990Y8007810D01*
Y7969820D01*
G01X3327200Y9388170D02*
X3420860Y9481830D01*
X3544490D01*
G01X3262200Y9300170D02*
X3330170D01*
X3446810Y9416810D01*
X3544490D01*
G01Y9741930D02*
X3354460D01*
X3339150Y9726620D01*
G01X3249130D02*
X3144380D01*
X3097000Y9774000D01*
Y9884000D01*
X3146000Y9933000D01*
X3384000D01*
X3445030Y9871970D01*
X3544490D01*
G01Y9611880D02*
X3431880D01*
X3376000Y9556000D01*
X3264370D01*
X3249130Y9571240D01*
Y9609780D01*
G01X3544490Y9676900D02*
X3406270D01*
X3339150Y9609780D01*
G01X3544490Y9806950D02*
X3375660D01*
X3339150Y9843460D01*
G01X3544490Y9546850D02*
X3429850D01*
X3375940Y9492940D01*
X3339150D01*
G01X3041800Y10124300D02*
X2914800D01*
G01X3022000Y10770000D02*
X2942840Y10849160D01*
X2850530D01*
G01X3928720Y217550D02*
X4113850D01*
X4215260Y318960D01*
G01D02*
X4313040D01*
X4327590Y304410D01*
X4538630D01*
G01X3928720Y471550D02*
X4152690D01*
X4215260Y408980D01*
G01D02*
X4309080D01*
X4331510Y431410D01*
X4538630D01*
G01X3969440Y1200480D02*
X4173250D01*
X4173260Y1200490D01*
G01Y930240D02*
X3969440D01*
G01Y1065360D02*
X4173270D01*
G01Y795120D02*
X3969440D01*
G01X4173270Y1605850D02*
X3969450D01*
X3969440Y1605840D01*
G01Y1470720D02*
X4173270D01*
G01Y1740960D02*
X3969440D01*
G01X4173270Y1876080D02*
X3969440D01*
G01Y2011200D02*
X4173260D01*
X4173270Y2011210D01*
G01X4173260Y1335600D02*
X3969440D01*
G01X3879420Y2551680D02*
X3785290D01*
X3785130Y2551840D01*
G01X4173270Y2686800D02*
X3969440D01*
G01X4173270Y2551680D02*
X3969440D01*
G01X4173270Y2281440D02*
X3969440D01*
G01X4173270Y2416560D02*
X3969440D01*
G01X4173270Y2146320D02*
X3969440D01*
G01X3785130Y3092320D02*
X3879260D01*
X3879420Y3092160D01*
G01X4173270Y3362400D02*
X3969440D01*
G01X4173270Y3497520D02*
X3969440D01*
G01X4173270Y3227280D02*
X3969440D01*
G01X4173270Y3092160D02*
X3969440D01*
G01X4173270Y2821920D02*
X3969440D01*
G01X4173270Y2957040D02*
X3969440D01*
G01X3785130Y3632800D02*
X3879260D01*
X3879420Y3632640D01*
G01Y3767760D02*
X3857610D01*
X3802200Y3823170D01*
G01X4173270Y3902880D02*
X3969440D01*
G01X4173270Y3767760D02*
X3969440D01*
G01Y4173120D02*
X4173260D01*
G01X4173270Y3632640D02*
X3969440D01*
G01X4173270Y4038000D02*
X3969440D01*
G01X4173270Y4443360D02*
X3969440D01*
G01X4173270Y4848720D02*
X3969440D01*
G01X4173270Y4308240D02*
X3969440D01*
G01Y4578480D02*
X4173270D01*
G01Y4713600D02*
X3969440D01*
G01X4173270Y4983840D02*
X3969440D01*
G01Y5389200D02*
X4173270D01*
G01X3969440Y5118960D02*
X4173260D01*
G01X4173270Y5254080D02*
X3969440D01*
G01X4173270Y5524320D02*
X3969440D01*
G01Y5659440D02*
X4173270D01*
G01X3782710Y7402950D02*
X3710950D01*
X3666000Y7358000D01*
Y7262000D01*
X3665000Y7261000D01*
G01X3565000Y7262000D02*
Y7437000D01*
X3666070Y7538070D01*
X3782710D01*
G01X3872730Y7402950D02*
X4076560D01*
G01X4076550Y7538070D02*
X3872730D01*
G01X4076560Y7808310D02*
X3872730D01*
G01Y7673190D02*
X4076560D01*
G01Y8213670D02*
X3872730D01*
G01Y8348790D02*
X4076560D01*
G01Y8483900D02*
X3872740D01*
X3872730Y8483910D01*
G01Y8619030D02*
X4076560D01*
G01X3872730Y8078550D02*
X4076560D01*
G01Y7943430D02*
X3872730D01*
G01X4016560Y8920120D02*
X4144000Y9047560D01*
Y9269000D01*
X4250000Y9375000D01*
Y9581000D01*
X4219120Y9611880D01*
X4124630D01*
G01X3762560Y8920120D02*
X3638000Y9044680D01*
Y9312000D01*
X3872850Y9546850D01*
X4124630D01*
G01X4016550Y9174120D02*
Y9392550D01*
X4040810Y9416810D01*
X4124630D01*
G01Y9481830D02*
X3875820D01*
X3762550Y9368560D01*
Y9174120D01*
G01X4124630Y9741930D02*
X3976070D01*
G01X3881200Y9739170D02*
X3943470Y9676900D01*
X4124630D01*
G01X5097630Y558410D02*
X4934070D01*
X4886790Y605690D01*
Y715100D01*
X4812430Y789460D01*
Y938860D01*
G01X4558430D02*
Y936410D01*
X4808070Y686770D01*
Y502580D01*
X4879240Y431410D01*
X5097630D01*
G01X5056980Y1605550D02*
X4743630D01*
X4666260Y1682920D01*
G01X4786040Y8503990D02*
Y8335570D01*
X4784990Y8334520D01*
G01X5013240Y8503990D02*
Y8378240D01*
X4969520Y8334520D01*
X4875010D01*
G01X5627690Y323730D02*
X5754690D01*
G01X5615980Y1732550D02*
X5797330D01*
X5816470Y1713410D01*
G01X5615980Y1605550D02*
X5798630D01*
X5816470Y1623390D01*
G01X5375000Y8258000D02*
X5376010Y8259010D01*
Y8340000D01*
G01X5286990Y8172010D02*
Y8339000D01*
X5285990Y8340000D01*
G01X6389690Y233710D02*
Y160310D01*
G01X5881690Y323730D02*
Y396690D01*
G01X6262690Y323730D02*
Y571310D01*
X6241200Y592800D01*
X6203000D01*
G01X6008690Y233710D02*
X6135690D01*
G01X5754690D02*
X5881690D01*
G01X5754690Y323730D02*
Y428690D01*
X5790000Y464000D01*
X5936000D01*
X5955500Y483500D01*
Y520310D01*
G01X6105520D02*
Y353900D01*
X6135690Y323730D01*
G01X6389690D02*
X6303000Y410420D01*
Y596000D01*
X6256190Y642810D01*
X6203000D01*
G01X6516690Y323730D02*
X6389690D01*
G01X6014420Y1048590D02*
Y973580D01*
G01X6235400Y1048590D02*
Y922600D01*
X6275000Y883000D01*
Y812000D01*
X6255800Y792800D01*
X6203000D01*
G01X6388000Y860000D02*
Y1032000D01*
X6371410Y1048590D01*
X6325420D01*
G01X5955500Y865290D02*
Y976550D01*
X5883460Y1048590D01*
G01X6105520Y865290D02*
Y1047510D01*
X6104440Y1048590D01*
G01X5816470Y1713410D02*
X6139580D01*
X6205820Y1779650D01*
G01D02*
X6078280Y1907190D01*
Y2160110D01*
X6205820Y2287650D01*
G01Y2033650D02*
X6334060Y1905410D01*
Y1633370D01*
X6226340Y1525650D01*
X6205820D01*
G01X5816470Y1623390D02*
X6108080D01*
X6205820Y1525650D01*
G01Y2541650D02*
X6332490Y2414980D01*
Y2160320D01*
X6205820Y2033650D01*
G01X8019970Y4369790D02*
X7928000Y4277820D01*
X7806820D01*
X7746000Y4217000D01*
Y3466000D01*
X7614000Y3334000D01*
X7221010D01*
X6635000Y2747990D01*
Y2716830D01*
X6459820Y2541650D01*
G01X6205820Y2287650D02*
X6077890Y2415580D01*
Y2667720D01*
X6205820Y2795650D01*
G01Y3049650D02*
X6332920Y2922550D01*
Y2668750D01*
X6205820Y2541650D01*
G01Y2795650D02*
X6078290Y2923180D01*
Y3176120D01*
X6205820Y3303650D01*
G01X7139950Y1708060D02*
X7343780D01*
G01X7139960Y1843180D02*
X7343780D01*
G01X7139960Y1978300D02*
X7343780D01*
G01X7433800Y2653900D02*
Y2691200D01*
X7391000Y2734000D01*
X7132800D01*
X7044000Y2822800D01*
Y3025000D01*
X7213000Y3194000D01*
X8115780D01*
X8199980Y3109800D01*
G01X7433800Y2518780D02*
Y2558200D01*
X7404000Y2588000D01*
X7080000D01*
X7066000Y2602000D01*
Y2712000D01*
X6992000Y2786000D01*
Y3039000D01*
X7210490Y3257490D01*
X7663490D01*
X7786000Y3380000D01*
X8252000D01*
X8292000Y3340000D01*
Y3197760D01*
X8379960Y3109800D01*
G01X7139960Y2113420D02*
X7343780D01*
G01X7139960Y2248540D02*
X7343780D01*
G01X7139960Y2383660D02*
X7343780D01*
G01X7139950Y2653900D02*
X7343780D01*
G01X7139960Y2518780D02*
X7343780D01*
G01X8199980Y4549800D02*
X8113780Y4636000D01*
X7757000D01*
X7605000Y4484000D01*
Y3531000D01*
X7548000Y3474000D01*
X7164000D01*
X6993650Y3303650D01*
X6459820D01*
G01Y2795650D02*
X6615660D01*
X7202510Y3382500D01*
X7596500D01*
X7701000Y3487000D01*
Y4230810D01*
X7839980Y4369790D01*
G01X8379960Y4549800D02*
X8323800D01*
X8238000Y4464000D01*
X7744000D01*
X7652000Y4372000D01*
Y3507000D01*
X7574000Y3429000D01*
X7185000D01*
X6805650Y3049650D01*
X6459820D01*
G01X7433800Y1708060D02*
X7601830D01*
X7656280Y1762510D01*
X7881280D01*
X7932450Y1813680D01*
Y1886090D01*
X8019970Y1973610D01*
Y2029800D01*
G01X8199980Y2209780D02*
X8106940Y2116740D01*
X7976540D01*
X7935600Y2075800D01*
Y1984500D01*
X7889150Y1938050D01*
X7737240D01*
X7642370Y1843180D01*
X7433800D01*
G01X8019970Y2209780D02*
X7969610D01*
X7877730Y2117900D01*
X7731300D01*
X7591700Y1978300D01*
X7433800D01*
G01X8199980Y2029800D02*
X8179950D01*
X8113490Y1963340D01*
Y1627100D01*
X8066270Y1579880D01*
X7569440D01*
X7478940Y1489380D01*
X7346490D01*
G01X8199980Y2389790D02*
X8109930Y2299740D01*
X7765590D01*
X7579270Y2113420D01*
X7433800D01*
G01Y2248540D02*
X7531730D01*
X7764770Y2481580D01*
X7928180D01*
X8019970Y2389790D01*
G01X8199980Y2749790D02*
X8112020Y2661830D01*
X7786820D01*
X7508650Y2383660D01*
X7433800D01*
G01X10468900Y9464970D02*
X10069670Y9065740D01*
Y6408990D01*
X9379480Y5718800D01*
X9230700D01*
X9188980Y5677080D01*
Y5580250D01*
X9148050Y5539320D01*
X9052020D01*
X9012650Y5499950D01*
Y5395270D01*
X8974870Y5357490D01*
X8873330D01*
X8832220Y5316380D01*
Y5225460D01*
X8787130Y5180370D01*
X8690700D01*
X8648980Y5138650D01*
Y5043410D01*
X8608030Y5002460D01*
X7985460D01*
X7926000Y4943000D01*
Y4815830D01*
X7839980Y4729810D01*
G01X7571020Y5871310D02*
Y5808090D01*
X7657300Y5721810D01*
X7931970D01*
X8019970Y5809810D01*
G01X7682780Y5961330D02*
X7741340D01*
X7800200Y5902470D01*
X8112630D01*
X8199980Y5989820D01*
G01X7571020Y5961330D02*
Y6019700D01*
X7628560Y6077240D01*
X8292540D01*
X8379960Y5989820D01*
G01X7839980Y5809810D02*
X7744280D01*
X7682780Y5871310D01*
G01X8379960Y7789820D02*
X8288770Y7698630D01*
X7758500D01*
X7680390Y7776740D01*
X7589920D01*
G01X8019970Y7969830D02*
X7930610Y7880470D01*
X7716780D01*
X7685390Y7911860D01*
X7589920D01*
G01X7296060Y7776730D02*
X7499890D01*
X7499900Y7776740D01*
G01Y7911860D02*
X7296070D01*
G01X7589920Y8046980D02*
X7762830D01*
X7839980Y7969830D01*
G01X8559970D02*
X8470150Y8059650D01*
Y8194540D01*
X8428430Y8236260D01*
X7748310D01*
X7694150Y8182100D01*
X7589920D01*
G01Y8317220D02*
X7657650D01*
X7760130Y8419700D01*
X8109850D01*
X8199980Y8509830D01*
G01X7296070Y8317220D02*
X7499900D01*
G01X7296060Y8046980D02*
X7499900D01*
G01Y8182100D02*
X7296070D01*
G01X10229950Y2650420D02*
X9619130D01*
X9434240Y2835310D01*
X8697430D01*
X8650200Y2788080D01*
Y2660030D01*
X8559970Y2569800D01*
G01X10229950Y1888420D02*
X9915080D01*
X9324030Y2479470D01*
X8110300D01*
X8019970Y2569800D01*
G01X10344300Y4881460D02*
X9925110D01*
X9684280Y4640630D01*
X8516090D01*
X8470430Y4594970D01*
Y4505240D01*
X8425100Y4459910D01*
X8338520D01*
X8290950Y4412340D01*
Y4280780D01*
X8199980Y4189810D01*
G01X8379960D02*
X8471210Y4281060D01*
Y4413150D01*
X8513710Y4455650D01*
X9748040D01*
X10038730Y4746340D01*
X10344300D01*
G01X10468900Y8448970D02*
X10161860Y8141930D01*
Y6367660D01*
X9438390Y5644190D01*
Y5459190D01*
X9336570Y5357370D01*
X9241250D01*
X9190370Y5306490D01*
Y5226200D01*
X9142070Y5177900D01*
X9054680D01*
X9010610Y5133830D01*
Y5033840D01*
X8972040Y4995270D01*
X8875990D01*
X8831910Y4951190D01*
Y4860660D01*
X8787040Y4815790D01*
X8698090D01*
X8612110Y4729810D01*
X8559970D01*
G01X8019970D02*
X8111490Y4821330D01*
X8609530D01*
X8652850Y4864650D01*
Y4955180D01*
X8694590Y4996920D01*
X8789070D01*
X8831570Y5039420D01*
Y5133870D01*
X8876460Y5178760D01*
X8970910D01*
X9007910Y5215760D01*
Y5312600D01*
X9054340Y5359030D01*
X9147250D01*
X9193680Y5405460D01*
Y5501510D01*
X9233040Y5540870D01*
X9335080D01*
X9388000Y5593790D01*
Y5663860D01*
X10112210Y6388070D01*
Y8854280D01*
X10468900Y9210970D01*
G01X9236360Y397940D02*
X9390940D01*
X9512550Y519550D01*
G01X9236360Y751630D02*
Y547800D01*
G01X9859180Y790960D02*
X9579070Y1071070D01*
X9263360D01*
X9013770Y1320660D01*
Y2115970D01*
X8919960Y2209780D01*
G01X9099970Y2029800D02*
Y1976800D01*
X9187780Y1888990D01*
Y1275780D01*
X9310580Y1152980D01*
X9751160D01*
X10113180Y790960D01*
G01X8919960Y2029800D02*
X8833870Y1943710D01*
Y1389070D01*
X9217220Y1005720D01*
X9472670D01*
X9564510Y913880D01*
Y842430D01*
G01X10367180Y790960D02*
X9668800Y1489340D01*
Y1595480D01*
X9328830Y1935450D01*
X9233450D01*
X9189360Y1979540D01*
Y2062190D01*
X9099970Y2151580D01*
Y2209780D01*
G01Y2389790D02*
X9147530D01*
X9242910Y2294410D01*
X9352410D01*
X9815210Y1831610D01*
Y1527700D01*
X10107240Y1235670D01*
X10505550D01*
X10724070Y1017150D01*
Y865970D01*
G01X8919960Y2389790D02*
X9010620Y2299130D01*
X9149240D01*
X9190160Y2258210D01*
Y2165320D01*
X9238190Y2117290D01*
X9328710D01*
X9738070Y1707930D01*
Y1535570D01*
X10184380Y1089260D01*
X10456760D01*
X10588950Y957070D01*
Y865970D01*
G01X10229950Y2142420D02*
X9807510D01*
X9380130Y2569800D01*
X9279960D01*
G01X10229950Y2396420D02*
X9701510D01*
X9440540Y2657390D01*
X8827570D01*
X8739980Y2569800D01*
G01X10344300Y3800500D02*
X10253210D01*
X9468500Y3015790D01*
X9193980D01*
X9099970Y3109800D01*
G01X9279960Y2929790D02*
X9511600D01*
X10247190Y3665380D01*
X10344300D01*
G01Y4070740D02*
X10254240D01*
X9473310Y3289810D01*
X9279960D01*
G01X10344300Y3935620D02*
X10254510D01*
X9514990Y3196100D01*
X9006260D01*
X8919960Y3109800D01*
G01X10344300Y4205860D02*
X10255520D01*
X9699460Y3649800D01*
X9279960D01*
G01X8919960Y4189810D02*
X9008660Y4278510D01*
X9917260D01*
X10249970Y4611220D01*
X10344300D01*
G01Y4476100D02*
X10253410D01*
X9877920Y4100610D01*
X9189170D01*
X9099970Y4189810D01*
G01X10344300Y4340980D02*
X10255250D01*
X9924070Y4009800D01*
X9279960D01*
G01X10468900Y7432970D02*
X10350780Y7314850D01*
Y6252710D01*
X9648590Y5550520D01*
Y4894490D01*
X9483910Y4729810D01*
X9279960D01*
G01X10468900Y7686970D02*
X10303550Y7521620D01*
Y6283440D01*
X9590330Y5570220D01*
Y5025170D01*
X9382790Y4817630D01*
X8877830D01*
X8790010Y4729810D01*
X8739980D01*
G01X10468900Y8194970D02*
X10209840Y7935910D01*
Y6344790D01*
X9487210Y5622160D01*
Y5290440D01*
X9373870Y5177100D01*
X9237290D01*
X9189280Y5129090D01*
Y5034620D01*
X9158580Y5003920D01*
X9070420D01*
X8976300Y4909800D01*
X8919960D01*
G01X10468900Y7940970D02*
X10256320Y7728390D01*
Y6314910D01*
X9535380Y5593970D01*
Y5154400D01*
X9376240Y4995260D01*
X9242810D01*
X9157350Y4909800D01*
X9099970D01*
G01X8919960Y7789820D02*
X9008080Y7701700D01*
X9459480D01*
X9544780Y7787000D01*
G01X9099970Y7789820D02*
X9190540Y7880390D01*
X9503050D01*
X9544780Y7922120D01*
G01X9719860Y9899300D02*
Y9136430D01*
X9189620Y8606190D01*
Y8239460D01*
X9099970Y8149810D01*
G01X8919960D02*
X9010930Y8240780D01*
Y8619560D01*
X9467800Y9076430D01*
Y10122680D01*
G01X8739980Y7969830D02*
X8830800Y8060650D01*
X9413070D01*
X9544780Y8192360D01*
G01X9279960Y7969830D02*
X9457370D01*
X9544780Y8057240D01*
G01X9279960Y8329820D02*
X9542440D01*
X9544780Y8327480D01*
G01X9607550Y729550D02*
Y799390D01*
X9564510Y842430D01*
G01X9838640Y7787000D02*
X9634800D01*
G01X9838630Y7922120D02*
X9634800D01*
G01Y8327480D02*
X9838640D01*
G01X9838630Y8057240D02*
X9634800D01*
G01X9838640Y8192360D02*
X9634800D01*
G01X9719860Y9899300D02*
Y10120740D01*
X9721800Y10122680D01*
G01X10724070Y572120D02*
Y775950D01*
G01X10588950D02*
Y572120D01*
G01X10638150Y3665380D02*
X10434320D01*
G01X10638160Y3935620D02*
X10434320D01*
G01Y3800500D02*
X10638150D01*
G01X10434320Y4070740D02*
X10638160D01*
G01X10638150Y4205860D02*
X10434320D01*
G01X10638150Y4340980D02*
X10434320D01*
G01Y4476100D02*
X10638140D01*
X10638150Y4476110D01*
G01X10638160Y4881460D02*
X10434320D01*
G01Y4746340D02*
X10638150D01*
G01Y4611220D02*
X10434320D01*
G54D39*
X5186990Y7871990D03*
X5237010D03*
X5286990D03*
X5337010D03*
Y8172010D03*
X5286990D03*
X5237010D03*
X5186990D03*
G54D49*
G01X589830Y156820D02*
Y74110D01*
G01X498740Y1287790D02*
X416030D01*
G01X498740Y1152670D02*
X416030D01*
G01X498740Y1017550D02*
X416030D01*
G01X498740Y882420D02*
X416030D01*
G01X498740Y1963380D02*
X416030D01*
G01X498750Y1828270D02*
X416040D01*
G01X498740Y1693140D02*
X416030D01*
G01X498740Y1558030D02*
X416030D01*
G01X498740Y1422910D02*
X416030D01*
G01X498740Y2774110D02*
X416030D01*
G01X498740Y2638990D02*
X416030D01*
G01X498750Y2503870D02*
X416040D01*
G01X498740Y2368750D02*
X416030D01*
G01X498740Y2233630D02*
X416030D01*
G01X498740Y2098520D02*
X416030D01*
G01X498740Y3449710D02*
X416030D01*
G01X498740Y3314590D02*
X416030D01*
G01X498740Y3179470D02*
X416030D01*
G01X498740Y3044350D02*
X416030D01*
G01X498740Y2909230D02*
X416030D01*
G01X498740Y4260430D02*
X416030D01*
G01X498740Y4125310D02*
X416030D01*
G01X498740Y3990190D02*
X416030D01*
G01X498750Y3855070D02*
X416040D01*
G01X498740Y3719950D02*
X416030D01*
G01X498740Y3584830D02*
X416030D01*
G01X498740Y4936030D02*
X416030D01*
G01X498740Y4800910D02*
X416030D01*
G01X498740Y4665800D02*
X416030D01*
G01X498750Y4530670D02*
X416040D01*
G01X498740Y4395540D02*
X416030D01*
G01X498750Y5611620D02*
X416040D01*
G01X498740Y5476510D02*
X416030D01*
G01X498740Y5341390D02*
X416030D01*
G01X498740Y5206270D02*
X416030D01*
G01X498740Y5071140D02*
X416030D01*
G01X498740Y5746740D02*
X416030D01*
G01X995190Y156820D02*
Y74110D01*
G01X1130310Y156820D02*
Y74110D01*
G01X1265430Y156830D02*
Y74120D01*
G01X724950Y156820D02*
Y74110D01*
G01X860070Y156820D02*
Y74110D01*
G01X1234850Y6348110D02*
X1152140D01*
G01X1234850Y6888590D02*
X1152140D01*
G01X1234850Y6753470D02*
X1152140D01*
G01X1234850Y6618350D02*
X1152140D01*
G01X1234850Y6483230D02*
X1152140D01*
G01X1278160Y7878220D02*
X1195450D01*
G01X1278160Y7743100D02*
X1195450D01*
G01X1278160Y7607980D02*
X1195450D01*
G01X1150710Y8669100D02*
X1233420D01*
G01X1148970Y8183000D02*
Y8265710D01*
G01X1278160Y8013340D02*
Y8096050D01*
G01X1148970Y8092980D02*
Y7993780D01*
G01X884350Y8090880D02*
X1146870D01*
X1148970Y8092980D01*
G01X1805910Y156820D02*
Y74110D01*
G01X1941030Y156820D02*
Y74110D01*
G01X1400550Y156820D02*
Y74110D01*
G01X1535670Y156820D02*
Y74110D01*
G01X1670790Y156820D02*
Y74110D01*
G01X1500910Y9021110D02*
X1600110D01*
G01X1500910Y8909350D02*
X1600110D01*
G01X2076150Y156820D02*
Y74110D01*
G01X2619990Y8329840D02*
Y8149830D01*
G01Y8509830D02*
Y8329840D01*
G01X2533800Y10124300D02*
Y10207010D01*
G01X2787800Y10034280D02*
Y9951570D01*
G01X2318550Y10849160D02*
X2235840D01*
G01X3041800Y10034280D02*
Y9951570D01*
G01X3249130Y9843460D02*
X3166420D01*
G01X3249130Y9492940D02*
X3166420D01*
G01X4226420Y7673190D02*
X4309130D01*
G01X4226420Y7808310D02*
X4309130D01*
G01X4226420Y7402950D02*
X4309130D01*
G01X4226410Y7538070D02*
X4309120D01*
G01X4226420Y8483900D02*
X4309130D01*
G01X4226420Y8619030D02*
X4309130D01*
G01X4226420Y7943430D02*
X4309130D01*
G01X4226420Y8078550D02*
X4309130D01*
G01X4226420Y8213670D02*
X4309130D01*
G01X4226420Y8348790D02*
X4309130D01*
G01X4124630Y9806950D02*
X4228060D01*
X4251730Y9783280D01*
X4314690D01*
G01X4124630Y9871970D02*
X4313360D01*
X4314690Y9873300D01*
G01X5005820Y139310D02*
X4923110D01*
G01X4323120Y930240D02*
X4405830D01*
G01X4323130Y1065360D02*
X4405840D01*
G01X4323120Y1200490D02*
X4405830D01*
G01X4323130Y795120D02*
X4405840D01*
G01X4323130Y1876080D02*
X4405840D01*
G01X4323130Y2011210D02*
X4405840D01*
G01X4323120Y1335600D02*
X4405830D01*
G01X4323130Y1470720D02*
X4405840D01*
G01X4323130Y1605850D02*
X4405840D01*
G01X4323130Y1740960D02*
X4405840D01*
G01X5056980Y1351550D02*
X4743630D01*
X4666260Y1428920D01*
G01X4323130Y2686800D02*
X4405840D01*
G01X4323130Y2146320D02*
X4405840D01*
G01X4323130Y2281440D02*
X4405840D01*
G01X4323130Y2416560D02*
X4405840D01*
G01X4323130Y2551680D02*
X4405840D01*
G01X4323130Y3497520D02*
X4405840D01*
G01X4323130Y2821920D02*
X4405840D01*
G01X4323130Y2957040D02*
X4405840D01*
G01X4323130Y3092160D02*
X4405840D01*
G01X4323130Y3227280D02*
X4405840D01*
G01X4323130Y3362400D02*
X4405840D01*
G01X4323130Y3632640D02*
X4405840D01*
G01X4323130Y3767760D02*
X4405840D01*
G01X4323130Y3902880D02*
X4405840D01*
G01X4323130Y4038000D02*
X4405840D01*
G01X4323120Y4173120D02*
X4405830D01*
G01X4323130Y4308240D02*
X4405840D01*
G01X4323130Y4443360D02*
X4405840D01*
G01X4323130Y4578480D02*
X4405840D01*
G01X4323130Y4713600D02*
X4405840D01*
G01X4323130Y4848720D02*
X4405840D01*
G01X4323130Y4983840D02*
X4405840D01*
G01X4323120Y5118960D02*
X4405830D01*
G01X4323130Y5254080D02*
X4405840D01*
G01X4323130Y5389200D02*
X4405840D01*
G01X4323130Y5524320D02*
X4405840D01*
G01X4323130Y5659440D02*
X4405840D01*
G01X4466990Y8111010D02*
X4467000Y8111000D01*
X4547990D01*
G01X4466990Y8222770D02*
X4467000Y8222760D01*
X4547990D01*
G01X4466990Y8334530D02*
X4467000Y8334520D01*
X4547990D01*
G01X5013240Y8664010D02*
X4933010D01*
X4902000Y8633000D01*
Y8540090D01*
X4865900Y8503990D01*
X4786040D01*
G01X4924990Y8846000D02*
Y8926990D01*
X4925000Y8927000D01*
G01X4314690Y9783280D02*
Y9700570D01*
G01Y10178280D02*
Y9873300D01*
G01X4339450Y10203040D02*
X4314690Y10178280D01*
G01X5627690Y233710D02*
Y151000D01*
G01X5095840Y139310D02*
X5179690D01*
G01X5095840D02*
Y302620D01*
X5097630Y304410D01*
G01Y685410D02*
X5173410D01*
X5246000Y758000D01*
G01X5147210Y1902010D02*
X5229920D01*
G01X5057190D02*
Y1989190D01*
G01X5056980Y1732550D02*
Y1901800D01*
X5057190Y1902010D01*
G01X5238240Y8503990D02*
X5335990D01*
X5336000Y8504000D01*
G01X5013240Y8664010D02*
Y8844230D01*
X5015010Y8846000D01*
G01X6008690Y323730D02*
Y406440D01*
G01X6262690Y233710D02*
Y151000D01*
G01X6516690Y233710D02*
Y151000D01*
G01X6990100Y1843180D02*
X6907390D01*
G01X6900010Y2045520D02*
X6967910Y2113420D01*
X6990100D01*
G01Y1978300D02*
X6967230D01*
X6900010Y2045520D01*
G01X6990110Y1978300D02*
X6990100D01*
G01X6990090Y1708060D02*
X6907380D01*
G01X6990100Y2518780D02*
X6967220D01*
X6900000Y2586000D01*
G01D02*
X6967900Y2653900D01*
X6990090D01*
G01X6900010Y2315760D02*
X6967910Y2383660D01*
X6990100D01*
G01Y2248540D02*
X6967230D01*
X6900010Y2315760D01*
G01X6990110Y2248540D02*
X6990100D01*
G01X7146210Y7911860D02*
X7063500D01*
G01X7146200Y7776730D02*
X7063490D01*
G01X7146210Y8317220D02*
X7063500D01*
G01X7146210Y8182100D02*
X7063500D01*
G01X7146200Y8046980D02*
X7063490D01*
G01X8559970Y1669780D02*
Y1489790D01*
G01Y1849790D02*
Y1669780D01*
G01X9417550Y729550D02*
X9334840D01*
G01X9236360Y841650D02*
X9369790D01*
X9370570Y842430D01*
G01X9474490D02*
X9370570D01*
G01X9954570Y1542500D02*
X10013050Y1484020D01*
G01X9954570Y1632520D02*
Y1739430D01*
G01X10229950Y1634420D02*
X9956470D01*
X9954570Y1632520D01*
G01X9988490Y7922120D02*
Y8057240D01*
G01X9988500Y7787000D02*
Y7922110D01*
X9988490Y7922120D01*
G01X9988500Y7787000D02*
Y7704290D01*
G01X9988490Y8057240D02*
Y8192350D01*
X9988500Y8192360D01*
G01D02*
Y8327480D01*
G01D02*
Y8392500D01*
X10014000Y8418000D01*
G01X9809880Y9899300D02*
X9921300D01*
G01X10724070Y422260D02*
Y339550D01*
G01X10588950Y422260D02*
Y339550D01*
G01X10788010Y4205860D02*
X10870720D01*
G01X10788020Y4070740D02*
X10870730D01*
G01X10788020Y3935620D02*
X10870730D01*
G01X10788010Y3800500D02*
X10870720D01*
G01X10788010Y3665380D02*
X10870720D01*
G01X10788020Y4881460D02*
X10870730D01*
G01X10788010Y4746340D02*
X10870720D01*
G01X10788010Y4611220D02*
X10870720D01*
G01X10788010Y4476110D02*
X10870720D01*
G01X10788010Y4340980D02*
X10870720D01*
M02*
