G04 ================== begin FILE IDENTIFICATION RECORD ==================*
G04 Layout Name:  kupl_t_0825.brd*
G04 Film Name:    02_GND*
G04 File Format:  Gerber RS274X*
G04 File Origin:  Cadence Allegro 16.6-P004*
G04 Origin Date:  Thu Aug 25 13:11:53 2022*
G04 *
G04 Layer:  VIA CLASS/GND02*
G04 Layer:  PIN/GND02*
G04 Layer:  ETCH/GND02*
G04 Layer:  BOARD GEOMETRY/OUTLINE*
G04 *
G04 Offset:    (0.0000 0.0000)*
G04 Mirror:    No*
G04 Mode:      Positive*
G04 Rotation:  0*
G04 FullContactRelief:  No*
G04 UndefLineWidth:     0.0152*
G04 ================== end FILE IDENTIFICATION RECORD ====================*
%FSLAX25Y25*MOMM*%
%IR0*IPPOS*OFA0.00000B0.00000*MIA0B0*SFA1.00000B1.00000*%
%ADD10C,.508*%
%ADD22C,.6096*%
%ADD14O,3.5001X1.5001*%
%ADD13O,1.5001X3.7*%
%ADD16C,1.0201*%
%ADD23C,1.4*%
%ADD12C,1.5001*%
%ADD24C,2.3012*%
%ADD21C,.0001*%
%ADD18C,1.4501*%
%ADD11C,1.524*%
%ADD15C,6.1501*%
%ADD19C,1.8009*%
%ADD20C,3.1999*%
%ADD17C,2.5999*%
%ADD25C,.0152*%
%ADD27C,.8132*%
%ADD33C,2.0324*%
%ADD29C,1.0164*%
%ADD26O,4.0084X2.0084*%
%ADD31C,3.1084*%
%ADD28C,2.0086*%
%ADD30C,1.5286*%
%ADD32C,2.4666*%
%ADD34C,2.8096*%
G75*
%LPD*%
G75*
G36*
G01X200000Y25410D02*
G02X25410Y200000I0J174590D01*
G01Y10800000D01*
G02X200000Y10974590I174590J0D01*
G01X4789780D01*
G02X4794480Y10955420I5J-10160D01*
G03X4991620I98570J-189180D01*
G02X4996320Y10974590I4695J9010D01*
G01X6059780D01*
G02X6064480Y10955420I5J-10160D01*
G03X6261620I98570J-189180D01*
G02X6266320Y10974590I4695J9010D01*
G01X6714180D01*
G02X6718880Y10955420I5J-10160D01*
G03X6916020I98570J-189180D01*
G02X6920720Y10974590I4695J9010D01*
G01X7984180D01*
G02X7988880Y10955420I5J-10160D01*
G03X8186020I98570J-189180D01*
G02X8190720Y10974590I4695J9010D01*
G01X10800000D01*
G02X10974590Y10800000I0J-174590D01*
G01Y200000D01*
G02X10800000Y25410I-174590J0D01*
G01X200000D01*
G37*
%LPC*%
G75*
G36*
G01X4398710Y10174930D02*
G03X4381790I-8460J-5623D01*
G02X4311340Y10245380I-42340J28110D01*
G03Y10262300I-5623J8460D01*
G02Y10346980I28110J42340D01*
G03Y10363900I-5623J8460D01*
G02X4381790Y10434350I28110J42340D01*
G03X4398710I8460J5623D01*
G02X4469160Y10363900I42340J-28110D01*
G03Y10346980I5623J-8460D01*
G02Y10262300I-28110J-42340D01*
G03Y10245380I5623J-8460D01*
G02X4398710Y10174930I-28110J-42340D01*
G37*
G36*
G01X8033220Y9804710D02*
G03X8014690I-9265J-4176D01*
G02Y9899730I-105240J47510D01*
G03X8033220I9265J4176D01*
G02Y9804710I105240J-47510D01*
G37*
G36*
G01X6890200Y9804680D02*
G03X6871680I-9260J-4179D01*
G02Y9899760I-105230J47540D01*
G03X6890200I9260J4179D01*
G02Y9804680I105230J-47540D01*
G37*
G36*
G01X6108820Y9804710D02*
G03X6090290I-9265J-4176D01*
G02Y9899730I-105240J47510D01*
G03X6108820I9265J4176D01*
G02Y9804710I105240J-47510D01*
G37*
G36*
G01X4965800Y9804680D02*
G03X4947280I-9260J-4179D01*
G02Y9899760I-105230J47540D01*
G03X4965800I9260J4179D01*
G02Y9804680I105230J-47540D01*
G37*
G36*
G01X4729450Y8834400D02*
G03X4745780Y8834070I8287J5877D01*
G02X4744550Y8773600I40220J-31066D01*
G03X4728220Y8773930I-8287J-5877D01*
G02X4647050Y8774910I-40216J31070D01*
G03X4630550Y8774740I-8189J-6016D01*
G02X4629950Y8834090I-41551J29258D01*
G03X4646450Y8834260I8189J6016D01*
G02X4729450Y8834400I41549J-29261D01*
G37*
G36*
G01X2769580Y8579940D02*
G03X2774620Y8593800I-4049J9319D01*
G02X2996770Y8596720I110371J55037D01*
G03X3002920Y8582740I9205J-4293D01*
G02X2903720Y8514950I-22940J-72908D01*
G03X2892930Y8525770I-10138J680D01*
G02X2886300Y8525520I-7960J123069D01*
G03X2876270Y8514710I111J-10161D01*
G02X2769580Y8579940I-76271J-4883D01*
G37*
G36*
G01X8410380Y1419680D02*
G03X8405340Y1405820I4049J-9319D01*
G02X8183190Y1402900I-110371J-55037D01*
G03X8177040Y1416880I-9205J4293D01*
G02X8276240Y1484670I22940J72908D01*
G03X8287030Y1473850I10138J-680D01*
G02X8293660Y1474100I7960J-123070D01*
G03X8303690Y1484910I-111J10161D01*
G02X8410380Y1419680I76271J4883D01*
G37*
G36*
G01X5690370Y495910D02*
G03Y479710I6138J-8100D01*
G02X5641250I-24560J-32400D01*
G03Y495910I-6138J8100D01*
G02X5690370I24560J32400D01*
G37*
G36*
G01X5588770D02*
G03Y479710I6138J-8100D01*
G02X5539650I-24560J-32400D01*
G03Y495910I-6138J8100D01*
G02X5588770I24560J32400D01*
G37*
G36*
G01X5487170D02*
G03Y479710I6138J-8100D01*
G02X5438050I-24560J-32400D01*
G03Y495910I-6138J8100D01*
G02X5487170I24560J32400D01*
G37*
G36*
G01X5385570D02*
G03Y479710I6138J-8100D01*
G02X5336450I-24560J-32400D01*
G03Y495910I-6138J8100D01*
G02X5385570I24560J32400D01*
G37*
G36*
G01X7290080Y10295420D02*
G02X7123120Y10401770I-92623J38821D01*
G03X7113660Y10418570I-7521J6829D01*
G02X7185240Y10544570I-18198J93670D01*
G03X7204410Y10544720I9559J3442D01*
G02X7392080Y10551030I95033J-32480D01*
G03X7410820I9370J3919D01*
G02X7596080Y10551070I92638J-38789D01*
G03X7614820I9370J3927D01*
G02X7786320Y10450080I92620J-38828D01*
G03X7795690Y10433720I7976J-6295D01*
G02X7716830Y10295420I13762J-99480D01*
G03X7698080I-9375J-3925D01*
G02X7512830Y10295440I-92621J38822D01*
G03X7494080I-9375J-3921D01*
G02X7308830Y10295420I-92629J38802D01*
G03X7290080I-9375J-3925D01*
G37*
G36*
G01X5365680D02*
G02X5198720Y10401770I-92623J38821D01*
G03X5189260Y10418570I-7521J6829D01*
G02X5260840Y10544570I-18198J93670D01*
G03X5280010Y10544720I9559J3442D01*
G02X5467680Y10551030I95033J-32480D01*
G03X5486420I9370J3919D01*
G02X5671680Y10551070I92638J-38789D01*
G03X5690420I9370J3927D01*
G02X5861920Y10450080I92620J-38828D01*
G03X5871290Y10433720I7976J-6295D01*
G02X5792430Y10295420I13762J-99480D01*
G03X5773680I-9375J-3925D01*
G02X5588430Y10295440I-92621J38822D01*
G03X5569680I-9375J-3921D01*
G02X5384430Y10295420I-92629J38802D01*
G03X5365680I-9375J-3925D01*
G37*
G36*
G01X5173180Y9091780D02*
G02Y9132380I-35230J20300D01*
G03X5190780I8800J5077D01*
G02Y9091780I35230J-20300D01*
G03X5173180I-8800J-5077D01*
G37*
G36*
G01X1620450Y8955920D02*
G02X1579770I-20340J-46570D01*
G03Y8974540I-4072J9310D01*
G02X1620450I20340J46570D01*
G03Y8955920I4072J-9310D01*
G37*
G36*
G01X4802220Y8013190D02*
G02X4761620I-20300J-35230D01*
G03Y8030790I-5077J8800D01*
G02X4802220I20300J35230D01*
G03Y8013190I5077J-8800D01*
G37*
G36*
G01X5588600Y7740440D02*
G02Y7781040I-35230J20300D01*
G03X5606200I8800J5077D01*
G02Y7740440I35230J-20300D01*
G03X5588600I-8800J-5077D01*
G37*
G36*
G01X5021040Y7730800D02*
G02X4980440I-20300J-35230D01*
G03Y7748400I-5077J8800D01*
G02X5021040I20300J35230D01*
G03Y7730800I5077J-8800D01*
G37*
G36*
G01X5640160Y6903780D02*
G02Y6944380I-35230J20300D01*
G03X5657760I8800J5077D01*
G02Y6903780I35230J-20300D01*
G03X5640160I-8800J-5077D01*
G37*
G36*
G01X5233680D02*
G02Y6944380I-35230J20300D01*
G03X5251280I8800J5077D01*
G02Y6903780I35230J-20300D01*
G03X5233680I-8800J-5077D01*
G37*
G36*
G01X4419790Y6634950D02*
G02Y6675550I-35230J20300D01*
G03X4437390I8800J5077D01*
G02Y6634950I35230J-20300D01*
G03X4419790I-8800J-5077D01*
G37*
G36*
G01X5641800Y6630870D02*
G02Y6671470I-35230J20300D01*
G03X5659400I8800J5077D01*
G02Y6630870I35230J-20300D01*
G03X5641800I-8800J-5077D01*
G37*
G36*
G01X4825790Y6626950D02*
G02Y6667550I-35230J20300D01*
G03X4843390I8800J5077D01*
G02Y6626950I35230J-20300D01*
G03X4825790I-8800J-5077D01*
G37*
G36*
G01X5233800Y6626600D02*
G02Y6667200I-35230J20300D01*
G03X5251400I8800J5077D01*
G02Y6626600I35230J-20300D01*
G03X5233800I-8800J-5077D01*
G37*
G36*
G01X4418790Y6335950D02*
G02Y6376550I-35230J20300D01*
G03X4436390I8800J5077D01*
G02Y6335950I35230J-20300D01*
G03X4418790I-8800J-5077D01*
G37*
G36*
G01X5640800Y6331870D02*
G02Y6372470I-35230J20300D01*
G03X5658400I8800J5077D01*
G02Y6331870I35230J-20300D01*
G03X5640800I-8800J-5077D01*
G37*
G36*
G01X4824790Y6327950D02*
G02Y6368550I-35230J20300D01*
G03X4842390I8800J5077D01*
G02Y6327950I35230J-20300D01*
G03X4824790I-8800J-5077D01*
G37*
G36*
G01X5232800Y6327600D02*
G02Y6368200I-35230J20300D01*
G03X5250400I8800J5077D01*
G02Y6327600I35230J-20300D01*
G03X5232800I-8800J-5077D01*
G37*
G36*
G01X5638180Y6061240D02*
G02Y6101840I-35230J20300D01*
G03X5655780I8800J5077D01*
G02Y6061240I35230J-20300D01*
G03X5638180I-8800J-5077D01*
G37*
G36*
G01X5231700D02*
G02Y6101840I-35230J20300D01*
G03X5249300I8800J5077D01*
G02Y6061240I35230J-20300D01*
G03X5231700I-8800J-5077D01*
G37*
G36*
G01X6739800Y5552870D02*
G02Y5593470I-35230J20300D01*
G03X6757400I8800J5077D01*
G02Y5552870I35230J-20300D01*
G03X6739800I-8800J-5077D01*
G37*
G36*
G01X5233010Y5540950D02*
G02Y5581550I-35230J20300D01*
G03X5250610I8800J5077D01*
G02Y5540950I35230J-20300D01*
G03X5233010I-8800J-5077D01*
G37*
G36*
G01X4862300Y5311590D02*
G02X4821700I-20300J-35230D01*
G03Y5329190I-5077J8800D01*
G02X4862300I20300J35230D01*
G03Y5311590I5077J-8800D01*
G37*
G36*
G01X4514660Y5310970D02*
G02X4474060I-20300J-35230D01*
G03Y5328570I-5077J8800D01*
G02X4514660I20300J35230D01*
G03Y5310970I5077J-8800D01*
G37*
G36*
G01X6738800Y5253870D02*
G02Y5294470I-35230J20300D01*
G03X6756400I8800J5077D01*
G02Y5253870I35230J-20300D01*
G03X6738800I-8800J-5077D01*
G37*
G36*
G01X5231880Y5243500D02*
G02Y5285680I-34760J21090D01*
G03X5249260I8690J5268D01*
G02Y5243500I34760J-21090D01*
G03X5231880I-8690J-5268D01*
G37*
G36*
G01X5978840Y4658280D02*
G02Y4698880I-35230J20300D01*
G03X5996440I8800J5077D01*
G02Y4658280I35230J-20300D01*
G03X5978840I-8800J-5077D01*
G37*
G36*
G01X6382390Y4654650D02*
G02Y4695250I-35230J20300D01*
G03X6399990I8800J5077D01*
G02Y4654650I35230J-20300D01*
G03X6382390I-8800J-5077D01*
G37*
G36*
G01X5977790Y4383950D02*
G02Y4424550I-35230J20300D01*
G03X5995390I8800J5077D01*
G02Y4383950I35230J-20300D01*
G03X5977790I-8800J-5077D01*
G37*
G36*
G01X7142800Y4381870D02*
G02Y4422470I-35230J20300D01*
G03X7160400I8800J5077D01*
G02Y4381870I35230J-20300D01*
G03X7142800I-8800J-5077D01*
G37*
G36*
G01X6768800Y4378600D02*
G02Y4419200I-35230J20300D01*
G03X6786400I8800J5077D01*
G02Y4378600I35230J-20300D01*
G03X6768800I-8800J-5077D01*
G37*
G36*
G01X6383790Y4375950D02*
G02Y4416550I-35230J20300D01*
G03X6401390I8800J5077D01*
G02Y4375950I35230J-20300D01*
G03X6383790I-8800J-5077D01*
G37*
G36*
G01X5976790Y4084950D02*
G02Y4125550I-35230J20300D01*
G03X5994390I8800J5077D01*
G02Y4084950I35230J-20300D01*
G03X5976790I-8800J-5077D01*
G37*
G36*
G01X7141800Y4082870D02*
G02Y4123470I-35230J20300D01*
G03X7159400I8800J5077D01*
G02Y4082870I35230J-20300D01*
G03X7141800I-8800J-5077D01*
G37*
G36*
G01X6767800Y4079600D02*
G02Y4120200I-35230J20300D01*
G03X6785400I8800J5077D01*
G02Y4079600I35230J-20300D01*
G03X6767800I-8800J-5077D01*
G37*
G36*
G01X6382790Y4076950D02*
G02Y4117550I-35230J20300D01*
G03X6400390I8800J5077D01*
G02Y4076950I35230J-20300D01*
G03X6382790I-8800J-5077D01*
G37*
G36*
G01X5976860Y3815740D02*
G02Y3856340I-35230J20300D01*
G03X5994460I8800J5077D01*
G02Y3815740I35230J-20300D01*
G03X5976860I-8800J-5077D01*
G37*
G36*
G01X6380410Y3812110D02*
G02Y3852710I-35230J20300D01*
G03X6398010I8800J5077D01*
G02Y3812110I35230J-20300D01*
G03X6380410I-8800J-5077D01*
G37*
G36*
G01X7993850Y999910D02*
G02X7954570I-19640J-35600D01*
G03Y1017710I-4904J8900D01*
G02X7949650Y1085710I19642J35599D01*
G03Y1101910I-6138J8100D01*
G02X7998770I24560J32400D01*
G03Y1085710I6138J-8100D01*
G02X7993850Y1017710I-24562J-32401D01*
G03Y999910I4904J-8900D01*
G37*
G36*
G01X7892250D02*
G02X7852970I-19640J-35600D01*
G03Y1017710I-4904J8900D01*
G02X7848050Y1085710I19642J35599D01*
G03Y1101910I-6138J8100D01*
G02X7897170I24560J32400D01*
G03Y1085710I6138J-8100D01*
G02X7892250Y1017710I-24562J-32401D01*
G03Y999910I4904J-8900D01*
G37*
G36*
G01X7790650D02*
G02X7751370I-19640J-35600D01*
G03Y1017710I-4904J8900D01*
G02X7746450Y1085710I19642J35599D01*
G03Y1101910I-6138J8100D01*
G02X7795570I24560J32400D01*
G03Y1085710I6138J-8100D01*
G02X7790650Y1017710I-24562J-32401D01*
G03Y999910I4904J-8900D01*
G37*
G54D27*
X589990Y694820D03*
X725110D03*
X1036740Y1287620D03*
Y2098340D03*
Y1422740D03*
Y1963220D03*
Y2638820D03*
Y2773940D03*
Y3314420D03*
Y3449540D03*
Y4125140D03*
Y3990020D03*
Y4800740D03*
Y4665620D03*
X1125200Y7814170D03*
X809140Y9806850D03*
X910740D03*
X1012340D03*
X1113940D03*
X809140Y9908450D03*
X910740D03*
X1012340D03*
X1113940D03*
X2558000Y10764000D03*
X2266000Y10454000D03*
X2406800Y10209800D03*
X3565000Y7262000D03*
X3327200Y9388170D03*
X3262200Y9300170D03*
X3785130Y2551840D03*
Y3092320D03*
Y3632800D03*
X3802200Y3823170D03*
X3665000Y7261000D03*
X3976070Y9741930D03*
X3881200Y9739170D03*
X4256200Y10656170D03*
X6389690Y160310D03*
X5881690Y396690D03*
X6014420Y973580D03*
X7142200Y702170D03*
G54D33*
X3420720Y217550D03*
X3674720Y471550D03*
X3928720D03*
X3762560Y8920120D03*
X4016560D03*
X3762550Y9174120D03*
X4016550D03*
X4558430Y938860D03*
X4812430D03*
X6205820Y2033650D03*
Y1525650D03*
X6459820Y2033650D03*
Y1525650D03*
X6205820Y2541650D03*
X6459820D03*
X6205820Y3049650D03*
X6459820D03*
X9721800Y10122680D03*
X10722900Y7178970D03*
Y7686970D03*
X10468900Y7432970D03*
Y7686970D03*
X10722900Y8194970D03*
Y8702970D03*
X10468900Y8448970D03*
X10722900Y9210970D03*
X10468900Y9464970D03*
Y8956970D03*
G54D29*
X1148970Y7993780D03*
X2173200Y9594170D03*
X5179690Y139310D03*
X5057190Y1989190D03*
X5276200Y1475170D03*
X9370570Y842430D03*
X9679460D03*
X9954570Y1739430D03*
G54D26*
X790000Y9597000D03*
G54D31*
X2382970Y462780D03*
Y9406840D03*
X8796990Y592780D03*
Y9536840D03*
G54D28*
X551080Y8718780D03*
Y8972780D03*
X3420720Y471550D03*
X3674720Y217550D03*
X3928720D03*
X4666260Y1682920D03*
X6205820Y1779650D03*
X6459820D03*
X6205820Y2795650D03*
Y2287650D03*
X6459820D03*
Y2795650D03*
X6205820Y3303650D03*
X6459820D03*
X7346490Y1489380D03*
X9467800Y10122680D03*
X9859180Y790960D03*
X10113180D03*
X9721800Y10376680D03*
X10367180Y790960D03*
X10468900Y7178970D03*
X10722900Y7432970D03*
Y7940970D03*
X10468900D03*
X10722900Y8448970D03*
X10468900Y8194970D03*
Y8702970D03*
X10722900Y8956970D03*
Y9464970D03*
X10468900Y9210970D03*
G54D30*
X2079990Y1489790D03*
Y1849810D03*
X1900000Y1669800D03*
Y2029790D03*
X2079990Y2209800D03*
Y2569800D03*
X1900000Y2389790D03*
Y2749810D03*
X2079990Y2929790D03*
Y3289810D03*
X1900000Y3109800D03*
Y3469800D03*
X2079990Y3649810D03*
Y4009800D03*
X1900000Y3829790D03*
Y4189810D03*
X2079990Y4369810D03*
Y4729830D03*
X1900000Y4549820D03*
Y4909810D03*
X2079990Y5089820D03*
Y5449820D03*
Y5809810D03*
X1900000Y5269810D03*
Y5629830D03*
X2079990Y6169830D03*
Y6529830D03*
X1900000Y5989820D03*
Y6349820D03*
X2079990Y6889820D03*
X1900000Y6709810D03*
Y7069830D03*
X2079990Y7249830D03*
Y7609830D03*
Y7789840D03*
Y7969820D03*
X1900000Y7429820D03*
X2079990Y8149830D03*
Y8329840D03*
Y8509830D03*
X1900000Y8149830D03*
Y8329840D03*
Y8509830D03*
X2800000Y1489790D03*
Y1849810D03*
X2619990Y1669800D03*
Y2029790D03*
X2439980Y1669800D03*
Y2029790D03*
X2260000Y1489790D03*
Y1849810D03*
X2800000Y2209800D03*
Y2569800D03*
X2619990Y2389790D03*
Y2749810D03*
X2439980Y2389790D03*
Y2749810D03*
X2260000Y2209800D03*
Y2569800D03*
X2800000Y2929790D03*
Y3289810D03*
X2619990Y3109800D03*
Y3469800D03*
X2439980Y3109800D03*
Y3469800D03*
X2260000Y2929790D03*
Y3289810D03*
X2800000Y3649810D03*
Y4009800D03*
X2619990Y3829790D03*
Y4189810D03*
X2439980Y3829790D03*
Y4189810D03*
X2260000Y3649810D03*
Y4009800D03*
X2800000Y4369810D03*
Y4729830D03*
X2619990Y4549820D03*
Y4909810D03*
X2439980Y4549820D03*
Y4909810D03*
X2260000Y4369810D03*
Y4729830D03*
X2800000Y5089820D03*
Y5449820D03*
Y5809810D03*
X2619990Y5269810D03*
Y5629830D03*
X2439980Y5269810D03*
Y5629830D03*
X2260000Y5089820D03*
Y5449820D03*
Y5809810D03*
X2800000Y6169830D03*
Y6529830D03*
X2619990Y5989820D03*
Y6349820D03*
X2439980Y5989820D03*
Y6349820D03*
X2260000Y6169830D03*
Y6529830D03*
X2800000Y6889820D03*
X2619990Y6709810D03*
Y7069830D03*
X2439980Y6709810D03*
Y7069830D03*
X2260000Y6889820D03*
X2800000Y7249830D03*
X2260000D03*
X2619990Y7429820D03*
Y7609830D03*
Y7789840D03*
Y7969820D03*
X2439980Y7429820D03*
X2260000Y7609830D03*
Y7789840D03*
Y7969820D03*
X2800000Y8149830D03*
Y8329840D03*
X2619990Y8149830D03*
Y8329840D03*
Y8509830D03*
X2439980Y8149830D03*
Y8329840D03*
Y8509830D03*
X2260000Y8149830D03*
Y8329840D03*
Y8509830D03*
X3339980Y1669800D03*
Y2029790D03*
X3159990Y1669800D03*
Y2029790D03*
X2979980Y1489790D03*
Y1849810D03*
X3339980Y2389790D03*
Y2749810D03*
X3159990Y2389790D03*
Y2749810D03*
X2979980Y2209800D03*
Y2569800D03*
X3339980Y3109800D03*
Y3469800D03*
X3159990Y3109800D03*
Y3469800D03*
X2979980Y2929790D03*
Y3289810D03*
X3339980Y3829790D03*
Y4189810D03*
X3159990Y3829790D03*
Y4189810D03*
X2979980Y3649810D03*
Y4009800D03*
X3339980Y4549820D03*
Y4909810D03*
X3159990Y4549820D03*
Y4909810D03*
X2979980Y4369810D03*
Y4729830D03*
X3339980Y5269810D03*
Y5629830D03*
X3159990Y5269810D03*
Y5629830D03*
X2979980Y5089820D03*
Y5449820D03*
Y5809810D03*
X3339980Y5989820D03*
Y6349820D03*
X3159990Y5989820D03*
Y6349820D03*
X2979980Y6169830D03*
Y6529830D03*
X3339980Y6709810D03*
Y7069830D03*
X3159990Y6709810D03*
Y7069830D03*
X2979980Y6889820D03*
Y7249830D03*
X3339980Y7429820D03*
X3159990D03*
Y7609830D03*
Y7789840D03*
Y7969820D03*
X2979980Y7609830D03*
Y7789840D03*
Y7969820D03*
X3339980Y8149830D03*
Y8329840D03*
Y8509830D03*
X3159990Y8149830D03*
Y8329840D03*
Y8509830D03*
X2979980Y8149830D03*
Y8329840D03*
X7839980Y1849790D03*
Y1669780D03*
Y1489790D03*
X8019970Y2029800D03*
Y1849790D03*
Y1669780D03*
Y1489790D03*
X7839980Y2569800D03*
X8019970D03*
Y2389790D03*
Y2209780D03*
X7839980Y3289810D03*
Y2929790D03*
X8019970Y3289810D03*
Y2929790D03*
X7839980Y4009800D03*
Y3649800D03*
X8019970Y4009800D03*
Y3649800D03*
X7839980Y4729810D03*
Y4369790D03*
X8019970Y4729810D03*
Y4369790D03*
X7839980Y5809810D03*
X8019970D03*
X7839980Y5449800D03*
Y5089810D03*
X8019970Y5449800D03*
Y5089810D03*
X7839980Y6529820D03*
Y6169830D03*
X8019970Y6529820D03*
Y6169830D03*
X7839980Y7249810D03*
Y6889820D03*
X8019970Y7249810D03*
Y6889820D03*
X7839980Y7969830D03*
Y7609830D03*
X8019970Y7969830D03*
Y7609830D03*
X7839980Y8329820D03*
X8019970D03*
X8199980Y2029800D03*
Y1849790D03*
Y1669780D03*
X8379960Y1849790D03*
Y1669780D03*
X8559970Y2029800D03*
Y1849790D03*
Y1669780D03*
Y1489790D03*
X8739980Y1849790D03*
Y1669780D03*
Y1489790D03*
X8199980Y2749790D03*
Y2389790D03*
Y2209780D03*
X8379960Y2749790D03*
X8559970Y2569800D03*
Y2389790D03*
Y2209780D03*
X8739980Y2569800D03*
X8199980Y3469790D03*
Y3109800D03*
X8379960Y3469790D03*
Y3109800D03*
X8559970Y3289810D03*
Y2929790D03*
X8739980Y3289810D03*
Y2929790D03*
X8199980Y4189810D03*
Y3829790D03*
X8379960Y4189810D03*
Y3829790D03*
X8559970Y4009800D03*
Y3649800D03*
X8739980Y4009800D03*
Y3649800D03*
X8199980Y4909800D03*
Y4549800D03*
X8379960Y4909800D03*
Y4549800D03*
X8559970Y4729810D03*
Y4369790D03*
X8739980Y4729810D03*
Y4369790D03*
X8559970Y5809810D03*
X8739980D03*
X8199980Y5629810D03*
Y5269790D03*
X8379960Y5629810D03*
Y5269790D03*
X8559970Y5449800D03*
Y5089810D03*
X8739980Y5449800D03*
Y5089810D03*
X8199980Y6349810D03*
Y5989820D03*
X8379960Y6349810D03*
Y5989820D03*
X8559970Y6529820D03*
Y6169830D03*
X8739980Y6529820D03*
Y6169830D03*
X8199980Y7069830D03*
Y6709810D03*
X8379960Y7069830D03*
Y6709810D03*
X8559970Y7249810D03*
Y6889820D03*
X8739980Y7249810D03*
Y6889820D03*
X8199980Y7789820D03*
Y7429820D03*
X8379960Y7789820D03*
Y7429820D03*
X8559970Y7969830D03*
Y7609830D03*
X8739980Y7969830D03*
Y7609830D03*
X8199980Y8509830D03*
Y8149810D03*
X8379960Y8509830D03*
Y8149810D03*
X8559970Y8329820D03*
X8739980D03*
X8919960Y2029800D03*
Y1849790D03*
Y1669780D03*
Y1489790D03*
X9099970Y2029800D03*
Y1849790D03*
Y1669780D03*
Y1489790D03*
X9279960Y1849790D03*
Y1669780D03*
Y1489790D03*
X8919960Y2749790D03*
Y2389790D03*
Y2209780D03*
X9099970Y2749790D03*
Y2389790D03*
Y2209780D03*
X9279960Y2569800D03*
X8919960Y3469790D03*
Y3109800D03*
X9099970Y3469790D03*
Y3109800D03*
X9279960Y3289810D03*
Y2929790D03*
X8919960Y4189810D03*
Y3829790D03*
X9099970Y4189810D03*
Y3829790D03*
X9279960Y4009800D03*
Y3649800D03*
X8919960Y4909800D03*
Y4549800D03*
X9099970Y4909800D03*
Y4549800D03*
X9279960Y4729810D03*
Y4369790D03*
Y5809810D03*
X8919960Y5629810D03*
Y5269790D03*
X9099970Y5629810D03*
Y5269790D03*
X9279960Y5449800D03*
Y5089810D03*
X8919960Y6349810D03*
Y5989820D03*
X9099970Y6349810D03*
Y5989820D03*
X9279960Y6529820D03*
Y6169830D03*
X8919960Y7069830D03*
Y6709810D03*
X9099970Y7069830D03*
Y6709810D03*
X9279960Y7249810D03*
Y6889820D03*
X8919960Y7789820D03*
Y7429820D03*
X9099970Y7789820D03*
Y7429820D03*
X9279960Y7969830D03*
Y7609830D03*
X8919960Y8509830D03*
Y8149810D03*
X9099970Y8509830D03*
Y8149810D03*
X9279960Y8329820D03*
G54D32*
X2889990Y1250800D03*
X8289970Y8748820D03*
G54D34*
X10398860Y10273510D03*
%LPD*%
G75*
G54D10*
X589830Y74110D03*
X416030Y1287790D03*
Y1152670D03*
Y1017550D03*
Y882420D03*
X589990Y694820D03*
X416030Y1963380D03*
X416040Y1828270D03*
X416030Y1693140D03*
Y1558030D03*
Y1422910D03*
Y2774110D03*
Y2638990D03*
X416040Y2503870D03*
X416030Y2368750D03*
Y2233630D03*
Y2098520D03*
Y3449710D03*
Y3314590D03*
Y3179470D03*
Y3044350D03*
Y2909230D03*
Y4260430D03*
Y4125310D03*
Y3990190D03*
X416040Y3855070D03*
X416030Y3719950D03*
Y3584830D03*
Y4936030D03*
Y4800910D03*
Y4665800D03*
X416040Y4530670D03*
X416030Y4395540D03*
X416040Y5611620D03*
X416030Y5476510D03*
Y5341390D03*
Y5206270D03*
Y5071140D03*
Y5746740D03*
X995190Y74110D03*
X1130310D03*
X1265430Y74120D03*
X724950Y74110D03*
X860070D03*
X725110Y694820D03*
X1036740Y1287620D03*
Y1422740D03*
Y1963220D03*
Y2098340D03*
Y2638820D03*
Y2773940D03*
Y3314420D03*
Y3449540D03*
Y4125140D03*
Y3990020D03*
Y4800740D03*
Y4665620D03*
X1152140Y6348110D03*
Y6888590D03*
Y6753470D03*
Y6618350D03*
Y6483230D03*
X1195450Y7878220D03*
Y7743100D03*
Y7607980D03*
X1125200Y7814170D03*
X1233420Y8669100D03*
X1148970Y8265710D03*
X1278160Y8096050D03*
X1148970Y7993780D03*
X1113940Y9908450D03*
X1012340D03*
X910740D03*
X809140D03*
X1113940Y9806850D03*
X1012340D03*
X910740D03*
X809140D03*
X1805910Y74110D03*
X1941030D03*
X1400550D03*
X1535670D03*
X1670790D03*
X1600110Y9021110D03*
Y8909350D03*
X1993540Y10856450D03*
X1891940D03*
X1790340D03*
X1688740D03*
X1587140D03*
X1993540Y10754850D03*
X1891940D03*
X1790340D03*
X1688740D03*
X1587140D03*
X2076150Y74110D03*
X2787800Y9951570D03*
X2201140Y9813850D03*
Y9915450D03*
X2173200Y9594170D03*
X2533800Y10207010D03*
X2606140Y10543450D03*
X2504540D03*
X2606140Y10441850D03*
X2504540D03*
X2235840Y10849160D03*
X2095140Y10856450D03*
Y10754850D03*
X2558000Y10764000D03*
X2266000Y10454000D03*
X2406800Y10209800D03*
X3327200Y9388170D03*
X3262200Y9300170D03*
X3041800Y9951570D03*
X3166420Y9843460D03*
Y9492940D03*
X3494450Y10823640D03*
Y10925240D03*
X3785130Y2551840D03*
Y3092320D03*
Y3632800D03*
X3802200Y3823170D03*
X3665000Y7261000D03*
X3565000Y7262000D03*
X3976070Y9741930D03*
X3881200Y9739170D03*
X4170810Y10178310D03*
X4069210D03*
X3967610D03*
X3866010D03*
X3596050Y10823640D03*
X4256200Y10656170D03*
X3596050Y10925240D03*
X4923110Y139310D03*
X4405830Y930240D03*
X4405840Y1065360D03*
X4405830Y1200490D03*
X4405840Y795120D03*
Y1876080D03*
Y2011210D03*
X4405830Y1335600D03*
X4405840Y1470720D03*
Y1605850D03*
Y1740960D03*
Y2686800D03*
Y2146320D03*
Y2281440D03*
Y2416560D03*
Y2551680D03*
Y3497520D03*
Y2821920D03*
Y2957040D03*
Y3092160D03*
Y3227280D03*
Y3362400D03*
Y3632640D03*
Y3767760D03*
Y3902880D03*
Y4038000D03*
X4405830Y4173120D03*
X4405840Y4308240D03*
Y4443360D03*
Y4578480D03*
Y4713600D03*
Y4848720D03*
Y4983840D03*
X4405830Y5118960D03*
X4405840Y5254080D03*
Y5389200D03*
Y5524320D03*
Y5659440D03*
X4842000Y5276360D03*
Y5364420D03*
X4494360Y5275740D03*
Y5363800D03*
X4471620Y6356250D03*
X4383560D03*
X4877620Y6348250D03*
X4789560D03*
X4472620Y6655250D03*
X4384560D03*
X4878620Y6647250D03*
X4790560D03*
X4309130Y7673190D03*
Y7808310D03*
Y7943430D03*
Y7402950D03*
X4309120Y7538070D03*
X5000740Y7783630D03*
Y7695570D03*
X4466990Y8111010D03*
Y8222770D03*
Y8334530D03*
X4309130Y8483900D03*
Y8619030D03*
Y8078550D03*
Y8213670D03*
Y8348790D03*
X4781920Y7977960D03*
Y8066020D03*
X4925000Y8927000D03*
X4786000Y8803000D03*
X4688000Y8805000D03*
X4589000Y8804000D03*
X4314690Y9700570D03*
X4275450Y10826640D03*
X4377050D03*
X4441050Y10406240D03*
X4339450D03*
X4441050Y10304640D03*
X4339450D03*
X4441050Y10203040D03*
X4339450D03*
X4275450Y10928240D03*
X4377050D03*
X5627690Y151000D03*
X5361010Y447310D03*
X5462610D03*
X5564210D03*
X5665810D03*
Y528310D03*
X5564210D03*
X5462610D03*
X5361010D03*
X5179690Y139310D03*
X5347010Y959310D03*
X5448610D03*
X5550210D03*
X5651810D03*
Y1040310D03*
X5550210D03*
X5448610D03*
X5347010D03*
X5246000Y758000D03*
X5229920Y1902010D03*
X5057190Y1989190D03*
X5276200Y1475170D03*
X5197120Y5264590D03*
X5197780Y5561250D03*
X5284020Y5264590D03*
X5285840Y5561250D03*
X5197570Y6347900D03*
X5285630D03*
X5605570Y6352170D03*
X5693630D03*
X5284530Y6081540D03*
X5602950D03*
X5691010D03*
X5196470D03*
X5198570Y6646900D03*
X5286630D03*
X5606570Y6651170D03*
X5694630D03*
X5286510Y6924080D03*
X5198450D03*
X5692990D03*
X5604930D03*
X5553370Y7760740D03*
X5641430D03*
X5375000Y8258000D03*
X5336000Y8504000D03*
X5137950Y9112080D03*
X5226010D03*
X6008690Y406440D03*
X6262690Y151000D03*
X6389690Y160310D03*
X5881690Y396690D03*
X6079140Y643850D03*
Y745450D03*
X5977540Y643850D03*
Y745450D03*
X6014420Y973580D03*
X6347560Y4097250D03*
X6435620D03*
X5941560Y4105250D03*
X6029620D03*
X6433240Y3832410D03*
X6345180D03*
X6029690Y3836040D03*
X5941630D03*
X6348560Y4396250D03*
X6436620D03*
X5942560Y4404250D03*
X6030620D03*
X6435220Y4674950D03*
X5943610Y4678580D03*
X6031670D03*
X6347160Y4674950D03*
X6516690Y151000D03*
X7142200Y702170D03*
X6907390Y1843180D03*
X6900010Y2045520D03*
X6907380Y1708060D03*
X6900000Y2586000D03*
X6900010Y2315760D03*
X7194630Y4103170D03*
X7106570D03*
X6820630Y4099900D03*
X6732570D03*
X7195630Y4402170D03*
X7107570D03*
X6821630Y4398900D03*
X6733570D03*
X6704570Y5573170D03*
X6703570Y5274170D03*
X6792630Y5573170D03*
X6791630Y5274170D03*
X7063500Y7911860D03*
X7063490Y7776730D03*
X7063500Y8317220D03*
Y8182100D03*
X7063490Y8046980D03*
X7631810Y307310D03*
Y388310D03*
X7327010Y307310D03*
X7428610D03*
X7530210D03*
Y388310D03*
X7428610D03*
X7327010D03*
X7244010Y1228310D03*
X7345610D03*
X7447210D03*
X7548810D03*
Y1147310D03*
X7447210D03*
X7345610D03*
X7244010D03*
X7872610Y964310D03*
X7771010D03*
Y1053310D03*
X7872610D03*
Y1134310D03*
X7771010D03*
X7974210Y964310D03*
Y1053310D03*
Y1134310D03*
X9334840Y729550D03*
X9370570Y842430D03*
X9679460D03*
X10013050Y1484020D03*
X9954570Y1739430D03*
X9988500Y7704290D03*
X10014000Y8418000D03*
X9921300Y9899300D03*
X10724070Y339550D03*
X10588950D03*
X10772690Y1475210D03*
X10853690D03*
X10746690Y3343210D03*
X10827690D03*
X10870720Y4205860D03*
X10870730Y4070740D03*
Y3935620D03*
X10870720Y3800500D03*
Y3665380D03*
X10870730Y4881460D03*
X10870720Y4746340D03*
Y4611220D03*
Y4476110D03*
Y4340980D03*
G54D20*
X4715050Y10423240D03*
X6639450D03*
X6341060D03*
X8265460D03*
G54D11*
X297080Y8718780D03*
Y8972780D03*
X3420720Y217550D03*
X3674720Y471550D03*
X3928720D03*
X4270560Y8920120D03*
X3762560D03*
X4016560D03*
X4270550Y9174120D03*
X3762550D03*
X4016550D03*
X5066430Y938860D03*
X4558430D03*
X4812430D03*
X4666260Y1428920D03*
X6205820Y2033650D03*
Y1525650D03*
X6459820Y2033650D03*
Y1525650D03*
X6205820Y2541650D03*
X6459820D03*
X6205820Y3049650D03*
X6459820D03*
X7092490Y1489380D03*
X9467800Y10376680D03*
X9859180Y536960D03*
X10113180D03*
X9721800Y10122680D03*
X10367180Y536960D03*
X10722900Y7178970D03*
Y7686970D03*
X10468900Y7432970D03*
Y7686970D03*
X10722900Y8194970D03*
Y8702970D03*
X10468900Y8448970D03*
X10722900Y9210970D03*
X10468900Y9464970D03*
Y8956970D03*
G54D21*
X4893050Y10766240D03*
X6163050D03*
X6817450D03*
X8087450D03*
G54D12*
X551080Y8718780D03*
Y8972780D03*
X3420720Y471550D03*
X3674720Y217550D03*
X3928720D03*
X4666260Y1682920D03*
X5375040Y10512240D03*
X5579060D03*
X5783040D03*
X5273060Y10334240D03*
X5477050D03*
X5681060D03*
X6205820Y1779650D03*
X6459820D03*
X6205820Y2795650D03*
Y2287650D03*
X6459820D03*
Y2795650D03*
X6205820Y3303650D03*
X6459820D03*
X5885050Y10334240D03*
X7197460D03*
X7346490Y1489380D03*
X7809450Y10334240D03*
X7299440Y10512240D03*
X7503460D03*
X7707440D03*
X7401450Y10334240D03*
X7605460D03*
X9467800Y10122680D03*
X9859180Y790960D03*
X10113180D03*
X9721800Y10376680D03*
X10367180Y790960D03*
X10468900Y7178970D03*
X10722900Y7432970D03*
Y7940970D03*
X10468900D03*
X10722900Y8448970D03*
X10468900Y8194970D03*
Y8702970D03*
X10722900Y8956970D03*
Y9464970D03*
X10468900Y9210970D03*
G54D13*
X330010Y9896970D03*
G54D22*
X5262000Y8022000D03*
G54D23*
X5171060Y10512240D03*
X7095460D03*
G54D14*
X790000Y9597000D03*
Y10226920D03*
G54D15*
X2619980Y699790D03*
Y9169830D03*
X8559980Y829790D03*
Y9299830D03*
G54D24*
X10144860Y10019510D03*
Y10527510D03*
X10652860Y10019510D03*
X10398860Y10273510D03*
X10652860Y10527510D03*
G54D25*
G01X0Y0D02*
X11000000D01*
Y-500000D01*
X0D01*
Y0D01*
G01Y200000D02*
Y10800000D01*
G02X200000Y11000000I200000J0D01*
G01X10800000D01*
G02X11000000Y10800000I0J-200000D01*
G01Y200000D01*
G02X10800000Y0I-200000J0D01*
G01X200000D01*
G02X0Y200000I0J200000D01*
G01Y11000000D02*
X11000000D01*
Y11500000D01*
X0D01*
Y11000000D01*
G54D16*
X2079990Y1489790D03*
Y1669800D03*
Y1849810D03*
Y2029790D03*
X1900000Y1489790D03*
Y1669800D03*
Y1849810D03*
Y2029790D03*
X2079990Y2209800D03*
Y2389790D03*
Y2569800D03*
Y2749810D03*
X1900000Y2209800D03*
Y2389790D03*
Y2569800D03*
Y2749810D03*
X2079990Y2929790D03*
Y3109800D03*
Y3289810D03*
Y3469800D03*
X1900000Y2929790D03*
Y3109800D03*
Y3289810D03*
Y3469800D03*
X2079990Y3649810D03*
Y3829790D03*
Y4009800D03*
Y4189810D03*
X1900000Y3649810D03*
Y3829790D03*
Y4009800D03*
Y4189810D03*
X2079990Y4369810D03*
Y4549820D03*
Y4729830D03*
Y4909810D03*
X1900000Y4369810D03*
Y4549820D03*
Y4729830D03*
Y4909810D03*
X2079990Y5089820D03*
Y5269810D03*
Y5449820D03*
Y5629830D03*
X1900000Y5089820D03*
Y5269810D03*
Y5449820D03*
Y5629830D03*
X2079990Y5809810D03*
Y5989820D03*
Y6169830D03*
Y6349820D03*
X1900000Y5809810D03*
Y5989820D03*
Y6169830D03*
Y6349820D03*
X2079990Y6529830D03*
Y6709810D03*
Y6889820D03*
Y7069830D03*
X1900000Y6529830D03*
Y6709810D03*
Y6889820D03*
Y7069830D03*
X2079990Y7249830D03*
Y7429820D03*
Y7609830D03*
Y7789840D03*
Y7969820D03*
X1900000Y7249830D03*
Y7429820D03*
Y7609830D03*
Y7789840D03*
Y7969820D03*
X2079990Y8149830D03*
Y8329840D03*
Y8509830D03*
X1900000Y8149830D03*
Y8329840D03*
Y8509830D03*
X2800000Y1489790D03*
Y1669800D03*
Y1849810D03*
Y2029790D03*
X2619990Y1489790D03*
Y1669800D03*
Y1849810D03*
Y2029790D03*
X2439980Y1489790D03*
Y1669800D03*
Y1849810D03*
Y2029790D03*
X2260000Y1489790D03*
Y1669800D03*
Y1849810D03*
Y2029790D03*
X2800000Y2209800D03*
Y2389790D03*
Y2569800D03*
Y2749810D03*
X2619990Y2209800D03*
Y2389790D03*
Y2569800D03*
Y2749810D03*
X2439980Y2209800D03*
Y2389790D03*
Y2569800D03*
Y2749810D03*
X2260000Y2209800D03*
Y2389790D03*
Y2569800D03*
Y2749810D03*
X2800000Y2929790D03*
Y3109800D03*
Y3289810D03*
Y3469800D03*
X2619990Y2929790D03*
Y3109800D03*
Y3289810D03*
Y3469800D03*
X2439980Y2929790D03*
Y3109800D03*
Y3289810D03*
Y3469800D03*
X2260000Y2929790D03*
Y3109800D03*
Y3289810D03*
Y3469800D03*
X2800000Y3649810D03*
Y3829790D03*
Y4009800D03*
Y4189810D03*
X2619990Y3649810D03*
Y3829790D03*
Y4009800D03*
Y4189810D03*
X2439980Y3649810D03*
Y3829790D03*
Y4009800D03*
Y4189810D03*
X2260000Y3649810D03*
Y3829790D03*
Y4009800D03*
Y4189810D03*
X2800000Y4369810D03*
Y4549820D03*
Y4729830D03*
Y4909810D03*
X2619990Y4369810D03*
Y4549820D03*
Y4729830D03*
Y4909810D03*
X2439980Y4369810D03*
Y4549820D03*
Y4729830D03*
Y4909810D03*
X2260000Y4369810D03*
Y4549820D03*
Y4729830D03*
Y4909810D03*
X2800000Y5089820D03*
Y5269810D03*
Y5449820D03*
Y5629830D03*
X2619990Y5089820D03*
Y5269810D03*
Y5449820D03*
Y5629830D03*
X2439980Y5089820D03*
Y5269810D03*
Y5449820D03*
Y5629830D03*
X2260000Y5089820D03*
Y5269810D03*
Y5449820D03*
Y5629830D03*
X2800000Y5809810D03*
Y5989820D03*
Y6169830D03*
Y6349820D03*
X2619990Y5809810D03*
Y5989820D03*
Y6169830D03*
Y6349820D03*
X2439980Y5809810D03*
Y5989820D03*
Y6169830D03*
Y6349820D03*
X2260000Y5809810D03*
Y5989820D03*
Y6169830D03*
Y6349820D03*
X2800000Y6529830D03*
Y6709810D03*
Y6889820D03*
Y7069830D03*
X2619990Y6529830D03*
Y6709810D03*
Y6889820D03*
Y7069830D03*
X2439980Y6529830D03*
Y6709810D03*
Y6889820D03*
Y7069830D03*
X2260000Y6529830D03*
Y6709810D03*
Y6889820D03*
Y7069830D03*
X2800000Y7249830D03*
Y7429820D03*
Y7609830D03*
Y7789840D03*
Y7969820D03*
X2619990Y7249830D03*
Y7429820D03*
Y7609830D03*
Y7789840D03*
Y7969820D03*
X2439980Y7249830D03*
Y7429820D03*
Y7609830D03*
Y7789840D03*
Y7969820D03*
X2260000Y7249830D03*
Y7429820D03*
Y7609830D03*
Y7789840D03*
Y7969820D03*
X2800000Y8149830D03*
Y8329840D03*
Y8509830D03*
X2619990Y8149830D03*
Y8329840D03*
Y8509830D03*
X2439980Y8149830D03*
Y8329840D03*
Y8509830D03*
X2260000Y8149830D03*
Y8329840D03*
Y8509830D03*
X3339980Y1489790D03*
Y1669800D03*
Y1849810D03*
Y2029790D03*
X3159990Y1489790D03*
Y1669800D03*
Y1849810D03*
Y2029790D03*
X2979980Y1489790D03*
Y1669800D03*
Y1849810D03*
Y2029790D03*
X3339980Y2209800D03*
Y2389790D03*
Y2569800D03*
Y2749810D03*
X3159990Y2209800D03*
Y2389790D03*
Y2569800D03*
Y2749810D03*
X2979980Y2209800D03*
Y2389790D03*
Y2569800D03*
Y2749810D03*
X3339980Y2929790D03*
Y3109800D03*
Y3289810D03*
Y3469800D03*
X3159990Y2929790D03*
Y3109800D03*
Y3289810D03*
Y3469800D03*
X2979980Y2929790D03*
Y3109800D03*
Y3289810D03*
Y3469800D03*
X3339980Y3649810D03*
Y3829790D03*
Y4009800D03*
Y4189810D03*
X3159990Y3649810D03*
Y3829790D03*
Y4009800D03*
Y4189810D03*
X2979980Y3649810D03*
Y3829790D03*
Y4009800D03*
Y4189810D03*
X3339980Y4369810D03*
Y4549820D03*
Y4729830D03*
Y4909810D03*
X3159990Y4369810D03*
Y4549820D03*
Y4729830D03*
Y4909810D03*
X2979980Y4369810D03*
Y4549820D03*
Y4729830D03*
Y4909810D03*
X3339980Y5089820D03*
Y5269810D03*
Y5449820D03*
Y5629830D03*
X3159990Y5089820D03*
Y5269810D03*
Y5449820D03*
Y5629830D03*
X2979980Y5089820D03*
Y5269810D03*
Y5449820D03*
Y5629830D03*
X3339980Y5809810D03*
Y5989820D03*
Y6169830D03*
Y6349820D03*
X3159990Y5809810D03*
Y5989820D03*
Y6169830D03*
Y6349820D03*
X2979980Y5809810D03*
Y5989820D03*
Y6169830D03*
Y6349820D03*
X3339980Y6529830D03*
Y6709810D03*
Y6889820D03*
Y7069830D03*
X3159990Y6529830D03*
Y6709810D03*
Y6889820D03*
Y7069830D03*
X2979980Y6529830D03*
Y6709810D03*
Y6889820D03*
Y7069830D03*
X3339980Y7249830D03*
Y7429820D03*
Y7609830D03*
Y7789840D03*
Y7969820D03*
X3159990Y7249830D03*
Y7429820D03*
Y7609830D03*
Y7789840D03*
Y7969820D03*
X2979980Y7249830D03*
Y7429820D03*
Y7609830D03*
Y7789840D03*
Y7969820D03*
X3339980Y8149830D03*
Y8329840D03*
Y8509830D03*
X3159990Y8149830D03*
Y8329840D03*
Y8509830D03*
X2979980Y8149830D03*
Y8329840D03*
Y8509830D03*
X7839980Y2029800D03*
Y1849790D03*
Y1669780D03*
Y1489790D03*
Y2749790D03*
Y2569800D03*
Y2389790D03*
Y2209780D03*
Y3469790D03*
Y3289810D03*
Y3109800D03*
Y2929790D03*
Y4189810D03*
Y4009800D03*
Y3829790D03*
Y3649800D03*
Y4909800D03*
Y4729810D03*
Y4549800D03*
Y4369790D03*
Y5629810D03*
Y5449800D03*
Y5269790D03*
Y5089810D03*
Y6349810D03*
Y6169830D03*
Y5989820D03*
Y5809810D03*
Y7069830D03*
Y6889820D03*
Y6709810D03*
Y6529820D03*
Y7969830D03*
Y7789820D03*
Y7609830D03*
Y7429820D03*
Y7249810D03*
Y8509830D03*
Y8329820D03*
Y8149810D03*
X8019970Y2029800D03*
Y1849790D03*
Y1669780D03*
Y1489790D03*
X8199980Y2029800D03*
Y1849790D03*
Y1669780D03*
Y1489790D03*
X8379960Y2029800D03*
Y1849790D03*
Y1669780D03*
Y1489790D03*
X8559970Y2029800D03*
Y1849790D03*
Y1669780D03*
Y1489790D03*
X8019970Y2749790D03*
Y2569800D03*
Y2389790D03*
Y2209780D03*
X8199980Y2749790D03*
Y2569800D03*
Y2389790D03*
Y2209780D03*
X8379960Y2749790D03*
Y2569800D03*
Y2389790D03*
Y2209780D03*
X8559970Y2749790D03*
Y2569800D03*
Y2389790D03*
Y2209780D03*
X8019970Y3469790D03*
Y3289810D03*
Y3109800D03*
Y2929790D03*
X8199980Y3469790D03*
Y3289810D03*
Y3109800D03*
Y2929790D03*
X8379960Y3469790D03*
Y3289810D03*
Y3109800D03*
Y2929790D03*
X8559970Y3469790D03*
Y3289810D03*
Y3109800D03*
Y2929790D03*
X8019970Y4189810D03*
Y4009800D03*
Y3829790D03*
Y3649800D03*
X8199980Y4189810D03*
Y4009800D03*
Y3829790D03*
Y3649800D03*
X8379960Y4189810D03*
Y4009800D03*
Y3829790D03*
Y3649800D03*
X8559970Y4189810D03*
Y4009800D03*
Y3829790D03*
Y3649800D03*
X8019970Y4909800D03*
Y4729810D03*
Y4549800D03*
Y4369790D03*
X8199980Y4909800D03*
Y4729810D03*
Y4549800D03*
Y4369790D03*
X8379960Y4909800D03*
Y4729810D03*
Y4549800D03*
Y4369790D03*
X8559970Y4909800D03*
Y4729810D03*
Y4549800D03*
Y4369790D03*
X8019970Y5629810D03*
Y5449800D03*
Y5269790D03*
Y5089810D03*
X8199980Y5629810D03*
Y5449800D03*
Y5269790D03*
Y5089810D03*
X8379960Y5629810D03*
Y5449800D03*
Y5269790D03*
Y5089810D03*
X8559970Y5629810D03*
Y5449800D03*
Y5269790D03*
Y5089810D03*
X8019970Y6349810D03*
Y6169830D03*
Y5989820D03*
Y5809810D03*
X8199980Y6349810D03*
Y6169830D03*
Y5989820D03*
Y5809810D03*
X8379960Y6349810D03*
Y6169830D03*
Y5989820D03*
Y5809810D03*
X8559970Y6349810D03*
Y6169830D03*
Y5989820D03*
Y5809810D03*
X8019970Y7069830D03*
Y6889820D03*
Y6709810D03*
Y6529820D03*
X8199980Y7069830D03*
Y6889820D03*
Y6709810D03*
Y6529820D03*
X8379960Y7069830D03*
Y6889820D03*
Y6709810D03*
Y6529820D03*
X8559970Y7069830D03*
Y6889820D03*
Y6709810D03*
Y6529820D03*
X8019970Y7969830D03*
Y7789820D03*
Y7609830D03*
Y7429820D03*
Y7249810D03*
X8199980Y7969830D03*
Y7789820D03*
Y7609830D03*
Y7429820D03*
Y7249810D03*
X8379960Y7969830D03*
Y7789820D03*
Y7609830D03*
Y7429820D03*
Y7249810D03*
X8559970Y7969830D03*
Y7789820D03*
Y7609830D03*
Y7429820D03*
Y7249810D03*
X8019970Y8509830D03*
Y8329820D03*
Y8149810D03*
X8199980Y8509830D03*
Y8329820D03*
Y8149810D03*
X8379960Y8509830D03*
Y8329820D03*
Y8149810D03*
X8559970Y8509830D03*
Y8329820D03*
Y8149810D03*
X8739980Y2029800D03*
Y1849790D03*
Y1669780D03*
Y1489790D03*
X8919960Y2029800D03*
Y1849790D03*
Y1669780D03*
Y1489790D03*
X9099970Y2029800D03*
Y1849790D03*
Y1669780D03*
Y1489790D03*
X9279960Y2029800D03*
Y1849790D03*
Y1669780D03*
Y1489790D03*
X8739980Y2749790D03*
Y2569800D03*
Y2389790D03*
Y2209780D03*
X8919960Y2749790D03*
Y2569800D03*
Y2389790D03*
Y2209780D03*
X9099970Y2749790D03*
Y2569800D03*
Y2389790D03*
Y2209780D03*
X9279960Y2749790D03*
Y2569800D03*
Y2389790D03*
Y2209780D03*
X8739980Y3469790D03*
Y3289810D03*
Y3109800D03*
Y2929790D03*
X8919960Y3469790D03*
Y3289810D03*
Y3109800D03*
Y2929790D03*
X9099970Y3469790D03*
Y3289810D03*
Y3109800D03*
Y2929790D03*
X9279960Y3469790D03*
Y3289810D03*
Y3109800D03*
Y2929790D03*
X8739980Y4189810D03*
Y4009800D03*
Y3829790D03*
Y3649800D03*
X8919960Y4189810D03*
Y4009800D03*
Y3829790D03*
Y3649800D03*
X9099970Y4189810D03*
Y4009800D03*
Y3829790D03*
Y3649800D03*
X9279960Y4189810D03*
Y4009800D03*
Y3829790D03*
Y3649800D03*
X8739980Y4909800D03*
Y4729810D03*
Y4549800D03*
Y4369790D03*
X8919960Y4909800D03*
Y4729810D03*
Y4549800D03*
Y4369790D03*
X9099970Y4909800D03*
Y4729810D03*
Y4549800D03*
Y4369790D03*
X9279960Y4909800D03*
Y4729810D03*
Y4549800D03*
Y4369790D03*
X8739980Y5629810D03*
Y5449800D03*
Y5269790D03*
Y5089810D03*
X8919960Y5629810D03*
Y5449800D03*
Y5269790D03*
Y5089810D03*
X9099970Y5629810D03*
Y5449800D03*
Y5269790D03*
Y5089810D03*
X9279960Y5629810D03*
Y5449800D03*
Y5269790D03*
Y5089810D03*
X8739980Y6349810D03*
Y6169830D03*
Y5989820D03*
Y5809810D03*
X8919960Y6349810D03*
Y6169830D03*
Y5989820D03*
Y5809810D03*
X9099970Y6349810D03*
Y6169830D03*
Y5989820D03*
Y5809810D03*
X9279960Y6349810D03*
Y6169830D03*
Y5989820D03*
Y5809810D03*
X8739980Y7069830D03*
Y6889820D03*
Y6709810D03*
Y6529820D03*
X8919960Y7069830D03*
Y6889820D03*
Y6709810D03*
Y6529820D03*
X9099970Y7069830D03*
Y6889820D03*
Y6709810D03*
Y6529820D03*
X9279960Y7069830D03*
Y6889820D03*
Y6709810D03*
Y6529820D03*
X8739980Y7969830D03*
Y7789820D03*
Y7609830D03*
Y7429820D03*
Y7249810D03*
X8919960Y7969830D03*
Y7789820D03*
Y7609830D03*
Y7429820D03*
Y7249810D03*
X9099970Y7969830D03*
Y7789820D03*
Y7609830D03*
Y7429820D03*
Y7249810D03*
X9279960Y7969830D03*
Y7789820D03*
Y7609830D03*
Y7429820D03*
Y7249810D03*
X8739980Y8509830D03*
Y8329820D03*
Y8149810D03*
X8919960Y8509830D03*
Y8329820D03*
Y8149810D03*
X9099970Y8509830D03*
Y8329820D03*
Y8149810D03*
X9279960Y8509830D03*
Y8329820D03*
Y8149810D03*
G54D17*
X2382970Y462780D03*
Y9406840D03*
X8796990Y592780D03*
Y9536840D03*
G54D18*
X2889990Y1250800D03*
X2884990Y8648840D03*
X8294970Y1350780D03*
X8289970Y8748820D03*
G54D19*
X4842050Y9852220D03*
X5071030D03*
X6214060D03*
X5985050D03*
X6766450D03*
X6995430D03*
X7909450D03*
X8138460D03*
M02*
