G04 ================== begin FILE IDENTIFICATION RECORD ==================*
G04 Layout Name:  kupl_t_0825.brd*
G04 Film Name:    06_ART*
G04 File Format:  Gerber RS274X*
G04 File Origin:  Cadence Allegro 16.6-P004*
G04 Origin Date:  Thu Aug 25 13:11:53 2022*
G04 *
G04 Layer:  VIA CLASS/ART06*
G04 Layer:  PIN/ART06*
G04 Layer:  ETCH/ART06*
G04 Layer:  BOARD GEOMETRY/OUTLINE*
G04 *
G04 Offset:    (0.0000 0.0000)*
G04 Mirror:    No*
G04 Mode:      Positive*
G04 Rotation:  0*
G04 FullContactRelief:  No*
G04 UndefLineWidth:     0.0152*
G04 ================== end FILE IDENTIFICATION RECORD ====================*
%FSLAX25Y25*MOMM*%
%IR0*IPPOS*OFA0.00000B0.00000*MIA0B0*SFA1.00000B1.00000*%
%ADD10C,.508*%
%ADD22C,.6096*%
%ADD14O,3.5001X1.5001*%
%ADD13O,1.5001X3.7*%
%ADD16C,1.0201*%
%ADD23C,1.4*%
%ADD12C,1.5001*%
%ADD24C,2.3012*%
%ADD21C,.0001*%
%ADD18C,1.4501*%
%ADD11C,1.524*%
%ADD15C,6.1501*%
%ADD19C,1.8009*%
%ADD20C,3.1999*%
%ADD17C,2.5999*%
%ADD25C,.1041*%
%ADD26C,.0152*%
%ADD28C,.8132*%
%ADD34C,2.0324*%
%ADD30C,1.0164*%
%ADD27O,4.0084X2.0084*%
%ADD32C,3.1084*%
%ADD29C,2.0086*%
%ADD31C,1.5286*%
%ADD33C,2.4666*%
%ADD35C,2.8096*%
G75*
%LPD*%
G75*
G36*
G01X200000Y25410D02*
G02X25410Y200000I0J174590D01*
G01Y10800000D01*
G02X200000Y10974590I174590J0D01*
G01X4789780D01*
G02X4794480Y10955420I5J-10160D01*
G03X4991620I98570J-189180D01*
G02X4996320Y10974590I4695J9010D01*
G01X6059780D01*
G02X6064480Y10955420I5J-10160D01*
G03X6261620I98570J-189180D01*
G02X6266320Y10974590I4695J9010D01*
G01X6714180D01*
G02X6718880Y10955420I5J-10160D01*
G03X6916020I98570J-189180D01*
G02X6920720Y10974590I4695J9010D01*
G01X7984180D01*
G02X7988880Y10955420I5J-10160D01*
G03X8186020I98570J-189180D01*
G02X8190720Y10974590I4695J9010D01*
G01X10800000D01*
G02X10974590Y10800000I0J-174590D01*
G01Y200000D01*
G02X10800000Y25410I-174590J0D01*
G01X200000D01*
G37*
%LPC*%
G75*
G36*
G01X4398710Y10174930D02*
G03X4381790I-8460J-5623D01*
G02X4311340Y10245380I-42340J28110D01*
G03Y10262300I-5623J8460D01*
G02Y10346980I28110J42340D01*
G03Y10363900I-5623J8460D01*
G02X4381790Y10434350I28110J42340D01*
G03X4398710I8460J5623D01*
G02X4469160Y10363900I42340J-28110D01*
G03Y10346980I5623J-8460D01*
G02Y10262300I-28110J-42340D01*
G03Y10245380I5623J-8460D01*
G02X4398710Y10174930I-28110J-42340D01*
G37*
G36*
G01X8033220Y9804710D02*
G03X8014690I-9265J-4176D01*
G02Y9899730I-105240J47510D01*
G03X8033220I9265J4176D01*
G02Y9804710I105240J-47510D01*
G37*
G36*
G01X6890200Y9804680D02*
G03X6871680I-9260J-4179D01*
G02Y9899760I-105230J47540D01*
G03X6890200I9260J4179D01*
G02Y9804680I105230J-47540D01*
G37*
G36*
G01X6108820Y9804710D02*
G03X6090290I-9265J-4176D01*
G02Y9899730I-105240J47510D01*
G03X6108820I9265J4176D01*
G02Y9804710I105240J-47510D01*
G37*
G36*
G01X4965800Y9804680D02*
G03X4947280I-9260J-4179D01*
G02Y9899760I-105230J47540D01*
G03X4965800I9260J4179D01*
G02Y9804680I105230J-47540D01*
G37*
G36*
G01X4729450Y8834400D02*
G03X4745780Y8834070I8287J5877D01*
G02X4744550Y8773600I40220J-31066D01*
G03X4728220Y8773930I-8287J-5877D01*
G02X4647050Y8774910I-40216J31070D01*
G03X4630550Y8774740I-8189J-6016D01*
G02X4629950Y8834090I-41551J29258D01*
G03X4646450Y8834260I8189J6016D01*
G02X4729450Y8834400I41549J-29261D01*
G37*
G36*
G01X2769580Y8579940D02*
G03X2774620Y8593800I-4049J9319D01*
G02X2996770Y8596720I110371J55037D01*
G03X3002920Y8582740I9205J-4293D01*
G02X2903720Y8514950I-22940J-72908D01*
G03X2892930Y8525770I-10138J680D01*
G02X2886300Y8525520I-7960J123069D01*
G03X2876270Y8514710I111J-10161D01*
G02X2769580Y8579940I-76271J-4883D01*
G37*
G36*
G01X8410380Y1419680D02*
G03X8405340Y1405820I4049J-9319D01*
G02X8183190Y1402900I-110371J-55037D01*
G03X8177040Y1416880I-9205J4293D01*
G02X8276240Y1484670I22940J72908D01*
G03X8287030Y1473850I10138J-680D01*
G02X8293660Y1474100I7960J-123070D01*
G03X8303690Y1484910I-111J10161D01*
G02X8410380Y1419680I76271J4883D01*
G37*
G36*
G01X5690370Y495910D02*
G03Y479710I6138J-8100D01*
G02X5641250I-24560J-32400D01*
G03Y495910I-6138J8100D01*
G02X5690370I24560J32400D01*
G37*
G36*
G01X5588770D02*
G03Y479710I6138J-8100D01*
G02X5539650I-24560J-32400D01*
G03Y495910I-6138J8100D01*
G02X5588770I24560J32400D01*
G37*
G36*
G01X5487170D02*
G03Y479710I6138J-8100D01*
G02X5438050I-24560J-32400D01*
G03Y495910I-6138J8100D01*
G02X5487170I24560J32400D01*
G37*
G36*
G01X5385570D02*
G03Y479710I6138J-8100D01*
G02X5336450I-24560J-32400D01*
G03Y495910I-6138J8100D01*
G02X5385570I24560J32400D01*
G37*
G36*
G01X7290080Y10295420D02*
G02X7123120Y10401770I-92623J38821D01*
G03X7113660Y10418570I-7521J6829D01*
G02X7185240Y10544570I-18198J93670D01*
G03X7204410Y10544720I9559J3442D01*
G02X7392080Y10551030I95033J-32480D01*
G03X7410820I9370J3919D01*
G02X7596080Y10551070I92638J-38789D01*
G03X7614820I9370J3927D01*
G02X7786320Y10450080I92620J-38828D01*
G03X7795690Y10433720I7976J-6295D01*
G02X7716830Y10295420I13762J-99480D01*
G03X7698080I-9375J-3925D01*
G02X7512830Y10295440I-92621J38822D01*
G03X7494080I-9375J-3921D01*
G02X7308830Y10295420I-92629J38802D01*
G03X7290080I-9375J-3925D01*
G37*
G36*
G01X5365680D02*
G02X5198720Y10401770I-92623J38821D01*
G03X5189260Y10418570I-7521J6829D01*
G02X5260840Y10544570I-18198J93670D01*
G03X5280010Y10544720I9559J3442D01*
G02X5467680Y10551030I95033J-32480D01*
G03X5486420I9370J3919D01*
G02X5671680Y10551070I92638J-38789D01*
G03X5690420I9370J3927D01*
G02X5861920Y10450080I92620J-38828D01*
G03X5871290Y10433720I7976J-6295D01*
G02X5792430Y10295420I13762J-99480D01*
G03X5773680I-9375J-3925D01*
G02X5588430Y10295440I-92621J38822D01*
G03X5569680I-9375J-3921D01*
G02X5384430Y10295420I-92629J38802D01*
G03X5365680I-9375J-3925D01*
G37*
G36*
G01X5173180Y9091780D02*
G02Y9132380I-35230J20300D01*
G03X5190780I8800J5077D01*
G02Y9091780I35230J-20300D01*
G03X5173180I-8800J-5077D01*
G37*
G36*
G01X1620450Y8955920D02*
G02X1579770I-20340J-46570D01*
G03Y8974540I-4072J9310D01*
G02X1620450I20340J46570D01*
G03Y8955920I4072J-9310D01*
G37*
G36*
G01X4802220Y8013190D02*
G02X4761620I-20300J-35230D01*
G03Y8030790I-5077J8800D01*
G02X4802220I20300J35230D01*
G03Y8013190I5077J-8800D01*
G37*
G36*
G01X5588600Y7740440D02*
G02Y7781040I-35230J20300D01*
G03X5606200I8800J5077D01*
G02Y7740440I35230J-20300D01*
G03X5588600I-8800J-5077D01*
G37*
G36*
G01X5021040Y7730800D02*
G02X4980440I-20300J-35230D01*
G03Y7748400I-5077J8800D01*
G02X5021040I20300J35230D01*
G03Y7730800I5077J-8800D01*
G37*
G36*
G01X4419790Y6634950D02*
G02Y6675550I-35230J20300D01*
G03X4437390I8800J5077D01*
G02Y6634950I35230J-20300D01*
G03X4419790I-8800J-5077D01*
G37*
G36*
G01X4825790Y6626950D02*
G02Y6667550I-35230J20300D01*
G03X4843390I8800J5077D01*
G02Y6626950I35230J-20300D01*
G03X4825790I-8800J-5077D01*
G37*
G36*
G01X4418790Y6335950D02*
G02Y6376550I-35230J20300D01*
G03X4436390I8800J5077D01*
G02Y6335950I35230J-20300D01*
G03X4418790I-8800J-5077D01*
G37*
G36*
G01X4824790Y6327950D02*
G02Y6368550I-35230J20300D01*
G03X4842390I8800J5077D01*
G02Y6327950I35230J-20300D01*
G03X4824790I-8800J-5077D01*
G37*
G36*
G01X4862300Y5311590D02*
G02X4821700I-20300J-35230D01*
G03Y5329190I-5077J8800D01*
G02X4862300I20300J35230D01*
G03Y5311590I5077J-8800D01*
G37*
G36*
G01X4514660Y5310970D02*
G02X4474060I-20300J-35230D01*
G03Y5328570I-5077J8800D01*
G02X4514660I20300J35230D01*
G03Y5310970I5077J-8800D01*
G37*
G36*
G01X8173840Y3541610D02*
G02X8124620Y3482510I26143J-71818D01*
G03X8107410Y3491380I-10019J1691D01*
G01X8093200Y3477170D01*
X7526200D01*
X7428200Y3575170D01*
X5685200D01*
X5102200Y4158170D01*
Y5308170D01*
X4530200Y5880170D01*
X3103200D01*
X3074200Y5909170D01*
Y6064170D01*
X3199200Y6189170D01*
X5043200D01*
X5074200Y6220170D01*
Y7045170D01*
X5251200Y7222170D01*
X6019200D01*
X7064200Y6177170D01*
Y5252430D01*
G03X7072870Y5248840I5080J4D01*
G01X7074200Y5250170D01*
X7630200D01*
X7756600Y5123770D01*
G03X7772730Y5126120I7190J7180D01*
G02X7791770Y5030500I67251J-36314D01*
G03X7775200Y5022620I-6411J-7881D01*
G01Y4797000D01*
G03X7791770Y4789120I10159J1D01*
G02Y4670500I48210J-59310D01*
G03X7775200Y4662620I-6411J-7881D01*
G01Y4436980D01*
G03X7791770Y4429100I10159J1D01*
G02Y4310480I48210J-59310D01*
G03X7775200Y4302600I-6411J-7881D01*
G01Y4076990D01*
G03X7791770Y4069110I10159J1D01*
G02X7841330Y3933380I48208J-59311D01*
G03X7834330Y3916040I184J-10157D01*
G01X7870200Y3880170D01*
X8131200D01*
X8137010Y3874360D01*
X8140780Y3878130D01*
X8140930Y3878320D01*
G02X8173840Y3757970I59049J-48528D01*
G03X8160200Y3748420I-3480J-9545D01*
G01Y3551160D01*
G03X8173840Y3541610I10160J-5D01*
G37*
G36*
G01X7993850Y999910D02*
G02X7954570I-19640J-35600D01*
G03Y1017710I-4904J8900D01*
G02X7949650Y1085710I19642J35599D01*
G03Y1101910I-6138J8100D01*
G02X7998770I24560J32400D01*
G03Y1085710I6138J-8100D01*
G02X7993850Y1017710I-24562J-32401D01*
G03Y999910I4904J-8900D01*
G37*
G36*
G01X7892250D02*
G02X7852970I-19640J-35600D01*
G03Y1017710I-4904J8900D01*
G02X7848050Y1085710I19642J35599D01*
G03Y1101910I-6138J8100D01*
G02X7897170I24560J32400D01*
G03Y1085710I6138J-8100D01*
G02X7892250Y1017710I-24562J-32401D01*
G03Y999910I4904J-8900D01*
G37*
G36*
G01X7790650D02*
G02X7751370I-19640J-35600D01*
G03Y1017710I-4904J8900D01*
G02X7746450Y1085710I19642J35599D01*
G03Y1101910I-6138J8100D01*
G02X7795570I24560J32400D01*
G03Y1085710I6138J-8100D01*
G02X7790650Y1017710I-24562J-32401D01*
G03Y999910I4904J-8900D01*
G37*
G54D28*
X589990Y694820D03*
X725110D03*
X1036740Y1287620D03*
Y2098340D03*
Y1422740D03*
Y1963220D03*
Y2638820D03*
Y2773940D03*
Y3314420D03*
Y3449540D03*
Y4125140D03*
Y3990020D03*
Y4800740D03*
Y4665620D03*
X1125200Y7814170D03*
X809140Y9806850D03*
X910740D03*
X1012340D03*
X1113940D03*
X809140Y9908450D03*
X910740D03*
X1012340D03*
X1113940D03*
X2558000Y10764000D03*
X2266000Y10454000D03*
X2406800Y10209800D03*
X3565000Y7262000D03*
X3327200Y9388170D03*
X3262200Y9300170D03*
X3785130Y2551840D03*
Y3092320D03*
Y3632800D03*
X3802200Y3823170D03*
X3665000Y7261000D03*
X3976070Y9741930D03*
X3881200Y9739170D03*
X4256200Y10656170D03*
X6389690Y160310D03*
X5881690Y396690D03*
X6014420Y973580D03*
X7142200Y702170D03*
G54D34*
X3420720Y217550D03*
X3674720Y471550D03*
X3928720D03*
X3762560Y8920120D03*
X4016560D03*
X3762550Y9174120D03*
X4016550D03*
X4558430Y938860D03*
X4812430D03*
X6205820Y2033650D03*
Y1525650D03*
X6459820Y2033650D03*
Y1525650D03*
X6205820Y2541650D03*
X6459820D03*
X6205820Y3049650D03*
X6459820D03*
X9721800Y10122680D03*
X10722900Y7178970D03*
Y7686970D03*
X10468900Y7432970D03*
Y7686970D03*
X10722900Y8194970D03*
Y8702970D03*
X10468900Y8448970D03*
X10722900Y9210970D03*
X10468900Y9464970D03*
Y8956970D03*
G54D30*
X1148970Y7993780D03*
X2173200Y9594170D03*
X5179690Y139310D03*
X5057190Y1989190D03*
X5276200Y1475170D03*
X9370570Y842430D03*
X9679460D03*
X9954570Y1739430D03*
G54D27*
X790000Y9597000D03*
G54D32*
X2382970Y462780D03*
Y9406840D03*
X8796990Y592780D03*
Y9536840D03*
G54D29*
X551080Y8718780D03*
Y8972780D03*
X3420720Y471550D03*
X3674720Y217550D03*
X3928720D03*
X4666260Y1682920D03*
X6205820Y1779650D03*
X6459820D03*
X6205820Y2795650D03*
Y2287650D03*
X6459820D03*
Y2795650D03*
X6205820Y3303650D03*
X6459820D03*
X7346490Y1489380D03*
X9467800Y10122680D03*
X9859180Y790960D03*
X10113180D03*
X9721800Y10376680D03*
X10367180Y790960D03*
X10468900Y7178970D03*
X10722900Y7432970D03*
Y7940970D03*
X10468900D03*
X10722900Y8448970D03*
X10468900Y8194970D03*
Y8702970D03*
X10722900Y8956970D03*
Y9464970D03*
X10468900Y9210970D03*
G54D31*
X2079990Y1489790D03*
Y1849810D03*
X1900000Y1669800D03*
Y2029790D03*
X2079990Y2209800D03*
Y2569800D03*
X1900000Y2389790D03*
Y2749810D03*
X2079990Y2929790D03*
Y3289810D03*
X1900000Y3109800D03*
Y3469800D03*
X2079990Y3649810D03*
Y4009800D03*
X1900000Y3829790D03*
Y4189810D03*
X2079990Y4369810D03*
Y4729830D03*
X1900000Y4549820D03*
Y4909810D03*
X2079990Y5089820D03*
Y5449820D03*
Y5809810D03*
X1900000Y5269810D03*
Y5629830D03*
X2079990Y6169830D03*
Y6529830D03*
X1900000Y5989820D03*
Y6349820D03*
X2079990Y6889820D03*
X1900000Y6709810D03*
Y7069830D03*
X2079990Y7249830D03*
Y7609830D03*
Y7789840D03*
Y7969820D03*
X1900000Y7429820D03*
X2079990Y8149830D03*
Y8329840D03*
Y8509830D03*
X1900000Y8149830D03*
Y8329840D03*
Y8509830D03*
X2800000Y1489790D03*
Y1849810D03*
X2619990Y1669800D03*
Y2029790D03*
X2439980Y1669800D03*
Y2029790D03*
X2260000Y1489790D03*
Y1849810D03*
X2800000Y2209800D03*
Y2569800D03*
X2619990Y2389790D03*
Y2749810D03*
X2439980Y2389790D03*
Y2749810D03*
X2260000Y2209800D03*
Y2569800D03*
X2800000Y2929790D03*
Y3289810D03*
X2619990Y3109800D03*
Y3469800D03*
X2439980Y3109800D03*
Y3469800D03*
X2260000Y2929790D03*
Y3289810D03*
X2800000Y3649810D03*
Y4009800D03*
X2619990Y3829790D03*
Y4189810D03*
X2439980Y3829790D03*
Y4189810D03*
X2260000Y3649810D03*
Y4009800D03*
X2800000Y4369810D03*
Y4729830D03*
X2619990Y4549820D03*
Y4909810D03*
X2439980Y4549820D03*
Y4909810D03*
X2260000Y4369810D03*
Y4729830D03*
X2800000Y5089820D03*
Y5449820D03*
Y5809810D03*
X2619990Y5269810D03*
Y5629830D03*
X2439980Y5269810D03*
Y5629830D03*
X2260000Y5089820D03*
Y5449820D03*
Y5809810D03*
X2800000Y6169830D03*
Y6529830D03*
X2619990Y5989820D03*
Y6349820D03*
X2439980Y5989820D03*
Y6349820D03*
X2260000Y6169830D03*
Y6529830D03*
X2800000Y6889820D03*
X2619990Y6709810D03*
Y7069830D03*
X2439980Y6709810D03*
Y7069830D03*
X2260000Y6889820D03*
X2800000Y7249830D03*
X2260000D03*
X2619990Y7429820D03*
Y7609830D03*
Y7789840D03*
Y7969820D03*
X2439980Y7429820D03*
X2260000Y7609830D03*
Y7789840D03*
Y7969820D03*
X2800000Y8149830D03*
Y8329840D03*
X2619990Y8149830D03*
Y8329840D03*
Y8509830D03*
X2439980Y8149830D03*
Y8329840D03*
Y8509830D03*
X2260000Y8149830D03*
Y8329840D03*
Y8509830D03*
X3339980Y1669800D03*
Y2029790D03*
X3159990Y1669800D03*
Y2029790D03*
X2979980Y1489790D03*
Y1849810D03*
X3339980Y2389790D03*
Y2749810D03*
X3159990Y2389790D03*
Y2749810D03*
X2979980Y2209800D03*
Y2569800D03*
X3339980Y3109800D03*
Y3469800D03*
X3159990Y3109800D03*
Y3469800D03*
X2979980Y2929790D03*
Y3289810D03*
X3339980Y3829790D03*
Y4189810D03*
X3159990Y3829790D03*
Y4189810D03*
X2979980Y3649810D03*
Y4009800D03*
X3339980Y4549820D03*
Y4909810D03*
X3159990Y4549820D03*
Y4909810D03*
X2979980Y4369810D03*
Y4729830D03*
X3339980Y5269810D03*
Y5629830D03*
X3159990Y5269810D03*
Y5629830D03*
X2979980Y5089820D03*
Y5449820D03*
Y5809810D03*
X3339980Y6349820D03*
X3159990D03*
X2979980Y6169830D03*
Y6529830D03*
X3339980Y6709810D03*
Y7069830D03*
X3159990Y6709810D03*
Y7069830D03*
X2979980Y6889820D03*
Y7249830D03*
X3339980Y7429820D03*
X3159990D03*
Y7609830D03*
Y7789840D03*
Y7969820D03*
X2979980Y7609830D03*
Y7789840D03*
Y7969820D03*
X3339980Y8149830D03*
Y8329840D03*
Y8509830D03*
X3159990Y8149830D03*
Y8329840D03*
Y8509830D03*
X2979980Y8149830D03*
Y8329840D03*
X7839980Y1849790D03*
Y1669780D03*
Y1489790D03*
X8019970Y2029800D03*
Y1849790D03*
Y1669780D03*
Y1489790D03*
X7839980Y2569800D03*
X8019970D03*
Y2389790D03*
Y2209780D03*
X7839980Y3289810D03*
Y2929790D03*
X8019970Y3289810D03*
Y2929790D03*
Y4009800D03*
Y4729810D03*
Y4369790D03*
X7839980Y5809810D03*
X8019970D03*
X7839980Y5449800D03*
X8019970D03*
Y5089810D03*
X7839980Y6529820D03*
Y6169830D03*
X8019970Y6529820D03*
Y6169830D03*
X7839980Y7249810D03*
Y6889820D03*
X8019970Y7249810D03*
Y6889820D03*
X7839980Y7969830D03*
Y7609830D03*
X8019970Y7969830D03*
Y7609830D03*
X7839980Y8329820D03*
X8019970D03*
X8199980Y2029800D03*
Y1849790D03*
Y1669780D03*
X8379960Y1849790D03*
Y1669780D03*
X8559970Y2029800D03*
Y1849790D03*
Y1669780D03*
Y1489790D03*
X8739980Y1849790D03*
Y1669780D03*
Y1489790D03*
X8199980Y2749790D03*
Y2389790D03*
Y2209780D03*
X8379960Y2749790D03*
X8559970Y2569800D03*
Y2389790D03*
Y2209780D03*
X8739980Y2569800D03*
X8199980Y3109800D03*
X8379960Y3469790D03*
Y3109800D03*
X8559970Y3289810D03*
Y2929790D03*
X8739980Y3289810D03*
Y2929790D03*
X8199980Y4189810D03*
X8379960D03*
Y3829790D03*
X8559970Y4009800D03*
Y3649800D03*
X8739980Y4009800D03*
Y3649800D03*
X8199980Y4909800D03*
Y4549800D03*
X8379960Y4909800D03*
Y4549800D03*
X8559970Y4729810D03*
Y4369790D03*
X8739980Y4729810D03*
Y4369790D03*
X8559970Y5809810D03*
X8739980D03*
X8199980Y5629810D03*
Y5269790D03*
X8379960Y5629810D03*
Y5269790D03*
X8559970Y5449800D03*
Y5089810D03*
X8739980Y5449800D03*
Y5089810D03*
X8199980Y6349810D03*
Y5989820D03*
X8379960Y6349810D03*
Y5989820D03*
X8559970Y6529820D03*
Y6169830D03*
X8739980Y6529820D03*
Y6169830D03*
X8199980Y7069830D03*
Y6709810D03*
X8379960Y7069830D03*
Y6709810D03*
X8559970Y7249810D03*
Y6889820D03*
X8739980Y7249810D03*
Y6889820D03*
X8199980Y7789820D03*
Y7429820D03*
X8379960Y7789820D03*
Y7429820D03*
X8559970Y7969830D03*
Y7609830D03*
X8739980Y7969830D03*
Y7609830D03*
X8199980Y8509830D03*
Y8149810D03*
X8379960Y8509830D03*
Y8149810D03*
X8559970Y8329820D03*
X8739980D03*
X8919960Y2029800D03*
Y1849790D03*
Y1669780D03*
Y1489790D03*
X9099970Y2029800D03*
Y1849790D03*
Y1669780D03*
Y1489790D03*
X9279960Y1849790D03*
Y1669780D03*
Y1489790D03*
X8919960Y2749790D03*
Y2389790D03*
Y2209780D03*
X9099970Y2749790D03*
Y2389790D03*
Y2209780D03*
X9279960Y2569800D03*
X8919960Y3469790D03*
Y3109800D03*
X9099970Y3469790D03*
Y3109800D03*
X9279960Y3289810D03*
Y2929790D03*
X8919960Y4189810D03*
Y3829790D03*
X9099970Y4189810D03*
Y3829790D03*
X9279960Y4009800D03*
Y3649800D03*
X8919960Y4909800D03*
Y4549800D03*
X9099970Y4909800D03*
Y4549800D03*
X9279960Y4729810D03*
Y4369790D03*
Y5809810D03*
X8919960Y5629810D03*
Y5269790D03*
X9099970Y5629810D03*
Y5269790D03*
X9279960Y5449800D03*
Y5089810D03*
X8919960Y6349810D03*
Y5989820D03*
X9099970Y6349810D03*
Y5989820D03*
X9279960Y6529820D03*
Y6169830D03*
X8919960Y7069830D03*
Y6709810D03*
X9099970Y7069830D03*
Y6709810D03*
X9279960Y7249810D03*
Y6889820D03*
X8919960Y7789820D03*
Y7429820D03*
X9099970Y7789820D03*
Y7429820D03*
X9279960Y7969830D03*
Y7609830D03*
X8919960Y8509830D03*
Y8149810D03*
X9099970Y8509830D03*
Y8149810D03*
X9279960Y8329820D03*
G54D33*
X2889990Y1250800D03*
X8289970Y8748820D03*
G54D35*
X10398860Y10273510D03*
%LPD*%
G75*
G54D10*
X589830Y74110D03*
X416030Y1287790D03*
Y1152670D03*
Y1017550D03*
Y882420D03*
X589990Y694820D03*
X416030Y1963380D03*
X416040Y1828270D03*
X416030Y1693140D03*
Y1558030D03*
Y1422910D03*
Y2774110D03*
Y2638990D03*
X416040Y2503870D03*
X416030Y2368750D03*
Y2233630D03*
Y2098520D03*
Y3449710D03*
Y3314590D03*
Y3179470D03*
Y3044350D03*
Y2909230D03*
Y4260430D03*
Y4125310D03*
Y3990190D03*
X416040Y3855070D03*
X416030Y3719950D03*
Y3584830D03*
Y4936030D03*
Y4800910D03*
Y4665800D03*
X416040Y4530670D03*
X416030Y4395540D03*
X416040Y5611620D03*
X416030Y5476510D03*
Y5341390D03*
Y5206270D03*
Y5071140D03*
Y5746740D03*
X995190Y74110D03*
X1130310D03*
X1265430Y74120D03*
X724950Y74110D03*
X860070D03*
X725110Y694820D03*
X1036740Y1287620D03*
Y1422740D03*
Y1963220D03*
Y2098340D03*
Y2638820D03*
Y2773940D03*
Y3314420D03*
Y3449540D03*
Y4125140D03*
Y3990020D03*
Y4800740D03*
Y4665620D03*
X1152140Y6348110D03*
Y6888590D03*
Y6753470D03*
Y6618350D03*
Y6483230D03*
X1195450Y7878220D03*
Y7743100D03*
Y7607980D03*
X1125200Y7814170D03*
X1233420Y8669100D03*
X1148970Y8265710D03*
X1278160Y8096050D03*
X1148970Y7993780D03*
X1113940Y9908450D03*
X1012340D03*
X910740D03*
X809140D03*
X1113940Y9806850D03*
X1012340D03*
X910740D03*
X809140D03*
X1805910Y74110D03*
X1941030D03*
X1400550D03*
X1535670D03*
X1670790D03*
X1600110Y9021110D03*
Y8909350D03*
X1993540Y10856450D03*
X1891940D03*
X1790340D03*
X1688740D03*
X1587140D03*
X1993540Y10754850D03*
X1891940D03*
X1790340D03*
X1688740D03*
X1587140D03*
X2076150Y74110D03*
X2787800Y9951570D03*
X2201140Y9813850D03*
Y9915450D03*
X2173200Y9594170D03*
X2533800Y10207010D03*
X2606140Y10543450D03*
X2504540D03*
X2606140Y10441850D03*
X2504540D03*
X2235840Y10849160D03*
X2095140Y10856450D03*
Y10754850D03*
X2558000Y10764000D03*
X2266000Y10454000D03*
X2406800Y10209800D03*
X3327200Y9388170D03*
X3262200Y9300170D03*
X3041800Y9951570D03*
X3166420Y9843460D03*
Y9492940D03*
X3494450Y10823640D03*
Y10925240D03*
X3785130Y2551840D03*
Y3092320D03*
Y3632800D03*
X3802200Y3823170D03*
X3665000Y7261000D03*
X3565000Y7262000D03*
X3976070Y9741930D03*
X3881200Y9739170D03*
X4170810Y10178310D03*
X4069210D03*
X3967610D03*
X3866010D03*
X3596050Y10823640D03*
X4256200Y10656170D03*
X3596050Y10925240D03*
X4923110Y139310D03*
X4405830Y930240D03*
X4405840Y1065360D03*
X4405830Y1200490D03*
X4405840Y795120D03*
Y1876080D03*
Y2011210D03*
X4405830Y1335600D03*
X4405840Y1470720D03*
Y1605850D03*
Y1740960D03*
Y2686800D03*
Y2146320D03*
Y2281440D03*
Y2416560D03*
Y2551680D03*
Y3497520D03*
Y2821920D03*
Y2957040D03*
Y3092160D03*
Y3227280D03*
Y3362400D03*
Y3632640D03*
Y3767760D03*
Y3902880D03*
Y4038000D03*
X4405830Y4173120D03*
X4405840Y4308240D03*
Y4443360D03*
Y4578480D03*
Y4713600D03*
Y4848720D03*
Y4983840D03*
X4405830Y5118960D03*
X4405840Y5254080D03*
Y5389200D03*
Y5524320D03*
Y5659440D03*
X4842000Y5276360D03*
Y5364420D03*
X4494360Y5275740D03*
Y5363800D03*
X4471620Y6356250D03*
X4383560D03*
X4877620Y6348250D03*
X4789560D03*
X4472620Y6655250D03*
X4384560D03*
X4878620Y6647250D03*
X4790560D03*
X4309130Y7673190D03*
Y7808310D03*
Y7943430D03*
Y7402950D03*
X4309120Y7538070D03*
X5000740Y7783630D03*
Y7695570D03*
X4466990Y8111010D03*
Y8222770D03*
Y8334530D03*
X4309130Y8483900D03*
Y8619030D03*
Y8078550D03*
Y8213670D03*
Y8348790D03*
X4781920Y7977960D03*
Y8066020D03*
X4925000Y8927000D03*
X4786000Y8803000D03*
X4688000Y8805000D03*
X4589000Y8804000D03*
X4314690Y9700570D03*
X4275450Y10826640D03*
X4377050D03*
X4441050Y10406240D03*
X4339450D03*
X4441050Y10304640D03*
X4339450D03*
X4441050Y10203040D03*
X4339450D03*
X4275450Y10928240D03*
X4377050D03*
X5627690Y151000D03*
X5361010Y447310D03*
X5462610D03*
X5564210D03*
X5665810D03*
Y528310D03*
X5564210D03*
X5462610D03*
X5361010D03*
X5179690Y139310D03*
X5347010Y959310D03*
X5448610D03*
X5550210D03*
X5651810D03*
Y1040310D03*
X5550210D03*
X5448610D03*
X5347010D03*
X5246000Y758000D03*
X5229920Y1902010D03*
X5057190Y1989190D03*
X5276200Y1475170D03*
X5197120Y5264590D03*
X5197780Y5561250D03*
X5284020Y5264590D03*
X5285840Y5561250D03*
X5197570Y6347900D03*
X5285630D03*
X5605570Y6352170D03*
X5693630D03*
X5284530Y6081540D03*
X5602950D03*
X5691010D03*
X5196470D03*
X5198570Y6646900D03*
X5286630D03*
X5606570Y6651170D03*
X5694630D03*
X5286510Y6924080D03*
X5198450D03*
X5692990D03*
X5604930D03*
X5553370Y7760740D03*
X5641430D03*
X5375000Y8258000D03*
X5336000Y8504000D03*
X5137950Y9112080D03*
X5226010D03*
X6008690Y406440D03*
X6262690Y151000D03*
X6389690Y160310D03*
X5881690Y396690D03*
X6079140Y643850D03*
Y745450D03*
X5977540Y643850D03*
Y745450D03*
X6014420Y973580D03*
X6347560Y4097250D03*
X6435620D03*
X5941560Y4105250D03*
X6029620D03*
X6433240Y3832410D03*
X6345180D03*
X6029690Y3836040D03*
X5941630D03*
X6348560Y4396250D03*
X6436620D03*
X5942560Y4404250D03*
X6030620D03*
X6435220Y4674950D03*
X5943610Y4678580D03*
X6031670D03*
X6347160Y4674950D03*
X6516690Y151000D03*
X7142200Y702170D03*
X6907390Y1843180D03*
X6900010Y2045520D03*
X6907380Y1708060D03*
X6900000Y2586000D03*
X6900010Y2315760D03*
X7194630Y4103170D03*
X7106570D03*
X6820630Y4099900D03*
X6732570D03*
X7195630Y4402170D03*
X7107570D03*
X6821630Y4398900D03*
X6733570D03*
X6704570Y5573170D03*
X6703570Y5274170D03*
X6792630Y5573170D03*
X6791630Y5274170D03*
X7063500Y7911860D03*
X7063490Y7776730D03*
X7063500Y8317220D03*
Y8182100D03*
X7063490Y8046980D03*
X7631810Y307310D03*
Y388310D03*
X7327010Y307310D03*
X7428610D03*
X7530210D03*
Y388310D03*
X7428610D03*
X7327010D03*
X7244010Y1228310D03*
X7345610D03*
X7447210D03*
X7548810D03*
Y1147310D03*
X7447210D03*
X7345610D03*
X7244010D03*
X7872610Y964310D03*
X7771010D03*
Y1053310D03*
X7872610D03*
Y1134310D03*
X7771010D03*
X7974210Y964310D03*
Y1053310D03*
Y1134310D03*
X9334840Y729550D03*
X9370570Y842430D03*
X9679460D03*
X10013050Y1484020D03*
X9954570Y1739430D03*
X9988500Y7704290D03*
X10014000Y8418000D03*
X9921300Y9899300D03*
X10724070Y339550D03*
X10588950D03*
X10772690Y1475210D03*
X10853690D03*
X10746690Y3343210D03*
X10827690D03*
X10870720Y4205860D03*
X10870730Y4070740D03*
Y3935620D03*
X10870720Y3800500D03*
Y3665380D03*
X10870730Y4881460D03*
X10870720Y4746340D03*
Y4611220D03*
Y4476110D03*
Y4340980D03*
G54D20*
X4715050Y10423240D03*
X6639450D03*
X6341060D03*
X8265460D03*
G54D11*
X297080Y8718780D03*
Y8972780D03*
X3420720Y217550D03*
X3674720Y471550D03*
X3928720D03*
X4270560Y8920120D03*
X3762560D03*
X4016560D03*
X4270550Y9174120D03*
X3762550D03*
X4016550D03*
X5066430Y938860D03*
X4558430D03*
X4812430D03*
X4666260Y1428920D03*
X6205820Y2033650D03*
Y1525650D03*
X6459820Y2033650D03*
Y1525650D03*
X6205820Y2541650D03*
X6459820D03*
X6205820Y3049650D03*
X6459820D03*
X7092490Y1489380D03*
X9467800Y10376680D03*
X9859180Y536960D03*
X10113180D03*
X9721800Y10122680D03*
X10367180Y536960D03*
X10722900Y7178970D03*
Y7686970D03*
X10468900Y7432970D03*
Y7686970D03*
X10722900Y8194970D03*
Y8702970D03*
X10468900Y8448970D03*
X10722900Y9210970D03*
X10468900Y9464970D03*
Y8956970D03*
G54D21*
X4893050Y10766240D03*
X6163050D03*
X6817450D03*
X8087450D03*
G54D12*
X551080Y8718780D03*
Y8972780D03*
X3420720Y471550D03*
X3674720Y217550D03*
X3928720D03*
X4666260Y1682920D03*
X5375040Y10512240D03*
X5579060D03*
X5783040D03*
X5273060Y10334240D03*
X5477050D03*
X5681060D03*
X6205820Y1779650D03*
X6459820D03*
X6205820Y2795650D03*
Y2287650D03*
X6459820D03*
Y2795650D03*
X6205820Y3303650D03*
X6459820D03*
X5885050Y10334240D03*
X7197460D03*
X7346490Y1489380D03*
X7809450Y10334240D03*
X7299440Y10512240D03*
X7503460D03*
X7707440D03*
X7401450Y10334240D03*
X7605460D03*
X9467800Y10122680D03*
X9859180Y790960D03*
X10113180D03*
X9721800Y10376680D03*
X10367180Y790960D03*
X10468900Y7178970D03*
X10722900Y7432970D03*
Y7940970D03*
X10468900D03*
X10722900Y8448970D03*
X10468900Y8194970D03*
Y8702970D03*
X10722900Y8956970D03*
Y9464970D03*
X10468900Y9210970D03*
G54D13*
X330010Y9896970D03*
G54D22*
X5262000Y8022000D03*
G54D23*
X5171060Y10512240D03*
X7095460D03*
G54D14*
X790000Y9597000D03*
Y10226920D03*
G54D15*
X2619980Y699790D03*
Y9169830D03*
X8559980Y829790D03*
Y9299830D03*
G54D24*
X10144860Y10019510D03*
Y10527510D03*
X10652860Y10019510D03*
X10398860Y10273510D03*
X10652860Y10527510D03*
G54D25*
G01X3339980Y5989820D02*
X3288540D01*
X3265350Y6013010D01*
Y6036860D01*
X3292660Y6064170D01*
X4503740D01*
X5032330Y5535580D01*
Y5518340D01*
X5027310Y5513330D01*
Y5496090D01*
X5039520Y5483880D01*
X5056770D01*
X5061780Y5488890D01*
X5079020D01*
X5091230Y5476680D01*
Y5459440D01*
X5086210Y5454430D01*
Y5437190D01*
X5098420Y5424980D01*
X5115670D01*
X5120680Y5429990D01*
X5137920D01*
X5150130Y5417780D01*
Y5400540D01*
X5145110Y5395530D01*
Y5378290D01*
X5157320Y5366080D01*
X5174570D01*
X5179580Y5371090D01*
X5196820D01*
X5226200Y5341710D01*
Y5293670D01*
X5197120Y5264590D01*
G01X3159990Y5989820D02*
X3212850D01*
X3234620Y6011590D01*
Y6049590D01*
X3279930Y6094900D01*
X4516470D01*
X5256930Y5354440D01*
Y5291680D01*
X5284020Y5264590D01*
G01X6435220Y4674950D02*
X6406550Y4703620D01*
Y4762910D01*
X6406540Y4766220D01*
Y6062050D01*
X6435930Y6091440D01*
X6541480D01*
X6555200Y6077720D01*
Y4054620D01*
X6487480Y3986900D01*
X6290940D01*
X6219200Y3915160D01*
Y3838630D01*
X6114740Y3734170D01*
X5734660D01*
X5236930Y4231900D01*
Y5061830D01*
X5401200Y5226100D01*
Y5308390D01*
X5413400Y5320590D01*
X5454000D01*
X5484200Y5350790D01*
Y5393490D01*
X5454000Y5423690D01*
X5413400D01*
X5401200Y5435890D01*
Y5453130D01*
X5413400Y5465330D01*
X5454000D01*
X5484200Y5495530D01*
Y5538230D01*
X5454000Y5568430D01*
X5413400D01*
X5357680Y5624150D01*
Y5641410D01*
X5391700Y5675430D01*
Y5718130D01*
X5361460Y5748370D01*
X5318760D01*
X5284740Y5714350D01*
X5267480D01*
X5255290Y5726540D01*
Y5743800D01*
X5289310Y5777820D01*
Y5820520D01*
X5255860Y5853970D01*
Y5876710D01*
X5268060Y5888910D01*
X5309000D01*
X5321200Y5901110D01*
Y5918350D01*
X5309000Y5930550D01*
X5268060D01*
X5255860Y5942750D01*
Y5959990D01*
X5268060Y5972190D01*
X5309000D01*
X5321200Y5984390D01*
Y6001630D01*
X5309000Y6013830D01*
X5268060D01*
X5255860Y6026030D01*
Y6052870D01*
X5284530Y6081540D01*
G01X5943610Y4678580D02*
X5972270Y4707240D01*
Y5460640D01*
X5946470Y5486440D01*
X5816930D01*
X5794930Y5464440D01*
Y4124440D01*
X5750930Y4080440D01*
X5595470D01*
X5558470Y4117440D01*
Y4198630D01*
X5546270Y4210830D01*
X5350400D01*
X5320200Y4241030D01*
Y4283730D01*
X5350400Y4313930D01*
X5546270D01*
X5558470Y4326130D01*
Y4338890D01*
X5546270Y4351090D01*
X5334400D01*
X5304200Y4381290D01*
Y4423990D01*
X5334400Y4454190D01*
X5546270D01*
X5558470Y4466390D01*
Y4483630D01*
X5546270Y4495830D01*
X5334400D01*
X5304200Y4526030D01*
Y4568730D01*
X5334400Y4598930D01*
X5546270D01*
X5558470Y4611130D01*
Y4628370D01*
X5546270Y4640570D01*
X5334400D01*
X5304200Y4670770D01*
Y4713470D01*
X5334400Y4743670D01*
X5546270D01*
X5558470Y4755870D01*
Y4773110D01*
X5546270Y4785310D01*
X5334400D01*
X5304200Y4815510D01*
Y4858210D01*
X5334400Y4888410D01*
X5546270D01*
X5558470Y4900610D01*
Y4917850D01*
X5546270Y4930050D01*
X5334400D01*
X5304200Y4960250D01*
Y5002950D01*
X5334400Y5033150D01*
X5546270D01*
X5558470Y5045350D01*
Y5061360D01*
X5546270Y5073560D01*
X5440400D01*
X5410200Y5103760D01*
Y5146460D01*
X5440400Y5176660D01*
X5546270D01*
X5558470Y5188860D01*
Y5646990D01*
X5546270Y5659190D01*
X5488400D01*
X5458200Y5689390D01*
Y5732090D01*
X5488400Y5762290D01*
X5546270D01*
X5558470Y5774490D01*
Y5791730D01*
X5546270Y5803930D01*
X5488400D01*
X5458200Y5834130D01*
Y5876830D01*
X5488400Y5907030D01*
X5546270D01*
X5558470Y5919230D01*
Y5944440D01*
X5631610Y6017580D01*
Y6052880D01*
X5602950Y6081540D01*
G01X6031670Y4678580D02*
X6003000Y4707250D01*
Y5473370D01*
X5959200Y5517170D01*
X5804200D01*
X5764200Y5477170D01*
Y4137170D01*
X5738200Y4111170D01*
X5608200D01*
X5589200Y4130170D01*
Y4211360D01*
X5559000Y4241560D01*
X5363130D01*
X5350930Y4253760D01*
Y4271000D01*
X5363130Y4283200D01*
X5559000D01*
X5589200Y4313400D01*
Y4351620D01*
X5559000Y4381820D01*
X5347130D01*
X5334930Y4394020D01*
Y4411260D01*
X5347130Y4423460D01*
X5559000D01*
X5589200Y4453660D01*
Y4496360D01*
X5559000Y4526560D01*
X5347130D01*
X5334930Y4538760D01*
Y4556000D01*
X5347130Y4568200D01*
X5559000D01*
X5589200Y4598400D01*
Y4641100D01*
X5559000Y4671300D01*
X5347130D01*
X5334930Y4683500D01*
Y4700740D01*
X5347130Y4712940D01*
X5559000D01*
X5589200Y4743140D01*
Y4785840D01*
X5559000Y4816040D01*
X5347130D01*
X5334930Y4828240D01*
Y4845480D01*
X5347130Y4857680D01*
X5559000D01*
X5589200Y4887880D01*
Y4930580D01*
X5559000Y4960780D01*
X5347130D01*
X5334930Y4972980D01*
Y4990220D01*
X5347130Y5002420D01*
X5559000D01*
X5589200Y5032620D01*
Y5074090D01*
X5559000Y5104290D01*
X5453130D01*
X5440930Y5116490D01*
Y5133730D01*
X5453130Y5145930D01*
X5559000D01*
X5589200Y5176130D01*
Y5659720D01*
X5559000Y5689920D01*
X5501130D01*
X5488930Y5702120D01*
Y5719360D01*
X5501130Y5731560D01*
X5559000D01*
X5589200Y5761760D01*
Y5804460D01*
X5559000Y5834660D01*
X5501130D01*
X5488930Y5846860D01*
Y5864100D01*
X5501130Y5876300D01*
X5559000D01*
X5589200Y5906500D01*
Y5931710D01*
X5662340Y6004850D01*
Y6052870D01*
X5691010Y6081540D01*
G01X6347160Y4674950D02*
X6375820Y4703610D01*
Y4762880D01*
X6375810Y4766170D01*
Y6074780D01*
X6423200Y6122170D01*
X6554210D01*
X6585930Y6090450D01*
Y4041890D01*
X6500210Y3956170D01*
X6303670D01*
X6249930Y3902430D01*
Y3825900D01*
X6127470Y3703440D01*
X5721930D01*
X5206200Y4219170D01*
Y5074560D01*
X5370470Y5238830D01*
Y5321120D01*
X5400670Y5351320D01*
X5441270D01*
X5453470Y5363520D01*
Y5380760D01*
X5441270Y5392960D01*
X5400670D01*
X5370470Y5423160D01*
Y5465860D01*
X5400670Y5496060D01*
X5441270D01*
X5453470Y5508260D01*
Y5525500D01*
X5441270Y5537700D01*
X5400670D01*
X5326950Y5611420D01*
Y5654140D01*
X5360970Y5688160D01*
Y5705400D01*
X5348730Y5717640D01*
X5331490D01*
X5297470Y5683620D01*
X5254750D01*
X5224560Y5713810D01*
Y5756530D01*
X5258580Y5790550D01*
Y5807790D01*
X5225130Y5841240D01*
Y6052880D01*
X5196470Y6081540D01*
G01X6433240Y3832410D02*
X6406200Y3805370D01*
Y3754170D01*
X6437200Y3723170D01*
X6460830D01*
X6473030Y3735370D01*
Y3735970D01*
X6485230Y3748170D01*
X6502470D01*
X6514670Y3735970D01*
Y3735370D01*
X6526870Y3723170D01*
X6544110D01*
X6556310Y3735370D01*
Y3735970D01*
X6568510Y3748170D01*
X6585750D01*
X6597950Y3735970D01*
Y3735370D01*
X6610150Y3723170D01*
X6639200D01*
X6668590Y3752560D01*
Y3769820D01*
X6656850Y3781560D01*
Y3798820D01*
X6669040Y3811010D01*
X6686300D01*
X6698040Y3799270D01*
X6715300D01*
X6727490Y3811460D01*
Y3828720D01*
X6715750Y3840460D01*
Y3857720D01*
X6727940Y3869910D01*
X6745200D01*
X6756940Y3858170D01*
X6774200D01*
X6786390Y3870360D01*
Y3887620D01*
X6774650Y3899360D01*
Y3916620D01*
X6786840Y3928810D01*
X6804100D01*
X6815840Y3917070D01*
X6833100D01*
X6949200Y4033170D01*
Y6043170D01*
X6825980Y6166390D01*
X6808720D01*
X6764200Y6121870D01*
X6721500D01*
X6691260Y6152110D01*
Y6194810D01*
X6735780Y6239330D01*
Y6256590D01*
X6714660Y6277710D01*
X6697400D01*
X6664130Y6244440D01*
X6619930D01*
X6590470Y6273900D01*
Y6316660D01*
X6624460Y6350650D01*
Y6367910D01*
X6614740Y6377630D01*
X6585020D01*
X6527730Y6320340D01*
X6485030D01*
X6454790Y6350580D01*
Y6393280D01*
X6512080Y6450570D01*
Y6467830D01*
X6499890Y6480020D01*
X6482630D01*
X6425340Y6422730D01*
X6382640D01*
X6352400Y6452970D01*
Y6495670D01*
X6409690Y6552960D01*
Y6570220D01*
X6397500Y6582410D01*
X6380240D01*
X6322950Y6525120D01*
X6280250D01*
X6250010Y6555360D01*
Y6598060D01*
X6307300Y6655350D01*
Y6672610D01*
X6295110Y6684800D01*
X6277850D01*
X6220560Y6627510D01*
X6177860D01*
X6147620Y6657750D01*
Y6700450D01*
X6204910Y6757740D01*
Y6775000D01*
X6192720Y6787190D01*
X6175460D01*
X6118170Y6729900D01*
X6075470D01*
X6045230Y6760140D01*
Y6802840D01*
X6102520Y6860130D01*
Y6877390D01*
X6090330Y6889580D01*
X6073070D01*
X6015780Y6832290D01*
X5973080D01*
X5942840Y6862530D01*
Y6905230D01*
X6000130Y6962520D01*
Y6979780D01*
X5987940Y6991970D01*
X5970680D01*
X5913390Y6934680D01*
X5870690D01*
X5840450Y6964920D01*
Y7007620D01*
X5897740Y7064910D01*
Y7073630D01*
X5889200Y7082170D01*
X5308670D01*
X5257840Y7031340D01*
Y6952750D01*
X5286510Y6924080D01*
G01X6345180Y3832410D02*
X6375470Y3802120D01*
Y3741440D01*
X6424470Y3692440D01*
X6651930D01*
X6979930Y4020440D01*
Y6055900D01*
X6838710Y6197120D01*
X6795990D01*
X6751470Y6152600D01*
X6734230D01*
X6721990Y6164840D01*
Y6182080D01*
X6766510Y6226600D01*
Y6269320D01*
X6727390Y6308440D01*
X6684670D01*
X6651400Y6275170D01*
X6632660D01*
X6621200Y6286630D01*
Y6303930D01*
X6655190Y6337920D01*
Y6380640D01*
X6627470Y6408360D01*
X6572290D01*
X6515000Y6351070D01*
X6497760D01*
X6485520Y6363310D01*
Y6380550D01*
X6542810Y6437840D01*
Y6480560D01*
X6512620Y6510750D01*
X6469900D01*
X6412610Y6453460D01*
X6395370D01*
X6383130Y6465700D01*
Y6482940D01*
X6440420Y6540230D01*
Y6582950D01*
X6410230Y6613140D01*
X6367510D01*
X6310220Y6555850D01*
X6292980D01*
X6280740Y6568090D01*
Y6585330D01*
X6338030Y6642620D01*
Y6685340D01*
X6307840Y6715530D01*
X6265120D01*
X6207830Y6658240D01*
X6190590D01*
X6178350Y6670480D01*
Y6687720D01*
X6235640Y6745010D01*
Y6787730D01*
X6205450Y6817920D01*
X6162730D01*
X6105440Y6760630D01*
X6088200D01*
X6075960Y6772870D01*
Y6790110D01*
X6133250Y6847400D01*
Y6890120D01*
X6103060Y6920310D01*
X6060340D01*
X6003050Y6863020D01*
X5985810D01*
X5973570Y6875260D01*
Y6892500D01*
X6030860Y6949790D01*
Y6992510D01*
X6000670Y7022700D01*
X5957950D01*
X5900660Y6965410D01*
X5883420D01*
X5871180Y6977650D01*
Y6994890D01*
X5928470Y7052180D01*
Y7086360D01*
X5901930Y7112900D01*
X5295940D01*
X5227110Y7044070D01*
Y6952740D01*
X5198450Y6924080D01*
G01X6029690Y3836040D02*
Y3878300D01*
X6001020Y3906970D01*
Y3920990D01*
X6257200Y4177170D01*
Y4678180D01*
X6227000Y4708380D01*
X6150130D01*
X6137930Y4720580D01*
Y4737820D01*
X6150130Y4750020D01*
X6227000D01*
X6257200Y4780220D01*
Y4822920D01*
X6227000Y4853120D01*
X6150130D01*
X6137930Y4865320D01*
Y4882560D01*
X6150130Y4894760D01*
X6227000D01*
X6257200Y4924960D01*
Y4967660D01*
X6227000Y4997860D01*
X6150130D01*
X6137930Y5010060D01*
Y5027300D01*
X6150130Y5039500D01*
X6227000D01*
X6257200Y5069700D01*
Y5112400D01*
X6227000Y5142600D01*
X6150130D01*
X6137930Y5154800D01*
Y5172040D01*
X6150130Y5184240D01*
X6227000D01*
X6257200Y5214440D01*
Y5257140D01*
X6227000Y5287340D01*
X6150130D01*
X6137930Y5299540D01*
Y5316780D01*
X6150130Y5328980D01*
X6227000D01*
X6257200Y5359180D01*
Y5401880D01*
X6227000Y5432080D01*
X6150130D01*
X6137930Y5444280D01*
Y5461520D01*
X6150130Y5473720D01*
X6227000D01*
X6257200Y5503920D01*
Y5546620D01*
X6227000Y5576820D01*
X6150130D01*
X6137930Y5589020D01*
Y5606260D01*
X6150130Y5618460D01*
X6227000D01*
X6257200Y5648660D01*
Y5691360D01*
X6227000Y5721560D01*
X6150130D01*
X6137930Y5733760D01*
Y5751000D01*
X6150130Y5763200D01*
X6227000D01*
X6257200Y5793400D01*
Y5836100D01*
X6227000Y5866300D01*
X6150130D01*
X6137930Y5878500D01*
Y5895740D01*
X6150130Y5907940D01*
X6227000D01*
X6257200Y5938140D01*
Y5980840D01*
X6227000Y6011040D01*
X6150130D01*
X6137930Y6023240D01*
Y6040480D01*
X6150130Y6052680D01*
X6227000D01*
X6257200Y6082880D01*
Y6125580D01*
X6227000Y6155780D01*
X6150130D01*
X6137930Y6167980D01*
Y6185220D01*
X6150130Y6197420D01*
X6227000D01*
X6257200Y6227620D01*
Y6270320D01*
X6227000Y6300520D01*
X6180860D01*
X6168200Y6313180D01*
Y6331180D01*
X6179180Y6342160D01*
X6227000D01*
X6257200Y6372360D01*
Y6419170D01*
X6167150Y6509220D01*
X6124430D01*
X5934140Y6318930D01*
X5916900D01*
X5904660Y6331170D01*
Y6348410D01*
X6094950Y6538700D01*
Y6581420D01*
X6064760Y6611610D01*
X6022040D01*
X5831750Y6421320D01*
X5814510D01*
X5802270Y6433560D01*
Y6450800D01*
X5992560Y6641090D01*
Y6683810D01*
X5963200Y6713170D01*
X5793890D01*
X5664320Y6842740D01*
Y6853150D01*
X5692990Y6881820D01*
Y6924080D01*
G01X5941630Y3836040D02*
Y3878310D01*
X5970290Y3906970D01*
Y3933720D01*
X6226470Y4189900D01*
Y4665450D01*
X6214270Y4677650D01*
X6137400D01*
X6107200Y4707850D01*
Y4750550D01*
X6137400Y4780750D01*
X6214270D01*
X6226470Y4792950D01*
Y4810190D01*
X6214270Y4822390D01*
X6137400D01*
X6107200Y4852590D01*
Y4895290D01*
X6137400Y4925490D01*
X6214270D01*
X6226470Y4937690D01*
Y4954930D01*
X6214270Y4967130D01*
X6137400D01*
X6107200Y4997330D01*
Y5040030D01*
X6137400Y5070230D01*
X6214270D01*
X6226470Y5082430D01*
Y5099670D01*
X6214270Y5111870D01*
X6137400D01*
X6107200Y5142070D01*
Y5184770D01*
X6137400Y5214970D01*
X6214270D01*
X6226470Y5227170D01*
Y5244410D01*
X6214270Y5256610D01*
X6137400D01*
X6107200Y5286810D01*
Y5329510D01*
X6137400Y5359710D01*
X6214270D01*
X6226470Y5371910D01*
Y5389150D01*
X6214270Y5401350D01*
X6137400D01*
X6107200Y5431550D01*
Y5474250D01*
X6137400Y5504450D01*
X6214270D01*
X6226470Y5516650D01*
Y5533890D01*
X6214270Y5546090D01*
X6137400D01*
X6107200Y5576290D01*
Y5618990D01*
X6137400Y5649190D01*
X6214270D01*
X6226470Y5661390D01*
Y5678630D01*
X6214270Y5690830D01*
X6137400D01*
X6107200Y5721030D01*
Y5763730D01*
X6137400Y5793930D01*
X6214270D01*
X6226470Y5806130D01*
Y5823370D01*
X6214270Y5835570D01*
X6137400D01*
X6107200Y5865770D01*
Y5908470D01*
X6137400Y5938670D01*
X6214270D01*
X6226470Y5950870D01*
Y5968110D01*
X6214270Y5980310D01*
X6137400D01*
X6107200Y6010510D01*
Y6053210D01*
X6137400Y6083410D01*
X6214270D01*
X6226470Y6095610D01*
Y6112850D01*
X6214270Y6125050D01*
X6137400D01*
X6107200Y6155250D01*
Y6197950D01*
X6137400Y6228150D01*
X6214270D01*
X6226470Y6240350D01*
Y6257590D01*
X6214270Y6269790D01*
X6168130D01*
X6137470Y6300450D01*
Y6343910D01*
X6166450Y6372890D01*
X6214270D01*
X6226470Y6385090D01*
Y6406440D01*
X6154420Y6478490D01*
X6137160D01*
X5946870Y6288200D01*
X5904170D01*
X5873930Y6318440D01*
Y6361140D01*
X6064220Y6551430D01*
Y6568690D01*
X6052030Y6580880D01*
X6034770D01*
X5844480Y6390590D01*
X5801780D01*
X5771540Y6420830D01*
Y6463530D01*
X5961830Y6653820D01*
Y6671080D01*
X5950470Y6682440D01*
X5781160D01*
X5633590Y6830010D01*
Y6853150D01*
X5604930Y6881810D01*
Y6924080D01*
G01X7107570Y4402170D02*
X7136240Y4373500D01*
Y4275130D01*
X7177200Y4234170D01*
X7325200D01*
X7384200Y4293170D01*
Y4545950D01*
X7354000Y4576150D01*
X7320130D01*
X7307930Y4588350D01*
Y4605590D01*
X7320130Y4617790D01*
X7354000D01*
X7384200Y4647990D01*
Y4690690D01*
X7354000Y4720890D01*
X7320130D01*
X7307930Y4733090D01*
Y4750330D01*
X7320130Y4762530D01*
X7354000D01*
X7384200Y4792730D01*
Y4882370D01*
X7354000Y4912570D01*
X7321130D01*
X7308930Y4924770D01*
Y4942010D01*
X7321130Y4954210D01*
X7354000D01*
X7384200Y4984410D01*
Y5012170D01*
X7407470Y5035440D01*
X7564470D01*
X7591200Y5008710D01*
Y3637180D01*
X7685940Y3542440D01*
X7893470D01*
X7945340Y3594310D01*
Y3628310D01*
X7966830Y3649800D01*
X8019970D01*
G01X7195630Y4402170D02*
X7166970Y4373510D01*
Y4287860D01*
X7189930Y4264900D01*
X7204260D01*
X7216460Y4277100D01*
Y4317970D01*
X7228660Y4330170D01*
X7245900D01*
X7258100Y4317970D01*
Y4277100D01*
X7270300Y4264900D01*
X7312470D01*
X7353470Y4305900D01*
Y4533220D01*
X7341270Y4545420D01*
X7307400D01*
X7277200Y4575620D01*
Y4618320D01*
X7307400Y4648520D01*
X7341270D01*
X7353470Y4660720D01*
Y4677960D01*
X7341270Y4690160D01*
X7307400D01*
X7277200Y4720360D01*
Y4763060D01*
X7307400Y4793260D01*
X7341270D01*
X7353470Y4805460D01*
Y4869640D01*
X7341270Y4881840D01*
X7308400D01*
X7278200Y4912040D01*
Y4954740D01*
X7308400Y4984940D01*
X7341270D01*
X7353470Y4997140D01*
Y5024900D01*
X7394740Y5066170D01*
X7577200D01*
X7621930Y5021440D01*
Y3649910D01*
X7698670Y3573170D01*
X7880740D01*
X7914610Y3607040D01*
Y3630770D01*
X7895580Y3649800D01*
X7839980D01*
G54D16*
X2079990Y1489790D03*
Y1669800D03*
Y1849810D03*
Y2029790D03*
X1900000Y1489790D03*
Y1669800D03*
Y1849810D03*
Y2029790D03*
X2079990Y2209800D03*
Y2389790D03*
Y2569800D03*
Y2749810D03*
X1900000Y2209800D03*
Y2389790D03*
Y2569800D03*
Y2749810D03*
X2079990Y2929790D03*
Y3109800D03*
Y3289810D03*
Y3469800D03*
X1900000Y2929790D03*
Y3109800D03*
Y3289810D03*
Y3469800D03*
X2079990Y3649810D03*
Y3829790D03*
Y4009800D03*
Y4189810D03*
X1900000Y3649810D03*
Y3829790D03*
Y4009800D03*
Y4189810D03*
X2079990Y4369810D03*
Y4549820D03*
Y4729830D03*
Y4909810D03*
X1900000Y4369810D03*
Y4549820D03*
Y4729830D03*
Y4909810D03*
X2079990Y5089820D03*
Y5269810D03*
Y5449820D03*
Y5629830D03*
X1900000Y5089820D03*
Y5269810D03*
Y5449820D03*
Y5629830D03*
X2079990Y5809810D03*
Y5989820D03*
Y6169830D03*
Y6349820D03*
X1900000Y5809810D03*
Y5989820D03*
Y6169830D03*
Y6349820D03*
X2079990Y6529830D03*
Y6709810D03*
Y6889820D03*
Y7069830D03*
X1900000Y6529830D03*
Y6709810D03*
Y6889820D03*
Y7069830D03*
X2079990Y7249830D03*
Y7429820D03*
Y7609830D03*
Y7789840D03*
Y7969820D03*
X1900000Y7249830D03*
Y7429820D03*
Y7609830D03*
Y7789840D03*
Y7969820D03*
X2079990Y8149830D03*
Y8329840D03*
Y8509830D03*
X1900000Y8149830D03*
Y8329840D03*
Y8509830D03*
X2800000Y1489790D03*
Y1669800D03*
Y1849810D03*
Y2029790D03*
X2619990Y1489790D03*
Y1669800D03*
Y1849810D03*
Y2029790D03*
X2439980Y1489790D03*
Y1669800D03*
Y1849810D03*
Y2029790D03*
X2260000Y1489790D03*
Y1669800D03*
Y1849810D03*
Y2029790D03*
X2800000Y2209800D03*
Y2389790D03*
Y2569800D03*
Y2749810D03*
X2619990Y2209800D03*
Y2389790D03*
Y2569800D03*
Y2749810D03*
X2439980Y2209800D03*
Y2389790D03*
Y2569800D03*
Y2749810D03*
X2260000Y2209800D03*
Y2389790D03*
Y2569800D03*
Y2749810D03*
X2800000Y2929790D03*
Y3109800D03*
Y3289810D03*
Y3469800D03*
X2619990Y2929790D03*
Y3109800D03*
Y3289810D03*
Y3469800D03*
X2439980Y2929790D03*
Y3109800D03*
Y3289810D03*
Y3469800D03*
X2260000Y2929790D03*
Y3109800D03*
Y3289810D03*
Y3469800D03*
X2800000Y3649810D03*
Y3829790D03*
Y4009800D03*
Y4189810D03*
X2619990Y3649810D03*
Y3829790D03*
Y4009800D03*
Y4189810D03*
X2439980Y3649810D03*
Y3829790D03*
Y4009800D03*
Y4189810D03*
X2260000Y3649810D03*
Y3829790D03*
Y4009800D03*
Y4189810D03*
X2800000Y4369810D03*
Y4549820D03*
Y4729830D03*
Y4909810D03*
X2619990Y4369810D03*
Y4549820D03*
Y4729830D03*
Y4909810D03*
X2439980Y4369810D03*
Y4549820D03*
Y4729830D03*
Y4909810D03*
X2260000Y4369810D03*
Y4549820D03*
Y4729830D03*
Y4909810D03*
X2800000Y5089820D03*
Y5269810D03*
Y5449820D03*
Y5629830D03*
X2619990Y5089820D03*
Y5269810D03*
Y5449820D03*
Y5629830D03*
X2439980Y5089820D03*
Y5269810D03*
Y5449820D03*
Y5629830D03*
X2260000Y5089820D03*
Y5269810D03*
Y5449820D03*
Y5629830D03*
X2800000Y5809810D03*
Y5989820D03*
Y6169830D03*
Y6349820D03*
X2619990Y5809810D03*
Y5989820D03*
Y6169830D03*
Y6349820D03*
X2439980Y5809810D03*
Y5989820D03*
Y6169830D03*
Y6349820D03*
X2260000Y5809810D03*
Y5989820D03*
Y6169830D03*
Y6349820D03*
X2800000Y6529830D03*
Y6709810D03*
Y6889820D03*
Y7069830D03*
X2619990Y6529830D03*
Y6709810D03*
Y6889820D03*
Y7069830D03*
X2439980Y6529830D03*
Y6709810D03*
Y6889820D03*
Y7069830D03*
X2260000Y6529830D03*
Y6709810D03*
Y6889820D03*
Y7069830D03*
X2800000Y7249830D03*
Y7429820D03*
Y7609830D03*
Y7789840D03*
Y7969820D03*
X2619990Y7249830D03*
Y7429820D03*
Y7609830D03*
Y7789840D03*
Y7969820D03*
X2439980Y7249830D03*
Y7429820D03*
Y7609830D03*
Y7789840D03*
Y7969820D03*
X2260000Y7249830D03*
Y7429820D03*
Y7609830D03*
Y7789840D03*
Y7969820D03*
X2800000Y8149830D03*
Y8329840D03*
Y8509830D03*
X2619990Y8149830D03*
Y8329840D03*
Y8509830D03*
X2439980Y8149830D03*
Y8329840D03*
Y8509830D03*
X2260000Y8149830D03*
Y8329840D03*
Y8509830D03*
X3339980Y1489790D03*
Y1669800D03*
Y1849810D03*
Y2029790D03*
X3159990Y1489790D03*
Y1669800D03*
Y1849810D03*
Y2029790D03*
X2979980Y1489790D03*
Y1669800D03*
Y1849810D03*
Y2029790D03*
X3339980Y2209800D03*
Y2389790D03*
Y2569800D03*
Y2749810D03*
X3159990Y2209800D03*
Y2389790D03*
Y2569800D03*
Y2749810D03*
X2979980Y2209800D03*
Y2389790D03*
Y2569800D03*
Y2749810D03*
X3339980Y2929790D03*
Y3109800D03*
Y3289810D03*
Y3469800D03*
X3159990Y2929790D03*
Y3109800D03*
Y3289810D03*
Y3469800D03*
X2979980Y2929790D03*
Y3109800D03*
Y3289810D03*
Y3469800D03*
X3339980Y3649810D03*
Y3829790D03*
Y4009800D03*
Y4189810D03*
X3159990Y3649810D03*
Y3829790D03*
Y4009800D03*
Y4189810D03*
X2979980Y3649810D03*
Y3829790D03*
Y4009800D03*
Y4189810D03*
X3339980Y4369810D03*
Y4549820D03*
Y4729830D03*
Y4909810D03*
X3159990Y4369810D03*
Y4549820D03*
Y4729830D03*
Y4909810D03*
X2979980Y4369810D03*
Y4549820D03*
Y4729830D03*
Y4909810D03*
X3339980Y5089820D03*
Y5269810D03*
Y5449820D03*
Y5629830D03*
X3159990Y5089820D03*
Y5269810D03*
Y5449820D03*
Y5629830D03*
X2979980Y5089820D03*
Y5269810D03*
Y5449820D03*
Y5629830D03*
X3339980Y5809810D03*
Y5989820D03*
Y6169830D03*
Y6349820D03*
X3159990Y5809810D03*
Y5989820D03*
Y6169830D03*
Y6349820D03*
X2979980Y5809810D03*
Y5989820D03*
Y6169830D03*
Y6349820D03*
X3339980Y6529830D03*
Y6709810D03*
Y6889820D03*
Y7069830D03*
X3159990Y6529830D03*
Y6709810D03*
Y6889820D03*
Y7069830D03*
X2979980Y6529830D03*
Y6709810D03*
Y6889820D03*
Y7069830D03*
X3339980Y7249830D03*
Y7429820D03*
Y7609830D03*
Y7789840D03*
Y7969820D03*
X3159990Y7249830D03*
Y7429820D03*
Y7609830D03*
Y7789840D03*
Y7969820D03*
X2979980Y7249830D03*
Y7429820D03*
Y7609830D03*
Y7789840D03*
Y7969820D03*
X3339980Y8149830D03*
Y8329840D03*
Y8509830D03*
X3159990Y8149830D03*
Y8329840D03*
Y8509830D03*
X2979980Y8149830D03*
Y8329840D03*
Y8509830D03*
X7839980Y2029800D03*
Y1849790D03*
Y1669780D03*
Y1489790D03*
Y2749790D03*
Y2569800D03*
Y2389790D03*
Y2209780D03*
Y3469790D03*
Y3289810D03*
Y3109800D03*
Y2929790D03*
Y4189810D03*
Y4009800D03*
Y3829790D03*
Y3649800D03*
Y4909800D03*
Y4729810D03*
Y4549800D03*
Y4369790D03*
Y5629810D03*
Y5449800D03*
Y5269790D03*
Y5089810D03*
Y6349810D03*
Y6169830D03*
Y5989820D03*
Y5809810D03*
Y7069830D03*
Y6889820D03*
Y6709810D03*
Y6529820D03*
Y7969830D03*
Y7789820D03*
Y7609830D03*
Y7429820D03*
Y7249810D03*
Y8509830D03*
Y8329820D03*
Y8149810D03*
X8019970Y2029800D03*
Y1849790D03*
Y1669780D03*
Y1489790D03*
X8199980Y2029800D03*
Y1849790D03*
Y1669780D03*
Y1489790D03*
X8379960Y2029800D03*
Y1849790D03*
Y1669780D03*
Y1489790D03*
X8559970Y2029800D03*
Y1849790D03*
Y1669780D03*
Y1489790D03*
X8019970Y2749790D03*
Y2569800D03*
Y2389790D03*
Y2209780D03*
X8199980Y2749790D03*
Y2569800D03*
Y2389790D03*
Y2209780D03*
X8379960Y2749790D03*
Y2569800D03*
Y2389790D03*
Y2209780D03*
X8559970Y2749790D03*
Y2569800D03*
Y2389790D03*
Y2209780D03*
X8019970Y3469790D03*
Y3289810D03*
Y3109800D03*
Y2929790D03*
X8199980Y3469790D03*
Y3289810D03*
Y3109800D03*
Y2929790D03*
X8379960Y3469790D03*
Y3289810D03*
Y3109800D03*
Y2929790D03*
X8559970Y3469790D03*
Y3289810D03*
Y3109800D03*
Y2929790D03*
X8019970Y4189810D03*
Y4009800D03*
Y3829790D03*
Y3649800D03*
X8199980Y4189810D03*
Y4009800D03*
Y3829790D03*
Y3649800D03*
X8379960Y4189810D03*
Y4009800D03*
Y3829790D03*
Y3649800D03*
X8559970Y4189810D03*
Y4009800D03*
Y3829790D03*
Y3649800D03*
X8019970Y4909800D03*
Y4729810D03*
Y4549800D03*
Y4369790D03*
X8199980Y4909800D03*
Y4729810D03*
Y4549800D03*
Y4369790D03*
X8379960Y4909800D03*
Y4729810D03*
Y4549800D03*
Y4369790D03*
X8559970Y4909800D03*
Y4729810D03*
Y4549800D03*
Y4369790D03*
X8019970Y5629810D03*
Y5449800D03*
Y5269790D03*
Y5089810D03*
X8199980Y5629810D03*
Y5449800D03*
Y5269790D03*
Y5089810D03*
X8379960Y5629810D03*
Y5449800D03*
Y5269790D03*
Y5089810D03*
X8559970Y5629810D03*
Y5449800D03*
Y5269790D03*
Y5089810D03*
X8019970Y6349810D03*
Y6169830D03*
Y5989820D03*
Y5809810D03*
X8199980Y6349810D03*
Y6169830D03*
Y5989820D03*
Y5809810D03*
X8379960Y6349810D03*
Y6169830D03*
Y5989820D03*
Y5809810D03*
X8559970Y6349810D03*
Y6169830D03*
Y5989820D03*
Y5809810D03*
X8019970Y7069830D03*
Y6889820D03*
Y6709810D03*
Y6529820D03*
X8199980Y7069830D03*
Y6889820D03*
Y6709810D03*
Y6529820D03*
X8379960Y7069830D03*
Y6889820D03*
Y6709810D03*
Y6529820D03*
X8559970Y7069830D03*
Y6889820D03*
Y6709810D03*
Y6529820D03*
X8019970Y7969830D03*
Y7789820D03*
Y7609830D03*
Y7429820D03*
Y7249810D03*
X8199980Y7969830D03*
Y7789820D03*
Y7609830D03*
Y7429820D03*
Y7249810D03*
X8379960Y7969830D03*
Y7789820D03*
Y7609830D03*
Y7429820D03*
Y7249810D03*
X8559970Y7969830D03*
Y7789820D03*
Y7609830D03*
Y7429820D03*
Y7249810D03*
X8019970Y8509830D03*
Y8329820D03*
Y8149810D03*
X8199980Y8509830D03*
Y8329820D03*
Y8149810D03*
X8379960Y8509830D03*
Y8329820D03*
Y8149810D03*
X8559970Y8509830D03*
Y8329820D03*
Y8149810D03*
X8739980Y2029800D03*
Y1849790D03*
Y1669780D03*
Y1489790D03*
X8919960Y2029800D03*
Y1849790D03*
Y1669780D03*
Y1489790D03*
X9099970Y2029800D03*
Y1849790D03*
Y1669780D03*
Y1489790D03*
X9279960Y2029800D03*
Y1849790D03*
Y1669780D03*
Y1489790D03*
X8739980Y2749790D03*
Y2569800D03*
Y2389790D03*
Y2209780D03*
X8919960Y2749790D03*
Y2569800D03*
Y2389790D03*
Y2209780D03*
X9099970Y2749790D03*
Y2569800D03*
Y2389790D03*
Y2209780D03*
X9279960Y2749790D03*
Y2569800D03*
Y2389790D03*
Y2209780D03*
X8739980Y3469790D03*
Y3289810D03*
Y3109800D03*
Y2929790D03*
X8919960Y3469790D03*
Y3289810D03*
Y3109800D03*
Y2929790D03*
X9099970Y3469790D03*
Y3289810D03*
Y3109800D03*
Y2929790D03*
X9279960Y3469790D03*
Y3289810D03*
Y3109800D03*
Y2929790D03*
X8739980Y4189810D03*
Y4009800D03*
Y3829790D03*
Y3649800D03*
X8919960Y4189810D03*
Y4009800D03*
Y3829790D03*
Y3649800D03*
X9099970Y4189810D03*
Y4009800D03*
Y3829790D03*
Y3649800D03*
X9279960Y4189810D03*
Y4009800D03*
Y3829790D03*
Y3649800D03*
X8739980Y4909800D03*
Y4729810D03*
Y4549800D03*
Y4369790D03*
X8919960Y4909800D03*
Y4729810D03*
Y4549800D03*
Y4369790D03*
X9099970Y4909800D03*
Y4729810D03*
Y4549800D03*
Y4369790D03*
X9279960Y4909800D03*
Y4729810D03*
Y4549800D03*
Y4369790D03*
X8739980Y5629810D03*
Y5449800D03*
Y5269790D03*
Y5089810D03*
X8919960Y5629810D03*
Y5449800D03*
Y5269790D03*
Y5089810D03*
X9099970Y5629810D03*
Y5449800D03*
Y5269790D03*
Y5089810D03*
X9279960Y5629810D03*
Y5449800D03*
Y5269790D03*
Y5089810D03*
X8739980Y6349810D03*
Y6169830D03*
Y5989820D03*
Y5809810D03*
X8919960Y6349810D03*
Y6169830D03*
Y5989820D03*
Y5809810D03*
X9099970Y6349810D03*
Y6169830D03*
Y5989820D03*
Y5809810D03*
X9279960Y6349810D03*
Y6169830D03*
Y5989820D03*
Y5809810D03*
X8739980Y7069830D03*
Y6889820D03*
Y6709810D03*
Y6529820D03*
X8919960Y7069830D03*
Y6889820D03*
Y6709810D03*
Y6529820D03*
X9099970Y7069830D03*
Y6889820D03*
Y6709810D03*
Y6529820D03*
X9279960Y7069830D03*
Y6889820D03*
Y6709810D03*
Y6529820D03*
X8739980Y7969830D03*
Y7789820D03*
Y7609830D03*
Y7429820D03*
Y7249810D03*
X8919960Y7969830D03*
Y7789820D03*
Y7609830D03*
Y7429820D03*
Y7249810D03*
X9099970Y7969830D03*
Y7789820D03*
Y7609830D03*
Y7429820D03*
Y7249810D03*
X9279960Y7969830D03*
Y7789820D03*
Y7609830D03*
Y7429820D03*
Y7249810D03*
X8739980Y8509830D03*
Y8329820D03*
Y8149810D03*
X8919960Y8509830D03*
Y8329820D03*
Y8149810D03*
X9099970Y8509830D03*
Y8329820D03*
Y8149810D03*
X9279960Y8509830D03*
Y8329820D03*
Y8149810D03*
G54D26*
G01X0Y0D02*
X11000000D01*
Y-500000D01*
X0D01*
Y0D01*
G01Y200000D02*
Y10800000D01*
G02X200000Y11000000I200000J0D01*
G01X10800000D01*
G02X11000000Y10800000I0J-200000D01*
G01Y200000D01*
G02X10800000Y0I-200000J0D01*
G01X200000D01*
G02X0Y200000I0J200000D01*
G01Y11000000D02*
X11000000D01*
Y11500000D01*
X0D01*
Y11000000D01*
G54D17*
X2382970Y462780D03*
Y9406840D03*
X8796990Y592780D03*
Y9536840D03*
G54D18*
X2889990Y1250800D03*
X2884990Y8648840D03*
X8294970Y1350780D03*
X8289970Y8748820D03*
G54D19*
X4842050Y9852220D03*
X5071030D03*
X6214060D03*
X5985050D03*
X6766450D03*
X6995430D03*
X7909450D03*
X8138460D03*
M02*
