G04 ================== begin FILE IDENTIFICATION RECORD ==================*
G04 Layout Name:  kupl_t_0825.brd*
G04 Film Name:    SILK_BOT*
G04 File Format:  Gerber RS274X*
G04 File Origin:  Cadence Allegro 16.6-P004*
G04 Origin Date:  Thu Aug 25 13:11:54 2022*
G04 *
G04 Layer:  REF DES/SILKSCREEN_BOTTOM*
G04 Layer:  PACKAGE GEOMETRY/SILKSCREEN_BOTTOM*
G04 Layer:  BOARD GEOMETRY/OUTLINE*
G04 Layer:  BOARD GEOMETRY/SILKSCREEN_BOTTOM*
G04 *
G04 Offset:    (0.0000 0.0000)*
G04 Mirror:    No*
G04 Mode:      Positive*
G04 Rotation:  0*
G04 FullContactRelief:  No*
G04 UndefLineWidth:     0.0152*
G04 ================== end FILE IDENTIFICATION RECORD ====================*
%FSLAX25Y25*MOMM*%
%IR0*IPPOS*OFA0.00000B0.00000*MIA0B0*SFA1.00000B1.00000*%
%ADD10C,.1001*%
%ADD11C,.1016*%
%ADD12C,.254*%
%ADD13C,.1524*%
%ADD14C,.1999*%
%ADD15C,.0152*%
G75*
%LPD*%
G75*
G54D10*
G01X3400000Y4254810D02*
Y4204800D01*
X3449990D01*
X3400000Y4254810D01*
Y4244800D01*
X3435000Y4209800D01*
X3405000D01*
Y4229790D01*
X3419990Y4214800D01*
X3409980D01*
G01X3397990Y7139830D02*
Y7089820D01*
X3447980D01*
X3397990Y7139830D01*
Y7129820D01*
X3432990Y7094820D01*
X3403000D01*
Y7114810D01*
X3417980Y7099830D01*
X3408000D01*
G01X3400000Y8624840D02*
Y8574820D01*
X3449990D01*
X3400000Y8624840D01*
Y8614830D01*
X3435000Y8579830D01*
X3405000D01*
Y8599820D01*
X3419990Y8584830D01*
X3409980D01*
G01X7779960Y1374780D02*
Y1424790D01*
X7729970D01*
X7779960Y1374780D01*
Y1384790D01*
X7744960Y1419790D01*
X7774950D01*
Y1399800D01*
X7759970Y1414790D01*
X7769970D01*
G01X7781960Y2859780D02*
Y2909800D01*
X7731980D01*
X7781960Y2859780D01*
Y2869790D01*
X7746960Y2904790D01*
X7776960D01*
Y2884800D01*
X7761970Y2899790D01*
X7771960D01*
G01X7779960Y5744820D02*
Y5794830D01*
X7729970D01*
X7779960Y5744820D01*
Y5754820D01*
X7744960Y5789820D01*
X7774950D01*
Y5769840D01*
X7759970Y5784820D01*
X7769970D01*
G54D11*
G01X1869190Y8819580D02*
Y8799260D01*
G01Y8809420D02*
X1919990D01*
G01Y8819580D02*
Y8799260D01*
G01X2119990Y8827200D02*
X2069190D01*
G01Y8791640D02*
X2119990D01*
G01X2094590D02*
Y8827200D01*
G01X3167910Y8802650D02*
X3165370Y8799260D01*
X3161130Y8796720D01*
X3155210Y8795030D01*
X3150130Y8796720D01*
X3146740Y8800110D01*
X3144200Y8806030D01*
Y8828890D01*
X3195000D01*
Y8800950D01*
X3191610Y8795030D01*
X3186530Y8791640D01*
X3180610Y8789950D01*
X3174680Y8791640D01*
X3169600Y8796720D01*
X3167910Y8802650D01*
Y8828890D01*
G01X3370000Y8830590D02*
X3319200Y8809420D01*
X3370000Y8788250D01*
G01X3352220Y8795870D02*
Y8822970D01*
G01X3670000Y1514400D02*
X3619200D01*
X3629360Y1524560D01*
G01X3670000D02*
Y1504240D01*
G01X3648830Y1479660D02*
X3642910Y1473730D01*
X3639520Y1468650D01*
X3637830Y1461880D01*
X3639520Y1455950D01*
X3642910Y1451720D01*
X3647990Y1448330D01*
X3653910Y1447480D01*
X3658990Y1448330D01*
X3664070Y1451720D01*
X3668310Y1456800D01*
X3670000Y1462720D01*
X3668310Y1469500D01*
X3663230Y1475420D01*
X3655610Y1478810D01*
X3647140Y1479660D01*
X3636130Y1477960D01*
X3630210Y1475420D01*
X3624280Y1471190D01*
X3620050Y1465260D01*
X3619200Y1459340D01*
X3620890Y1453410D01*
X3625130Y1449180D01*
G01X3670000Y1714400D02*
X3619200D01*
X3629360Y1724560D01*
G01X3670000D02*
Y1704240D01*
G01X3662380Y1682200D02*
X3666610Y1677120D01*
X3669150Y1671190D01*
X3670000Y1663570D01*
X3668310Y1655950D01*
X3664920Y1650020D01*
X3658990Y1645790D01*
X3652220Y1644940D01*
X3645450Y1646640D01*
X3641210Y1650870D01*
X3637830Y1656800D01*
X3636980Y1662720D01*
X3637830Y1668650D01*
X3641210Y1676270D01*
X3619200Y1673730D01*
Y1650870D01*
G01X3670000Y1889410D02*
X3619200D01*
X3629360Y1899570D01*
G01X3670000D02*
Y1879250D01*
G01Y1828420D02*
X3619200D01*
X3655610Y1859750D01*
Y1817410D01*
G01X3670000Y2064390D02*
X3619200D01*
X3629360Y2074550D01*
G01X3670000D02*
Y2054230D01*
G01X3659840Y2032190D02*
X3665770Y2027110D01*
X3669150Y2020330D01*
X3670000Y2012710D01*
X3669150Y2005940D01*
X3664920Y1999170D01*
X3659840Y1994930D01*
X3654760Y1994090D01*
X3648830Y1995780D01*
X3644600Y2001710D01*
X3642910Y2007630D01*
Y2015250D01*
G01Y2007630D02*
X3640370Y2002550D01*
X3636130Y1998320D01*
X3631050Y1996630D01*
X3625970Y1998320D01*
X3621740Y2002550D01*
X3619200Y2010170D01*
X3620050Y2017790D01*
X3623430Y2025410D01*
G01X3670000Y2239390D02*
X3619200D01*
X3629360Y2249550D01*
G01X3670000D02*
Y2229230D01*
G01X3627670Y2204650D02*
X3622590Y2199570D01*
X3620050Y2193640D01*
X3619200Y2186870D01*
X3620890Y2178400D01*
X3625130Y2172470D01*
X3630210Y2170780D01*
X3635290Y2171630D01*
X3639520Y2175010D01*
X3647990Y2191950D01*
X3653910Y2199570D01*
X3662380Y2204650D01*
X3670000Y2206340D01*
Y2170780D01*
G01Y2414400D02*
X3619200D01*
X3629360Y2424560D01*
G01X3670000D02*
Y2404240D01*
G01Y2363570D02*
X3619200D01*
X3629360Y2373730D01*
G01X3670000D02*
Y2353410D01*
G01Y2589410D02*
X3619200D01*
X3629360Y2599570D01*
G01X3670000D02*
Y2579250D01*
G01X3619200Y2538580D02*
X3620890Y2545350D01*
X3625130Y2550430D01*
X3630210Y2553820D01*
X3636980Y2556360D01*
X3644600Y2557210D01*
X3652220Y2556360D01*
X3658990Y2553820D01*
X3664070Y2550430D01*
X3668310Y2545350D01*
X3670000Y2538580D01*
X3668310Y2531810D01*
X3664070Y2526730D01*
X3658990Y2523340D01*
X3652220Y2520800D01*
X3644600Y2519950D01*
X3636980Y2520800D01*
X3630210Y2523340D01*
X3625130Y2526730D01*
X3620890Y2531810D01*
X3619200Y2538580D01*
G01X3664070Y2753780D02*
X3668310Y2747860D01*
X3670000Y2741080D01*
X3668310Y2734310D01*
X3663230Y2728380D01*
X3655610Y2724150D01*
X3647990Y2722460D01*
X3638670D01*
X3631050Y2724150D01*
X3624280Y2728380D01*
X3620890Y2733460D01*
X3619200Y2739390D01*
X3620890Y2746160D01*
X3624280Y2751240D01*
X3629360Y2754630D01*
X3636130Y2756320D01*
X3642060Y2754630D01*
X3647990Y2750400D01*
X3651370Y2745320D01*
X3652220Y2739390D01*
X3650530Y2732620D01*
X3646290Y2727540D01*
X3638670Y2722460D01*
G01X3670000Y2914400D02*
X3669150Y2908470D01*
X3666610Y2901700D01*
X3662380Y2897470D01*
X3656450Y2895770D01*
X3650530Y2897470D01*
X3645450Y2902550D01*
X3642910Y2910170D01*
Y2918630D01*
X3641210Y2923710D01*
X3636980Y2927950D01*
X3631050Y2929640D01*
X3625130Y2927100D01*
X3620890Y2921170D01*
X3619200Y2914400D01*
X3620890Y2907630D01*
X3625130Y2901700D01*
X3631050Y2899160D01*
X3636980Y2900850D01*
X3641210Y2905090D01*
X3642910Y2910170D01*
Y2918630D01*
X3645450Y2926250D01*
X3650530Y2931330D01*
X3656450Y2933030D01*
X3662380Y2931330D01*
X3666610Y2927100D01*
X3669150Y2920330D01*
X3670000Y2914400D01*
G01Y3116090D02*
X3658990Y3114400D01*
X3649680Y3111860D01*
X3641210Y3108470D01*
X3631900Y3104240D01*
X3619200Y3097470D01*
Y3131330D01*
G01X3648830Y3305500D02*
X3642910Y3299570D01*
X3639520Y3294490D01*
X3637830Y3287720D01*
X3639520Y3281790D01*
X3642910Y3277560D01*
X3647990Y3274170D01*
X3653910Y3273320D01*
X3658990Y3274170D01*
X3664070Y3277560D01*
X3668310Y3282640D01*
X3670000Y3288560D01*
X3668310Y3295340D01*
X3663230Y3301260D01*
X3655610Y3304650D01*
X3647140Y3305500D01*
X3636130Y3303800D01*
X3630210Y3301260D01*
X3624280Y3297030D01*
X3620050Y3291100D01*
X3619200Y3285180D01*
X3620890Y3279250D01*
X3625130Y3275020D01*
G01X3662380Y3483040D02*
X3666610Y3477960D01*
X3669150Y3472030D01*
X3670000Y3464410D01*
X3668310Y3456790D01*
X3664920Y3450860D01*
X3658990Y3446630D01*
X3652220Y3445780D01*
X3645450Y3447480D01*
X3641210Y3451710D01*
X3637830Y3457640D01*
X3636980Y3463560D01*
X3637830Y3469490D01*
X3641210Y3477110D01*
X3619200Y3474570D01*
Y3451710D01*
G01X3670000Y3629230D02*
X3619200D01*
X3655610Y3660560D01*
Y3618220D01*
G01X3659840Y3858020D02*
X3665770Y3852940D01*
X3669150Y3846160D01*
X3670000Y3838540D01*
X3669150Y3831770D01*
X3664920Y3825000D01*
X3659840Y3820760D01*
X3654760Y3819920D01*
X3648830Y3821610D01*
X3644600Y3827540D01*
X3642910Y3833460D01*
Y3841080D01*
G01Y3833460D02*
X3640370Y3828380D01*
X3636130Y3824150D01*
X3631050Y3822460D01*
X3625970Y3824150D01*
X3621740Y3828380D01*
X3619200Y3836000D01*
X3620050Y3843620D01*
X3623430Y3851240D01*
G01X3627670Y4030490D02*
X3622590Y4025410D01*
X3620050Y4019480D01*
X3619200Y4012710D01*
X3620890Y4004240D01*
X3625130Y3998310D01*
X3630210Y3996620D01*
X3635290Y3997470D01*
X3639520Y4000850D01*
X3647990Y4017790D01*
X3653910Y4025410D01*
X3662380Y4030490D01*
X3670000Y4032180D01*
Y3996620D01*
G01Y4189400D02*
X3619200D01*
X3629360Y4199560D01*
G01X3670000D02*
Y4179240D01*
G01Y4394420D02*
X3619200D01*
X3629360Y4404580D01*
G01X3670000D02*
Y4384260D01*
G01X3648830Y4359680D02*
X3642910Y4353750D01*
X3639520Y4348670D01*
X3637830Y4341900D01*
X3639520Y4335970D01*
X3642910Y4331740D01*
X3647990Y4328350D01*
X3653910Y4327500D01*
X3658990Y4328350D01*
X3664070Y4331740D01*
X3668310Y4336820D01*
X3670000Y4342740D01*
X3668310Y4349520D01*
X3663230Y4355440D01*
X3655610Y4358830D01*
X3647140Y4359680D01*
X3636130Y4357980D01*
X3630210Y4355440D01*
X3624280Y4351210D01*
X3620050Y4345280D01*
X3619200Y4339360D01*
X3620890Y4333430D01*
X3625130Y4329200D01*
G01X3670000Y4594420D02*
X3619200D01*
X3629360Y4604580D01*
G01X3670000D02*
Y4584260D01*
G01X3662380Y4562220D02*
X3666610Y4557140D01*
X3669150Y4551210D01*
X3670000Y4543590D01*
X3668310Y4535970D01*
X3664920Y4530040D01*
X3658990Y4525810D01*
X3652220Y4524960D01*
X3645450Y4526660D01*
X3641210Y4530890D01*
X3637830Y4536820D01*
X3636980Y4542740D01*
X3637830Y4548670D01*
X3641210Y4556290D01*
X3619200Y4553750D01*
Y4530890D01*
G01X3670000Y4769430D02*
X3619200D01*
X3629360Y4779590D01*
G01X3670000D02*
Y4759270D01*
G01Y4708440D02*
X3619200D01*
X3655610Y4739770D01*
Y4697430D01*
G01X3670000Y4944410D02*
X3619200D01*
X3629360Y4954570D01*
G01X3670000D02*
Y4934250D01*
G01X3659840Y4912210D02*
X3665770Y4907130D01*
X3669150Y4900350D01*
X3670000Y4892730D01*
X3669150Y4885960D01*
X3664920Y4879190D01*
X3659840Y4874950D01*
X3654760Y4874110D01*
X3648830Y4875800D01*
X3644600Y4881730D01*
X3642910Y4887650D01*
Y4895270D01*
G01Y4887650D02*
X3640370Y4882570D01*
X3636130Y4878340D01*
X3631050Y4876650D01*
X3625970Y4878340D01*
X3621740Y4882570D01*
X3619200Y4890190D01*
X3620050Y4897810D01*
X3623430Y4905430D01*
G01X3670000Y5119410D02*
X3619200D01*
X3629360Y5129570D01*
G01X3670000D02*
Y5109250D01*
G01X3627670Y5084670D02*
X3622590Y5079590D01*
X3620050Y5073660D01*
X3619200Y5066890D01*
X3620890Y5058420D01*
X3625130Y5052490D01*
X3630210Y5050800D01*
X3635290Y5051650D01*
X3639520Y5055030D01*
X3647990Y5071970D01*
X3653910Y5079590D01*
X3662380Y5084670D01*
X3670000Y5086360D01*
Y5050800D01*
G01Y5294420D02*
X3619200D01*
X3629360Y5304580D01*
G01X3670000D02*
Y5284260D01*
G01Y5243590D02*
X3619200D01*
X3629360Y5253750D01*
G01X3670000D02*
Y5233430D01*
G01Y5469430D02*
X3619200D01*
X3629360Y5479590D01*
G01X3670000D02*
Y5459270D01*
G01X3619200Y5418600D02*
X3620890Y5425370D01*
X3625130Y5430450D01*
X3630210Y5433840D01*
X3636980Y5436380D01*
X3644600Y5437230D01*
X3652220Y5436380D01*
X3658990Y5433840D01*
X3664070Y5430450D01*
X3668310Y5425370D01*
X3670000Y5418600D01*
X3668310Y5411830D01*
X3664070Y5406750D01*
X3658990Y5403360D01*
X3652220Y5400820D01*
X3644600Y5399970D01*
X3636980Y5400820D01*
X3630210Y5403360D01*
X3625130Y5406750D01*
X3620890Y5411830D01*
X3619200Y5418600D01*
G01X3664070Y5633800D02*
X3668310Y5627880D01*
X3670000Y5621100D01*
X3668310Y5614330D01*
X3663230Y5608400D01*
X3655610Y5604170D01*
X3647990Y5602480D01*
X3638670D01*
X3631050Y5604170D01*
X3624280Y5608400D01*
X3620890Y5613480D01*
X3619200Y5619410D01*
X3620890Y5626180D01*
X3624280Y5631260D01*
X3629360Y5634650D01*
X3636130Y5636340D01*
X3642060Y5634650D01*
X3647990Y5630420D01*
X3651370Y5625340D01*
X3652220Y5619410D01*
X3650530Y5612640D01*
X3646290Y5607560D01*
X3638670Y5602480D01*
G01X3670000Y5794420D02*
X3669150Y5788490D01*
X3666610Y5781720D01*
X3662380Y5777490D01*
X3656450Y5775790D01*
X3650530Y5777490D01*
X3645450Y5782570D01*
X3642910Y5790190D01*
Y5798650D01*
X3641210Y5803730D01*
X3636980Y5807970D01*
X3631050Y5809660D01*
X3625130Y5807120D01*
X3620890Y5801190D01*
X3619200Y5794420D01*
X3620890Y5787650D01*
X3625130Y5781720D01*
X3631050Y5779180D01*
X3636980Y5780870D01*
X3641210Y5785110D01*
X3642910Y5790190D01*
Y5798650D01*
X3645450Y5806270D01*
X3650530Y5811350D01*
X3656450Y5813050D01*
X3662380Y5811350D01*
X3666610Y5807120D01*
X3669150Y5800350D01*
X3670000Y5794420D01*
G01Y5996110D02*
X3658990Y5994420D01*
X3649680Y5991880D01*
X3641210Y5988490D01*
X3631900Y5984260D01*
X3619200Y5977490D01*
Y6011350D01*
G01X3648830Y6185520D02*
X3642910Y6179590D01*
X3639520Y6174510D01*
X3637830Y6167740D01*
X3639520Y6161810D01*
X3642910Y6157580D01*
X3647990Y6154190D01*
X3653910Y6153340D01*
X3658990Y6154190D01*
X3664070Y6157580D01*
X3668310Y6162660D01*
X3670000Y6168580D01*
X3668310Y6175360D01*
X3663230Y6181280D01*
X3655610Y6184670D01*
X3647140Y6185520D01*
X3636130Y6183820D01*
X3630210Y6181280D01*
X3624280Y6177050D01*
X3620050Y6171120D01*
X3619200Y6165200D01*
X3620890Y6159270D01*
X3625130Y6155040D01*
G01X3662380Y6363060D02*
X3666610Y6357980D01*
X3669150Y6352050D01*
X3670000Y6344430D01*
X3668310Y6336810D01*
X3664920Y6330880D01*
X3658990Y6326650D01*
X3652220Y6325800D01*
X3645450Y6327500D01*
X3641210Y6331730D01*
X3637830Y6337660D01*
X3636980Y6343580D01*
X3637830Y6349510D01*
X3641210Y6357130D01*
X3619200Y6354590D01*
Y6331730D01*
G01X3670000Y6509250D02*
X3619200D01*
X3655610Y6540580D01*
Y6498240D01*
G01X3659840Y6738040D02*
X3665770Y6732960D01*
X3669150Y6726180D01*
X3670000Y6718560D01*
X3669150Y6711790D01*
X3664920Y6705020D01*
X3659840Y6700780D01*
X3654760Y6699940D01*
X3648830Y6701630D01*
X3644600Y6707560D01*
X3642910Y6713480D01*
Y6721100D01*
G01Y6713480D02*
X3640370Y6708400D01*
X3636130Y6704170D01*
X3631050Y6702480D01*
X3625970Y6704170D01*
X3621740Y6708400D01*
X3619200Y6716020D01*
X3620050Y6723640D01*
X3623430Y6731260D01*
G01X3627670Y6910510D02*
X3622590Y6905430D01*
X3620050Y6899500D01*
X3619200Y6892730D01*
X3620890Y6884260D01*
X3625130Y6878330D01*
X3630210Y6876640D01*
X3635290Y6877490D01*
X3639520Y6880870D01*
X3647990Y6897810D01*
X3653910Y6905430D01*
X3662380Y6910510D01*
X3670000Y6912200D01*
Y6876640D01*
G01Y7069420D02*
X3619200D01*
X3629360Y7079580D01*
G01X3670000D02*
Y7059260D01*
G01Y7234440D02*
X3669150Y7228510D01*
X3666610Y7221740D01*
X3662380Y7217510D01*
X3656450Y7215810D01*
X3650530Y7217510D01*
X3645450Y7222590D01*
X3642910Y7230210D01*
Y7238670D01*
X3641210Y7243750D01*
X3636980Y7247990D01*
X3631050Y7249680D01*
X3625130Y7247140D01*
X3620890Y7241210D01*
X3619200Y7234440D01*
X3620890Y7227670D01*
X3625130Y7221740D01*
X3631050Y7219200D01*
X3636980Y7220890D01*
X3641210Y7225130D01*
X3642910Y7230210D01*
Y7238670D01*
X3645450Y7246290D01*
X3650530Y7251370D01*
X3656450Y7253070D01*
X3662380Y7251370D01*
X3666610Y7247140D01*
X3669150Y7240370D01*
X3670000Y7234440D01*
G01Y7436130D02*
X3658990Y7434440D01*
X3649680Y7431900D01*
X3641210Y7428510D01*
X3631900Y7424280D01*
X3619200Y7417510D01*
Y7451370D01*
G01X3648830Y7625510D02*
X3642910Y7619580D01*
X3639520Y7614500D01*
X3637830Y7607730D01*
X3639520Y7601800D01*
X3642910Y7597570D01*
X3647990Y7594180D01*
X3653910Y7593330D01*
X3658990Y7594180D01*
X3664070Y7597570D01*
X3668310Y7602650D01*
X3670000Y7608570D01*
X3668310Y7615350D01*
X3663230Y7621270D01*
X3655610Y7624660D01*
X3647140Y7625510D01*
X3636130Y7623810D01*
X3630210Y7621270D01*
X3624280Y7617040D01*
X3620050Y7611110D01*
X3619200Y7605190D01*
X3620890Y7599260D01*
X3625130Y7595030D01*
G01X3662380Y7803060D02*
X3666610Y7797980D01*
X3669150Y7792050D01*
X3670000Y7784430D01*
X3668310Y7776810D01*
X3664920Y7770880D01*
X3658990Y7766650D01*
X3652220Y7765800D01*
X3645450Y7767500D01*
X3641210Y7771730D01*
X3637830Y7777660D01*
X3636980Y7783580D01*
X3637830Y7789510D01*
X3641210Y7797130D01*
X3619200Y7794590D01*
Y7771730D01*
G01X3670000Y7949270D02*
X3619200D01*
X3655610Y7980600D01*
Y7938260D01*
G01X3659840Y8178060D02*
X3665770Y8172980D01*
X3669150Y8166200D01*
X3670000Y8158580D01*
X3669150Y8151810D01*
X3664920Y8145040D01*
X3659840Y8140800D01*
X3654760Y8139960D01*
X3648830Y8141650D01*
X3644600Y8147580D01*
X3642910Y8153500D01*
Y8161120D01*
G01Y8153500D02*
X3640370Y8148420D01*
X3636130Y8144190D01*
X3631050Y8142500D01*
X3625970Y8144190D01*
X3621740Y8148420D01*
X3619200Y8156040D01*
X3620050Y8163660D01*
X3623430Y8171280D01*
G01X3627670Y8350530D02*
X3622590Y8345450D01*
X3620050Y8339520D01*
X3619200Y8332750D01*
X3620890Y8324280D01*
X3625130Y8318350D01*
X3630210Y8316660D01*
X3635290Y8317510D01*
X3639520Y8320890D01*
X3647990Y8337830D01*
X3653910Y8345450D01*
X3662380Y8350530D01*
X3670000Y8352220D01*
Y8316660D01*
G01Y8509420D02*
X3619200D01*
X3629360Y8519580D01*
G01X3670000D02*
Y8499260D01*
G01X7509950Y2050350D02*
X7560750D01*
X7524340Y2019020D01*
Y2061360D01*
G01X7520110Y1821560D02*
X7514180Y1826640D01*
X7510800Y1833420D01*
X7509950Y1841040D01*
X7510800Y1847810D01*
X7515030Y1854580D01*
X7520110Y1858820D01*
X7525190Y1859660D01*
X7531120Y1857970D01*
X7535350Y1852040D01*
X7537040Y1846120D01*
Y1838500D01*
G01Y1846120D02*
X7539580Y1851200D01*
X7543820Y1855430D01*
X7548900Y1857120D01*
X7553980Y1855430D01*
X7558210Y1851200D01*
X7560750Y1843580D01*
X7559900Y1835960D01*
X7556520Y1828340D01*
G01X7552280Y1649090D02*
X7557360Y1654170D01*
X7559900Y1660100D01*
X7560750Y1666870D01*
X7559060Y1675340D01*
X7554820Y1681270D01*
X7549740Y1682960D01*
X7544660Y1682110D01*
X7540430Y1678730D01*
X7531960Y1661790D01*
X7526040Y1654170D01*
X7517570Y1649090D01*
X7509950Y1647400D01*
Y1682960D01*
G01Y1490200D02*
X7560750D01*
X7550590Y1480040D01*
G01X7509950D02*
Y1500360D01*
G01Y2765180D02*
X7510800Y2771110D01*
X7513340Y2777880D01*
X7517570Y2782110D01*
X7523500Y2783810D01*
X7529420Y2782110D01*
X7534500Y2777030D01*
X7537040Y2769410D01*
Y2760950D01*
X7538740Y2755870D01*
X7542970Y2751630D01*
X7548900Y2749940D01*
X7554820Y2752480D01*
X7559060Y2758410D01*
X7560750Y2765180D01*
X7559060Y2771950D01*
X7554820Y2777880D01*
X7548900Y2780420D01*
X7542970Y2778730D01*
X7538740Y2774490D01*
X7537040Y2769410D01*
Y2760950D01*
X7534500Y2753330D01*
X7529420Y2748250D01*
X7523500Y2746550D01*
X7517570Y2748250D01*
X7513340Y2752480D01*
X7510800Y2759250D01*
X7509950Y2765180D01*
G01Y2563490D02*
X7520960Y2565180D01*
X7530270Y2567720D01*
X7538740Y2571110D01*
X7548050Y2575340D01*
X7560750Y2582110D01*
Y2548250D01*
G01X7531120Y2374110D02*
X7537040Y2380040D01*
X7540430Y2385120D01*
X7542120Y2391890D01*
X7540430Y2397820D01*
X7537040Y2402050D01*
X7531960Y2405440D01*
X7526040Y2406290D01*
X7520960Y2405440D01*
X7515880Y2402050D01*
X7511640Y2396970D01*
X7509950Y2391050D01*
X7511640Y2384270D01*
X7516720Y2378350D01*
X7524340Y2374960D01*
X7532810Y2374110D01*
X7543820Y2375810D01*
X7549740Y2378350D01*
X7555670Y2382580D01*
X7559900Y2388510D01*
X7560750Y2394430D01*
X7559060Y2400360D01*
X7554820Y2404590D01*
G01X7517570Y2196560D02*
X7513340Y2201640D01*
X7510800Y2207570D01*
X7509950Y2215190D01*
X7511640Y2222810D01*
X7515030Y2228740D01*
X7520960Y2232970D01*
X7527730Y2233820D01*
X7534500Y2232120D01*
X7538740Y2227890D01*
X7542120Y2221960D01*
X7542970Y2216040D01*
X7542120Y2210110D01*
X7538740Y2202490D01*
X7560750Y2205030D01*
Y2227890D01*
G01X7509950Y3490360D02*
X7560750D01*
X7524340Y3459030D01*
Y3501370D01*
G01X7520110Y3261570D02*
X7514180Y3266650D01*
X7510800Y3273430D01*
X7509950Y3281050D01*
X7510800Y3287820D01*
X7515030Y3294590D01*
X7520110Y3298830D01*
X7525190Y3299670D01*
X7531120Y3297980D01*
X7535350Y3292050D01*
X7537040Y3286130D01*
Y3278510D01*
G01Y3286130D02*
X7539580Y3291210D01*
X7543820Y3295440D01*
X7548900Y3297130D01*
X7553980Y3295440D01*
X7558210Y3291210D01*
X7560750Y3283590D01*
X7559900Y3275970D01*
X7556520Y3268350D01*
G01X7552280Y3089110D02*
X7557360Y3094190D01*
X7559900Y3100120D01*
X7560750Y3106890D01*
X7559060Y3115360D01*
X7554820Y3121290D01*
X7549740Y3122980D01*
X7544660Y3122130D01*
X7540430Y3118750D01*
X7531960Y3101810D01*
X7526040Y3094190D01*
X7517570Y3089110D01*
X7509950Y3087420D01*
Y3122980D01*
G01Y2930190D02*
X7560750D01*
X7550590Y2920030D01*
G01X7509950D02*
Y2940350D01*
G01Y4205200D02*
X7510800Y4211130D01*
X7513340Y4217900D01*
X7517570Y4222130D01*
X7523500Y4223830D01*
X7529420Y4222130D01*
X7534500Y4217050D01*
X7537040Y4209430D01*
Y4200970D01*
X7538740Y4195890D01*
X7542970Y4191650D01*
X7548900Y4189960D01*
X7554820Y4192500D01*
X7559060Y4198430D01*
X7560750Y4205200D01*
X7559060Y4211970D01*
X7554820Y4217900D01*
X7548900Y4220440D01*
X7542970Y4218750D01*
X7538740Y4214510D01*
X7537040Y4209430D01*
Y4200970D01*
X7534500Y4193350D01*
X7529420Y4188270D01*
X7523500Y4186570D01*
X7517570Y4188270D01*
X7513340Y4192500D01*
X7510800Y4199270D01*
X7509950Y4205200D01*
G01Y4003510D02*
X7520960Y4005200D01*
X7530270Y4007740D01*
X7538740Y4011130D01*
X7548050Y4015360D01*
X7560750Y4022130D01*
Y3988270D01*
G01X7531120Y3814100D02*
X7537040Y3820030D01*
X7540430Y3825110D01*
X7542120Y3831880D01*
X7540430Y3837810D01*
X7537040Y3842040D01*
X7531960Y3845430D01*
X7526040Y3846280D01*
X7520960Y3845430D01*
X7515880Y3842040D01*
X7511640Y3836960D01*
X7509950Y3831040D01*
X7511640Y3824260D01*
X7516720Y3818340D01*
X7524340Y3814950D01*
X7532810Y3814100D01*
X7543820Y3815800D01*
X7549740Y3818340D01*
X7555670Y3822570D01*
X7559900Y3828500D01*
X7560750Y3834420D01*
X7559060Y3840350D01*
X7554820Y3844580D01*
G01X7517570Y3636550D02*
X7513340Y3641630D01*
X7510800Y3647560D01*
X7509950Y3655180D01*
X7511640Y3662800D01*
X7515030Y3668730D01*
X7520960Y3672960D01*
X7527730Y3673810D01*
X7534500Y3672110D01*
X7538740Y3667880D01*
X7542120Y3661950D01*
X7542970Y3656030D01*
X7542120Y3650100D01*
X7538740Y3642480D01*
X7560750Y3645020D01*
Y3667880D01*
G01X7509950Y4880200D02*
X7560750D01*
X7550590Y4870040D01*
G01X7509950D02*
Y4890360D01*
G01X7552280Y4914940D02*
X7557360Y4920020D01*
X7559900Y4925950D01*
X7560750Y4932720D01*
X7559060Y4941190D01*
X7554820Y4947120D01*
X7549740Y4948810D01*
X7544660Y4947960D01*
X7540430Y4944580D01*
X7531960Y4927640D01*
X7526040Y4920020D01*
X7517570Y4914940D01*
X7509950Y4913250D01*
Y4948810D01*
G01Y4705190D02*
X7560750D01*
X7550590Y4695030D01*
G01X7509950D02*
Y4715350D01*
G01Y4756020D02*
X7560750D01*
X7550590Y4745860D01*
G01X7509950D02*
Y4766180D01*
G01Y4530190D02*
X7560750D01*
X7550590Y4520030D01*
G01X7509950D02*
Y4540350D01*
G01X7560750Y4581020D02*
X7559060Y4574250D01*
X7554820Y4569170D01*
X7549740Y4565780D01*
X7542970Y4563240D01*
X7535350Y4562390D01*
X7527730Y4563240D01*
X7520960Y4565780D01*
X7515880Y4569170D01*
X7511640Y4574250D01*
X7509950Y4581020D01*
X7511640Y4587790D01*
X7515880Y4592870D01*
X7520960Y4596260D01*
X7527730Y4598800D01*
X7535350Y4599650D01*
X7542970Y4598800D01*
X7549740Y4596260D01*
X7554820Y4592870D01*
X7559060Y4587790D01*
X7560750Y4581020D01*
G01X7515880Y4365810D02*
X7511640Y4371730D01*
X7509950Y4378510D01*
X7511640Y4385280D01*
X7516720Y4391210D01*
X7524340Y4395440D01*
X7531960Y4397130D01*
X7541280D01*
X7548900Y4395440D01*
X7555670Y4391210D01*
X7559060Y4386130D01*
X7560750Y4380200D01*
X7559060Y4373430D01*
X7555670Y4368350D01*
X7550590Y4364960D01*
X7543820Y4363270D01*
X7537890Y4364960D01*
X7531960Y4369190D01*
X7528580Y4374270D01*
X7527730Y4380200D01*
X7529420Y4386970D01*
X7533660Y4392050D01*
X7541280Y4397130D01*
G01X7509950Y5605190D02*
X7560750D01*
X7550590Y5595030D01*
G01X7509950D02*
Y5615350D01*
G01X7531120Y5639930D02*
X7537040Y5645860D01*
X7540430Y5650940D01*
X7542120Y5657710D01*
X7540430Y5663640D01*
X7537040Y5667870D01*
X7531960Y5671260D01*
X7526040Y5672110D01*
X7520960Y5671260D01*
X7515880Y5667870D01*
X7511640Y5662790D01*
X7509950Y5656870D01*
X7511640Y5650090D01*
X7516720Y5644170D01*
X7524340Y5640780D01*
X7532810Y5639930D01*
X7543820Y5641630D01*
X7549740Y5644170D01*
X7555670Y5648400D01*
X7559900Y5654330D01*
X7560750Y5660250D01*
X7559060Y5666180D01*
X7554820Y5670410D01*
G01X7509950Y5405190D02*
X7560750D01*
X7550590Y5395030D01*
G01X7509950D02*
Y5415350D01*
G01X7517570Y5437390D02*
X7513340Y5442470D01*
X7510800Y5448400D01*
X7509950Y5456020D01*
X7511640Y5463640D01*
X7515030Y5469570D01*
X7520960Y5473800D01*
X7527730Y5474650D01*
X7534500Y5472950D01*
X7538740Y5468720D01*
X7542120Y5462790D01*
X7542970Y5456870D01*
X7542120Y5450940D01*
X7538740Y5443320D01*
X7560750Y5445860D01*
Y5468720D01*
G01X7509950Y5230190D02*
X7560750D01*
X7550590Y5220030D01*
G01X7509950D02*
Y5240350D01*
G01Y5291180D02*
X7560750D01*
X7524340Y5259850D01*
Y5302190D01*
G01X7509950Y5055210D02*
X7560750D01*
X7550590Y5045050D01*
G01X7509950D02*
Y5065370D01*
G01X7520110Y5087410D02*
X7514180Y5092490D01*
X7510800Y5099270D01*
X7509950Y5106890D01*
X7510800Y5113660D01*
X7515030Y5120430D01*
X7520110Y5124670D01*
X7525190Y5125510D01*
X7531120Y5123820D01*
X7535350Y5117890D01*
X7537040Y5111970D01*
Y5104350D01*
G01Y5111970D02*
X7539580Y5117050D01*
X7543820Y5121280D01*
X7548900Y5122970D01*
X7553980Y5121280D01*
X7558210Y5117050D01*
X7560750Y5109430D01*
X7559900Y5101810D01*
X7556520Y5094190D01*
G01X7509950Y6370390D02*
X7560750D01*
X7524340Y6339060D01*
Y6381400D01*
G01X7520110Y6141600D02*
X7514180Y6146680D01*
X7510800Y6153460D01*
X7509950Y6161080D01*
X7510800Y6167850D01*
X7515030Y6174620D01*
X7520110Y6178860D01*
X7525190Y6179700D01*
X7531120Y6178010D01*
X7535350Y6172080D01*
X7537040Y6166160D01*
Y6158540D01*
G01Y6166160D02*
X7539580Y6171240D01*
X7543820Y6175470D01*
X7548900Y6177160D01*
X7553980Y6175470D01*
X7558210Y6171240D01*
X7560750Y6163620D01*
X7559900Y6156000D01*
X7556520Y6148380D01*
G01X7552280Y5969140D02*
X7557360Y5974220D01*
X7559900Y5980150D01*
X7560750Y5986920D01*
X7559060Y5995390D01*
X7554820Y6001320D01*
X7549740Y6003010D01*
X7544660Y6002160D01*
X7540430Y5998780D01*
X7531960Y5981840D01*
X7526040Y5974220D01*
X7517570Y5969140D01*
X7509950Y5967450D01*
Y6003010D01*
G01Y5810220D02*
X7560750D01*
X7550590Y5800060D01*
G01X7509950D02*
Y5820380D01*
G01Y7085220D02*
X7510800Y7091150D01*
X7513340Y7097920D01*
X7517570Y7102150D01*
X7523500Y7103850D01*
X7529420Y7102150D01*
X7534500Y7097070D01*
X7537040Y7089450D01*
Y7080990D01*
X7538740Y7075910D01*
X7542970Y7071670D01*
X7548900Y7069980D01*
X7554820Y7072520D01*
X7559060Y7078450D01*
X7560750Y7085220D01*
X7559060Y7091990D01*
X7554820Y7097920D01*
X7548900Y7100460D01*
X7542970Y7098770D01*
X7538740Y7094530D01*
X7537040Y7089450D01*
Y7080990D01*
X7534500Y7073370D01*
X7529420Y7068290D01*
X7523500Y7066590D01*
X7517570Y7068290D01*
X7513340Y7072520D01*
X7510800Y7079290D01*
X7509950Y7085220D01*
G01Y6883540D02*
X7520960Y6885230D01*
X7530270Y6887770D01*
X7538740Y6891160D01*
X7548050Y6895390D01*
X7560750Y6902160D01*
Y6868300D01*
G01X7531120Y6694130D02*
X7537040Y6700060D01*
X7540430Y6705140D01*
X7542120Y6711910D01*
X7540430Y6717840D01*
X7537040Y6722070D01*
X7531960Y6725460D01*
X7526040Y6726310D01*
X7520960Y6725460D01*
X7515880Y6722070D01*
X7511640Y6716990D01*
X7509950Y6711070D01*
X7511640Y6704290D01*
X7516720Y6698370D01*
X7524340Y6694980D01*
X7532810Y6694130D01*
X7543820Y6695830D01*
X7549740Y6698370D01*
X7555670Y6702600D01*
X7559900Y6708530D01*
X7560750Y6714450D01*
X7559060Y6720380D01*
X7554820Y6724610D01*
G01X7517570Y6516580D02*
X7513340Y6521660D01*
X7510800Y6527590D01*
X7509950Y6535210D01*
X7511640Y6542830D01*
X7515030Y6548760D01*
X7520960Y6552990D01*
X7527730Y6553840D01*
X7534500Y6552140D01*
X7538740Y6547910D01*
X7542120Y6541980D01*
X7542970Y6536060D01*
X7542120Y6530130D01*
X7538740Y6522510D01*
X7560750Y6525050D01*
Y6547910D01*
G01X7509950Y7935240D02*
X7560750D01*
X7550590Y7925080D01*
G01X7509950D02*
Y7945400D01*
G01X7520110Y7967440D02*
X7514180Y7972520D01*
X7510800Y7979300D01*
X7509950Y7986920D01*
X7510800Y7993690D01*
X7515030Y8000460D01*
X7520110Y8004700D01*
X7525190Y8005540D01*
X7531120Y8003850D01*
X7535350Y7997920D01*
X7537040Y7992000D01*
Y7984380D01*
G01Y7992000D02*
X7539580Y7997080D01*
X7543820Y8001310D01*
X7548900Y8003000D01*
X7553980Y8001310D01*
X7558210Y7997080D01*
X7560750Y7989460D01*
X7559900Y7981840D01*
X7556520Y7974220D01*
G01X7509950Y7760230D02*
X7560750D01*
X7550590Y7750070D01*
G01X7509950D02*
Y7770390D01*
G01X7552280Y7794970D02*
X7557360Y7800050D01*
X7559900Y7805980D01*
X7560750Y7812750D01*
X7559060Y7821220D01*
X7554820Y7827150D01*
X7549740Y7828840D01*
X7544660Y7827990D01*
X7540430Y7824610D01*
X7531960Y7807670D01*
X7526040Y7800050D01*
X7517570Y7794970D01*
X7509950Y7793280D01*
Y7828840D01*
G01Y7585220D02*
X7560750D01*
X7550590Y7575060D01*
G01X7509950D02*
Y7595380D01*
G01Y7636050D02*
X7560750D01*
X7550590Y7625890D01*
G01X7509950D02*
Y7646210D01*
G01Y7410220D02*
X7560750D01*
X7550590Y7400060D01*
G01X7509950D02*
Y7420380D01*
G01X7560750Y7461050D02*
X7559060Y7454280D01*
X7554820Y7449200D01*
X7549740Y7445810D01*
X7542970Y7443270D01*
X7535350Y7442420D01*
X7527730Y7443270D01*
X7520960Y7445810D01*
X7515880Y7449200D01*
X7511640Y7454280D01*
X7509950Y7461050D01*
X7511640Y7467820D01*
X7515880Y7472900D01*
X7520960Y7476290D01*
X7527730Y7478830D01*
X7535350Y7479680D01*
X7542970Y7478830D01*
X7549740Y7476290D01*
X7554820Y7472900D01*
X7559060Y7467820D01*
X7560750Y7461050D01*
G01X7515880Y7245840D02*
X7511640Y7251760D01*
X7509950Y7258540D01*
X7511640Y7265310D01*
X7516720Y7271240D01*
X7524340Y7275470D01*
X7531960Y7277160D01*
X7541280D01*
X7548900Y7275470D01*
X7555670Y7271240D01*
X7559060Y7266160D01*
X7560750Y7260230D01*
X7559060Y7253460D01*
X7555670Y7248380D01*
X7550590Y7244990D01*
X7543820Y7243300D01*
X7537890Y7244990D01*
X7531960Y7249220D01*
X7528580Y7254300D01*
X7527730Y7260230D01*
X7529420Y7267000D01*
X7533660Y7272080D01*
X7541280Y7277160D01*
G01X7509950Y8485220D02*
X7560750D01*
X7550590Y8475060D01*
G01X7509950D02*
Y8495380D01*
G01X7531120Y8519960D02*
X7537040Y8525890D01*
X7540430Y8530970D01*
X7542120Y8537740D01*
X7540430Y8543670D01*
X7537040Y8547900D01*
X7531960Y8551290D01*
X7526040Y8552140D01*
X7520960Y8551290D01*
X7515880Y8547900D01*
X7511640Y8542820D01*
X7509950Y8536900D01*
X7511640Y8530120D01*
X7516720Y8524200D01*
X7524340Y8520810D01*
X7532810Y8519960D01*
X7543820Y8521660D01*
X7549740Y8524200D01*
X7555670Y8528430D01*
X7559900Y8534360D01*
X7560750Y8540280D01*
X7559060Y8546210D01*
X7554820Y8550440D01*
G01X7509950Y8285220D02*
X7560750D01*
X7550590Y8275060D01*
G01X7509950D02*
Y8295380D01*
G01X7517570Y8317420D02*
X7513340Y8322500D01*
X7510800Y8328430D01*
X7509950Y8336050D01*
X7511640Y8343670D01*
X7515030Y8349600D01*
X7520960Y8353830D01*
X7527730Y8354680D01*
X7534500Y8352980D01*
X7538740Y8348750D01*
X7542120Y8342820D01*
X7542970Y8336900D01*
X7542120Y8330970D01*
X7538740Y8323350D01*
X7560750Y8325890D01*
Y8348750D01*
G01X7509950Y8110220D02*
X7560750D01*
X7550590Y8100060D01*
G01X7509950D02*
Y8120380D01*
G01Y8171210D02*
X7560750D01*
X7524340Y8139880D01*
Y8182220D01*
G54D12*
G01X4901050Y9552430D02*
Y9658450D01*
G01X4900040Y9602440D02*
X4831050D01*
G01X5013040Y9552430D02*
X4900040Y9600430D01*
X4904050Y9603430D01*
X5013040Y9658450D01*
G01X5184060Y9545440D02*
Y9664440D01*
G01X5242050Y9605440D02*
X5121040D01*
G01X5014060Y9552430D02*
Y9658450D01*
G01X5088050Y9604450D02*
X5019060D01*
G01X6182050Y9600430D02*
X6113040D01*
G01X6107050Y9548440D02*
X5994040Y9596450D01*
X5998050Y9599440D01*
X6107050Y9654430D01*
G01X6108060Y9548440D02*
Y9654430D01*
G01X5994040Y9598430D02*
X5925050D01*
G01X5995060Y9548440D02*
Y9654430D01*
G01X5873060Y9599440D02*
X5756040D01*
G01X6278040Y9541430D02*
Y9660430D01*
G01X6336050Y9601450D02*
X6215050D01*
G01X6825460Y9552440D02*
Y9658450D01*
G01X6824440Y9602450D02*
X6755450D01*
G01X7108460Y9545450D02*
Y9664440D01*
G01X7166450Y9605440D02*
X7045450D01*
G01X6938460Y9552440D02*
Y9658450D01*
G01X6937440Y9552440D02*
X6824440Y9600430D01*
X6828450Y9603430D01*
X6937440Y9658450D01*
G01X7012450Y9604450D02*
X6943460D01*
G01X8031450Y9548440D02*
X7918440Y9596450D01*
X7922460Y9599440D01*
X8031450Y9654430D01*
G01X7918440Y9598430D02*
X7849460D01*
G01X7919460Y9548440D02*
Y9654430D01*
G01X8106450Y9600430D02*
X8037440D01*
G01X8032460Y9548440D02*
Y9654430D01*
G01X8202440Y9541430D02*
Y9660430D01*
G01X8260450Y9601450D02*
X8139450D01*
G54D13*
G01X2053570Y652000D02*
X2000230Y728200D01*
G01X2053570D02*
X2000230Y652000D01*
G01X1974800Y715500D02*
X1967180Y723120D01*
X1958290Y726930D01*
X1948130Y728200D01*
X1935430Y725660D01*
X1926540Y719310D01*
X1924000Y711690D01*
X1925270Y704070D01*
X1930350Y697720D01*
X1955750Y685020D01*
X1967180Y676130D01*
X1974800Y663430D01*
X1977340Y652000D01*
X1924000D01*
G01X1604760Y2827100D02*
X1612380Y2820750D01*
X1617460Y2813130D01*
X1620000Y2804240D01*
X1617460Y2794080D01*
X1612380Y2786460D01*
X1604760Y2778840D01*
X1594600Y2776300D01*
X1543800D01*
G01X1588250Y2749600D02*
X1579360Y2740710D01*
X1574280Y2733090D01*
X1571740Y2722930D01*
X1574280Y2714040D01*
X1579360Y2707690D01*
X1586980Y2702610D01*
X1595870Y2701340D01*
X1603490Y2702610D01*
X1611110Y2707690D01*
X1617460Y2715310D01*
X1620000Y2724200D01*
X1617460Y2734360D01*
X1609840Y2743250D01*
X1598410Y2748330D01*
X1585710Y2749600D01*
X1569200Y2747060D01*
X1560310Y2743250D01*
X1551420Y2736900D01*
X1545070Y2728010D01*
X1543800Y2719120D01*
X1546340Y2710230D01*
X1552690Y2703880D01*
G01X1604760Y5707120D02*
X1612380Y5700770D01*
X1617460Y5693150D01*
X1620000Y5684260D01*
X1617460Y5674100D01*
X1612380Y5666480D01*
X1604760Y5658860D01*
X1594600Y5656320D01*
X1543800D01*
G01X1608570Y5633430D02*
X1614920Y5625810D01*
X1618730Y5616920D01*
X1620000Y5605490D01*
X1617460Y5594060D01*
X1612380Y5585170D01*
X1603490Y5578820D01*
X1593330Y5577550D01*
X1583170Y5580090D01*
X1576820Y5586440D01*
X1571740Y5595330D01*
X1570470Y5604220D01*
X1571740Y5613110D01*
X1576820Y5624540D01*
X1543800Y5620730D01*
Y5586440D01*
G01X1599750Y7867130D02*
X1607370Y7860780D01*
X1612450Y7853160D01*
X1614990Y7844270D01*
X1612450Y7834110D01*
X1607370Y7826490D01*
X1599750Y7818870D01*
X1589590Y7816330D01*
X1538790D01*
G01X1614990Y7750260D02*
X1538790D01*
X1593400Y7797250D01*
Y7733750D01*
G01X3316570Y9453000D02*
X3263230Y9529200D01*
G01X3316570D02*
X3263230Y9453000D01*
G01X3213670D02*
Y9529200D01*
X3228910Y9513960D01*
G01Y9453000D02*
X3198430D01*
G01X8037570Y803000D02*
X7984230Y879200D01*
G01X8037570D02*
X7984230Y803000D01*
G01X7958800Y866500D02*
X7951180Y874120D01*
X7942290Y877930D01*
X7932130Y879200D01*
X7919430Y876660D01*
X7910540Y870310D01*
X7908000Y862690D01*
X7909270Y855070D01*
X7914350Y848720D01*
X7939750Y836020D01*
X7951180Y827130D01*
X7958800Y814430D01*
X7961340Y803000D01*
X7908000D01*
G01X7858440Y879200D02*
X7868600Y876660D01*
X7876220Y870310D01*
X7881300Y862690D01*
X7885110Y852530D01*
X7886380Y841100D01*
X7885110Y829670D01*
X7881300Y819510D01*
X7876220Y811890D01*
X7868600Y805540D01*
X7858440Y803000D01*
X7848280Y805540D01*
X7840660Y811890D01*
X7835580Y819510D01*
X7831770Y829670D01*
X7830500Y841100D01*
X7831770Y852530D01*
X7835580Y862690D01*
X7840660Y870310D01*
X7848280Y876660D01*
X7858440Y879200D01*
G01X9319570Y9297000D02*
X9266230Y9373200D01*
G01X9319570D02*
X9266230Y9297000D01*
G01X9216670D02*
Y9373200D01*
X9231910Y9357960D01*
G01Y9297000D02*
X9201430D01*
G01X9162030Y9305890D02*
X9153140Y9299540D01*
X9142980Y9297000D01*
X9132820Y9299540D01*
X9123930Y9307160D01*
X9117580Y9318590D01*
X9115040Y9330020D01*
Y9343990D01*
X9117580Y9355420D01*
X9123930Y9365580D01*
X9131550Y9370660D01*
X9140440Y9373200D01*
X9150600Y9370660D01*
X9158220Y9365580D01*
X9163300Y9357960D01*
X9165840Y9347800D01*
X9163300Y9338910D01*
X9156950Y9330020D01*
X9149330Y9324940D01*
X9140440Y9323670D01*
X9130280Y9326210D01*
X9122660Y9332560D01*
X9115040Y9343990D01*
G01X9575130Y2131220D02*
X9568780Y2141380D01*
X9564970Y2152810D01*
Y2162970D01*
X9568780Y2173130D01*
X9575130Y2180750D01*
X9584020Y2184560D01*
X9592910Y2182020D01*
X9600530Y2175670D01*
X9605610Y2164240D01*
X9608150Y2149000D01*
X9613230Y2140110D01*
X9622120Y2136300D01*
X9631010Y2138840D01*
X9637360Y2145190D01*
X9641170Y2154080D01*
Y2162970D01*
X9638630Y2171860D01*
X9632280Y2179480D01*
G01X9564970Y2208720D02*
X9641170D01*
Y2239200D01*
X9637360Y2249360D01*
X9628470Y2256980D01*
X9618310Y2259520D01*
X9608150Y2256980D01*
X9600530Y2250630D01*
X9596720Y2239200D01*
Y2208720D01*
G01X9641170Y2310350D02*
X9638630Y2300190D01*
X9632280Y2292570D01*
X9624660Y2287490D01*
X9614500Y2283680D01*
X9603070Y2282410D01*
X9591640Y2283680D01*
X9581480Y2287490D01*
X9573860Y2292570D01*
X9567510Y2300190D01*
X9564970Y2310350D01*
X9567510Y2320510D01*
X9573860Y2328130D01*
X9581480Y2333210D01*
X9591640Y2337020D01*
X9603070Y2338290D01*
X9614500Y2337020D01*
X9624660Y2333210D01*
X9632280Y2328130D01*
X9638630Y2320510D01*
X9641170Y2310350D01*
G01X9570120Y4291230D02*
X9563770Y4301390D01*
X9559960Y4312820D01*
Y4322980D01*
X9563770Y4333140D01*
X9570120Y4340760D01*
X9579010Y4344570D01*
X9587900Y4342030D01*
X9595520Y4335680D01*
X9600600Y4324250D01*
X9603140Y4309010D01*
X9608220Y4300120D01*
X9617110Y4296310D01*
X9626000Y4298850D01*
X9632350Y4305200D01*
X9636160Y4314090D01*
Y4322980D01*
X9633620Y4331870D01*
X9627270Y4339490D01*
G01X9559960Y4368730D02*
X9636160D01*
Y4399210D01*
X9632350Y4409370D01*
X9623460Y4416990D01*
X9613300Y4419530D01*
X9603140Y4416990D01*
X9595520Y4410640D01*
X9591710Y4399210D01*
Y4368730D01*
G01X9559960Y4470360D02*
X9636160D01*
X9620920Y4455120D01*
G01X9559960D02*
Y4485600D01*
G01X9570120Y7171250D02*
X9563770Y7181410D01*
X9559960Y7192840D01*
Y7203000D01*
X9563770Y7213160D01*
X9570120Y7220780D01*
X9579010Y7224590D01*
X9587900Y7222050D01*
X9595520Y7215700D01*
X9600600Y7204270D01*
X9603140Y7189030D01*
X9608220Y7180140D01*
X9617110Y7176330D01*
X9626000Y7178870D01*
X9632350Y7185220D01*
X9636160Y7194110D01*
Y7203000D01*
X9633620Y7211890D01*
X9627270Y7219510D01*
G01X9559960Y7248750D02*
X9636160D01*
Y7279230D01*
X9632350Y7289390D01*
X9623460Y7297010D01*
X9613300Y7299550D01*
X9603140Y7297010D01*
X9595520Y7290660D01*
X9591710Y7279230D01*
Y7248750D01*
G01X9623460Y7326250D02*
X9631080Y7333870D01*
X9634890Y7342760D01*
X9636160Y7352920D01*
X9633620Y7365620D01*
X9627270Y7374510D01*
X9619650Y7377050D01*
X9612030Y7375780D01*
X9605680Y7370700D01*
X9592980Y7345300D01*
X9584090Y7333870D01*
X9571390Y7326250D01*
X9559960Y7323710D01*
Y7377050D01*
G54D14*
G01X1689990Y4278810D02*
X3470000D01*
Y4205810D01*
X3549990D01*
Y1156800D01*
X1689990D01*
Y4278810D01*
G01X3545010Y7093810D02*
X3549990Y4217790D01*
X3499190D01*
Y4290790D01*
X1689990D01*
Y7158830D01*
G01D02*
X3465020D01*
G01X3494180Y7178840D02*
X1684990D01*
Y8712820D01*
G01D02*
X2817980D01*
G01X3465020Y7093810D02*
X3545010D01*
G01X3465020Y7158830D02*
Y7093810D01*
G01X3494180Y7105840D02*
Y7178840D01*
G01X3544980Y7105840D02*
X3494180D01*
G01X2945970Y8712820D02*
X3438990D01*
Y8639820D01*
X3544980D01*
Y7105840D01*
G01X8233980Y1286800D02*
X7740970D01*
Y1359800D01*
X7634970D01*
Y2893780D01*
G01X7714930Y2905810D02*
X7634950D01*
G01D02*
X7629970Y5781820D01*
X7680770D01*
Y5708820D01*
X9489960D01*
Y2840780D01*
G01X7714930D02*
Y2905810D01*
G01X9489960Y2840780D02*
X7714930D01*
G01X7685770Y2893780D02*
Y2820780D01*
G01X7634970Y2893780D02*
X7685770D01*
G01Y2820780D02*
X9494960D01*
Y1286800D01*
G01X9489960Y5720810D02*
X7709950D01*
Y5793810D01*
X7629970D01*
Y8842830D01*
X9489960D01*
Y5720810D01*
G01X9494960Y1286800D02*
X8361970D01*
G54D15*
G01X0Y0D02*
X11000000D01*
Y-500000D01*
X0D01*
Y0D01*
G01Y200000D02*
Y10800000D01*
G02X200000Y11000000I200000J0D01*
G01X10800000D01*
G02X11000000Y10800000I0J-200000D01*
G01Y200000D01*
G02X10800000Y0I-200000J0D01*
G01X200000D01*
G02X0Y200000I0J200000D01*
G01Y11000000D02*
X11000000D01*
Y11500000D01*
X0D01*
Y11000000D01*
M02*
