G04 ================== begin FILE IDENTIFICATION RECORD ==================*
G04 Layout Name:  kupl_t_0825.brd*
G04 Film Name:    SOLDER_TOP*
G04 File Format:  Gerber RS274X*
G04 File Origin:  Cadence Allegro 16.6-P004*
G04 Origin Date:  Thu Aug 25 13:11:54 2022*
G04 *
G04 Layer:  PACKAGE GEOMETRY/SOLDERMASK_TOP*
G04 Layer:  BOARD GEOMETRY/SOLDERMASK_TOP*
G04 Layer:  VIA CLASS/SOLDERMASK_TOP*
G04 Layer:  PIN/SOLDERMASK_TOP*
G04 Layer:  BOARD GEOMETRY/OUTLINE*
G04 *
G04 Offset:    (0.0000 0.0000)*
G04 Mirror:    No*
G04 Mode:      Positive*
G04 Rotation:  0*
G04 FullContactRelief:  No*
G04 UndefLineWidth:     0.0152*
G04 ================== end FILE IDENTIFICATION RECORD ====================*
%FSLAX25Y25*MOMM*%
%IR0*IPPOS*OFA0.00000B0.00000*MIA0B0*SFA1.00000B1.00000*%
%ADD17O,3.5999X1.5999*%
%ADD27O,1.651X.5004*%
%ADD31R,2.4501X.81*%
%ADD41C,.4572*%
%ADD10R,.65X.65*%
%ADD39R,.7501X1.1999*%
%ADD11R,.8992X.8992*%
%ADD37R,2.X1.4*%
%ADD33R,1.15X1.35*%
%ADD35C,3.3*%
%ADD36C,3.4*%
%ADD18C,2.032*%
%ADD28R,1.85X2.6*%
%ADD25R,.4X.95*%
%ADD23C,2.7*%
%ADD24R,.95X.4*%
%ADD19C,9.1001*%
%ADD42C,1.65*%
%ADD44C,2.4511*%
%ADD26R,2.1501X2.1501*%
%ADD14R,1.65X1.65*%
%ADD21R,1.4224X1.2954*%
%ADD13C,1.6256*%
%ADD22R,1.2954X1.4224*%
%ADD20C,1.1199*%
%ADD34C,1.9507*%
%ADD32R,1.1501X1.1999*%
%ADD29C,1.6764*%
%ADD15O,1.5999X3.8001*%
%ADD30R,1.6764X1.6764*%
%ADD16R,.7X.8999*%
%ADD12R,3.3198X1.4199*%
%ADD40R,.7874X.2794*%
%ADD38R,.2794X.7874*%
%ADD43R,1.5999X1.5999*%
%ADD45C,.0152*%
%ADD46C,.8128*%
G75*
%LPD*%
G75*
G36*
G01X5348360Y8108360D02*
X5175640D01*
Y7935640D01*
X5348360D01*
Y8108360D01*
G37*
%LPC*%
G75*
G54D46*
X5262000Y8022000D03*
%LPD*%
G75*
G54D10*
X589830Y510510D03*
Y600530D03*
X860070Y510510D03*
Y600530D03*
X1130310Y510510D03*
Y600530D03*
X995190Y510510D03*
Y600530D03*
X1265430Y510510D03*
Y600530D03*
X724950Y510510D03*
Y600530D03*
X852430Y882420D03*
X942450D03*
X852430Y1017540D03*
X942450D03*
X852430Y1287780D03*
X942450D03*
X852430Y1152660D03*
X942450D03*
X852430Y1558020D03*
X942450D03*
X852430Y1963380D03*
X942450D03*
X852430Y1828260D03*
X942450D03*
X852430Y1422900D03*
X942450D03*
X852430Y1693140D03*
X942450D03*
X852430Y2503860D03*
X942450D03*
X852430Y2098500D03*
X942450D03*
X852430Y2368740D03*
X942450D03*
X852430Y2638980D03*
X942450D03*
X852430Y2774100D03*
X942450D03*
X852430Y2233620D03*
X942450D03*
X852430Y3179460D03*
X942450D03*
X852430Y3044340D03*
X942450D03*
X852430Y3314580D03*
X942450D03*
X852430Y3449700D03*
X942450D03*
X852430Y2909220D03*
X942450D03*
X852430Y4125300D03*
X942450D03*
X852430Y3719940D03*
X942450D03*
X852430Y4260420D03*
X942450D03*
X852430Y3855060D03*
X942450D03*
X852430Y3990180D03*
X942450D03*
X852430Y3584820D03*
X942450D03*
X852430Y4665780D03*
X942450D03*
X852430Y4800900D03*
X942450D03*
X852430Y4395540D03*
X942450D03*
X852430Y4936020D03*
X942450D03*
X852430Y4530660D03*
X942450D03*
X852430Y5476500D03*
X942450D03*
X852430Y5071140D03*
X942450D03*
X852430Y5611620D03*
X942450D03*
X852430Y5206260D03*
X942450D03*
X852430Y5746740D03*
X942450D03*
X852430Y5341380D03*
X942450D03*
X1148970Y8183000D03*
Y8092980D03*
X2076150Y510510D03*
Y600530D03*
X1805910Y510510D03*
Y600530D03*
X1400550Y510510D03*
Y600530D03*
X1670790Y510510D03*
Y600530D03*
X1941030Y510510D03*
Y600530D03*
X1535670Y510510D03*
Y600530D03*
X1632850Y3956970D03*
Y4046990D03*
X1744610Y3956970D03*
Y4046990D03*
X1588540Y6348110D03*
X1678560D03*
X1588540Y6483230D03*
X1678560D03*
X1588540Y6753470D03*
X1678560D03*
X1588540Y6618350D03*
X1678560D03*
X1588540Y6888590D03*
X1678560D03*
X1631850Y7878220D03*
X1721870D03*
X1631850Y7607980D03*
X1721870D03*
X1631850Y7743100D03*
X1721870D03*
X1631850Y8013340D03*
X1721870D03*
X1500910Y8909350D03*
X1410890D03*
Y9021110D03*
X1500910D03*
X1426430Y9414220D03*
X1932590Y10025570D03*
X2022610D03*
X1426430Y9504240D03*
X2279800Y10034280D03*
Y10124300D03*
X2660800D03*
Y10034280D03*
X2406800D03*
Y10124300D03*
X2152800D03*
Y10034280D03*
X2533800D03*
Y10124300D03*
X2787800D03*
Y10034280D03*
X2539530Y10849160D03*
X2629550D03*
X2408570D03*
X2318550D03*
X2760510D03*
X3494230Y4100140D03*
Y4190160D03*
X2914800Y10034280D03*
Y10124300D03*
X3041800D03*
Y10034280D03*
X3339150Y9492940D03*
X3249130D03*
X3339150Y9843460D03*
X3249130D03*
X3339150Y9609780D03*
X3249130D03*
Y9726620D03*
X3339150D03*
X2850530Y10849160D03*
X4215260Y408980D03*
Y318960D03*
X3969440Y795120D03*
X3879420D03*
X3969440Y1200480D03*
X3879420D03*
X3969440Y930240D03*
X3879420D03*
X3969440Y1335600D03*
X3879420D03*
X3969440Y1065360D03*
X3879420D03*
X3969440Y1470720D03*
X3879420D03*
X3969440Y1876080D03*
X3879420D03*
X3969440Y1605840D03*
X3879420D03*
X3969440Y1740960D03*
X3879420D03*
X3969440Y2011200D03*
X3879420D03*
X3969440Y2551680D03*
X3879420D03*
X3969440Y2416560D03*
X3879420D03*
X3969440Y2146320D03*
X3879420D03*
X3969440Y2686800D03*
X3879420D03*
X3969440Y2281440D03*
X3879420D03*
X3969440Y2821920D03*
X3879420D03*
X3969440Y3092160D03*
X3879420D03*
X3969440Y2957040D03*
X3879420D03*
X3969440Y3362400D03*
X3879420D03*
X3969440Y3227280D03*
X3879420D03*
X3969440Y3497520D03*
X3879420D03*
X3969440Y4173120D03*
X3879420D03*
X3969440Y4038000D03*
X3879420D03*
X3969440Y3767760D03*
X3879420D03*
X3605990Y4100140D03*
Y4190160D03*
X3969440Y3632640D03*
X3879420D03*
X3969440Y3902880D03*
X3879420D03*
X3969440Y4578480D03*
X3879420D03*
X3969440Y4848720D03*
X3879420D03*
X3969440Y4443360D03*
X3879420D03*
X3969440Y4713600D03*
X3879420D03*
X3969440Y4308240D03*
X3879420D03*
X3969440Y4983840D03*
X3879420D03*
X3969440Y5254080D03*
X3879420D03*
X3969440Y5118960D03*
X3879420D03*
X3969440Y5389200D03*
X3879420D03*
X3969440Y5524320D03*
X3879420D03*
X3969440Y5659440D03*
X3879420D03*
X3871780Y7101520D03*
X3781760D03*
X3871780Y7213280D03*
X3781760D03*
X3872730Y7402950D03*
X3782710D03*
X3872730Y7673190D03*
X3782710D03*
X3872730Y7538070D03*
X3782710D03*
X3872730Y7943430D03*
X3782710D03*
X3872730Y7808310D03*
X3782710D03*
X3872730Y8483910D03*
X3782710D03*
X3872730Y8078550D03*
X3782710D03*
X3872730Y8619030D03*
X3782710D03*
X3872730Y8348790D03*
X3782710D03*
X3872730Y8213670D03*
X3782710D03*
X3769090Y10438780D03*
Y10348760D03*
X5005820Y139310D03*
X4718010Y5263890D03*
X4627990D03*
X4718010Y5375650D03*
X4627990D03*
X4484410Y6162220D03*
Y6252240D03*
X4372650Y6162220D03*
Y6252240D03*
X4890890Y6162220D03*
Y6252240D03*
X4779130Y6162220D03*
Y6252240D03*
X4372650Y6457800D03*
X4890890D03*
X4779130D03*
X4484410D03*
X4890890Y6753380D03*
Y6843400D03*
X4372650Y6547820D03*
X4890890D03*
X4779130D03*
X4372650Y6753380D03*
Y6843400D03*
X4484410Y6753380D03*
Y6843400D03*
X4779130Y6753380D03*
Y6843400D03*
X4484410Y6547820D03*
X4905000Y7976990D03*
Y8067010D03*
X4875010Y8334520D03*
X4784990D03*
X4638010Y8222760D03*
X4547990D03*
X4638010Y8334520D03*
X4547990D03*
X4638010Y8111000D03*
X4547990D03*
X5015010Y8846000D03*
X4924990D03*
X4314690Y9783280D03*
Y9873300D03*
X5627690Y323730D03*
Y233710D03*
X5754690D03*
Y323730D03*
X5095840Y139310D03*
X5057190Y1902010D03*
X5147210D03*
X5184250Y5073090D03*
Y5163110D03*
X5296010Y5073090D03*
Y5163110D03*
Y5664250D03*
Y5754270D03*
X5184250Y5664250D03*
Y5754270D03*
Y5368670D03*
Y5458690D03*
X5296010Y5368670D03*
Y5458690D03*
X5185610Y6457800D03*
Y6162220D03*
Y6252240D03*
X5297370Y6162220D03*
Y6252240D03*
X5592090Y6162220D03*
Y6252240D03*
X5703850Y6162220D03*
Y6252240D03*
X5297370Y6457800D03*
X5592090D03*
X5703850D03*
X5185610Y6547820D03*
X5703850Y6753380D03*
Y6843400D03*
X5592090Y6753380D03*
Y6843400D03*
X5297370Y6547820D03*
X5592090D03*
X5703850D03*
X5297370Y6753380D03*
Y6843400D03*
X5185610Y6753380D03*
Y6843400D03*
X5285990Y8340000D03*
X5376010D03*
X5134480Y8890990D03*
Y8981010D03*
X5229480Y8890990D03*
Y8981010D03*
X6135690Y323730D03*
Y233710D03*
X6389690D03*
Y323730D03*
X5881690Y233710D03*
Y323730D03*
X6008690Y233710D03*
Y323730D03*
X6262690D03*
Y233710D03*
X6014420Y1048590D03*
X6104440D03*
X5883460D03*
X5793440D03*
X6325420D03*
X6235400D03*
X5816470Y1623390D03*
Y1713410D03*
X6334320Y4208670D03*
X6446080D03*
X5930770Y4212300D03*
X6042530D03*
X6334320Y3913090D03*
Y4003110D03*
X6446080Y3913090D03*
Y4003110D03*
X5930770Y3916720D03*
Y4006740D03*
X6042530Y3916720D03*
Y4006740D03*
X6334320Y4298690D03*
X6446080D03*
X5930770Y4302320D03*
X6042530D03*
X6334320Y4504250D03*
Y4594270D03*
X6446080Y4504250D03*
Y4594270D03*
X5930770Y4507880D03*
Y4597900D03*
X6042530Y4507880D03*
Y4597900D03*
X6516690Y323730D03*
Y233710D03*
X7209740Y4210430D03*
X7097980D03*
X6835750Y4296970D03*
Y4206950D03*
X6723990Y4296970D03*
Y4206950D03*
X7209740Y3914850D03*
Y4004870D03*
X7097980Y3914850D03*
Y4004870D03*
X6835750Y3911370D03*
Y4001390D03*
X6723990Y3911370D03*
Y4001390D03*
X7209740Y4300450D03*
X7097980D03*
X7209740Y4506010D03*
Y4596030D03*
X7097980Y4506010D03*
Y4596030D03*
X6835750Y4502530D03*
Y4592550D03*
X6723990Y4502530D03*
Y4592550D03*
X6692700Y5468770D03*
Y5378750D03*
X6804460Y5468770D03*
Y5378750D03*
X6692700Y5083170D03*
Y5173190D03*
X6804460Y5083170D03*
Y5173190D03*
X6692700Y5674330D03*
Y5764350D03*
X6804460Y5674330D03*
Y5764350D03*
X7243980Y548190D03*
Y638210D03*
X7343780Y1708060D03*
X7433800D03*
X7343780Y1843180D03*
X7433800D03*
X7343780Y1978300D03*
X7433800D03*
X7343780Y2653900D03*
X7433800D03*
X7343780Y2518780D03*
X7433800D03*
X7343780Y2113420D03*
X7433800D03*
X7343780Y2248540D03*
X7433800D03*
X7343780Y2383660D03*
X7433800D03*
X7433340Y2949400D03*
X7343320D03*
X7433340Y2837640D03*
X7343320D03*
X7571020Y5961330D03*
Y5871310D03*
X7682780Y5961330D03*
Y5871310D03*
X7499900Y7776740D03*
X7589920D03*
X7499900Y7911860D03*
X7589920D03*
X7499900Y8046980D03*
X7589920D03*
X7499900Y8317220D03*
X7589920D03*
X7499900Y8182100D03*
X7589920D03*
X9236360Y751630D03*
Y841650D03*
X9474490Y842430D03*
X9564510D03*
X9954570Y1542500D03*
Y1632520D03*
X9634800Y7787000D03*
X9544780D03*
X9634800Y7922120D03*
X9544780D03*
X9634800Y8327480D03*
X9544780D03*
X9634800Y8192360D03*
X9544780D03*
X9634800Y8057240D03*
X9544780D03*
X9809880Y9899300D03*
X9719860D03*
X10724070Y775950D03*
Y865970D03*
X10588950Y775950D03*
Y865970D03*
X10434320Y3665380D03*
X10344300D03*
X10434320Y3935620D03*
X10344300D03*
X10434320Y4070740D03*
X10344300D03*
X10434320Y4205860D03*
X10344300D03*
X10434320Y3800500D03*
X10344300D03*
X10434320Y4476100D03*
X10344300D03*
X10434320Y4340980D03*
X10344300D03*
X10434320Y4881460D03*
X10344300D03*
X10434320Y4746340D03*
X10344300D03*
X10434320Y4611220D03*
X10344300D03*
G54D20*
X2079990Y1489790D03*
Y1669800D03*
Y1849810D03*
Y2029790D03*
X1900000Y1489790D03*
Y1669800D03*
Y1849810D03*
Y2029790D03*
X2079990Y2209800D03*
Y2389790D03*
Y2569800D03*
Y2749810D03*
X1900000Y2209800D03*
Y2389790D03*
Y2569800D03*
Y2749810D03*
X2079990Y2929790D03*
Y3109800D03*
Y3289810D03*
Y3469800D03*
X1900000Y2929790D03*
Y3109800D03*
Y3289810D03*
Y3469800D03*
X2079990Y3649810D03*
Y3829790D03*
Y4009800D03*
Y4189810D03*
X1900000Y3649810D03*
Y3829790D03*
Y4009800D03*
Y4189810D03*
X2079990Y4369810D03*
Y4549820D03*
Y4729830D03*
Y4909810D03*
X1900000Y4369810D03*
Y4549820D03*
Y4729830D03*
Y4909810D03*
X2079990Y5089820D03*
Y5269810D03*
Y5449820D03*
Y5629830D03*
X1900000Y5089820D03*
Y5269810D03*
Y5449820D03*
Y5629830D03*
X2079990Y5809810D03*
Y5989820D03*
Y6169830D03*
Y6349820D03*
X1900000Y5809810D03*
Y5989820D03*
Y6169830D03*
Y6349820D03*
X2079990Y6529830D03*
Y6709810D03*
Y6889820D03*
Y7069830D03*
X1900000Y6529830D03*
Y6709810D03*
Y6889820D03*
Y7069830D03*
X2079990Y7249830D03*
Y7429820D03*
Y7609830D03*
Y7789840D03*
Y7969820D03*
X1900000Y7249830D03*
Y7429820D03*
Y7609830D03*
Y7789840D03*
Y7969820D03*
X2079990Y8149830D03*
Y8329840D03*
Y8509830D03*
X1900000Y8149830D03*
Y8329840D03*
Y8509830D03*
X2800000Y1489790D03*
Y1669800D03*
Y1849810D03*
Y2029790D03*
X2619990Y1489790D03*
Y1669800D03*
Y1849810D03*
Y2029790D03*
X2439980Y1489790D03*
Y1669800D03*
Y1849810D03*
Y2029790D03*
X2260000Y1489790D03*
Y1669800D03*
Y1849810D03*
Y2029790D03*
X2800000Y2209800D03*
Y2389790D03*
Y2569800D03*
Y2749810D03*
X2619990Y2209800D03*
Y2389790D03*
Y2569800D03*
Y2749810D03*
X2439980Y2209800D03*
Y2389790D03*
Y2569800D03*
Y2749810D03*
X2260000Y2209800D03*
Y2389790D03*
Y2569800D03*
Y2749810D03*
X2800000Y2929790D03*
Y3109800D03*
Y3289810D03*
Y3469800D03*
X2619990Y2929790D03*
Y3109800D03*
Y3289810D03*
Y3469800D03*
X2439980Y2929790D03*
Y3109800D03*
Y3289810D03*
Y3469800D03*
X2260000Y2929790D03*
Y3109800D03*
Y3289810D03*
Y3469800D03*
X2800000Y3649810D03*
Y3829790D03*
Y4009800D03*
Y4189810D03*
X2619990Y3649810D03*
Y3829790D03*
Y4009800D03*
Y4189810D03*
X2439980Y3649810D03*
Y3829790D03*
Y4009800D03*
Y4189810D03*
X2260000Y3649810D03*
Y3829790D03*
Y4009800D03*
Y4189810D03*
X2800000Y4369810D03*
Y4549820D03*
Y4729830D03*
Y4909810D03*
X2619990Y4369810D03*
Y4549820D03*
Y4729830D03*
Y4909810D03*
X2439980Y4369810D03*
Y4549820D03*
Y4729830D03*
Y4909810D03*
X2260000Y4369810D03*
Y4549820D03*
Y4729830D03*
Y4909810D03*
X2800000Y5089820D03*
Y5269810D03*
Y5449820D03*
Y5629830D03*
X2619990Y5089820D03*
Y5269810D03*
Y5449820D03*
Y5629830D03*
X2439980Y5089820D03*
Y5269810D03*
Y5449820D03*
Y5629830D03*
X2260000Y5089820D03*
Y5269810D03*
Y5449820D03*
Y5629830D03*
X2800000Y5809810D03*
Y5989820D03*
Y6169830D03*
Y6349820D03*
X2619990Y5809810D03*
Y5989820D03*
Y6169830D03*
Y6349820D03*
X2439980Y5809810D03*
Y5989820D03*
Y6169830D03*
Y6349820D03*
X2260000Y5809810D03*
Y5989820D03*
Y6169830D03*
Y6349820D03*
X2800000Y6529830D03*
Y6709810D03*
Y6889820D03*
Y7069830D03*
X2619990Y6529830D03*
Y6709810D03*
Y6889820D03*
Y7069830D03*
X2439980Y6529830D03*
Y6709810D03*
Y6889820D03*
Y7069830D03*
X2260000Y6529830D03*
Y6709810D03*
Y6889820D03*
Y7069830D03*
X2800000Y7249830D03*
Y7429820D03*
Y7609830D03*
Y7789840D03*
Y7969820D03*
X2619990Y7249830D03*
Y7429820D03*
Y7609830D03*
Y7789840D03*
Y7969820D03*
X2439980Y7249830D03*
Y7429820D03*
Y7609830D03*
Y7789840D03*
Y7969820D03*
X2260000Y7249830D03*
Y7429820D03*
Y7609830D03*
Y7789840D03*
Y7969820D03*
X2800000Y8149830D03*
Y8329840D03*
Y8509830D03*
X2619990Y8149830D03*
Y8329840D03*
Y8509830D03*
X2439980Y8149830D03*
Y8329840D03*
Y8509830D03*
X2260000Y8149830D03*
Y8329840D03*
Y8509830D03*
X3339980Y1489790D03*
Y1669800D03*
Y1849810D03*
Y2029790D03*
X3159990Y1489790D03*
Y1669800D03*
Y1849810D03*
Y2029790D03*
X2979980Y1489790D03*
Y1669800D03*
Y1849810D03*
Y2029790D03*
X3339980Y2209800D03*
Y2389790D03*
Y2569800D03*
Y2749810D03*
X3159990Y2209800D03*
Y2389790D03*
Y2569800D03*
Y2749810D03*
X2979980Y2209800D03*
Y2389790D03*
Y2569800D03*
Y2749810D03*
X3339980Y2929790D03*
Y3109800D03*
Y3289810D03*
Y3469800D03*
X3159990Y2929790D03*
Y3109800D03*
Y3289810D03*
Y3469800D03*
X2979980Y2929790D03*
Y3109800D03*
Y3289810D03*
Y3469800D03*
X3339980Y3649810D03*
Y3829790D03*
Y4009800D03*
Y4189810D03*
X3159990Y3649810D03*
Y3829790D03*
Y4009800D03*
Y4189810D03*
X2979980Y3649810D03*
Y3829790D03*
Y4009800D03*
Y4189810D03*
X3339980Y4369810D03*
Y4549820D03*
Y4729830D03*
Y4909810D03*
X3159990Y4369810D03*
Y4549820D03*
Y4729830D03*
Y4909810D03*
X2979980Y4369810D03*
Y4549820D03*
Y4729830D03*
Y4909810D03*
X3339980Y5089820D03*
Y5269810D03*
Y5449820D03*
Y5629830D03*
X3159990Y5089820D03*
Y5269810D03*
Y5449820D03*
Y5629830D03*
X2979980Y5089820D03*
Y5269810D03*
Y5449820D03*
Y5629830D03*
X3339980Y5809810D03*
Y5989820D03*
Y6169830D03*
Y6349820D03*
X3159990Y5809810D03*
Y5989820D03*
Y6169830D03*
Y6349820D03*
X2979980Y5809810D03*
Y5989820D03*
Y6169830D03*
Y6349820D03*
X3339980Y6529830D03*
Y6709810D03*
Y6889820D03*
Y7069830D03*
X3159990Y6529830D03*
Y6709810D03*
Y6889820D03*
Y7069830D03*
X2979980Y6529830D03*
Y6709810D03*
Y6889820D03*
Y7069830D03*
X3339980Y7249830D03*
Y7429820D03*
Y7609830D03*
Y7789840D03*
Y7969820D03*
X3159990Y7249830D03*
Y7429820D03*
Y7609830D03*
Y7789840D03*
Y7969820D03*
X2979980Y7249830D03*
Y7429820D03*
Y7609830D03*
Y7789840D03*
Y7969820D03*
X3339980Y8149830D03*
Y8329840D03*
Y8509830D03*
X3159990Y8149830D03*
Y8329840D03*
Y8509830D03*
X2979980Y8149830D03*
Y8329840D03*
Y8509830D03*
X7839980Y2029800D03*
Y1849790D03*
Y1669780D03*
Y1489790D03*
Y2749790D03*
Y2569800D03*
Y2389790D03*
Y2209780D03*
Y3469790D03*
Y3289810D03*
Y3109800D03*
Y2929790D03*
Y4189810D03*
Y4009800D03*
Y3829790D03*
Y3649800D03*
Y4909800D03*
Y4729810D03*
Y4549800D03*
Y4369790D03*
Y5629810D03*
Y5449800D03*
Y5269790D03*
Y5089810D03*
Y6349810D03*
Y6169830D03*
Y5989820D03*
Y5809810D03*
Y7069830D03*
Y6889820D03*
Y6709810D03*
Y6529820D03*
Y7969830D03*
Y7789820D03*
Y7609830D03*
Y7429820D03*
Y7249810D03*
Y8509830D03*
Y8329820D03*
Y8149810D03*
X8019970Y2029800D03*
Y1849790D03*
Y1669780D03*
Y1489790D03*
X8199980Y2029800D03*
Y1849790D03*
Y1669780D03*
Y1489790D03*
X8379960Y2029800D03*
Y1849790D03*
Y1669780D03*
Y1489790D03*
X8559970Y2029800D03*
Y1849790D03*
Y1669780D03*
Y1489790D03*
X8019970Y2749790D03*
Y2569800D03*
Y2389790D03*
Y2209780D03*
X8199980Y2749790D03*
Y2569800D03*
Y2389790D03*
Y2209780D03*
X8379960Y2749790D03*
Y2569800D03*
Y2389790D03*
Y2209780D03*
X8559970Y2749790D03*
Y2569800D03*
Y2389790D03*
Y2209780D03*
X8019970Y3469790D03*
Y3289810D03*
Y3109800D03*
Y2929790D03*
X8199980Y3469790D03*
Y3289810D03*
Y3109800D03*
Y2929790D03*
X8379960Y3469790D03*
Y3289810D03*
Y3109800D03*
Y2929790D03*
X8559970Y3469790D03*
Y3289810D03*
Y3109800D03*
Y2929790D03*
X8019970Y4189810D03*
Y4009800D03*
Y3829790D03*
Y3649800D03*
X8199980Y4189810D03*
Y4009800D03*
Y3829790D03*
Y3649800D03*
X8379960Y4189810D03*
Y4009800D03*
Y3829790D03*
Y3649800D03*
X8559970Y4189810D03*
Y4009800D03*
Y3829790D03*
Y3649800D03*
X8019970Y4909800D03*
Y4729810D03*
Y4549800D03*
Y4369790D03*
X8199980Y4909800D03*
Y4729810D03*
Y4549800D03*
Y4369790D03*
X8379960Y4909800D03*
Y4729810D03*
Y4549800D03*
Y4369790D03*
X8559970Y4909800D03*
Y4729810D03*
Y4549800D03*
Y4369790D03*
X8019970Y5629810D03*
Y5449800D03*
Y5269790D03*
Y5089810D03*
X8199980Y5629810D03*
Y5449800D03*
Y5269790D03*
Y5089810D03*
X8379960Y5629810D03*
Y5449800D03*
Y5269790D03*
Y5089810D03*
X8559970Y5629810D03*
Y5449800D03*
Y5269790D03*
Y5089810D03*
X8019970Y6349810D03*
Y6169830D03*
Y5989820D03*
Y5809810D03*
X8199980Y6349810D03*
Y6169830D03*
Y5989820D03*
Y5809810D03*
X8379960Y6349810D03*
Y6169830D03*
Y5989820D03*
Y5809810D03*
X8559970Y6349810D03*
Y6169830D03*
Y5989820D03*
Y5809810D03*
X8019970Y7069830D03*
Y6889820D03*
Y6709810D03*
Y6529820D03*
X8199980Y7069830D03*
Y6889820D03*
Y6709810D03*
Y6529820D03*
X8379960Y7069830D03*
Y6889820D03*
Y6709810D03*
Y6529820D03*
X8559970Y7069830D03*
Y6889820D03*
Y6709810D03*
Y6529820D03*
X8019970Y7969830D03*
Y7789820D03*
Y7609830D03*
Y7429820D03*
Y7249810D03*
X8199980Y7969830D03*
Y7789820D03*
Y7609830D03*
Y7429820D03*
Y7249810D03*
X8379960Y7969830D03*
Y7789820D03*
Y7609830D03*
Y7429820D03*
Y7249810D03*
X8559970Y7969830D03*
Y7789820D03*
Y7609830D03*
Y7429820D03*
Y7249810D03*
X8019970Y8509830D03*
Y8329820D03*
Y8149810D03*
X8199980Y8509830D03*
Y8329820D03*
Y8149810D03*
X8379960Y8509830D03*
Y8329820D03*
Y8149810D03*
X8559970Y8509830D03*
Y8329820D03*
Y8149810D03*
X8739980Y2029800D03*
Y1849790D03*
Y1669780D03*
Y1489790D03*
X8919960Y2029800D03*
Y1849790D03*
Y1669780D03*
Y1489790D03*
X9099970Y2029800D03*
Y1849790D03*
Y1669780D03*
Y1489790D03*
X9279960Y2029800D03*
Y1849790D03*
Y1669780D03*
Y1489790D03*
X8739980Y2749790D03*
Y2569800D03*
Y2389790D03*
Y2209780D03*
X8919960Y2749790D03*
Y2569800D03*
Y2389790D03*
Y2209780D03*
X9099970Y2749790D03*
Y2569800D03*
Y2389790D03*
Y2209780D03*
X9279960Y2749790D03*
Y2569800D03*
Y2389790D03*
Y2209780D03*
X8739980Y3469790D03*
Y3289810D03*
Y3109800D03*
Y2929790D03*
X8919960Y3469790D03*
Y3289810D03*
Y3109800D03*
Y2929790D03*
X9099970Y3469790D03*
Y3289810D03*
Y3109800D03*
Y2929790D03*
X9279960Y3469790D03*
Y3289810D03*
Y3109800D03*
Y2929790D03*
X8739980Y4189810D03*
Y4009800D03*
Y3829790D03*
Y3649800D03*
X8919960Y4189810D03*
Y4009800D03*
Y3829790D03*
Y3649800D03*
X9099970Y4189810D03*
Y4009800D03*
Y3829790D03*
Y3649800D03*
X9279960Y4189810D03*
Y4009800D03*
Y3829790D03*
Y3649800D03*
X8739980Y4909800D03*
Y4729810D03*
Y4549800D03*
Y4369790D03*
X8919960Y4909800D03*
Y4729810D03*
Y4549800D03*
Y4369790D03*
X9099970Y4909800D03*
Y4729810D03*
Y4549800D03*
Y4369790D03*
X9279960Y4909800D03*
Y4729810D03*
Y4549800D03*
Y4369790D03*
X8739980Y5629810D03*
Y5449800D03*
Y5269790D03*
Y5089810D03*
X8919960Y5629810D03*
Y5449800D03*
Y5269790D03*
Y5089810D03*
X9099970Y5629810D03*
Y5449800D03*
Y5269790D03*
Y5089810D03*
X9279960Y5629810D03*
Y5449800D03*
Y5269790D03*
Y5089810D03*
X8739980Y6349810D03*
Y6169830D03*
Y5989820D03*
Y5809810D03*
X8919960Y6349810D03*
Y6169830D03*
Y5989820D03*
Y5809810D03*
X9099970Y6349810D03*
Y6169830D03*
Y5989820D03*
Y5809810D03*
X9279960Y6349810D03*
Y6169830D03*
Y5989820D03*
Y5809810D03*
X8739980Y7069830D03*
Y6889820D03*
Y6709810D03*
Y6529820D03*
X8919960Y7069830D03*
Y6889820D03*
Y6709810D03*
Y6529820D03*
X9099970Y7069830D03*
Y6889820D03*
Y6709810D03*
Y6529820D03*
X9279960Y7069830D03*
Y6889820D03*
Y6709810D03*
Y6529820D03*
X8739980Y7969830D03*
Y7789820D03*
Y7609830D03*
Y7429820D03*
Y7249810D03*
X8919960Y7969830D03*
Y7789820D03*
Y7609830D03*
Y7429820D03*
Y7249810D03*
X9099970Y7969830D03*
Y7789820D03*
Y7609830D03*
Y7429820D03*
Y7249810D03*
X9279960Y7969830D03*
Y7789820D03*
Y7609830D03*
Y7429820D03*
Y7249810D03*
X8739980Y8509830D03*
Y8329820D03*
Y8149810D03*
X8919960Y8509830D03*
Y8329820D03*
Y8149810D03*
X9099970Y8509830D03*
Y8329820D03*
Y8149810D03*
X9279960Y8509830D03*
Y8329820D03*
Y8149810D03*
G54D11*
X589830Y156820D03*
Y306680D03*
X498740Y1287790D03*
Y882420D03*
Y1152670D03*
Y1017550D03*
X498750Y1828270D03*
X498740Y1422910D03*
Y1693140D03*
Y2098520D03*
Y1558030D03*
Y1963380D03*
Y2368750D03*
Y2638990D03*
Y2774110D03*
Y2233630D03*
X498750Y2503870D03*
X498740Y2909230D03*
Y3179470D03*
Y3044350D03*
Y3314590D03*
Y3449710D03*
Y3584830D03*
Y3990190D03*
Y4125310D03*
Y3719950D03*
Y4260430D03*
X498750Y3855070D03*
X498740Y4936030D03*
X498750Y4530670D03*
X498740Y4665800D03*
Y4800910D03*
Y4395540D03*
Y5476510D03*
Y5071140D03*
X498750Y5611620D03*
X498740Y5206270D03*
Y5746740D03*
Y5341390D03*
X1130310Y156820D03*
Y306680D03*
X724950Y156820D03*
Y306680D03*
X995190Y156820D03*
Y306680D03*
X1265430Y156830D03*
Y306690D03*
X860070Y156820D03*
Y306680D03*
X648600Y1287790D03*
Y882420D03*
Y1152670D03*
Y1017550D03*
X648610Y1828270D03*
X648600Y1422910D03*
Y1693140D03*
Y2098520D03*
Y1558030D03*
Y1963380D03*
Y2368750D03*
Y2638990D03*
Y2774110D03*
Y2233630D03*
X648610Y2503870D03*
X648600Y2909230D03*
Y3179470D03*
Y3044350D03*
Y3314590D03*
Y3449710D03*
Y3584830D03*
Y3990190D03*
Y4125310D03*
Y3719950D03*
Y4260430D03*
X648610Y3855070D03*
X648600Y4936030D03*
X648610Y4530670D03*
X648600Y4665800D03*
Y4800910D03*
Y4395540D03*
Y5476510D03*
Y5071140D03*
X648610Y5611620D03*
X648600Y5206270D03*
Y5746740D03*
Y5341390D03*
X1234850Y6348110D03*
Y6483230D03*
Y6753470D03*
Y6888590D03*
Y6618350D03*
X1278160Y7743100D03*
Y7878220D03*
Y7607980D03*
Y8013340D03*
X1057200Y9021110D03*
X1207060D03*
X2076150Y156820D03*
Y306680D03*
X1941030Y156820D03*
Y306680D03*
X1535670Y156820D03*
Y306680D03*
X1805910Y156820D03*
Y306680D03*
X1400550Y156820D03*
Y306680D03*
X1670790Y156820D03*
Y306680D03*
X1384710Y6348110D03*
Y6483230D03*
Y6753470D03*
Y6888590D03*
Y6618350D03*
X1428020Y7743100D03*
Y7878220D03*
Y7607980D03*
Y8013340D03*
X4173270Y1065360D03*
Y795120D03*
X4173260Y1200490D03*
Y930240D03*
Y1335600D03*
X4173270Y1470720D03*
Y1876080D03*
Y1605850D03*
Y1740960D03*
Y2011210D03*
Y2686800D03*
Y2281440D03*
Y2821920D03*
Y2551680D03*
Y2416560D03*
Y2146320D03*
Y3092160D03*
Y2957040D03*
Y3362400D03*
Y3227280D03*
Y3497520D03*
Y4038000D03*
Y3767760D03*
Y4308240D03*
Y3902880D03*
X4173260Y4173120D03*
X4173270Y3632640D03*
Y4983840D03*
Y4578480D03*
Y4848720D03*
Y4443360D03*
Y4713600D03*
Y5659440D03*
Y5389200D03*
X4173260Y5118960D03*
X4173270Y5524320D03*
Y5254080D03*
X4226420Y7808310D03*
X4076560D03*
X4226420Y7402950D03*
X4076560D03*
X4226420Y7673190D03*
X4076560D03*
X4226410Y7538070D03*
X4076550D03*
X4226420Y7943430D03*
X4076560D03*
X4226420Y8483900D03*
X4076560D03*
X4226420Y8619030D03*
X4076560D03*
X4226420Y8348790D03*
X4076560D03*
X4226420Y8213670D03*
X4076560D03*
X4226420Y8078550D03*
X4076560D03*
X4323130Y1065360D03*
Y795120D03*
X4323120Y1200490D03*
Y930240D03*
Y1335600D03*
X4323130Y1470720D03*
Y1876080D03*
Y1605850D03*
Y1740960D03*
Y2011210D03*
Y2686800D03*
Y2281440D03*
Y2821920D03*
Y2551680D03*
Y2416560D03*
Y2146320D03*
Y3092160D03*
Y2957040D03*
Y3362400D03*
Y3227280D03*
Y3497520D03*
Y4038000D03*
Y3767760D03*
Y4308240D03*
Y3902880D03*
X4323120Y4173120D03*
X4323130Y3632640D03*
Y4983840D03*
Y4578480D03*
Y4848720D03*
Y4443360D03*
Y4713600D03*
Y5659440D03*
Y5389200D03*
X4323120Y5118960D03*
X4323130Y5524320D03*
Y5254080D03*
X6990090Y1708060D03*
X7139950D03*
X6990100Y1843180D03*
X7139960D03*
X6990100Y1978300D03*
X7139960D03*
X6990090Y2653900D03*
X7139950D03*
X6990100Y2518780D03*
X7139960D03*
X6990100Y2113420D03*
X7139960D03*
X6990100Y2383660D03*
X7139960D03*
X6990100Y2248540D03*
X7139960D03*
X7146200Y7776730D03*
X7146210Y7911860D03*
X7146200Y8046980D03*
X7146210Y8317220D03*
Y8182100D03*
X7296060Y7776730D03*
X7296070Y7911860D03*
X7296060Y8046980D03*
X7296070Y8317220D03*
Y8182100D03*
X9236360Y397940D03*
Y547800D03*
X9988500Y7787000D03*
X9838640D03*
X9988490Y7922120D03*
X9838630D03*
X9988500Y8327480D03*
X9838640D03*
X9988500Y8192360D03*
X9838640D03*
X9988490Y8057240D03*
X9838630D03*
X10724070Y422260D03*
Y572120D03*
X10588950Y422260D03*
Y572120D03*
X10788010Y3665380D03*
X10638150D03*
X10788010Y3800500D03*
X10638150D03*
X10788020Y4070740D03*
X10638160D03*
X10788010Y4205860D03*
X10638150D03*
X10788020Y3935620D03*
X10638160D03*
X10788010Y4476110D03*
X10638150D03*
X10788010Y4340980D03*
X10638150D03*
X10788020Y4881460D03*
X10638160D03*
X10788010Y4746340D03*
X10638150D03*
X10788010Y4611220D03*
X10638150D03*
G54D12*
X338350Y7074880D03*
Y6820880D03*
Y6566880D03*
Y7836880D03*
Y7582880D03*
Y7328880D03*
Y8090880D03*
X884350Y7074880D03*
Y6820880D03*
Y6566880D03*
Y7836880D03*
Y7582880D03*
Y7328880D03*
Y8090880D03*
X10229950Y1634420D03*
Y1888420D03*
Y2142420D03*
Y2396420D03*
Y2650420D03*
Y2904420D03*
Y3158420D03*
X10775950Y1634420D03*
Y1888420D03*
Y2142420D03*
Y2396420D03*
Y2650420D03*
Y2904420D03*
Y3158420D03*
G54D30*
X3762560Y8920120D03*
X3762550Y9174120D03*
X4558430Y938860D03*
G54D21*
X1794730Y9365330D03*
X1997930D03*
X1591530D03*
X1794730Y9553130D03*
X1997930D03*
X1591530D03*
X1721910Y10445980D03*
Y10633780D03*
X1523790Y10445980D03*
Y10633780D03*
X1920030Y10445980D03*
Y10633780D03*
X2118150Y10445980D03*
Y10633780D03*
X3730790Y10660050D03*
Y10847850D03*
X3934190Y10487670D03*
Y10299870D03*
X3933990Y10660050D03*
Y10847850D03*
X4137390Y10487670D03*
Y10299870D03*
X4137190Y10660050D03*
Y10847850D03*
X5389840Y645410D03*
Y833210D03*
X5593040Y645410D03*
Y833210D03*
X7205680Y859480D03*
Y1047280D03*
X7409080Y499300D03*
X7612280D03*
X7408880Y859480D03*
Y1047280D03*
X7612080Y859480D03*
Y1047280D03*
X7409080Y687100D03*
X7612280D03*
G54D40*
X5111990Y8097010D03*
Y8046990D03*
Y7997010D03*
Y7946990D03*
X5412010D03*
Y7997010D03*
Y8046990D03*
Y8097010D03*
G54D22*
X1883700Y9865550D03*
X2071500D03*
G54D13*
X297080Y8718780D03*
Y8972780D03*
X3420720Y217550D03*
X3674720Y471550D03*
X3928720D03*
X4666260Y1428920D03*
X6205820Y2033650D03*
Y1525650D03*
X6459820Y2033650D03*
Y1525650D03*
X6205820Y2541650D03*
X6459820D03*
X6205820Y3049650D03*
X6459820D03*
X7092490Y1489380D03*
X9467800Y10376680D03*
X9859180Y536960D03*
X10113180D03*
X9721800Y10122680D03*
X10367180Y536960D03*
X10722900Y7178970D03*
Y7686970D03*
X10468900Y7432970D03*
Y7686970D03*
X10722900Y8194970D03*
Y8702970D03*
X10468900Y8448970D03*
X10722900Y9210970D03*
X10468900Y9464970D03*
Y8956970D03*
G54D31*
X5097630Y304410D03*
Y431410D03*
Y558410D03*
X4538630D03*
Y431410D03*
Y304410D03*
X5056980Y1351550D03*
X5097630Y685410D03*
X4538630D03*
X5056980Y1732550D03*
Y1605550D03*
Y1478550D03*
X5615980Y1351550D03*
Y1478550D03*
Y1605550D03*
Y1732550D03*
G54D32*
X5013240Y8503990D03*
Y8664010D03*
X5238240Y8503990D03*
Y8664010D03*
G54D14*
X551080Y8718780D03*
Y8972780D03*
X3420720Y471550D03*
X3674720Y217550D03*
X3928720D03*
X4666260Y1682920D03*
X6205820Y1779650D03*
X6459820D03*
X6205820Y2795650D03*
Y2287650D03*
X6459820D03*
Y2795650D03*
X6205820Y3303650D03*
X6459820D03*
X7346490Y1489380D03*
X9467800Y10122680D03*
X9859180Y790960D03*
X10113180D03*
X9721800Y10376680D03*
X10367180Y790960D03*
X10468900Y7178970D03*
X10722900Y7432970D03*
Y7940970D03*
X10468900D03*
X10722900Y8448970D03*
X10468900Y8194970D03*
Y8702970D03*
X10722900Y8956970D03*
Y9464970D03*
X10468900Y9210970D03*
G54D23*
X2382970Y462780D03*
Y9406840D03*
X8796990Y592780D03*
Y9536840D03*
G54D41*
X5262000Y8022000D03*
G54D15*
X330010Y9896970D03*
G54D42*
X5375040Y10512240D03*
X5579060D03*
X5783040D03*
X5273060Y10334240D03*
X5477050D03*
X5681060D03*
X5885050D03*
X7197460D03*
X7809450D03*
X7299440Y10512240D03*
X7503460D03*
X7707440D03*
X7401450Y10334240D03*
X7605460D03*
G54D24*
X2383130Y10593370D03*
Y10543360D03*
Y10493370D03*
Y10443380D03*
Y10393370D03*
X2728110D03*
Y10443380D03*
Y10493370D03*
Y10543360D03*
Y10593370D03*
X5858020Y592800D03*
X6203000D03*
X5858020Y792800D03*
Y742790D03*
Y692800D03*
Y642810D03*
X6203000D03*
Y692800D03*
Y742790D03*
Y792800D03*
G54D33*
X4786040Y8664010D03*
Y8503990D03*
X4593000Y8664010D03*
Y8503990D03*
G54D43*
X5171060Y10512240D03*
X7095460D03*
G54D16*
X960710Y8669100D03*
X1150710D03*
X1055710Y8879100D03*
X9417550Y729550D03*
X9512550Y519550D03*
X9607550Y729550D03*
G54D34*
X4842050Y9852220D03*
X5071030D03*
X6214060D03*
X5985050D03*
X6766450D03*
X6995430D03*
X7909450D03*
X8138460D03*
G54D25*
X2480610Y10665860D03*
X2630630D03*
X2480610Y10320880D03*
X2630630D03*
X5955500Y520310D03*
X6105520D03*
X5955500Y865290D03*
X6105520D03*
G54D26*
X2555620Y10493370D03*
X6030510Y692800D03*
G54D44*
X10144860Y10019510D03*
Y10527510D03*
X10652860Y10019510D03*
X10398860Y10273510D03*
X10652860Y10527510D03*
G54D35*
X4715050Y10423240D03*
X6639450D03*
X6341060D03*
X8265460D03*
G54D17*
X790000Y9597000D03*
Y10226920D03*
G54D45*
G01X0Y0D02*
X11000000D01*
Y-500000D01*
X0D01*
Y0D01*
G01Y200000D02*
Y10800000D01*
G02X200000Y11000000I200000J0D01*
G01X10800000D01*
G02X11000000Y10800000I0J-200000D01*
G01Y200000D01*
G02X10800000Y0I-200000J0D01*
G01X200000D01*
G02X0Y200000I0J200000D01*
G01Y11000000D02*
X11000000D01*
Y11500000D01*
X0D01*
Y11000000D01*
G54D18*
X705000Y10582000D03*
X3092000Y271000D03*
X8958000Y10671000D03*
X10249000Y253000D03*
G54D36*
X4893050Y10766240D03*
X6163050D03*
X6817450D03*
X8087450D03*
G54D27*
X3544490Y9416810D03*
Y9481830D03*
Y9546850D03*
Y9611880D03*
Y9676900D03*
Y9741930D03*
Y9806950D03*
Y9871970D03*
X4124630Y9416810D03*
Y9871970D03*
Y9806950D03*
Y9741930D03*
Y9676900D03*
Y9611880D03*
Y9546850D03*
Y9481830D03*
G54D19*
X2619980Y699790D03*
Y9169830D03*
X8559980Y829790D03*
Y9299830D03*
G54D28*
X3482940Y10541300D03*
X3058960D03*
X6533850Y740730D03*
X6957830D03*
G54D37*
X4391290Y10658800D03*
Y10518800D03*
X7831190Y689050D03*
Y829050D03*
G54D38*
X5186990Y7871990D03*
X5237010D03*
X5286990D03*
X5337010D03*
Y8172010D03*
X5286990D03*
X5237010D03*
X5186990D03*
G54D29*
X4270560Y8920120D03*
X4016560D03*
X4270550Y9174120D03*
X4016550D03*
X5066430Y938860D03*
X4812430D03*
G54D39*
X5125740Y8503990D03*
Y8664010D03*
M02*
